<?xml version="1.0" standalone="no"?>
<!DOCTYPE svg PUBLIC "-//W3C//DTD SVG 1.1//EN" "http://www.w3.org/Graphics/SVG/1.1/DTD/svg11.dtd" >
<svg xmlns="http://www.w3.org/2000/svg" xmlns:xlink="http://www.w3.org/1999/xlink" version="1.1">
<metadata>
Created by FontForge 20201107 at Tue Sep  5 09:27:08 2023
 By 
Copyright (c) 2023 by TypeType. All rights reserved.
</metadata>
<defs>
<font id="TTNeorisTrial-Lt" horiz-adv-x="556" >
  <font-face 
    font-family="TT Neoris Trial Light"
    font-weight="300"
    font-stretch="normal"
    units-per-em="1000"
    panose-1="2 11 0 3 3 0 0 2 0 4"
    ascent="800"
    descent="-200"
    x-height="496"
    cap-height="700"
    bbox="-345 -237 1480 1001"
    underline-thickness="49"
    underline-position="-149"
    unicode-range="U+000D-FB04"
  />
<missing-glyph horiz-adv-x="880" 
d="M90 0v284h45v-139h33v139h50v31h-128v126l19 -61h23l34 106l33 -106h23l54 170h-32l-34 -110l-35 110h-19l-35 -110l-31 103v157h700v-150h-110v-170h110v-91q-6 13 -19.5 20t-30.5 7q-27 0 -43.5 -14.5t-16.5 -34.5q0 -22 14.5 -32.5t39.5 -17.5q17 -5 25.5 -9.5
t8.5 -13.5q0 -21 -28 -21q-14 0 -21 7t-7 18h-33q0 -24 17 -39.5t44 -15.5q17 0 30.5 6.5t19.5 13.5v-163h-700zM301 380h33v62h24l35 -62h37l-40 67q36 17 36 50q0 22 -16 37.5t-41 15.5h-68v-170zM459 550v-170h33v170h-33zM570 519v-139h32v139h50v31h-132v-31h50z
M334 473v46h35q10 0 17 -6.5t7 -16.5q0 -12 -7.5 -17.5t-16.5 -5.5h-35zM790 483h-78v36h78v-36zM790 411h-78v41h78v-41zM377.5 167.5q22.5 24.5 22.5 61.5t-23 62t-59 25t-59 -25t-23 -62t22.5 -61.5t59.5 -24.5t59.5 24.5zM623 162q19 19 19 47v106h-32v-106
q0 -15 -9.5 -25t-25.5 -10q-17 0 -26.5 10.5t-9.5 24.5v106h-32v-106q0 -28 19.5 -47t48.5 -19t48 19zM790 224q-15 14 -46 22q-16 5 -23 9t-7 12q0 9 7.5 14.5t18.5 5.5q10 0 18 -7t8 -18h24v-38zM281.5 190q-14.5 16 -14.5 39q0 25 14 40.5t37 15.5t37 -15.5t14 -40.5
q0 -23 -14.5 -39t-36.5 -16t-36.5 16z" />
    <glyph glyph-name="f_f" unicode="ff" horiz-adv-x="604" 
d="M516 648q-32 0 -47 -17t-15 -56v-79h149v-52h-149v-444h-62v444h-216v-444h-62v444h-107v52h107v79q0 125 115 125h96v-52h-87q-32 0 -47 -17t-15 -56v-79h216v79q0 62 29 93.5t85 31.5h102v-52h-92z" />
    <glyph glyph-name="f_i" unicode="fi" horiz-adv-x="526" 
d="M176 496h276v-496h-60v444h-216v-444h-62v444h-107v52h107v79q0 125 115 125h96v-52h-87q-32 0 -47 -17t-15 -56v-79zM388 594v74h69v-74h-69z" />
    <glyph glyph-name="f_l" unicode="fl" horiz-adv-x="528" 
d="M454 700v-700h-62v648h-154q-32 0 -47 -17t-15 -56v-79h134v-52h-134v-444h-62v444h-107v52h107v79q0 125 115 125h225z" />
    <glyph glyph-name="f_f_i" unicode="ffi" horiz-adv-x="804" 
d="M454 496h276v-496h-60v444h-216v-444h-62v444h-216v-444h-62v444h-107v52h107v79q0 125 115 125h96v-52h-87q-32 0 -47 -17t-15 -56v-79h216v79q0 62 29 93.5t85 31.5h97v-52h-87q-32 0 -47 -17t-15 -56v-79zM665 594v74h69v-74h-69z" />
    <glyph glyph-name="f_f_l" unicode="ffl" horiz-adv-x="805" 
d="M731 700v-700h-61v648h-154q-32 0 -47 -17t-15 -56v-79h134v-52h-134v-444h-62v444h-216v-444h-62v444h-107v52h107v79q0 125 115 125h96v-52h-87q-32 0 -47 -17t-15 -56v-79h216v79q0 62 29 93.5t85 31.5h225z" />
    <glyph glyph-name="f_f_j" unicode="ffj" horiz-adv-x="804" 
d="M454 496h276v-571q0 -63 -28 -94t-86 -31h-55v55h45q35 0 49.5 16t14.5 54v519h-216v-444h-62v444h-216v-444h-62v444h-107v52h107v79q0 125 115 125h96v-52h-87q-32 0 -47 -17t-15 -56v-79h216v79q0 62 29 93.5t85 31.5h97v-52h-87q-32 0 -47 -17t-15 -56v-79zM665 594
v74h69v-74h-69z" />
    <glyph glyph-name="f_j" unicode="fj" horiz-adv-x="526" 
d="M176 496h276v-571q0 -63 -28 -94t-86 -31h-55v55h45q35 0 49.5 16t14.5 54v519h-216v-444h-62v444h-107v52h107v79q0 125 115 125h96v-52h-87q-32 0 -47 -17t-15 -56v-79zM388 594v74h69v-74h-69z" />
    <glyph glyph-name="uni04070407.calt" unicode="&#x407;&#x407;" horiz-adv-x="483" 
d="M82 789h-72v77h72v-77zM278 789h-72v77h72v-77zM472 789h-72v77h72v-77zM153 0h-64v700h64v-700zM394 0h-63v700h63v-700z" />
    <glyph glyph-name="uni04570457.calt" unicode="&#x457;&#x457;" horiz-adv-x="417" 
d="M69 594h-69v74h69v-74zM243 594h-69v74h69v-74zM417 594h-69v74h69v-74zM134 0h-60v496h60v-496zM343 0h-61v496h61v-496z" />
    <glyph glyph-name=".notdef" horiz-adv-x="880" 
d="M90 0v284h45v-139h33v139h50v31h-128v126l19 -61h23l34 106l33 -106h23l54 170h-32l-34 -110l-35 110h-19l-35 -110l-31 103v157h700v-150h-110v-170h110v-91q-6 13 -19.5 20t-30.5 7q-27 0 -43.5 -14.5t-16.5 -34.5q0 -22 14.5 -32.5t39.5 -17.5q17 -5 25.5 -9.5
t8.5 -13.5q0 -21 -28 -21q-14 0 -21 7t-7 18h-33q0 -24 17 -39.5t44 -15.5q17 0 30.5 6.5t19.5 13.5v-163h-700zM301 380h33v62h24l35 -62h37l-40 67q36 17 36 50q0 22 -16 37.5t-41 15.5h-68v-170zM459 550v-170h33v170h-33zM570 519v-139h32v139h50v31h-132v-31h50z
M334 473v46h35q10 0 17 -6.5t7 -16.5q0 -12 -7.5 -17.5t-16.5 -5.5h-35zM790 483h-78v36h78v-36zM790 411h-78v41h78v-41zM377.5 167.5q22.5 24.5 22.5 61.5t-23 62t-59 25t-59 -25t-23 -62t22.5 -61.5t59.5 -24.5t59.5 24.5zM623 162q19 19 19 47v106h-32v-106
q0 -15 -9.5 -25t-25.5 -10q-17 0 -26.5 10.5t-9.5 24.5v106h-32v-106q0 -28 19.5 -47t48.5 -19t48 19zM790 224q-15 14 -46 22q-16 5 -23 9t-7 12q0 9 7.5 14.5t18.5 5.5q10 0 18 -7t8 -18h24v-38zM281.5 190q-14.5 16 -14.5 39q0 25 14 40.5t37 15.5t37 -15.5t14 -40.5
q0 -23 -14.5 -39t-36.5 -16t-36.5 16z" />
    <glyph glyph-name=".null" horiz-adv-x="600" 
 />
    <glyph glyph-name="nonmarkingreturn" unicode="&#xd;" horiz-adv-x="600" 
 />
    <glyph glyph-name="space" unicode=" " horiz-adv-x="237" 
 />
    <glyph glyph-name="exclam" unicode="!" horiz-adv-x="274" 
d="M155 194h-36l-16 440v66h68v-66zM181 0h-88v89h88v-89z" />
    <glyph glyph-name="quotedbl" unicode="&#x22;" horiz-adv-x="301" 
d="M106 471h-40l-12 203v26h65v-26zM235 471h-40l-12 203v26h65v-26z" />
    <glyph glyph-name="numbersign" unicode="#" horiz-adv-x="665" 
d="M651 506l-14 -55h-125l-52 -202h125l-14 -55h-125l-49 -194h-62l50 194h-185l-49 -194h-61l49 194h-125l14 55h125l52 202h-126l14 55h126l49 194h61l-49 -194h184l50 194h61l-49 -194h125zM214 249h185l51 202h-184z" />
    <glyph glyph-name="dollar" unicode="$" horiz-adv-x="568" 
d="M472 49q-57 -53 -157 -58v-101h-59v102q-89 9 -149.5 60t-82.5 138l59 10q22 -78 77 -114.5t134 -36.5q80 0 125 36.5t45 104.5q0 46 -24.5 73t-61 41t-99.5 30q-72 18 -115.5 36t-74 55.5t-30.5 101.5q0 77 54.5 126t142.5 56v101h59v-101q82 -7 135 -53.5t73 -125.5
l-59 -10q-17 67 -63.5 99t-116.5 32q-71 0 -115.5 -32.5t-44.5 -91.5q0 -44 24.5 -71t61 -41t97.5 -29q72 -18 116 -36t75 -56.5t31 -103.5q0 -88 -57 -141z" />
    <glyph glyph-name="percent" unicode="%" horiz-adv-x="859" 
d="M99.5 339.5q-35.5 24.5 -55 69t-19.5 101.5t19.5 101.5t55 69t80.5 24.5t80.5 -24.5t55 -69t19.5 -101.5t-19.5 -101.5t-55 -69t-80.5 -24.5t-80.5 24.5zM254 0h-64l415 700h64zM252.5 403.5q26.5 39.5 26.5 106.5t-26.5 106.5t-72.5 39.5t-72.5 -39.5t-26.5 -106.5
t26.5 -106.5t72.5 -39.5t72.5 39.5zM567.5 49q-42.5 54 -42.5 141t42.5 141t111.5 54t112 -54t43 -141t-43 -141t-112 -54t-111.5 54zM752 84q27 40 27 106t-27 106t-73 40t-72.5 -39.5t-26.5 -106.5t26.5 -106.5t72.5 -39.5t73 40z" />
    <glyph glyph-name="ampersand" unicode="&#x26;" horiz-adv-x="636" 
d="M639 0h-78l-100 109q-88 -119 -219 -119q-57 0 -103 21.5t-72.5 60t-26.5 88.5q0 56 35 108t98 94l33 23l-9 10q-45 48 -64.5 87t-19.5 78q0 42 20 76.5t56 54t82 19.5t81.5 -19.5t55.5 -53.5t20 -75q0 -84 -96 -157l-39 -30l161 -175l82 130h64l-107 -171zM192.5 496.5
q17.5 -31.5 54.5 -71.5l10 -11l35 29q37 30 55.5 58.5t18.5 59.5q0 40 -26.5 67t-68.5 27t-69 -27.5t-27 -68.5q0 -31 17.5 -62.5zM423 150l-179 193l-36 -24q-106 -72 -106 -155q0 -53 40.5 -86t102.5 -33q104 0 178 105z" />
    <glyph glyph-name="quotesingle" unicode="'" horiz-adv-x="172" 
d="M106 471h-40l-12 203v26h65v-26z" />
    <glyph glyph-name="parenleft" unicode="(" horiz-adv-x="328" 
d="M268 -216q-84 89 -132.5 215.5t-48.5 260.5q0 135 48.5 261t132.5 215l43 -30q-79 -97 -119 -206.5t-40 -239.5t40 -239.5t119 -206.5z" />
    <glyph glyph-name="parenright" unicode=")" horiz-adv-x="328" 
d="M17 -186q79 97 119 206.5t40 239.5t-40 239.5t-119 206.5l42 30q84 -89 133 -215t49 -261q0 -134 -49 -260.5t-133 -215.5z" />
    <glyph glyph-name="asterisk" unicode="*" horiz-adv-x="409" 
d="M365 594l16 -56l-20 -6l-125 -23l91 -111l14 -20l-48 -34l-13 18l-75 128l-76 -128l-12 -18l-48 34l14 20l91 111l-126 23l-19 6l15 56l21 -5l121 -44l-11 134v21h59v-21l-11 -134l121 44z" />
    <glyph glyph-name="plus" unicode="+" 
d="M308 377h188v-55h-188v-193h-59v193h-189v55h189v194h59v-194z" />
    <glyph glyph-name="comma" unicode="," horiz-adv-x="186" 
d="M104 -126h-52v20l54 106h-57v89h88v-89z" />
    <glyph glyph-name="hyphen" unicode="-" horiz-adv-x="443" 
d="M391 224h-339v59h339v-59z" />
    <glyph glyph-name="hyphen" unicode="&#x2011;" horiz-adv-x="443" 
d="M391 224h-339v59h339v-59z" />
    <glyph glyph-name="hyphen" unicode="&#x2010;" horiz-adv-x="443" 
d="M391 224h-339v59h339v-59z" />
    <glyph glyph-name="period" unicode="." horiz-adv-x="186" 
d="M137 0h-88v89h88v-89z" />
    <glyph glyph-name="slash" unicode="/" horiz-adv-x="329" 
d="M64 -200h-64l265 930h64z" />
    <glyph glyph-name="zero" unicode="0" horiz-adv-x="620" 
d="M174 35q-59 45 -91.5 127t-32.5 188t32.5 188t91.5 127t136 45t136 -45t91.5 -127t32.5 -188t-32.5 -188t-91.5 -127t-136 -45t-136 45zM413 85.5q44 36.5 68 104.5t24 160t-24 160t-68 104.5t-103 36.5t-103 -36.5t-68 -104.5t-24 -160t24 -160t68 -104.5t103 -36.5
t103 36.5z" />
    <glyph glyph-name="one" unicode="1" horiz-adv-x="316" 
d="M162 0v511h-137v59h96q23 0 34 10.5t11 34.5v85h59v-700h-63z" />
    <glyph glyph-name="two" unicode="2" horiz-adv-x="522" 
d="M37 0v64l224 223q127 125 127 231q0 62 -37.5 97.5t-104.5 35.5q-66 0 -105.5 -36t-54.5 -102l-59 11q19 88 76 137t143 49q62 0 109 -24.5t72.5 -68t25.5 -99.5q0 -64 -39 -131.5t-118 -144.5l-177 -178v-5h359v-59h-441z" />
    <glyph glyph-name="three" unicode="3" horiz-adv-x="550" 
d="M458.5 294.5q34.5 -45.5 34.5 -110.5q0 -58 -28 -102t-79 -68t-118 -24q-94 0 -156 49t-87 141l59 10q39 -141 184 -141q76 0 118 37t42 102t-41.5 102.5t-112.5 37.5h-88v58h85q65 0 103.5 37t38.5 95q0 60 -39.5 96.5t-105.5 36.5q-64 0 -107.5 -34.5t-59.5 -96.5
l-59 10q22 85 81.5 132.5t144.5 47.5q61 0 109 -24t74.5 -66t26.5 -95q0 -56 -31 -99t-86 -66q63 -20 97.5 -65.5z" />
    <glyph glyph-name="four" unicode="4" horiz-adv-x="535" 
d="M408 244h98v-55h-98v-189h-64v189h-320v59l318 452h66v-456zM344 244v357h-5l-252 -357h257z" />
    <glyph glyph-name="five" unicode="5" horiz-adv-x="553" 
d="M406 424q48 -29 74 -81t26 -120q0 -69 -29 -122t-81.5 -82t-121.5 -29q-89 0 -152.5 47.5t-84.5 128.5l59 11q17 -60 64 -94t114 -34q78 0 122.5 46.5t44.5 127.5q0 79 -41 125.5t-114 46.5q-50 0 -89.5 -23t-65.5 -68h-61l33 396h380v-59h-326l-23 -260h5q26 34 67 53
t90 19q62 0 110 -29z" />
    <glyph glyph-name="six" unicode="6" horiz-adv-x="566" 
d="M118 71.5q-66 81.5 -66 242.5q0 125 31 214t88 135.5t135 46.5q75 0 129.5 -42t73.5 -116l-58 -10q-14 53 -51 81t-91 28q-90 0 -140.5 -78.5t-54.5 -232.5h5q25 53 73 83t108 30q62 0 113.5 -30t81 -83t29.5 -118q0 -66 -29.5 -119t-82 -83t-118.5 -30q-110 0 -176 81.5
zM379 71q38 22 59 61.5t21 89.5q0 49 -21.5 88.5t-59.5 62t-84 22.5q-47 0 -86 -22.5t-61.5 -62t-22.5 -88.5q0 -48 22 -88t61 -62.5t87 -22.5q47 0 85 22z" />
    <glyph glyph-name="seven" unicode="7" horiz-adv-x="479" 
d="M191 0h-66l250 636v5h-358v59h424v-62z" />
    <glyph glyph-name="eight" unicode="8" horiz-adv-x="561" 
d="M479 296.5q37 -48.5 37 -109.5q0 -57 -30.5 -101.5t-84.5 -70t-121 -25.5t-120.5 25.5t-84 70t-30.5 101.5q0 61 37.5 109.5t99.5 69.5q-53 18 -84 60.5t-31 99.5q0 53 28 95t77 65.5t108 23.5q60 0 109 -23.5t77 -65.5t28 -95q0 -57 -30.5 -99t-83.5 -61
q62 -21 99 -69.5zM173.5 426q41.5 -36 106.5 -36q66 0 107.5 36t41.5 95t-41.5 94.5t-107.5 35.5q-65 0 -106.5 -35.5t-41.5 -94.5t41.5 -95zM403.5 88q47.5 39 47.5 104q0 64 -47.5 103.5t-123.5 39.5q-75 0 -122.5 -39.5t-47.5 -103.5q0 -65 47.5 -104t122.5 -39
q76 0 123.5 39z" />
    <glyph glyph-name="nine" unicode="9" horiz-adv-x="566" 
d="M131 32q-55 42 -74 116l59 10q13 -53 51 -81t92 -28q89 0 139.5 78.5t54.5 232.5h-5q-26 -53 -74 -83t-108 -30q-62 0 -113.5 30t-81 83t-29.5 118q0 66 30 119t82.5 83t118.5 30q109 0 175 -81.5t66 -242.5q0 -126 -30.5 -215t-87 -135t-134.5 -46q-76 0 -131 42z
M359 327.5q39 22.5 61.5 62t22.5 88.5q0 48 -22 87.5t-61 62.5t-87 23t-86 -22t-59 -61.5t-21 -89.5q0 -49 21.5 -88.5t59.5 -62t85 -22.5t86 22.5z" />
    <glyph glyph-name="colon" unicode=":" horiz-adv-x="189" 
d="M139 408h-89v88h89v-88zM139 0h-89v89h89v-89z" />
    <glyph glyph-name="semicolon" unicode=";" horiz-adv-x="189" 
d="M139 408h-89v88h89v-88zM106 -126h-52v20l54 106h-58v89h89v-89z" />
    <glyph glyph-name="less" unicode="&#x3c;" 
d="M92 383l368 205v-63l-318 -175l318 -175v-63l-368 206v65z" />
    <glyph glyph-name="equal" unicode="=" 
d="M481 412h-406v56h406v-56zM481 233h-406v55h406v-55z" />
    <glyph glyph-name="greater" unicode="&#x3e;" 
d="M97 525v63l368 -205v-65l-368 -206v63l317 175z" />
    <glyph glyph-name="question" unicode="?" horiz-adv-x="486" 
d="M208 221q0 38 12 67t29 49.5t46 47.5q40 38 59.5 67t19.5 73q0 61 -39 93.5t-102 32.5q-62 0 -103.5 -33.5t-55.5 -99.5l-59 11q18 83 75 132t143 49q58 0 104.5 -22t74 -64t27.5 -99q0 -40 -12.5 -70t-30.5 -51t-48 -49q-39 -36 -58.5 -64.5t-19.5 -69.5v-30h-62v30z
M284 0h-89v89h89v-89z" />
    <glyph glyph-name="at" unicode="@" horiz-adv-x="839" 
d="M224.5 -98.5q-86.5 47.5 -134.5 134t-48 199.5q0 112 49 200t137 137t200 49q107 0 192 -45t133 -126t48 -185q0 -64 -18 -113t-50.5 -75.5t-74.5 -26.5q-39 0 -69.5 24t-37.5 62h-7q-21 -44 -57 -68t-81 -24q-48 0 -86 25.5t-59.5 70.5t-21.5 100q0 56 21 100.5t58.5 70
t84.5 25.5q41 0 74.5 -21t51.5 -59h5v70h56v-233q0 -42 18 -66t50 -24q41 0 63 42t22 120q0 90 -39.5 159t-111 107t-164.5 38q-96 0 -170.5 -42.5t-115.5 -118.5t-41 -173q0 -99 40.5 -173.5t113.5 -115t167 -40.5q51 0 93.5 10.5t69.5 31.5l10 -55q-69 -39 -173 -39
q-111 0 -197.5 47.5zM498 136q33 40 33 104t-33 104t-86 40q-52 0 -83 -39t-31 -105t31 -105t83 -39q53 0 86 40z" />
    <glyph glyph-name="A" unicode="A" horiz-adv-x="603" 
d="M588 0h-66l-66 191h-311l-66 -191h-64l246 700h81zM298 636l-134 -390h273l-134 390h-5z" />
    <glyph glyph-name="B" unicode="B" horiz-adv-x="628" 
d="M536.5 296.5q34.5 -44.5 34.5 -105.5q0 -55 -28 -98.5t-78 -68t-114 -24.5h-267v700h259q60 0 106.5 -23.5t73 -65t26.5 -93.5q0 -53 -29 -93t-83 -63q65 -21 99.5 -65.5zM149 641v-256h191q65 0 104.5 35.5t39.5 92.5q0 58 -39.5 93t-104.5 35h-191zM348 59
q73 0 115.5 36.5t42.5 98.5q0 63 -42.5 99.5t-115.5 36.5h-199v-271h199z" />
    <glyph glyph-name="C" unicode="C" horiz-adv-x="700" 
d="M204 35.5q-73 45.5 -113.5 127t-40.5 187.5t40 187.5t113 127t168 45.5q102 0 176 -54t108 -156l-60 -10q-27 79 -84.5 120t-139.5 41q-78 0 -135.5 -37t-89 -105t-31.5 -159t31.5 -159t89.5 -105t137 -37q83 0 141 41.5t86 119.5l60 -10q-35 -102 -109 -156t-178 -54
q-96 0 -169 45.5z" />
    <glyph glyph-name="D" unicode="D" horiz-adv-x="678" 
d="M84 0v700h211q99 0 174.5 -44.5t117 -124.5t41.5 -181t-41.5 -181t-117 -124.5t-174.5 -44.5h-211zM291 59q84 0 145.5 36.5t94 102.5t32.5 152q0 87 -32.5 152.5t-94 102t-145.5 36.5h-142v-582h142z" />
    <glyph glyph-name="E" unicode="E" horiz-adv-x="563" 
d="M149 326v-267h357v-59h-422v700h417v-59h-352v-257h316v-58h-316z" />
    <glyph glyph-name="F" unicode="F" horiz-adv-x="528" 
d="M491 700v-59h-342v-262h311v-58h-311v-321h-65v700h407z" />
    <glyph glyph-name="G" unicode="G" horiz-adv-x="752" 
d="M420 353h260v-353h-46l-11 144q-35 -74 -99 -114t-150 -40q-93 0 -167 45.5t-115.5 127.5t-41.5 187t41 187t116 127.5t174 45.5q105 0 180 -54t109 -156l-60 -10q-27 79 -86 120t-143 41q-81 0 -141 -37.5t-92.5 -105.5t-32.5 -158q0 -91 32.5 -159t91.5 -105t135 -37
q71 0 126 32t85 87.5t30 123.5v6h-195v55z" />
    <glyph glyph-name="H" unicode="H" horiz-adv-x="673" 
d="M524 384v316h65v-700h-65v326h-375v-326h-65v700h65v-316h375z" />
    <glyph glyph-name="I" unicode="I" horiz-adv-x="242" 
d="M153 0h-64v700h64v-700z" />
    <glyph glyph-name="J" unicode="J" horiz-adv-x="475" 
d="M75 41.5q-54 48.5 -68 133.5l59 10q11 -64 47.5 -98.5t94.5 -34.5q60 0 91.5 39t31.5 115v494h65v-494q0 -100 -50 -156.5t-138 -56.5q-79 0 -133 48.5z" />
    <glyph glyph-name="K" unicode="K" horiz-adv-x="586" 
d="M228 362l361 -362h-88l-352 353v-353h-65v700h65v-337l327 337h81z" />
    <glyph glyph-name="L" unicode="L" horiz-adv-x="496" 
d="M486 0h-402v700h65v-641h337v-59z" />
    <glyph glyph-name="M" unicode="M" horiz-adv-x="865" 
d="M148 0h-64v700h95l252 -628h5l253 628h92v-700h-64v608h-5l-245 -608h-69l-245 608h-5v-608z" />
    <glyph glyph-name="N" unicode="N" horiz-adv-x="683" 
d="M148 0h-64v700h77l370 -604h5v604h63v-700h-77l-369 604h-5v-604z" />
    <glyph glyph-name="O" unicode="O" horiz-adv-x="735" 
d="M202 35.5q-72 45.5 -112 127.5t-40 187t40 187t112 127.5t165 45.5q94 0 166 -45.5t112 -127.5t40 -187t-40 -187t-112 -127.5t-166 -45.5q-93 0 -165 45.5zM501 86q57 37 88 105.5t31 158.5t-31 158.5t-88 105.5t-134 37q-76 0 -133 -37t-88 -105.5t-31 -158.5
t31 -158.5t88 -105.5t133 -37q77 0 134 37z" />
    <glyph glyph-name="P" unicode="P" horiz-adv-x="575" 
d="M310 700q66 0 116.5 -27t79 -75t28.5 -109q0 -60 -28.5 -108t-79.5 -75t-116 -27h-161v-279h-65v700h226zM306 338q76 0 119.5 41t43.5 110q0 70 -43.5 111t-119.5 41h-157v-303h157z" />
    <glyph glyph-name="Q" unicode="Q" horiz-adv-x="735" 
d="M650 172.5q-35 -78.5 -99 -125.5l72 -111l-46 -29l-73 112q-63 -29 -137 -29q-93 0 -165 45.5t-112 127.5t-40 187t40 187t112 127.5t165 45.5q94 0 166 -45.5t112 -127.5t40 -187q0 -99 -35 -177.5zM471 70l-78 119l46 30l79 -121q49 38 75.5 103t26.5 149
q0 90 -31 158.5t-88 105.5t-134 37q-76 0 -133 -37t-88 -105.5t-31 -158.5t31 -158.5t88 -105.5t133 -37q58 0 104 21z" />
    <glyph glyph-name="R" unicode="R" horiz-adv-x="611" 
d="M583 0h-74l-189 301h-171v-301h-65v700h236q61 0 110 -26t76.5 -71.5t27.5 -102.5q0 -70 -41.5 -122t-106.5 -70zM149 641v-282h167q70 0 111.5 38.5t41.5 102.5t-41.5 102.5t-111.5 38.5h-167z" />
    <glyph glyph-name="S" unicode="S" horiz-adv-x="568" 
d="M119.5 41.5q-70.5 51.5 -95.5 148.5l59 10q22 -78 77 -114.5t134 -36.5q80 0 125 36.5t45 104.5q0 46 -24.5 73t-61 41t-99.5 30q-72 18 -115.5 36t-74 55.5t-30.5 101.5q0 55 29 96.5t80 64t116 22.5q95 0 156.5 -47t82.5 -133l-59 -10q-17 67 -63.5 99t-116.5 32
q-71 0 -115.5 -32.5t-44.5 -91.5q0 -44 24.5 -71t61 -41t97.5 -29q72 -18 116 -36t75 -56.5t31 -103.5q0 -93 -63 -146.5t-172 -53.5q-104 0 -174.5 51.5z" />
    <glyph glyph-name="T" unicode="T" horiz-adv-x="576" 
d="M321 0h-65v641h-246v59h556v-59h-245v-641z" />
    <glyph glyph-name="U" unicode="U" horiz-adv-x="658" 
d="M196.5 24.5q-56.5 34.5 -87 99t-30.5 153.5v423h65v-420q0 -112 48.5 -171.5t136.5 -59.5t136.5 59.5t48.5 171.5v420h65v-423q0 -89 -30.5 -153.5t-87 -99t-132.5 -34.5t-132.5 34.5z" />
    <glyph glyph-name="V" unicode="V" horiz-adv-x="598" 
d="M340 0h-82l-243 700h68l215 -629h5l214 629h66z" />
    <glyph glyph-name="W" unicode="W" horiz-adv-x="943" 
d="M299 0h-89l-190 700h66l167 -630h5l173 630h83l173 -630h5l167 630h64l-190 -700h-88l-171 622h-5z" />
    <glyph glyph-name="X" unicode="X" horiz-adv-x="579" 
d="M554 700l-225 -341l240 -359h-75l-203 304h-5l-203 -304h-73l240 359l-225 341h74l189 -288h5l190 288h71z" />
    <glyph glyph-name="Y" unicode="Y" horiz-adv-x="558" 
d="M312 0h-65v262l-242 438h71l202 -369h5l202 369h68l-241 -438v-262z" />
    <glyph glyph-name="Z" unicode="Z" horiz-adv-x="557" 
d="M526 0h-496v62l406 574v5h-392v59h467v-62l-406 -574v-5h421v-59z" />
    <glyph glyph-name="bracketleft" unicode="[" horiz-adv-x="311" 
d="M293 -210h-186v940h186v-55h-124v-830h124v-55z" />
    <glyph glyph-name="backslash" unicode="\" horiz-adv-x="329" 
d="M329 -200h-64l-265 930h64z" />
    <glyph glyph-name="bracketright" unicode="]" horiz-adv-x="311" 
d="M204 -210h-185v55h123v830h-123v55h185v-940z" />
    <glyph glyph-name="asciicircum" unicode="^" horiz-adv-x="361" 
d="M83 459h-58l126 241h58l126 -241h-59l-94 186h-5z" />
    <glyph glyph-name="underscore" unicode="_" horiz-adv-x="319" 
d="M339 -190h-359v55h359v-55z" />
    <glyph glyph-name="grave" unicode="`" horiz-adv-x="222" 
d="M192 565h-47l-115 146v5h69z" />
    <glyph glyph-name="a" unicode="a" horiz-adv-x="505" 
d="M488 49v-49h-32q-36 0 -56 20.5t-20 57.5v30h-5q-28 -57 -76 -87.5t-106 -30.5q-67 0 -112.5 39.5t-45.5 104.5q0 46 24 82t66 55.5t95 19.5h151v27q0 62 -33 97.5t-94 35.5q-51 0 -86.5 -25.5t-49.5 -73.5l-56 10q19 66 68 105t124 39q89 0 139 -51.5t50 -136.5v-230
q0 -39 33 -39h22zM287 68.5q39 23.5 61.5 64t22.5 91.5v15h-148q-55 0 -90.5 -27.5t-35.5 -74.5q0 -42 28.5 -67t75.5 -25t86 23.5z" />
    <glyph glyph-name="b" unicode="b" horiz-adv-x="570" 
d="M214 20q-47 30 -76 86h-5v-106h-59v700h62v-306h5q27 53 74 82.5t105 29.5q62 0 110.5 -33t75.5 -91.5t27 -133.5t-27 -133.5t-75.5 -91.5t-110.5 -33q-59 0 -106 30zM427 100q44 55 44 148t-44 148t-118 55q-50 0 -89.5 -25.5t-61.5 -72t-22 -105.5t22 -105t61.5 -72
t89.5 -26q74 0 118 55z" />
    <glyph glyph-name="c" unicode="c" horiz-adv-x="500" 
d="M147.5 22.5q-52.5 32.5 -81.5 91.5t-29 134t29 134t80.5 91.5t118.5 32.5q73 0 126.5 -39.5t76.5 -109.5l-55 -11q-17 50 -56 77.5t-92 27.5q-76 0 -121 -55t-45 -148t45.5 -148t123.5 -55q54 0 93.5 27.5t56.5 77.5l55 -10q-23 -70 -77 -110t-128 -40q-68 0 -120.5 32.5
z" />
    <glyph glyph-name="d" unicode="d" horiz-adv-x="570" 
d="M140.5 23q-48.5 33 -76 91.5t-27.5 133.5t27.5 133.5t76 91.5t109.5 33q58 0 105 -29.5t74 -82.5h5v306h62v-700h-58v106h-5q-30 -56 -77 -86t-106 -30q-61 0 -109.5 33zM350.5 71q39.5 26 61.5 72t22 105t-22 105.5t-61.5 72t-89.5 25.5q-74 0 -118 -55t-44 -148
t44 -148t118 -55q50 0 89.5 26z" />
    <glyph glyph-name="e" unicode="e" horiz-adv-x="523" 
d="M483 232h-384q5 -87 50.5 -137t120.5 -50q52 0 88.5 24t56.5 65l56 -9q-24 -63 -76.5 -99t-124.5 -36q-69 0 -121.5 32.5t-82 91.5t-29.5 134t29 134t80.5 91.5t117.5 32.5q64 0 114.5 -30.5t79 -85.5t28.5 -125q0 -13 -3 -33zM152.5 406q-43.5 -45 -51.5 -122h326
q-6 77 -50 122t-113 45q-68 0 -111.5 -45z" />
    <glyph glyph-name="f" unicode="f" horiz-adv-x="326" 
d="M238 648q-32 0 -47 -17t-15 -56v-79h149v-52h-149v-444h-62v444h-107v52h107v79q0 125 115 125h101v-52h-92z" />
    <glyph glyph-name="g" unicode="g" horiz-adv-x="560" 
d="M121 -158.5q-59 41.5 -77 114.5l55 10q13 -52 57.5 -81.5t109.5 -29.5q80 0 121.5 46t41.5 137v83h-5q-26 -53 -72 -82t-104 -29q-61 0 -109 32t-75 88.5t-27 127.5t27 127.5t75 88.5t109 32q57 0 103.5 -29t76.5 -85h5v104h58v-458q0 -112 -59.5 -175t-165.5 -63
q-86 0 -145 41.5zM347 90q39 25 60.5 69t21.5 99t-21.5 99t-60.5 69t-88 25q-72 0 -116 -53.5t-44 -139.5t44 -139.5t116 -53.5q49 0 88 25z" />
    <glyph glyph-name="h" unicode="h" horiz-adv-x="540" 
d="M74 0v700h62v-305h5q27 52 71 81.5t100 29.5q76 0 120 -53t44 -145v-308h-62v301q0 72 -31 111t-87 39q-44 0 -80.5 -24t-58 -65t-21.5 -89v-273h-62z" />
    <glyph glyph-name="i" unicode="i" horiz-adv-x="208" 
d="M134 0h-60v496h60v-496zM139 594h-69v74h69v-74z" />
    <glyph glyph-name="j" unicode="j" horiz-adv-x="208" 
d="M-35 -200v55h45q35 0 49.5 16t14.5 54v571h60v-571q0 -63 -28 -94t-86 -31h-55zM139 594h-69v74h69v-74z" />
    <glyph glyph-name="k" unicode="k" horiz-adv-x="466" 
d="M209 262l263 -262h-82l-254 253v-253h-62v700h62v-437l233 233h76z" />
    <glyph glyph-name="l" unicode="l" horiz-adv-x="210" 
d="M136 0h-62v700h62v-700z" />
    <glyph glyph-name="m" unicode="m" horiz-adv-x="822" 
d="M69 0v496h59v-99h5q24 51 66.5 80t92.5 29q52 0 88 -31.5t50 -87.5h5q61 119 170 119q73 0 113 -51.5t40 -143.5v-311h-62v305q0 72 -27 109t-79 37q-41 0 -74.5 -23t-52.5 -63t-19 -89v-276h-61v305q0 72 -27.5 109t-78.5 37q-41 0 -74.5 -23t-52.5 -63t-19 -89v-276
h-62z" />
    <glyph glyph-name="n" unicode="n" horiz-adv-x="535" 
d="M69 0v496h59v-104h5q30 55 74 84.5t100 29.5q76 0 120 -53t44 -145v-308h-62v301q0 72 -31 111t-87 39q-44 0 -80.5 -24t-58 -65t-21.5 -89v-273h-62z" />
    <glyph glyph-name="o" unicode="o" horiz-adv-x="533" 
d="M147 23q-52 33 -81 91.5t-29 133.5t29 134t81 91.5t119 32.5q68 0 120 -32.5t81 -91.5t29 -134t-29 -133.5t-81 -91.5t-120 -33q-67 0 -119 33zM388.5 100q45.5 55 45.5 148t-45.5 148t-122.5 55q-76 0 -121.5 -55.5t-45.5 -147.5t45.5 -147.5t121.5 -55.5q77 0 122.5 55
z" />
    <glyph glyph-name="p" unicode="p" horiz-adv-x="565" 
d="M69 -200v696h59v-106h5q29 56 76 86t106 30q62 0 110.5 -33t75.5 -91.5t27 -133.5t-27 -133.5t-75.5 -91.5t-110.5 -33q-59 0 -105.5 29.5t-73.5 83.5h-5v-303h-62zM422 100q44 55 44 148t-44 148t-118 55q-50 0 -89.5 -25.5t-61.5 -72t-22 -105.5t22 -105t61.5 -72
t89.5 -26q74 0 118 55z" />
    <glyph glyph-name="q" unicode="q" horiz-adv-x="565" 
d="M434 -200v303h-5q-27 -54 -73.5 -83.5t-105.5 -29.5q-61 0 -109.5 33t-76 91.5t-27.5 133.5t27.5 133.5t76 91.5t109.5 33q59 0 106 -30t77 -86h5v106h58v-696h-62zM350.5 71q39.5 26 61.5 72t22 105t-22 105.5t-61.5 72t-89.5 25.5q-74 0 -118 -55t-44 -148t44 -148
t118 -55q50 0 89.5 26z" />
    <glyph glyph-name="r" unicode="r" horiz-adv-x="338" 
d="M69 0v496h59v-104h5q57 104 158 104h42v-56h-47q-46 0 -81.5 -23t-54.5 -61.5t-19 -85.5v-270h-62z" />
    <glyph glyph-name="s" unicode="s" horiz-adv-x="445" 
d="M92 29.5q-54 39.5 -72 110.5l56 9q12 -51 52 -77.5t100 -26.5q56 0 89.5 24t33.5 67q0 30 -18 48t-45 27t-72 18q-57 12 -90 24.5t-57 40t-24 76.5q0 61 50 98.5t124 37.5t123.5 -36t65.5 -103l-56 -10q-9 46 -44.5 70t-88.5 24q-48 0 -80 -21t-32 -60q0 -29 17.5 -46.5
t43.5 -26t72 -18.5q56 -12 90 -24t58.5 -40.5t24.5 -78.5q0 -67 -51 -106.5t-134 -39.5q-82 0 -136 39.5z" />
    <glyph glyph-name="t" unicode="t" horiz-adv-x="355" 
d="M229 0q-58 0 -86.5 31t-28.5 94v319h-107v52h107l26 137h36v-137h154v-52h-154v-319q0 -37 14.5 -53.5t47.5 -16.5h97v-55h-106z" />
    <glyph glyph-name="u" unicode="u" horiz-adv-x="530" 
d="M107.5 43.5q-43.5 53.5 -43.5 145.5v307h62v-301q0 -71 30.5 -110.5t84.5 -39.5q44 0 80 24t57 65.5t21 89.5v272h62v-496h-58v104h-5q-30 -55 -74.5 -84.5t-98.5 -29.5q-74 0 -117.5 53.5z" />
    <glyph glyph-name="v" unicode="v" horiz-adv-x="473" 
d="M276 0h-79l-187 496h65l160 -438h5l160 438h63z" />
    <glyph glyph-name="w" unicode="w" horiz-adv-x="726" 
d="M240 0h-81l-144 496h63l120 -430h5l123 430h78l123 -430h5l119 430h60l-143 -496h-79l-122 428h-5z" />
    <glyph glyph-name="x" unicode="x" horiz-adv-x="449" 
d="M429 496l-167 -244l177 -252h-71l-142 204h-5l-142 -204h-69l177 251l-167 245h69l134 -198h5l134 198h67z" />
    <glyph glyph-name="y" unicode="y" horiz-adv-x="473" 
d="M246 50l155 446h62l-245 -696h-58l70 200h-38l-182 496h65l160 -446h11z" />
    <glyph glyph-name="z" unicode="z" horiz-adv-x="440" 
d="M411 0h-382v59l298 377v5h-290v55h364v-58l-298 -378v-5h308v-55z" />
    <glyph glyph-name="braceleft" unicode="{" horiz-adv-x="325" 
d="M250 -210q-58 0 -89.5 32.5t-31.5 91.5v266q0 54 -47 54h-48v52h48q47 0 47 54v266q0 59 31.5 91.5t89.5 32.5h56v-55h-51q-66 0 -66 -72v-254q0 -37 -12 -56.5t-41 -28.5v-8q29 -9 41 -28.5t12 -56.5v-254q0 -72 66 -72h51v-55h-56z" />
    <glyph glyph-name="bar" unicode="|" horiz-adv-x="276" 
d="M168 -210h-59v940h59v-940z" />
    <glyph glyph-name="braceright" unicode="}" horiz-adv-x="325" 
d="M19 -210v55h51q65 0 65 72v254q0 37 12 56.5t41 28.5v8q-29 9 -41 28.5t-12 56.5v254q0 72 -65 72h-51v55h56q58 0 89.5 -32.5t31.5 -91.5v-266q0 -54 47 -54h48v-52h-48q-47 0 -47 -54v-266q0 -59 -31.5 -91.5t-89.5 -32.5h-56z" />
    <glyph glyph-name="asciitilde" unicode="~" 
d="M69 299q0 56 27.5 91t78.5 35q33 0 59 -13.5t58 -38.5q26 -21 45.5 -31.5t40.5 -10.5q25 0 40 17.5t15 52.5v24h55v-24q0 -55 -28 -90.5t-79 -35.5q-33 0 -58.5 13.5t-57.5 38.5q-26 21 -45.5 31.5t-41.5 10.5q-25 0 -39.5 -18t-14.5 -52v-24h-55v24z" />
    <glyph glyph-name="uni00A0" unicode="&#xa0;" horiz-adv-x="237" 
 />
    <glyph glyph-name="exclamdown" unicode="&#xa1;" horiz-adv-x="274" 
d="M181 408h-88v88h88v-88zM171 -200h-68v66l16 436h36l16 -436v-66z" />
    <glyph glyph-name="cent" unicode="&#xa2;" horiz-adv-x="500" 
d="M473 140q-20 -63 -67 -102.5t-111 -46.5v-101h-55v102q-60 6 -106 40.5t-71.5 90t-25.5 125.5t25.5 126t71.5 90.5t106 40.5v101h55v-102q62 -7 107.5 -46t65.5 -101l-55 -11q-17 50 -56 77.5t-92 27.5q-76 0 -121 -55t-45 -148t45.5 -148t123.5 -55q54 0 93.5 27.5
t56.5 77.5z" />
    <glyph glyph-name="sterling" unicode="&#xa3;" horiz-adv-x="555" 
d="M128 59h370v-59h-453v62q53 41 77 82.5t24 96.5q0 11 -2 31h-99v56h85q-3 9 -20 47q-17 39 -25 65t-8 59q0 60 28 108t78 75.5t115 27.5q85 0 142 -47.5t78 -130.5l-58 -10q-39 129 -162 129q-72 0 -114 -42.5t-42 -112.5q0 -32 7.5 -57.5t22.5 -63.5q11 -26 17 -47h194
v-56h-181q2 -20 2 -31q0 -101 -76 -177v-5z" />
    <glyph glyph-name="currency" unicode="&#xa4;" horiz-adv-x="533" 
d="M409 235l72 -72l-39 -39l-73 74q-45 -31 -103 -31q-57 0 -102 31l-73 -74l-39 39l72 72q-39 50 -39 115t39 115l-72 72l39 39l73 -74q45 31 102 31q58 0 103 -31l73 74l39 -39l-72 -72q39 -50 39 -115t-39 -115zM178 258.5q34 -35.5 88 -35.5q55 0 89 35.5t34 91.5
t-34.5 92t-88.5 36t-88 -36t-34 -92t34 -91.5z" />
    <glyph glyph-name="yen" unicode="&#xa5;" horiz-adv-x="558" 
d="M480 700h68l-204 -356h119v-55h-151v-83h151v-55h-151v-151h-65v151h-152v55h152v83h-152v55h120l-205 356h70l198 -348h5z" />
    <glyph glyph-name="brokenbar" unicode="&#xa6;" horiz-adv-x="276" 
d="M168 320h-59v410h59v-410zM168 -210h-59v410h59v-410z" />
    <glyph glyph-name="section" unicode="&#xa7;" horiz-adv-x="530" 
d="M446.5 188.5q-22.5 -37.5 -61.5 -61.5q59 -42 59 -112q0 -43 -23.5 -78.5t-66.5 -56t-97 -20.5q-84 0 -139 46.5t-73 122.5l59 10q14 -57 53.5 -88.5t99.5 -31.5q56 0 89 26.5t33 68.5q0 32 -19.5 54t-47.5 35.5t-79 32.5q-57 21 -93 39t-60.5 49.5t-24.5 79.5
q0 40 23 77.5t62 61.5q-59 42 -59 112q0 43 23.5 78.5t66 56t97.5 20.5q83 0 138 -46.5t73 -122.5l-58 -10q-14 57 -54 88.5t-99 31.5q-56 0 -89 -26.5t-33 -68.5q0 -32 19 -54t47 -35.5t79 -32.5q57 -21 93 -39t60.5 -49.5t24.5 -79.5q0 -40 -22.5 -77.5zM385 201
q19 28 19 61q0 32 -19.5 54.5t-48 37t-77.5 32.5q-42 14 -70 28q-31 -17 -50 -45t-19 -61q0 -32 19.5 -54.5t48.5 -37t78 -32.5q53 -21 69 -28q31 17 50 45z" />
    <glyph glyph-name="dieresis" unicode="&#xa8;" horiz-adv-x="304" 
d="M99 594h-69v74h69v-74zM274 594h-69v74h69v-74z" />
    <glyph glyph-name="copyright" unicode="&#xa9;" horiz-adv-x="804" 
d="M220.5 36.5q-80.5 46.5 -126 128.5t-45.5 185t45.5 185t126 128.5t181.5 46.5q100 0 180.5 -46.5t126.5 -128.5t46 -185t-46 -185t-126.5 -128.5t-180.5 -46.5q-101 0 -181.5 46.5zM556.5 79q68.5 40 107.5 111t39 160t-39 160t-107.5 111t-154.5 40t-155 -40
t-107.5 -111t-38.5 -160t38.5 -160t107.5 -111t155 -40t154.5 40zM330.5 194.5q-36.5 22.5 -57.5 63t-21 92.5q0 53 20.5 93t57 62.5t82.5 22.5q51 0 88.5 -28t50.5 -79l-45 -8q-12 35 -36.5 52.5t-57.5 17.5q-49 0 -80 -35.5t-31 -97.5t31 -97t82 -35q34 0 59 17t38 52
l45 -7q-15 -51 -52.5 -79.5t-89.5 -28.5q-47 0 -83.5 22.5z" />
    <glyph glyph-name="ordfeminine" unicode="&#xaa;" horiz-adv-x="355" 
d="M336 406v-46h-21q-27 0 -43.5 15t-16.5 38v12h-5q-42 -70 -113 -70q-46 0 -77 27.5t-31 70.5q0 47 35 77t90 30h95v20q0 35 -21 55.5t-57 20.5q-63 0 -82 -56l-49 9q14 46 48.5 71t82.5 25q58 0 92.5 -34t34.5 -91v-147q0 -15 6 -21t18 -6h14zM218.5 433.5
q30.5 29.5 30.5 68.5v15h-95q-34 0 -55 -16t-21 -44q0 -26 19.5 -39.5t48.5 -13.5q42 0 72.5 29.5z" />
    <glyph glyph-name="guillemotleft" unicode="&#xab;" horiz-adv-x="485" 
d="M275 37h-70l-171 211l171 212h70l-172 -212zM456 37h-70l-171 211l171 212h70l-172 -212z" />
    <glyph glyph-name="logicalnot" unicode="&#xac;" 
d="M421 343h-346v55h401v-194h-55v139z" />
    <glyph glyph-name="uni00AD" unicode="&#xad;" horiz-adv-x="0" 
 />
    <glyph glyph-name="registered" unicode="&#xae;" horiz-adv-x="450" 
d="M328.5 699.5q45.5 -26.5 71.5 -72.5t26 -102t-26 -102t-71.5 -72.5t-103.5 -26.5t-103.5 26.5t-71.5 72.5t-26 102t26 102t71.5 72.5t103.5 26.5t103.5 -26.5zM307 384q36 21 56.5 58t20.5 83t-20.5 83t-56.5 58t-82 21t-82 -21t-56.5 -58t-20.5 -83t20.5 -83t56.5 -58
t82 -21t82 21zM295 532q-10 -14 -29 -21l49 -81h-40l-42 77h-35v-77h-36v190h76q31 0 49 -16.5t18 -40.5q0 -17 -10 -31zM198 536h38q14 0 23.5 7.5t9.5 19.5q0 13 -9.5 20t-23.5 7h-38v-54z" />
    <glyph glyph-name="macron" unicode="&#xaf;" horiz-adv-x="346" 
d="M316 609h-286v45h286v-45z" />
    <glyph glyph-name="degree" unicode="&#xb0;" horiz-adv-x="296" 
d="M58.5 510.5q-36.5 36.5 -36.5 90.5t36.5 90.5t89.5 36.5q54 0 90.5 -36.5t36.5 -90.5t-36.5 -90.5t-90.5 -36.5q-53 0 -89.5 36.5zM206 540.5q23 24.5 23 60.5t-23 60.5t-58 24.5q-34 0 -57 -24.5t-23 -60.5t23 -60.5t57 -24.5q35 0 58 24.5z" />
    <glyph glyph-name="plusminus" unicode="&#xb1;" 
d="M308 598v-180h173v-56h-173v-177h-59v177h-174v56h174v180h59zM481 45h-406v56h406v-56z" />
    <glyph glyph-name="uni00B2" unicode="&#xb2;" horiz-adv-x="298" 
d="M24 420v55l125 117q36 34 49.5 56.5t13.5 46.5q0 29 -17 45t-49 16q-65 0 -83 -67l-49 8q12 52 47 80t85 28q54 0 88 -29.5t34 -76.5q0 -34 -19.5 -66t-67.5 -76l-87 -83v-5h185v-49h-255z" />
    <glyph glyph-name="uni00B3" unicode="&#xb3;" horiz-adv-x="308" 
d="M271 580q18 -26 18 -59q0 -47 -36 -76.5t-95 -29.5q-56 0 -94.5 30.5t-49.5 82.5l49 8q7 -34 32.5 -53t62.5 -19q36 0 56 17t20 47t-20 47t-56 17h-41v46h38q32 0 50.5 16t18.5 43t-18.5 43t-50.5 16q-34 0 -56.5 -17.5t-30.5 -49.5l-50 8q12 50 48.5 79t88.5 29
q54 0 89.5 -29t35.5 -73q0 -30 -15.5 -51.5t-43.5 -33.5q32 -12 50 -38z" />
    <glyph glyph-name="acute" unicode="&#xb4;" horiz-adv-x="222" 
d="M77 565h-47l93 151h69v-5z" />
    <glyph glyph-name="uni00B5" unicode="&#xb5;" horiz-adv-x="535" 
d="M404 496h62v-496h-58v104h-5q-29 -54 -71.5 -84t-93.5 -30q-34 0 -62 14.5t-45 39.5v-244h-62v696h62v-301q0 -71 31 -110.5t86 -39.5q43 0 79 24t56.5 65.5t20.5 89.5v272z" />
    <glyph glyph-name="paragraph" unicode="&#xb6;" horiz-adv-x="517" 
d="M217 317q-53 0 -95.5 24.5t-67 68t-24.5 99.5q0 55 24.5 98.5t67 68t95.5 24.5h58v-840h-58v457zM428 -140h-58v840h58v-840z" />
    <glyph glyph-name="periodcentered" unicode="&#xb7;" horiz-adv-x="237" 
d="M163 209h-89v89h89v-89z" />
    <glyph glyph-name="cedilla" unicode="&#xb8;" horiz-adv-x="206" 
d="M108 -45q30 -2 49 -22.5t19 -50.5q0 -34 -21.5 -54.5t-58.5 -20.5t-66 19l13 36q21 -12 47 -12q40 0 40 34q0 18 -11 28t-31 10h-23v16l22 75l39 -2z" />
    <glyph glyph-name="uni00B9" unicode="&#xb9;" horiz-adv-x="203" 
d="M97 420v254h-83v47h63q24 0 24 24v55h52v-380h-56z" />
    <glyph glyph-name="ordmasculine" unicode="&#xba;" horiz-adv-x="368" 
d="M104.5 377.5q-35.5 22.5 -55.5 62.5t-20 90t20 90t55.5 62.5t79.5 22.5t80 -22.5t56 -62.5t20 -90t-20 -90t-56 -62.5t-80 -22.5t-79.5 22.5zM259 439q29 35 29 91t-29 91t-75 35t-74.5 -35t-28.5 -91t28.5 -91t74.5 -35t75 35z" />
    <glyph glyph-name="guillemotright" unicode="&#xbb;" horiz-adv-x="485" 
d="M99 37h-70l172 211l-172 212h70l171 -212zM280 37h-70l172 211l-172 212h70l171 -212z" />
    <glyph glyph-name="onequarter" unicode="&#xbc;" horiz-adv-x="690" 
d="M97 320v254h-83v47h63q24 0 24 24v55h52v-380h-56zM149 0h-64l415 700h64zM627 146h52v-49h-52v-97h-52v97h-182v49l177 234h57v-234zM575 146v160h-5l-119 -160h124z" />
    <glyph glyph-name="onehalf" unicode="&#xbd;" horiz-adv-x="724" 
d="M97 320v254h-83v47h63q24 0 24 24v55h52v-380h-56zM149 0h-64l415 700h64zM450 0v55l125 117q36 34 49.5 56.5t13.5 46.5q0 29 -17 45t-49 16q-65 0 -83 -67l-49 8q12 52 47 80t85 28q54 0 88 -29.5t34 -76.5q0 -34 -19.5 -66t-67.5 -76l-87 -83v-5h185v-49h-255z" />
    <glyph glyph-name="threequarters" unicode="&#xbe;" horiz-adv-x="775" 
d="M271 480q18 -26 18 -59q0 -47 -36 -76.5t-95 -29.5q-56 0 -94.5 30.5t-49.5 82.5l49 8q7 -34 32.5 -53t62.5 -19q36 0 56 17t20 47t-20 47t-56 17h-41v46h38q32 0 50.5 16t18.5 43t-18.5 43t-50.5 16q-34 0 -56.5 -17.5t-30.5 -49.5l-50 8q12 50 48.5 79t88.5 29
q54 0 89.5 -29t35.5 -73q0 -30 -15.5 -51.5t-43.5 -33.5q32 -12 50 -38zM234 0h-64l415 700h64zM712 146h52v-49h-52v-97h-52v97h-182v49l177 234h57v-234zM660 146v160h-5l-119 -160h124z" />
    <glyph glyph-name="questiondown" unicode="&#xbf;" horiz-adv-x="486" 
d="M298 408h-88v88h88v-88zM155.5 -178.5q-46.5 21.5 -74 63t-27.5 97.5q0 39 13 69t30.5 50t48.5 49q39 35 58.5 63t19.5 67v25h62v-25q0 -37 -12 -65.5t-29.5 -48.5t-46.5 -47q-40 -37 -59.5 -65.5t-19.5 -71.5q0 -59 39 -91t102 -32q59 0 100.5 31t58.5 92l59 -11
q-22 -79 -78 -125t-140 -46q-58 0 -104.5 21.5z" />
    <glyph glyph-name="Agrave" unicode="&#xc0;" horiz-adv-x="603" 
d="M588 0h-66l-66 191h-311l-66 -191h-64l246 700h81zM298 636l-134 -390h273l-134 390h-5zM348 764h-52l-113 141v5h74z" />
    <glyph glyph-name="Aacute" unicode="&#xc1;" horiz-adv-x="603" 
d="M588 0h-66l-66 191h-311l-66 -191h-64l246 700h81zM298 636l-134 -390h273l-134 390h-5zM307 764h-52l91 146h74v-5z" />
    <glyph glyph-name="Acircumflex" unicode="&#xc2;" horiz-adv-x="603" 
d="M588 0h-66l-66 191h-311l-66 -191h-64l246 700h81zM298 636l-134 -390h273l-134 390h-5zM327 905l132 -141h-67l-91 98l-91 -98h-66l132 141h51z" />
    <glyph glyph-name="Atilde" unicode="&#xc3;" horiz-adv-x="603" 
d="M588 0h-66l-66 191h-311l-66 -191h-64l246 700h81zM298 636l-134 -390h273l-134 390h-5zM150 787q0 43 22 68.5t59 25.5q21 0 38.5 -8t39.5 -23q17 -13 30.5 -19.5t28.5 -6.5q37 0 37 46v11h47v-11q0 -43 -22 -69t-59 -26q-22 0 -39.5 8.5t-38.5 23.5q-20 13 -32 19.5
t-27 6.5q-37 0 -37 -46v-12h-47v12z" />
    <glyph glyph-name="Adieresis" unicode="&#xc4;" horiz-adv-x="603" 
d="M588 0h-66l-66 191h-311l-66 -191h-64l246 700h81zM298 636l-134 -390h273l-134 390h-5zM245 789h-72v77h72v-77zM430 789h-72v77h72v-77z" />
    <glyph glyph-name="Aring" unicode="&#xc5;" horiz-adv-x="603" 
d="M588 0h-66l-66 191h-311l-66 -191h-64l246 700h81zM298 636l-134 -390h273l-134 390h-5zM233 774.5q-28 27.5 -28 67.5t28 67t69 27q40 0 68 -27t28 -67t-28 -67.5t-68 -27.5q-41 0 -69 27.5zM340 801.5q15 15.5 15 40.5q0 24 -15 39.5t-38 15.5q-24 0 -39 -15t-15 -40
t15 -40.5t39 -15.5q23 0 38 15.5z" />
    <glyph glyph-name="AE" unicode="&#xc6;" horiz-adv-x="905" 
d="M500 326v-267h348v-59h-409v191h-268l-102 -191h-69l377 700h466v-59h-343v-257h306v-58h-306zM410 641l-210 -395h239v395h-29z" />
    <glyph glyph-name="Ccedilla" unicode="&#xc7;" horiz-adv-x="700" 
d="M660 200q-34 -98 -104 -151.5t-168 -58.5l-11 -35q30 -2 49 -22.5t19 -50.5q0 -34 -21.5 -54.5t-58.5 -20.5t-66 19l13 36q21 -12 47 -12q40 0 40 34q0 18 -11 28t-31 10h-23v16l15 53q-89 5 -157 52t-105 126.5t-37 180.5q0 106 40 187.5t113 127t168 45.5
q102 0 176 -54t108 -156l-60 -10q-27 79 -84.5 120t-139.5 41q-78 0 -135.5 -37t-89 -105t-31.5 -159t31.5 -159t89.5 -105t137 -37q83 0 141 41.5t86 119.5z" />
    <glyph glyph-name="Egrave" unicode="&#xc8;" horiz-adv-x="563" 
d="M149 326v-267h357v-59h-422v700h417v-59h-352v-257h316v-58h-316zM339 764h-52l-113 141v5h74z" />
    <glyph glyph-name="Eacute" unicode="&#xc9;" horiz-adv-x="563" 
d="M149 326v-267h357v-59h-422v700h417v-59h-352v-257h316v-58h-316zM299 764h-52l91 146h74v-5z" />
    <glyph glyph-name="Ecircumflex" unicode="&#xca;" horiz-adv-x="563" 
d="M149 326v-267h357v-59h-422v700h417v-59h-352v-257h316v-58h-316zM318 905l132 -141h-67l-91 98l-91 -98h-66l132 141h51z" />
    <glyph glyph-name="Edieresis" unicode="&#xcb;" horiz-adv-x="563" 
d="M149 326v-267h357v-59h-422v700h417v-59h-352v-257h316v-58h-316zM236 789h-72v77h72v-77zM421 789h-72v77h72v-77z" />
    <glyph glyph-name="Igrave" unicode="&#xcc;" horiz-adv-x="242" 
d="M153 0h-64v700h64v-700zM167 764h-52l-113 141v5h74z" />
    <glyph glyph-name="Iacute" unicode="&#xcd;" horiz-adv-x="242" 
d="M153 0h-64v700h64v-700zM127 764h-52l91 146h74v-5z" />
    <glyph glyph-name="Icircumflex" unicode="&#xce;" horiz-adv-x="242" 
d="M153 0h-64v700h64v-700zM146 905l132 -141h-67l-91 98l-91 -98h-66l132 141h51z" />
    <glyph glyph-name="Idieresis" unicode="&#xcf;" horiz-adv-x="242" 
d="M153 0h-64v700h64v-700zM82 789h-72v77h72v-77zM230 789h-72v77h72v-77z" />
    <glyph glyph-name="Eth" unicode="&#xd0;" horiz-adv-x="700" 
d="M316 700q99 0 174.5 -44.5t117 -124.5t41.5 -181t-41.5 -181t-117 -124.5t-174.5 -44.5h-211v323h-98v55h98v322h211zM313 59q83 0 144.5 36.5t94 102.5t32.5 152q0 87 -32.5 152.5t-94 102t-144.5 36.5h-143v-263h191v-55h-191v-264h143z" />
    <glyph glyph-name="Ntilde" unicode="&#xd1;" horiz-adv-x="683" 
d="M148 0h-64v700h77l370 -604h5v604h63v-700h-77l-369 604h-5v-604zM191 787q0 43 22 68.5t59 25.5q21 0 38.5 -8t39.5 -23q17 -13 30.5 -19.5t28.5 -6.5q37 0 37 46v11h47v-11q0 -43 -22 -69t-59 -26q-22 0 -39.5 8.5t-38.5 23.5q-20 13 -32 19.5t-27 6.5q-37 0 -37 -46
v-12h-47v12z" />
    <glyph glyph-name="Ograve" unicode="&#xd2;" horiz-adv-x="735" 
d="M202 35.5q-72 45.5 -112 127.5t-40 187t40 187t112 127.5t165 45.5q94 0 166 -45.5t112 -127.5t40 -187t-40 -187t-112 -127.5t-166 -45.5q-93 0 -165 45.5zM501 86q57 37 88 105.5t31 158.5t-31 158.5t-88 105.5t-134 37q-76 0 -133 -37t-88 -105.5t-31 -158.5
t31 -158.5t88 -105.5t133 -37q77 0 134 37zM413 764h-52l-113 141v5h74z" />
    <glyph glyph-name="Oacute" unicode="&#xd3;" horiz-adv-x="735" 
d="M202 35.5q-72 45.5 -112 127.5t-40 187t40 187t112 127.5t165 45.5q94 0 166 -45.5t112 -127.5t40 -187t-40 -187t-112 -127.5t-166 -45.5q-93 0 -165 45.5zM501 86q57 37 88 105.5t31 158.5t-31 158.5t-88 105.5t-134 37q-76 0 -133 -37t-88 -105.5t-31 -158.5
t31 -158.5t88 -105.5t133 -37q77 0 134 37zM373 764h-52l91 146h74v-5z" />
    <glyph glyph-name="Ocircumflex" unicode="&#xd4;" horiz-adv-x="735" 
d="M202 35.5q-72 45.5 -112 127.5t-40 187t40 187t112 127.5t165 45.5q94 0 166 -45.5t112 -127.5t40 -187t-40 -187t-112 -127.5t-166 -45.5q-93 0 -165 45.5zM501 86q57 37 88 105.5t31 158.5t-31 158.5t-88 105.5t-134 37q-76 0 -133 -37t-88 -105.5t-31 -158.5
t31 -158.5t88 -105.5t133 -37q77 0 134 37zM393 905l132 -141h-67l-91 98l-91 -98h-66l132 141h51z" />
    <glyph glyph-name="Otilde" unicode="&#xd5;" horiz-adv-x="735" 
d="M202 35.5q-72 45.5 -112 127.5t-40 187t40 187t112 127.5t165 45.5q94 0 166 -45.5t112 -127.5t40 -187t-40 -187t-112 -127.5t-166 -45.5q-93 0 -165 45.5zM501 86q57 37 88 105.5t31 158.5t-31 158.5t-88 105.5t-134 37q-76 0 -133 -37t-88 -105.5t-31 -158.5
t31 -158.5t88 -105.5t133 -37q77 0 134 37zM216 787q0 43 22 68.5t59 25.5q21 0 38.5 -8t39.5 -23q17 -13 30.5 -19.5t28.5 -6.5q37 0 37 46v11h47v-11q0 -43 -22 -69t-59 -26q-22 0 -39.5 8.5t-38.5 23.5q-20 13 -32 19.5t-27 6.5q-37 0 -37 -46v-12h-47v12z" />
    <glyph glyph-name="Odieresis" unicode="&#xd6;" horiz-adv-x="735" 
d="M202 35.5q-72 45.5 -112 127.5t-40 187t40 187t112 127.5t165 45.5q94 0 166 -45.5t112 -127.5t40 -187t-40 -187t-112 -127.5t-166 -45.5q-93 0 -165 45.5zM501 86q57 37 88 105.5t31 158.5t-31 158.5t-88 105.5t-134 37q-76 0 -133 -37t-88 -105.5t-31 -158.5
t31 -158.5t88 -105.5t133 -37q77 0 134 37zM310 789h-72v77h72v-77zM495 789h-72v77h72v-77z" />
    <glyph glyph-name="multiply" unicode="&#xd7;" 
d="M278 312l-155 -155l-38 38l155 155l-155 155l38 38l155 -155l155 155l38 -38l-155 -155l155 -155l-38 -38z" />
    <glyph glyph-name="Oslash" unicode="&#xd8;" horiz-adv-x="735" 
d="M569 638q55 -48 85.5 -122.5t30.5 -165.5q0 -105 -40 -187t-112 -127.5t-166 -45.5q-87 0 -156 40l-41 -70h-64l60 102q-55 48 -85.5 122t-30.5 166q0 105 40 187t112 127.5t165 45.5q88 0 157 -40l42 70h63zM136.5 215q21.5 -60 61.5 -100l295 503q-52 33 -126 33
q-76 0 -133 -37t-88 -105.5t-31 -158.5q0 -75 21.5 -135zM501 86q57 37 88 105.5t31 158.5q0 74 -21.5 134t-60.5 100l-297 -503q55 -32 126 -32q77 0 134 37z" />
    <glyph glyph-name="Ugrave" unicode="&#xd9;" horiz-adv-x="658" 
d="M196.5 24.5q-56.5 34.5 -87 99t-30.5 153.5v423h65v-420q0 -112 48.5 -171.5t136.5 -59.5t136.5 59.5t48.5 171.5v420h65v-423q0 -89 -30.5 -153.5t-87 -99t-132.5 -34.5t-132.5 34.5zM375 764h-52l-113 141v5h74z" />
    <glyph glyph-name="Uacute" unicode="&#xda;" horiz-adv-x="658" 
d="M196.5 24.5q-56.5 34.5 -87 99t-30.5 153.5v423h65v-420q0 -112 48.5 -171.5t136.5 -59.5t136.5 59.5t48.5 171.5v420h65v-423q0 -89 -30.5 -153.5t-87 -99t-132.5 -34.5t-132.5 34.5zM335 764h-52l91 146h74v-5z" />
    <glyph glyph-name="Ucircumflex" unicode="&#xdb;" horiz-adv-x="658" 
d="M196.5 24.5q-56.5 34.5 -87 99t-30.5 153.5v423h65v-420q0 -112 48.5 -171.5t136.5 -59.5t136.5 59.5t48.5 171.5v420h65v-423q0 -89 -30.5 -153.5t-87 -99t-132.5 -34.5t-132.5 34.5zM354 905l132 -141h-67l-91 98l-91 -98h-66l132 141h51z" />
    <glyph glyph-name="Udieresis" unicode="&#xdc;" horiz-adv-x="658" 
d="M196.5 24.5q-56.5 34.5 -87 99t-30.5 153.5v423h65v-420q0 -112 48.5 -171.5t136.5 -59.5t136.5 59.5t48.5 171.5v420h65v-423q0 -89 -30.5 -153.5t-87 -99t-132.5 -34.5t-132.5 34.5zM272 789h-72v77h72v-77zM457 789h-72v77h72v-77z" />
    <glyph glyph-name="Yacute" unicode="&#xdd;" horiz-adv-x="558" 
d="M312 0h-65v262l-242 438h71l202 -369h5l202 369h68l-241 -438v-262zM287 764h-52l91 146h74v-5z" />
    <glyph glyph-name="Thorn" unicode="&#xde;" horiz-adv-x="633" 
d="M374 560q64 0 114.5 -25.5t78 -71t27.5 -103.5t-27.5 -103.5t-78 -71t-114.5 -25.5h-225v-160h-65v700h65v-140h225zM367 219q77 0 119.5 37.5t42.5 103.5t-42.5 103.5t-119.5 37.5h-218v-282h218z" />
    <glyph glyph-name="germandbls" unicode="&#xdf;" horiz-adv-x="528" 
d="M460.5 296.5q35.5 -45.5 35.5 -109.5q0 -54 -25.5 -96.5t-72 -66.5t-105.5 -24h-72v55h69q66 0 105 37.5t39 99.5t-39 99.5t-105 37.5h-65v52h46q61 0 97 37t36 100t-34.5 100t-92.5 37q-65 0 -103 -46t-38 -122v-487h-62v487q0 64 25 114.5t71 79.5t107 29q56 0 99 -24
t66.5 -66.5t23.5 -96.5q0 -56 -27.5 -99.5t-76.5 -62.5q63 -19 98.5 -64.5z" />
    <glyph glyph-name="agrave" unicode="&#xe0;" horiz-adv-x="505" 
d="M488 49v-49h-32q-36 0 -56 20.5t-20 57.5v30h-5q-28 -57 -76 -87.5t-106 -30.5q-67 0 -112.5 39.5t-45.5 104.5q0 46 24 82t66 55.5t95 19.5h151v27q0 62 -33 97.5t-94 35.5q-51 0 -86.5 -25.5t-49.5 -73.5l-56 10q19 66 68 105t124 39q89 0 139 -51.5t50 -136.5v-230
q0 -39 33 -39h22zM287 68.5q39 23.5 61.5 64t22.5 91.5v15h-148q-55 0 -90.5 -27.5t-35.5 -74.5q0 -42 28.5 -67t75.5 -25t86 23.5zM284 565h-47l-115 146v5h69z" />
    <glyph glyph-name="aacute" unicode="&#xe1;" horiz-adv-x="505" 
d="M488 49v-49h-32q-36 0 -56 20.5t-20 57.5v30h-5q-28 -57 -76 -87.5t-106 -30.5q-67 0 -112.5 39.5t-45.5 104.5q0 46 24 82t66 55.5t95 19.5h151v27q0 62 -33 97.5t-94 35.5q-51 0 -86.5 -25.5t-49.5 -73.5l-56 10q19 66 68 105t124 39q89 0 139 -51.5t50 -136.5v-230
q0 -39 33 -39h22zM287 68.5q39 23.5 61.5 64t22.5 91.5v15h-148q-55 0 -90.5 -27.5t-35.5 -74.5q0 -42 28.5 -67t75.5 -25t86 23.5zM246 565h-47l93 151h69v-5z" />
    <glyph glyph-name="acircumflex" unicode="&#xe2;" horiz-adv-x="505" 
d="M488 49v-49h-32q-36 0 -56 20.5t-20 57.5v30h-5q-28 -57 -76 -87.5t-106 -30.5q-67 0 -112.5 39.5t-45.5 104.5q0 46 24 82t66 55.5t95 19.5h151v27q0 62 -33 97.5t-94 35.5q-51 0 -86.5 -25.5t-49.5 -73.5l-56 10q19 66 68 105t124 39q89 0 139 -51.5t50 -136.5v-230
q0 -39 33 -39h22zM287 68.5q39 23.5 61.5 64t22.5 91.5v15h-148q-55 0 -90.5 -27.5t-35.5 -74.5q0 -42 28.5 -67t75.5 -25t86 23.5zM265 710l129 -145h-61l-92 104l-92 -104h-60l129 145h47z" />
    <glyph glyph-name="atilde" unicode="&#xe3;" horiz-adv-x="505" 
d="M488 49v-49h-32q-36 0 -56 20.5t-20 57.5v30h-5q-28 -57 -76 -87.5t-106 -30.5q-67 0 -112.5 39.5t-45.5 104.5q0 46 24 82t66 55.5t95 19.5h151v27q0 62 -33 97.5t-94 35.5q-51 0 -86.5 -25.5t-49.5 -73.5l-56 10q19 66 68 105t124 39q89 0 139 -51.5t50 -136.5v-230
q0 -39 33 -39h22zM287 68.5q39 23.5 61.5 64t22.5 91.5v15h-148q-55 0 -90.5 -27.5t-35.5 -74.5q0 -42 28.5 -67t75.5 -25t86 23.5zM95 592q0 41 21.5 66t57.5 25q20 0 36 -8t39 -23q19 -13 31 -19t26 -6q17 0 26 11.5t9 32.5v12h46v-12q0 -41 -21.5 -66t-57.5 -25
q-21 0 -37.5 8t-37.5 23q-19 13 -31 19t-25 6q-18 0 -27 -11.5t-9 -32.5v-12h-46v12z" />
    <glyph glyph-name="adieresis" unicode="&#xe4;" horiz-adv-x="505" 
d="M488 49v-49h-32q-36 0 -56 20.5t-20 57.5v30h-5q-28 -57 -76 -87.5t-106 -30.5q-67 0 -112.5 39.5t-45.5 104.5q0 46 24 82t66 55.5t95 19.5h151v27q0 62 -33 97.5t-94 35.5q-51 0 -86.5 -25.5t-49.5 -73.5l-56 10q19 66 68 105t124 39q89 0 139 -51.5t50 -136.5v-230
q0 -39 33 -39h22zM287 68.5q39 23.5 61.5 64t22.5 91.5v15h-148q-55 0 -90.5 -27.5t-35.5 -74.5q0 -42 28.5 -67t75.5 -25t86 23.5zM188 594h-69v74h69v-74zM363 594h-69v74h69v-74z" />
    <glyph glyph-name="aring" unicode="&#xe5;" horiz-adv-x="505" 
d="M488 49v-49h-32q-36 0 -56 20.5t-20 57.5v30h-5q-28 -57 -76 -87.5t-106 -30.5q-67 0 -112.5 39.5t-45.5 104.5q0 46 24 82t66 55.5t95 19.5h151v27q0 62 -33 97.5t-94 35.5q-51 0 -86.5 -25.5t-49.5 -73.5l-56 10q19 66 68 105t124 39q89 0 139 -51.5t50 -136.5v-230
q0 -39 33 -39h22zM287 68.5q39 23.5 61.5 64t22.5 91.5v15h-148q-55 0 -90.5 -27.5t-35.5 -74.5q0 -42 28.5 -67t75.5 -25t86 23.5zM174.5 579q-27.5 27 -27.5 67q0 41 27 68t68 27q40 0 67 -27.5t27 -67.5t-27 -67t-67 -27t-67.5 27zM279.5 606q14.5 15 14.5 40t-14.5 40.5
t-37.5 15.5t-37.5 -15.5t-14.5 -40.5t14.5 -40t37.5 -15t37.5 15z" />
    <glyph glyph-name="ae" unicode="&#xe6;" horiz-adv-x="845" 
d="M805 232h-374q4 -86 49.5 -136.5t116.5 -50.5q47 0 84 24t56 65l56 -9q-24 -63 -76.5 -99t-119.5 -36q-68 0 -120 34.5t-75 94.5q-26 -60 -79 -94.5t-119 -34.5q-76 0 -122.5 38.5t-46.5 104.5q0 44 23.5 78.5t66 53.5t95.5 19h153v34q0 62 -33 97.5t-95 35.5
q-52 0 -87.5 -25.5t-49.5 -73.5l-56 10q19 66 68 105t125 39q62 0 105.5 -28t62.5 -78q28 50 75.5 78t102.5 28q61 0 110.5 -30.5t78 -85.5t28.5 -125q0 -13 -3 -33zM485 405.5q-43 -45.5 -52 -121.5h316q-7 77 -50 122t-108 45q-63 0 -106 -45.5zM289 68q39 23 61.5 64
t22.5 92v8h-150q-56 0 -91 -26t-35 -70q0 -42 28.5 -66.5t76.5 -24.5t87 23z" />
    <glyph glyph-name="ccedilla" unicode="&#xe7;" horiz-adv-x="500" 
d="M473 140q-21 -66 -70.5 -105.5t-118.5 -43.5l-11 -36q30 -2 49 -22.5t19 -50.5q0 -34 -21.5 -54.5t-58.5 -20.5t-66 19l13 36q21 -12 47 -12q40 0 40 34q0 18 -11 28t-31 10h-23v16l16 53q-62 5 -109.5 39t-73.5 90.5t-26 127.5q0 75 29 134t80.5 91.5t118.5 32.5
q73 0 126.5 -39.5t76.5 -109.5l-55 -11q-17 50 -56 77.5t-92 27.5q-76 0 -121 -55t-45 -148t45.5 -148t123.5 -55q54 0 93.5 27.5t56.5 77.5z" />
    <glyph glyph-name="egrave" unicode="&#xe8;" horiz-adv-x="523" 
d="M483 232h-384q5 -87 50.5 -137t120.5 -50q52 0 88.5 24t56.5 65l56 -9q-24 -63 -76.5 -99t-124.5 -36q-69 0 -121.5 32.5t-82 91.5t-29.5 134t29 134t80.5 91.5t117.5 32.5q64 0 114.5 -30.5t79 -85.5t28.5 -125q0 -13 -3 -33zM152.5 406q-43.5 -45 -51.5 -122h326
q-6 77 -50 122t-113 45q-68 0 -111.5 -45zM304 565h-47l-115 146v5h69z" />
    <glyph glyph-name="eacute" unicode="&#xe9;" horiz-adv-x="523" 
d="M483 232h-384q5 -87 50.5 -137t120.5 -50q52 0 88.5 24t56.5 65l56 -9q-24 -63 -76.5 -99t-124.5 -36q-69 0 -121.5 32.5t-82 91.5t-29.5 134t29 134t80.5 91.5t117.5 32.5q64 0 114.5 -30.5t79 -85.5t28.5 -125q0 -13 -3 -33zM152.5 406q-43.5 -45 -51.5 -122h326
q-6 77 -50 122t-113 45q-68 0 -111.5 -45zM265 565h-47l93 151h69v-5z" />
    <glyph glyph-name="ecircumflex" unicode="&#xea;" horiz-adv-x="523" 
d="M483 232h-384q5 -87 50.5 -137t120.5 -50q52 0 88.5 24t56.5 65l56 -9q-24 -63 -76.5 -99t-124.5 -36q-69 0 -121.5 32.5t-82 91.5t-29.5 134t29 134t80.5 91.5t117.5 32.5q64 0 114.5 -30.5t79 -85.5t28.5 -125q0 -13 -3 -33zM152.5 406q-43.5 -45 -51.5 -122h326
q-6 77 -50 122t-113 45q-68 0 -111.5 -45zM285 710l129 -145h-61l-92 104l-92 -104h-60l129 145h47z" />
    <glyph glyph-name="edieresis" unicode="&#xeb;" horiz-adv-x="523" 
d="M483 232h-384q5 -87 50.5 -137t120.5 -50q52 0 88.5 24t56.5 65l56 -9q-24 -63 -76.5 -99t-124.5 -36q-69 0 -121.5 32.5t-82 91.5t-29.5 134t29 134t80.5 91.5t117.5 32.5q64 0 114.5 -30.5t79 -85.5t28.5 -125q0 -13 -3 -33zM152.5 406q-43.5 -45 -51.5 -122h326
q-6 77 -50 122t-113 45q-68 0 -111.5 -45zM208 594h-69v74h69v-74zM383 594h-69v74h69v-74z" />
    <glyph glyph-name="igrave" unicode="&#xec;" horiz-adv-x="208" 
d="M134 0h-60v496h60v-496zM148 565h-47l-115 146v5h69z" />
    <glyph glyph-name="iacute" unicode="&#xed;" horiz-adv-x="208" 
d="M134 0h-60v496h60v-496zM109 565h-47l93 151h69v-5z" />
    <glyph glyph-name="icircumflex" unicode="&#xee;" horiz-adv-x="208" 
d="M134 0h-60v496h60v-496zM127 710l107 -145h-56l-74 102l-74 -102h-56l107 145h46z" />
    <glyph glyph-name="idieresis" unicode="&#xef;" horiz-adv-x="208" 
d="M134 0h-60v496h60v-496zM69 594h-69v74h69v-74zM209 594h-69v74h69v-74z" />
    <glyph glyph-name="eth" unicode="&#xf0;" horiz-adv-x="527" 
d="M342 621q67 -62 104 -150t37 -200q0 -131 -59.5 -206t-162.5 -75q-64 0 -115 31t-80 87t-29 128t28 127.5t76.5 86t106.5 30.5q56 0 99.5 -26.5t66.5 -70.5h5q-20 123 -119 210l-105 -69l-23 40l90 60q-44 32 -101 57l48 25q54 -24 95 -55l94 62l24 -39zM375 96
q43 51 43 140q0 88 -44 138.5t-116 50.5q-71 0 -115 -51t-44 -138q0 -88 45.5 -139.5t116.5 -51.5t114 51z" />
    <glyph glyph-name="ntilde" unicode="&#xf1;" horiz-adv-x="535" 
d="M69 0v496h59v-104h5q30 55 74 84.5t100 29.5q76 0 120 -53t44 -145v-308h-62v301q0 72 -31 111t-87 39q-44 0 -80.5 -24t-58 -65t-21.5 -89v-273h-62zM124 592q0 41 21.5 66t57.5 25q20 0 36 -8t39 -23q19 -13 31 -19t26 -6q17 0 26 11.5t9 32.5v12h46v-12
q0 -41 -21.5 -66t-57.5 -25q-21 0 -37.5 8t-37.5 23q-19 13 -31 19t-25 6q-18 0 -27 -11.5t-9 -32.5v-12h-46v12z" />
    <glyph glyph-name="ograve" unicode="&#xf2;" horiz-adv-x="533" 
d="M147 23q-52 33 -81 91.5t-29 133.5t29 134t81 91.5t119 32.5q68 0 120 -32.5t81 -91.5t29 -134t-29 -133.5t-81 -91.5t-120 -33q-67 0 -119 33zM388.5 100q45.5 55 45.5 148t-45.5 148t-122.5 55q-76 0 -121.5 -55.5t-45.5 -147.5t45.5 -147.5t121.5 -55.5q77 0 122.5 55
zM309 565h-47l-115 146v5h69z" />
    <glyph glyph-name="oacute" unicode="&#xf3;" horiz-adv-x="533" 
d="M147 23q-52 33 -81 91.5t-29 133.5t29 134t81 91.5t119 32.5q68 0 120 -32.5t81 -91.5t29 -134t-29 -133.5t-81 -91.5t-120 -33q-67 0 -119 33zM388.5 100q45.5 55 45.5 148t-45.5 148t-122.5 55q-76 0 -121.5 -55.5t-45.5 -147.5t45.5 -147.5t121.5 -55.5q77 0 122.5 55
zM270 565h-47l93 151h69v-5z" />
    <glyph glyph-name="ocircumflex" unicode="&#xf4;" horiz-adv-x="533" 
d="M147 23q-52 33 -81 91.5t-29 133.5t29 134t81 91.5t119 32.5q68 0 120 -32.5t81 -91.5t29 -134t-29 -133.5t-81 -91.5t-120 -33q-67 0 -119 33zM388.5 100q45.5 55 45.5 148t-45.5 148t-122.5 55q-76 0 -121.5 -55.5t-45.5 -147.5t45.5 -147.5t121.5 -55.5q77 0 122.5 55
zM290 710l129 -145h-61l-92 104l-92 -104h-60l129 145h47z" />
    <glyph glyph-name="otilde" unicode="&#xf5;" horiz-adv-x="533" 
d="M147 23q-52 33 -81 91.5t-29 133.5t29 134t81 91.5t119 32.5q68 0 120 -32.5t81 -91.5t29 -134t-29 -133.5t-81 -91.5t-120 -33q-67 0 -119 33zM388.5 100q45.5 55 45.5 148t-45.5 148t-122.5 55q-76 0 -121.5 -55.5t-45.5 -147.5t45.5 -147.5t121.5 -55.5q77 0 122.5 55
zM120 592q0 41 21.5 66t57.5 25q20 0 36 -8t39 -23q19 -13 31 -19t26 -6q17 0 26 11.5t9 32.5v12h46v-12q0 -41 -21.5 -66t-57.5 -25q-21 0 -37.5 8t-37.5 23q-19 13 -31 19t-25 6q-18 0 -27 -11.5t-9 -32.5v-12h-46v12z" />
    <glyph glyph-name="odieresis" unicode="&#xf6;" horiz-adv-x="533" 
d="M147 23q-52 33 -81 91.5t-29 133.5t29 134t81 91.5t119 32.5q68 0 120 -32.5t81 -91.5t29 -134t-29 -133.5t-81 -91.5t-120 -33q-67 0 -119 33zM388.5 100q45.5 55 45.5 148t-45.5 148t-122.5 55q-76 0 -121.5 -55.5t-45.5 -147.5t45.5 -147.5t121.5 -55.5q77 0 122.5 55
zM213 594h-69v74h69v-74zM388 594h-69v74h69v-74z" />
    <glyph glyph-name="divide" unicode="&#xf7;" 
d="M316 492h-76v79h76v-79zM491 322h-426v55h426v-55zM316 129h-76v79h76v-79z" />
    <glyph glyph-name="oslash" unicode="&#xf8;" horiz-adv-x="533" 
d="M415 451q39 -34 60 -86.5t21 -116.5q0 -75 -29 -133.5t-81 -91.5t-120 -33q-58 0 -109 27l-31 -52h-56l48 80q-39 35 -60 87t-21 116q0 75 29 134t81 91.5t119 32.5q63 0 109 -27l31 52h57zM111.5 162q12.5 -39 36.5 -66l198 335q-35 20 -80 20q-76 0 -121.5 -55.5
t-45.5 -147.5q0 -47 12.5 -86zM388.5 100q45.5 55 45.5 148q0 47 -12.5 86t-36.5 66l-199 -335q35 -20 80 -20q77 0 122.5 55z" />
    <glyph glyph-name="ugrave" unicode="&#xf9;" horiz-adv-x="530" 
d="M107.5 43.5q-43.5 53.5 -43.5 145.5v307h62v-301q0 -71 30.5 -110.5t84.5 -39.5q44 0 80 24t57 65.5t21 89.5v272h62v-496h-58v104h-5q-30 -55 -74.5 -84.5t-98.5 -29.5q-74 0 -117.5 53.5zM306 565h-47l-115 146v5h69z" />
    <glyph glyph-name="uacute" unicode="&#xfa;" horiz-adv-x="530" 
d="M107.5 43.5q-43.5 53.5 -43.5 145.5v307h62v-301q0 -71 30.5 -110.5t84.5 -39.5q44 0 80 24t57 65.5t21 89.5v272h62v-496h-58v104h-5q-30 -55 -74.5 -84.5t-98.5 -29.5q-74 0 -117.5 53.5zM267 565h-47l93 151h69v-5z" />
    <glyph glyph-name="ucircumflex" unicode="&#xfb;" horiz-adv-x="530" 
d="M107.5 43.5q-43.5 53.5 -43.5 145.5v307h62v-301q0 -71 30.5 -110.5t84.5 -39.5q44 0 80 24t57 65.5t21 89.5v272h62v-496h-58v104h-5q-30 -55 -74.5 -84.5t-98.5 -29.5q-74 0 -117.5 53.5zM287 710l129 -145h-61l-92 104l-92 -104h-60l129 145h47z" />
    <glyph glyph-name="udieresis" unicode="&#xfc;" horiz-adv-x="530" 
d="M107.5 43.5q-43.5 53.5 -43.5 145.5v307h62v-301q0 -71 30.5 -110.5t84.5 -39.5q44 0 80 24t57 65.5t21 89.5v272h62v-496h-58v104h-5q-30 -55 -74.5 -84.5t-98.5 -29.5q-74 0 -117.5 53.5zM210 594h-69v74h69v-74zM385 594h-69v74h69v-74z" />
    <glyph glyph-name="yacute" unicode="&#xfd;" horiz-adv-x="473" 
d="M246 50l155 446h62l-245 -696h-58l70 200h-38l-182 496h65l160 -446h11zM242 565h-47l93 151h69v-5z" />
    <glyph glyph-name="thorn" unicode="&#xfe;" horiz-adv-x="570" 
d="M74 -200v900h62v-306h5q27 53 74 82.5t105 29.5q62 0 110.5 -33t75.5 -91.5t27 -133.5t-27 -133.5t-75.5 -91.5t-110.5 -33q-59 0 -105.5 29.5t-73.5 83.5h-5v-303h-62zM427 100q44 55 44 148t-44 148t-118 55q-50 0 -89.5 -25.5t-61.5 -72t-22 -105.5t22 -105t61.5 -72
t89.5 -26q74 0 118 55z" />
    <glyph glyph-name="ydieresis" unicode="&#xff;" horiz-adv-x="473" 
d="M246 50l155 446h62l-245 -696h-58l70 200h-38l-182 496h65l160 -446h11zM185 594h-69v74h69v-74zM360 594h-69v74h69v-74z" />
    <glyph glyph-name="Amacron" unicode="&#x100;" horiz-adv-x="603" 
d="M588 0h-66l-66 191h-311l-66 -191h-64l246 700h81zM298 636l-134 -390h273l-134 390h-5zM451 804h-298v49h298v-49z" />
    <glyph glyph-name="amacron" unicode="&#x101;" horiz-adv-x="505" 
d="M488 49v-49h-32q-36 0 -56 20.5t-20 57.5v30h-5q-28 -57 -76 -87.5t-106 -30.5q-67 0 -112.5 39.5t-45.5 104.5q0 46 24 82t66 55.5t95 19.5h151v27q0 62 -33 97.5t-94 35.5q-51 0 -86.5 -25.5t-49.5 -73.5l-56 10q19 66 68 105t124 39q89 0 139 -51.5t50 -136.5v-230
q0 -39 33 -39h22zM287 68.5q39 23.5 61.5 64t22.5 91.5v15h-148q-55 0 -90.5 -27.5t-35.5 -74.5q0 -42 28.5 -67t75.5 -25t86 23.5zM385 609h-286v45h286v-45z" />
    <glyph glyph-name="Abreve" unicode="&#x102;" horiz-adv-x="603" 
d="M588 0h-66l-66 191h-311l-66 -191h-64l246 700h81zM298 636l-134 -390h273l-134 390h-5zM198.5 800.5q-38.5 36.5 -38.5 97.5h51q0 -39 24.5 -63t65.5 -24q42 0 66 24t24 63h51q0 -61 -38.5 -97.5t-102.5 -36.5t-102.5 36.5z" />
    <glyph glyph-name="abreve" unicode="&#x103;" horiz-adv-x="505" 
d="M488 49v-49h-32q-36 0 -56 20.5t-20 57.5v30h-5q-28 -57 -76 -87.5t-106 -30.5q-67 0 -112.5 39.5t-45.5 104.5q0 46 24 82t66 55.5t95 19.5h151v27q0 62 -33 97.5t-94 35.5q-51 0 -86.5 -25.5t-49.5 -73.5l-56 10q19 66 68 105t124 39q89 0 139 -51.5t50 -136.5v-230
q0 -39 33 -39h22zM287 68.5q39 23.5 61.5 64t22.5 91.5v15h-148q-55 0 -90.5 -27.5t-35.5 -74.5q0 -42 28.5 -67t75.5 -25t86 23.5zM142.5 602q-37.5 37 -37.5 98h49q0 -41 23 -65t64 -24q42 0 64.5 23.5t22.5 65.5h49q0 -61 -37.5 -98t-98.5 -37t-98.5 37z" />
    <glyph glyph-name="Aogonek" unicode="&#x104;" horiz-adv-x="603" 
d="M574 -144l14 -35q-20 -14 -49 -14q-34 0 -54 20t-20 52q0 34 22.5 65.5t61.5 55.5h-27l-66 191h-311l-66 -191h-64l246 700h81l246 -700q-76 -62 -76 -114q0 -36 36 -36q14 0 26 6zM298 636l-134 -390h273l-134 390h-5z" />
    <glyph glyph-name="aogonek" unicode="&#x105;" horiz-adv-x="505" 
d="M488 0q-76 -62 -76 -114q0 -36 36 -36q14 0 26 6l14 -35q-20 -14 -49 -14q-34 0 -54 20t-20 52q0 34 23 65t61 56q-32 2 -50.5 22.5t-18.5 55.5v30h-5q-28 -57 -76 -87.5t-106 -30.5q-67 0 -112.5 39.5t-45.5 104.5q0 46 24 82t66 55.5t95 19.5h151v27q0 62 -33 97.5
t-94 35.5q-51 0 -86.5 -25.5t-49.5 -73.5l-56 10q19 66 68 105t124 39q89 0 139 -51.5t50 -136.5v-230q0 -39 33 -39h22v-49zM287 68.5q39 23.5 61.5 64t22.5 91.5v15h-148q-55 0 -90.5 -27.5t-35.5 -74.5q0 -42 28.5 -67t75.5 -25t86 23.5z" />
    <glyph glyph-name="Cacute" unicode="&#x106;" horiz-adv-x="700" 
d="M204 35.5q-73 45.5 -113.5 127t-40.5 187.5t40 187.5t113 127t168 45.5q102 0 176 -54t108 -156l-60 -10q-27 79 -84.5 120t-139.5 41q-78 0 -135.5 -37t-89 -105t-31.5 -159t31.5 -159t89.5 -105t137 -37q83 0 141 41.5t86 119.5l60 -10q-35 -102 -109 -156t-178 -54
q-96 0 -169 45.5zM368 764h-52l91 146h74v-5z" />
    <glyph glyph-name="cacute" unicode="&#x107;" horiz-adv-x="500" 
d="M147.5 22.5q-52.5 32.5 -81.5 91.5t-29 134t29 134t80.5 91.5t118.5 32.5q73 0 126.5 -39.5t76.5 -109.5l-55 -11q-17 50 -56 77.5t-92 27.5q-76 0 -121 -55t-45 -148t45.5 -148t123.5 -55q54 0 93.5 27.5t56.5 77.5l55 -10q-23 -70 -77 -110t-128 -40q-68 0 -120.5 32.5
zM265 565h-47l93 151h69v-5z" />
    <glyph glyph-name="Ccircumflex" unicode="&#x108;" horiz-adv-x="700" 
d="M204 35.5q-73 45.5 -113.5 127t-40.5 187.5t40 187.5t113 127t168 45.5q102 0 176 -54t108 -156l-60 -10q-27 79 -84.5 120t-139.5 41q-78 0 -135.5 -37t-89 -105t-31.5 -159t31.5 -159t89.5 -105t137 -37q83 0 141 41.5t86 119.5l60 -10q-35 -102 -109 -156t-178 -54
q-96 0 -169 45.5zM388 905l132 -141h-67l-91 98l-91 -98h-66l132 141h51z" />
    <glyph glyph-name="ccircumflex" unicode="&#x109;" horiz-adv-x="500" 
d="M147.5 22.5q-52.5 32.5 -81.5 91.5t-29 134t29 134t80.5 91.5t118.5 32.5q73 0 126.5 -39.5t76.5 -109.5l-55 -11q-17 50 -56 77.5t-92 27.5q-76 0 -121 -55t-45 -148t45.5 -148t123.5 -55q54 0 93.5 27.5t56.5 77.5l55 -10q-23 -70 -77 -110t-128 -40q-68 0 -120.5 32.5
zM285 710l129 -145h-61l-92 104l-92 -104h-60l129 145h47z" />
    <glyph glyph-name="Cdotaccent" unicode="&#x10a;" horiz-adv-x="700" 
d="M204 35.5q-73 45.5 -113.5 127t-40.5 187.5t40 187.5t113 127t168 45.5q102 0 176 -54t108 -156l-60 -10q-27 79 -84.5 120t-139.5 41q-78 0 -135.5 -37t-89 -105t-31.5 -159t31.5 -159t89.5 -105t137 -37q83 0 141 41.5t86 119.5l60 -10q-35 -102 -109 -156t-178 -54
q-96 0 -169 45.5zM398 789h-72v77h72v-77z" />
    <glyph glyph-name="cdotaccent" unicode="&#x10b;" horiz-adv-x="500" 
d="M147.5 22.5q-52.5 32.5 -81.5 91.5t-29 134t29 134t80.5 91.5t118.5 32.5q73 0 126.5 -39.5t76.5 -109.5l-55 -11q-17 50 -56 77.5t-92 27.5q-76 0 -121 -55t-45 -148t45.5 -148t123.5 -55q54 0 93.5 27.5t56.5 77.5l55 -10q-23 -70 -77 -110t-128 -40q-68 0 -120.5 32.5
zM296 594h-69v74h69v-74z" />
    <glyph glyph-name="Ccaron" unicode="&#x10c;" horiz-adv-x="700" 
d="M204 35.5q-73 45.5 -113.5 127t-40.5 187.5t40 187.5t113 127t168 45.5q102 0 176 -54t108 -156l-60 -10q-27 79 -84.5 120t-139.5 41q-78 0 -135.5 -37t-89 -105t-31.5 -159t31.5 -159t89.5 -105t137 -37q83 0 141 41.5t86 119.5l60 -10q-35 -102 -109 -156t-178 -54
q-96 0 -169 45.5zM363 806l91 99h66l-132 -141h-51l-132 141h67z" />
    <glyph glyph-name="ccaron" unicode="&#x10d;" horiz-adv-x="500" 
d="M147.5 22.5q-52.5 32.5 -81.5 91.5t-29 134t29 134t80.5 91.5t118.5 32.5q73 0 126.5 -39.5t76.5 -109.5l-55 -11q-17 50 -56 77.5t-92 27.5q-76 0 -121 -55t-45 -148t45.5 -148t123.5 -55q54 0 93.5 27.5t56.5 77.5l55 -10q-23 -70 -77 -110t-128 -40q-68 0 -120.5 32.5
zM262 606l92 104h60l-129 -145h-47l-129 145h61z" />
    <glyph glyph-name="Dcaron" unicode="&#x10e;" horiz-adv-x="678" 
d="M84 0v700h211q99 0 174.5 -44.5t117 -124.5t41.5 -181t-41.5 -181t-117 -124.5t-174.5 -44.5h-211zM291 59q84 0 145.5 36.5t94 102.5t32.5 152q0 87 -32.5 152.5t-94 102t-145.5 36.5h-142v-582h142zM332 806l91 99h66l-132 -141h-51l-132 141h67z" />
    <glyph glyph-name="dcaron" unicode="&#x10f;" horiz-adv-x="583" 
d="M140.5 23q-48.5 33 -76 91.5t-27.5 133.5t27.5 133.5t76 91.5t109.5 33q58 0 105 -29.5t74 -82.5h5v306h62v-700h-58v106h-5q-30 -56 -77 -86t-106 -30q-61 0 -109.5 33zM350.5 71q39.5 26 61.5 72t22 105t-22 105.5t-61.5 72t-89.5 25.5q-74 0 -118 -55t-44 -148
t44 -148t118 -55q50 0 89.5 26zM594 543h-40v13l36 77h-40v67h69v-67z" />
    <glyph glyph-name="Dcroat" unicode="&#x110;" horiz-adv-x="700" 
d="M316 700q99 0 174.5 -44.5t117 -124.5t41.5 -181t-41.5 -181t-117 -124.5t-174.5 -44.5h-211v323h-98v55h98v322h211zM313 59q83 0 144.5 36.5t94 102.5t32.5 152q0 87 -32.5 152.5t-94 102t-144.5 36.5h-143v-263h191v-55h-191v-264h143z" />
    <glyph glyph-name="dcroat" unicode="&#x111;" horiz-adv-x="575" 
d="M575 608v-49h-84v-559h-58v104h-5q-29 -55 -76 -84.5t-104 -29.5q-60 0 -108 32t-75.5 87.5t-27.5 125.5q0 69 27.5 124.5t75.5 87t108 31.5q58 0 104 -28.5t72 -82.5h5v192h-153v49h153v92h62v-92h84zM346.5 70q38.5 25 60.5 68.5t22 96.5t-22 95.5t-60.5 67.5t-87.5 25
q-72 0 -116 -52t-44 -136q0 -85 44 -137.5t116 -52.5q49 0 87.5 25z" />
    <glyph glyph-name="Emacron" unicode="&#x112;" horiz-adv-x="563" 
d="M149 326v-267h357v-59h-422v700h417v-59h-352v-257h316v-58h-316zM442 804h-298v49h298v-49z" />
    <glyph glyph-name="emacron" unicode="&#x113;" horiz-adv-x="523" 
d="M483 232h-384q5 -87 50.5 -137t120.5 -50q52 0 88.5 24t56.5 65l56 -9q-24 -63 -76.5 -99t-124.5 -36q-69 0 -121.5 32.5t-82 91.5t-29.5 134t29 134t80.5 91.5t117.5 32.5q64 0 114.5 -30.5t79 -85.5t28.5 -125q0 -13 -3 -33zM152.5 406q-43.5 -45 -51.5 -122h326
q-6 77 -50 122t-113 45q-68 0 -111.5 -45zM404 609h-286v45h286v-45z" />
    <glyph glyph-name="Ebreve" unicode="&#x114;" horiz-adv-x="563" 
d="M149 326v-267h357v-59h-422v700h417v-59h-352v-257h316v-58h-316zM190.5 800.5q-38.5 36.5 -38.5 97.5h51q0 -39 24.5 -63t65.5 -24q42 0 66 24t24 63h51q0 -61 -38.5 -97.5t-102.5 -36.5t-102.5 36.5z" />
    <glyph glyph-name="ebreve" unicode="&#x115;" horiz-adv-x="523" 
d="M483 232h-384q5 -87 50.5 -137t120.5 -50q52 0 88.5 24t56.5 65l56 -9q-24 -63 -76.5 -99t-124.5 -36q-69 0 -121.5 32.5t-82 91.5t-29.5 134t29 134t80.5 91.5t117.5 32.5q64 0 114.5 -30.5t79 -85.5t28.5 -125q0 -13 -3 -33zM152.5 406q-43.5 -45 -51.5 -122h326
q-6 77 -50 122t-113 45q-68 0 -111.5 -45zM162.5 602q-37.5 37 -37.5 98h49q0 -41 23 -65t64 -24q42 0 64.5 23.5t22.5 65.5h49q0 -61 -37.5 -98t-98.5 -37t-98.5 37z" />
    <glyph glyph-name="Edotaccent" unicode="&#x116;" horiz-adv-x="563" 
d="M149 326v-267h357v-59h-422v700h417v-59h-352v-257h316v-58h-316zM329 789h-72v77h72v-77z" />
    <glyph glyph-name="edotaccent" unicode="&#x117;" horiz-adv-x="523" 
d="M483 232h-384q5 -87 50.5 -137t120.5 -50q52 0 88.5 24t56.5 65l56 -9q-24 -63 -76.5 -99t-124.5 -36q-69 0 -121.5 32.5t-82 91.5t-29.5 134t29 134t80.5 91.5t117.5 32.5q64 0 114.5 -30.5t79 -85.5t28.5 -125q0 -13 -3 -33zM152.5 406q-43.5 -45 -51.5 -122h326
q-6 77 -50 122t-113 45q-68 0 -111.5 -45zM296 594h-69v74h69v-74z" />
    <glyph glyph-name="Eogonek" unicode="&#x118;" horiz-adv-x="563" 
d="M493 -144l14 -35q-20 -14 -49 -14q-34 0 -54 20t-20 52q0 34 22.5 65.5t61.5 55.5h-384v700h417v-59h-352v-257h316v-58h-316v-267h357v-59h1q-76 -62 -76 -114q0 -36 36 -36q14 0 26 6z" />
    <glyph glyph-name="eogonek" unicode="&#x119;" horiz-adv-x="523" 
d="M483 232h-384q5 -87 50.5 -137t120.5 -50q52 0 88.5 24t56.5 65l56 -9q-11 -31 -30.5 -57t-50.5 -59q-36 -39 -53.5 -65.5t-17.5 -57.5q0 -36 36 -36q14 0 26 6l14 -35q-20 -14 -49 -14q-34 0 -54 20t-20 52q0 62 74 124q-36 -13 -76 -13q-69 0 -121.5 32.5t-82 91.5
t-29.5 134t29 134t80.5 91.5t117.5 32.5q64 0 114.5 -30.5t79 -85.5t28.5 -125q0 -13 -3 -33zM152.5 406q-43.5 -45 -51.5 -122h326q-6 77 -50 122t-113 45q-68 0 -111.5 -45z" />
    <glyph glyph-name="Ecaron" unicode="&#x11a;" horiz-adv-x="563" 
d="M149 326v-267h357v-59h-422v700h417v-59h-352v-257h316v-58h-316zM293 806l91 99h66l-132 -141h-51l-132 141h67z" />
    <glyph glyph-name="ecaron" unicode="&#x11b;" horiz-adv-x="523" 
d="M483 232h-384q5 -87 50.5 -137t120.5 -50q52 0 88.5 24t56.5 65l56 -9q-24 -63 -76.5 -99t-124.5 -36q-69 0 -121.5 32.5t-82 91.5t-29.5 134t29 134t80.5 91.5t117.5 32.5q64 0 114.5 -30.5t79 -85.5t28.5 -125q0 -13 -3 -33zM152.5 406q-43.5 -45 -51.5 -122h326
q-6 77 -50 122t-113 45q-68 0 -111.5 -45zM262 606l92 104h60l-129 -145h-47l-129 145h61z" />
    <glyph glyph-name="Gcircumflex" unicode="&#x11c;" horiz-adv-x="752" 
d="M420 353h260v-353h-46l-11 144q-35 -74 -99 -114t-150 -40q-93 0 -167 45.5t-115.5 127.5t-41.5 187t41 187t116 127.5t174 45.5q105 0 180 -54t109 -156l-60 -10q-27 79 -86 120t-143 41q-81 0 -141 -37.5t-92.5 -105.5t-32.5 -158q0 -91 32.5 -159t91.5 -105t135 -37
q71 0 126 32t85 87.5t30 123.5v6h-195v55zM398 905l132 -141h-67l-91 98l-91 -98h-66l132 141h51z" />
    <glyph glyph-name="gcircumflex" unicode="&#x11d;" horiz-adv-x="560" 
d="M121 -158.5q-59 41.5 -77 114.5l55 10q13 -52 57.5 -81.5t109.5 -29.5q80 0 121.5 46t41.5 137v83h-5q-26 -53 -72 -82t-104 -29q-61 0 -109 32t-75 88.5t-27 127.5t27 127.5t75 88.5t109 32q57 0 103.5 -29t76.5 -85h5v104h58v-458q0 -112 -59.5 -175t-165.5 -63
q-86 0 -145 41.5zM347 90q39 25 60.5 69t21.5 99t-21.5 99t-60.5 69t-88 25q-72 0 -116 -53.5t-44 -139.5t44 -139.5t116 -53.5q49 0 88 25zM284 710l129 -145h-61l-92 104l-92 -104h-60l129 145h47z" />
    <glyph glyph-name="Gbreve" unicode="&#x11e;" horiz-adv-x="752" 
d="M420 353h260v-353h-46l-11 144q-35 -74 -99 -114t-150 -40q-93 0 -167 45.5t-115.5 127.5t-41.5 187t41 187t116 127.5t174 45.5q105 0 180 -54t109 -156l-60 -10q-27 79 -86 120t-143 41q-81 0 -141 -37.5t-92.5 -105.5t-32.5 -158q0 -91 32.5 -159t91.5 -105t135 -37
q71 0 126 32t85 87.5t30 123.5v6h-195v55zM269.5 800.5q-38.5 36.5 -38.5 97.5h51q0 -39 24.5 -63t65.5 -24q42 0 66 24t24 63h51q0 -61 -38.5 -97.5t-102.5 -36.5t-102.5 36.5z" />
    <glyph glyph-name="gbreve" unicode="&#x11f;" horiz-adv-x="560" 
d="M121 -158.5q-59 41.5 -77 114.5l55 10q13 -52 57.5 -81.5t109.5 -29.5q80 0 121.5 46t41.5 137v83h-5q-26 -53 -72 -82t-104 -29q-61 0 -109 32t-75 88.5t-27 127.5t27 127.5t75 88.5t109 32q57 0 103.5 -29t76.5 -85h5v104h58v-458q0 -112 -59.5 -175t-165.5 -63
q-86 0 -145 41.5zM347 90q39 25 60.5 69t21.5 99t-21.5 99t-60.5 69t-88 25q-72 0 -116 -53.5t-44 -139.5t44 -139.5t116 -53.5q49 0 88 25zM161.5 602q-37.5 37 -37.5 98h49q0 -41 23 -65t64 -24q42 0 64.5 23.5t22.5 65.5h49q0 -61 -37.5 -98t-98.5 -37t-98.5 37z" />
    <glyph glyph-name="Gdotaccent" unicode="&#x120;" horiz-adv-x="752" 
d="M420 353h260v-353h-46l-11 144q-35 -74 -99 -114t-150 -40q-93 0 -167 45.5t-115.5 127.5t-41.5 187t41 187t116 127.5t174 45.5q105 0 180 -54t109 -156l-60 -10q-27 79 -86 120t-143 41q-81 0 -141 -37.5t-92.5 -105.5t-32.5 -158q0 -91 32.5 -159t91.5 -105t135 -37
q71 0 126 32t85 87.5t30 123.5v6h-195v55zM408 789h-72v77h72v-77z" />
    <glyph glyph-name="gdotaccent" unicode="&#x121;" horiz-adv-x="560" 
d="M121 -158.5q-59 41.5 -77 114.5l55 10q13 -52 57.5 -81.5t109.5 -29.5q80 0 121.5 46t41.5 137v83h-5q-26 -53 -72 -82t-104 -29q-61 0 -109 32t-75 88.5t-27 127.5t27 127.5t75 88.5t109 32q57 0 103.5 -29t76.5 -85h5v104h58v-458q0 -112 -59.5 -175t-165.5 -63
q-86 0 -145 41.5zM347 90q39 25 60.5 69t21.5 99t-21.5 99t-60.5 69t-88 25q-72 0 -116 -53.5t-44 -139.5t44 -139.5t116 -53.5q49 0 88 25zM295 594h-69v74h69v-74z" />
    <glyph glyph-name="uni0122" unicode="&#x122;" horiz-adv-x="752" 
d="M420 353h260v-353h-46l-11 144q-35 -74 -99 -114t-150 -40q-93 0 -167 45.5t-115.5 127.5t-41.5 187t41 187t116 127.5t174 45.5q105 0 180 -54t109 -156l-60 -10q-27 79 -86 120t-143 41q-81 0 -141 -37.5t-92.5 -105.5t-32.5 -158q0 -91 32.5 -159t91.5 -105t135 -37
q71 0 126 32t85 87.5t30 123.5v6h-195v55zM386 -233h-40v13l36 77h-40v68h69v-68z" />
    <glyph glyph-name="uni0123" unicode="&#x123;" horiz-adv-x="560" 
d="M121 -158.5q-59 41.5 -77 114.5l55 10q13 -52 57.5 -81.5t109.5 -29.5q80 0 121.5 46t41.5 137v83h-5q-26 -53 -72 -82t-104 -29q-61 0 -109 32t-75 88.5t-27 127.5t27 127.5t75 88.5t109 32q57 0 103.5 -29t76.5 -85h5v104h58v-458q0 -112 -59.5 -175t-165.5 -63
q-86 0 -145 41.5zM347 90q39 25 60.5 69t21.5 99t-21.5 99t-60.5 69t-88 25q-72 0 -116 -53.5t-44 -139.5t44 -139.5t116 -53.5q49 0 88 25zM295 575h-69v68l25 90h40v-14l-36 -76h40v-68z" />
    <glyph glyph-name="Hcircumflex" unicode="&#x124;" horiz-adv-x="673" 
d="M524 384v316h65v-700h-65v326h-375v-326h-65v700h65v-316h375zM362 905l132 -141h-67l-91 98l-91 -98h-66l132 141h51z" />
    <glyph glyph-name="hcircumflex" unicode="&#x125;" horiz-adv-x="540" 
d="M74 0v700h62v-305h5q27 52 71 81.5t100 29.5q76 0 120 -53t44 -145v-308h-62v301q0 72 -31 111t-87 39q-44 0 -80.5 -24t-58 -65t-21.5 -89v-273h-62zM301 905l132 -141h-67l-91 98l-91 -98h-66l132 141h51z" />
    <glyph glyph-name="Hbar" unicode="&#x126;" horiz-adv-x="716" 
d="M611 563h98v-56h-98v-507h-65v326h-376v-326h-65v507h-98v56h98v137h65v-137h376v137h65v-137zM170 507v-123h376v123h-376z" />
    <glyph glyph-name="hbar" unicode="&#x127;" horiz-adv-x="550" 
d="M442 425q44 -53 44 -145v-280h-62v273q0 71 -31 110.5t-87 39.5q-44 0 -80.5 -24t-58 -65t-21.5 -89v-245h-62v559h-84v49h84v92h62v-92h153v-49h-153v-192h5q27 52 71 81.5t100 29.5q76 0 120 -53z" />
    <glyph glyph-name="Itilde" unicode="&#x128;" horiz-adv-x="242" 
d="M153 0h-64v700h64v-700zM-30 787q0 43 22 68.5t59 25.5q21 0 38.5 -8t39.5 -23q17 -13 30.5 -19.5t28.5 -6.5q37 0 37 46v11h47v-11q0 -43 -22 -69t-59 -26q-22 0 -39.5 8.5t-38.5 23.5q-20 13 -32 19.5t-27 6.5q-37 0 -37 -46v-12h-47v12z" />
    <glyph glyph-name="itilde" unicode="&#x129;" horiz-adv-x="208" 
d="M134 0h-60v496h60v-496zM-32 592q0 41 21 66t55 25q20 0 34 -7.5t34 -23.5q14 -12 25 -18.5t23 -6.5q16 0 25 11.5t9 32.5v12h46v-12q0 -41 -21 -66t-55 -25q-20 0 -34.5 8t-33.5 24q-16 13 -25.5 18.5t-21.5 5.5q-17 0 -26 -11.5t-9 -32.5v-12h-46v12z" />
    <glyph glyph-name="Imacron" unicode="&#x12a;" horiz-adv-x="242" 
d="M153 0h-64v700h64v-700zM270 804h-298v49h298v-49z" />
    <glyph glyph-name="imacron" unicode="&#x12b;" horiz-adv-x="208" 
d="M134 0h-60v496h60v-496zM233 609h-256v45h256v-45z" />
    <glyph glyph-name="Ibreve" unicode="&#x12c;" horiz-adv-x="242" 
d="M153 0h-64v700h64v-700zM18.5 800.5q-38.5 36.5 -38.5 97.5h51q0 -39 24.5 -63t65.5 -24q42 0 66 24t24 63h51q0 -61 -38.5 -97.5t-102.5 -36.5t-102.5 36.5z" />
    <glyph glyph-name="ibreve" unicode="&#x12d;" horiz-adv-x="208" 
d="M134 0h-60v496h60v-496zM13 602.5q-35 37.5 -35 97.5h49q0 -42 20.5 -65.5t56.5 -23.5t56.5 23.5t20.5 65.5h49q0 -60 -35 -97.5t-91 -37.5t-91 37.5z" />
    <glyph glyph-name="Iogonek" unicode="&#x12e;" horiz-adv-x="242" 
d="M153 0q-34 -32 -50.5 -59.5t-16.5 -54.5q0 -17 9 -26.5t23 -9.5q12 0 21 5l14 -35q-19 -13 -43 -13q-31 0 -50.5 20t-19.5 52q0 34 21.5 65t57.5 56h-30v700h64v-700z" />
    <glyph glyph-name="iogonek" unicode="&#x12f;" horiz-adv-x="208" 
d="M70 594v74h69v-74h-69zM135 0q-34 -32 -50.5 -59.5t-16.5 -54.5q0 -17 9 -26.5t23 -9.5q12 0 21 5l14 -35q-19 -13 -43 -13q-31 0 -50.5 20t-19.5 52q0 34 21.5 65t57.5 56h-27v496h60v-496h1z" />
    <glyph glyph-name="Idotaccent" unicode="&#x130;" horiz-adv-x="242" 
d="M153 0h-64v700h64v-700zM157 789h-72v77h72v-77z" />
    <glyph glyph-name="dotlessi" unicode="&#x131;" horiz-adv-x="208" 
d="M134 0h-60v496h60v-496z" />
    <glyph glyph-name="IJ" unicode="&#x132;" horiz-adv-x="716" 
d="M153 0h-64v700h64v-700zM317 41.5q-54 48.5 -68 133.5l59 10q11 -64 47.5 -98.5t94.5 -34.5q60 0 91.5 39t31.5 115v494h65v-494q0 -100 -50 -156.5t-138 -56.5q-79 0 -133 48.5z" />
    <glyph glyph-name="ij" unicode="&#x133;" horiz-adv-x="416" 
d="M134 0h-60v496h60v-496zM139 594h-69v74h69v-74zM173 -200v55h45q35 0 49.5 16t14.5 54v571h60v-571q0 -63 -28 -94t-86 -31h-55zM347 594h-69v74h69v-74z" />
    <glyph glyph-name="Jcircumflex" unicode="&#x134;" horiz-adv-x="475" 
d="M75 41.5q-54 48.5 -68 133.5l59 10q11 -64 47.5 -98.5t94.5 -34.5q60 0 91.5 39t31.5 115v494h65v-494q0 -100 -50 -156.5t-138 -56.5q-79 0 -133 48.5zM389 905l132 -141h-67l-91 98l-91 -98h-66l132 141h51z" />
    <glyph glyph-name="jcircumflex" unicode="&#x135;" horiz-adv-x="208" 
d="M-35 -200v55h45q35 0 49.5 16t14.5 54v571h60v-571q0 -63 -28 -94t-86 -31h-55zM127 710l107 -145h-56l-74 102l-74 -102h-56l107 145h46z" />
    <glyph glyph-name="uni0136" unicode="&#x136;" horiz-adv-x="586" 
d="M228 362l361 -362h-88l-352 353v-353h-65v700h65v-337l327 337h81zM324 -233h-40v13l36 77h-40v68h69v-68z" />
    <glyph glyph-name="uni0137" unicode="&#x137;" horiz-adv-x="466" 
d="M209 262l263 -262h-82l-254 253v-253h-62v700h62v-437l233 233h76zM271 -233h-40v13l36 77h-40v68h69v-68z" />
    <glyph glyph-name="Lacute" unicode="&#x139;" horiz-adv-x="496" 
d="M486 0h-402v700h65v-641h337v-59zM122 764h-52l91 146h74v-5z" />
    <glyph glyph-name="lacute" unicode="&#x13a;" horiz-adv-x="210" 
d="M136 0h-62v700h62v-700zM111 764h-52l91 146h74v-5z" />
    <glyph glyph-name="uni013B" unicode="&#x13b;" horiz-adv-x="496" 
d="M486 0h-402v700h65v-641h337v-59zM295 -233h-40v13l36 77h-40v68h69v-68z" />
    <glyph glyph-name="uni013C" unicode="&#x13c;" horiz-adv-x="210" 
d="M136 0h-62v700h62v-700zM115 -233h-40v13l36 77h-40v68h69v-68z" />
    <glyph glyph-name="Lcaron" unicode="&#x13d;" horiz-adv-x="496" 
d="M486 0h-402v700h65v-641h337v-59zM276 543h-40v13l36 77h-40v67h69v-67z" />
    <glyph glyph-name="lcaron" unicode="&#x13e;" horiz-adv-x="223" 
d="M136 0h-62v700h62v-700zM234 543h-40v13l36 77h-40v67h69v-67z" />
    <glyph glyph-name="Ldot" unicode="&#x13f;" horiz-adv-x="496" 
d="M486 0h-402v700h65v-641h337v-59zM409 321h-89v89h89v-89z" />
    <glyph glyph-name="ldot" unicode="&#x140;" horiz-adv-x="308" 
d="M136 0h-62v700h62v-700zM303 311h-89v89h89v-89z" />
    <glyph glyph-name="Lslash" unicode="&#x141;" horiz-adv-x="518" 
d="M170 306v-247h338v-59h-403v275l-98 -47v60l98 47v365h65v-334l174 83v-60z" />
    <glyph glyph-name="lslash" unicode="&#x142;" horiz-adv-x="273" 
d="M167 392l89 52v-56l-89 -52v-336h-62v300l-88 -51v56l88 51v344h62v-308z" />
    <glyph glyph-name="Nacute" unicode="&#x143;" horiz-adv-x="683" 
d="M148 0h-64v700h77l370 -604h5v604h63v-700h-77l-369 604h-5v-604zM348 764h-52l91 146h74v-5z" />
    <glyph glyph-name="nacute" unicode="&#x144;" horiz-adv-x="535" 
d="M69 0v496h59v-104h5q30 55 74 84.5t100 29.5q76 0 120 -53t44 -145v-308h-62v301q0 72 -31 111t-87 39q-44 0 -80.5 -24t-58 -65t-21.5 -89v-273h-62zM274 565h-47l93 151h69v-5z" />
    <glyph glyph-name="uni0145" unicode="&#x145;" horiz-adv-x="683" 
d="M148 0h-64v700h77l370 -604h5v604h63v-700h-77l-369 604h-5v-604zM351 -233h-40v13l36 77h-40v68h69v-68z" />
    <glyph glyph-name="uni0146" unicode="&#x146;" horiz-adv-x="535" 
d="M69 0v496h59v-104h5q30 55 74 84.5t100 29.5q76 0 120 -53t44 -145v-308h-62v301q0 72 -31 111t-87 39q-44 0 -80.5 -24t-58 -65t-21.5 -89v-273h-62zM279 -233h-40v13l36 77h-40v68h69v-68z" />
    <glyph glyph-name="Ncaron" unicode="&#x147;" horiz-adv-x="683" 
d="M148 0h-64v700h77l370 -604h5v604h63v-700h-77l-369 604h-5v-604zM342 806l91 99h66l-132 -141h-51l-132 141h67z" />
    <glyph glyph-name="ncaron" unicode="&#x148;" horiz-adv-x="535" 
d="M69 0v496h59v-104h5q30 55 74 84.5t100 29.5q76 0 120 -53t44 -145v-308h-62v301q0 72 -31 111t-87 39q-44 0 -80.5 -24t-58 -65t-21.5 -89v-273h-62zM271 606l92 104h60l-129 -145h-47l-129 145h61z" />
    <glyph glyph-name="Eng" unicode="&#x14a;" horiz-adv-x="683" 
d="M536 700h63v-737q0 -163 -154 -163h-75v59h72q96 0 96 104v37h-16l-369 604h-5v-604h-64v700h77l370 -604h5v604z" />
    <glyph glyph-name="eng" unicode="&#x14b;" horiz-adv-x="535" 
d="M290 -200v55h56q34 0 48.5 16t14.5 54v376q0 72 -31 111t-87 39q-44 0 -80.5 -24t-58 -65t-21.5 -89v-273h-62v496h59v-104h5q30 55 74 84.5t100 29.5q76 0 120 -53t44 -145v-383q0 -63 -28 -94t-87 -31h-66z" />
    <glyph glyph-name="Omacron" unicode="&#x14c;" horiz-adv-x="735" 
d="M202 35.5q-72 45.5 -112 127.5t-40 187t40 187t112 127.5t165 45.5q94 0 166 -45.5t112 -127.5t40 -187t-40 -187t-112 -127.5t-166 -45.5q-93 0 -165 45.5zM501 86q57 37 88 105.5t31 158.5t-31 158.5t-88 105.5t-134 37q-76 0 -133 -37t-88 -105.5t-31 -158.5
t31 -158.5t88 -105.5t133 -37q77 0 134 37zM516 804h-298v49h298v-49z" />
    <glyph glyph-name="omacron" unicode="&#x14d;" horiz-adv-x="533" 
d="M147 23q-52 33 -81 91.5t-29 133.5t29 134t81 91.5t119 32.5q68 0 120 -32.5t81 -91.5t29 -134t-29 -133.5t-81 -91.5t-120 -33q-67 0 -119 33zM388.5 100q45.5 55 45.5 148t-45.5 148t-122.5 55q-76 0 -121.5 -55.5t-45.5 -147.5t45.5 -147.5t121.5 -55.5q77 0 122.5 55
zM409 609h-286v45h286v-45z" />
    <glyph glyph-name="Obreve" unicode="&#x14e;" horiz-adv-x="735" 
d="M202 35.5q-72 45.5 -112 127.5t-40 187t40 187t112 127.5t165 45.5q94 0 166 -45.5t112 -127.5t40 -187t-40 -187t-112 -127.5t-166 -45.5q-93 0 -165 45.5zM501 86q57 37 88 105.5t31 158.5t-31 158.5t-88 105.5t-134 37q-76 0 -133 -37t-88 -105.5t-31 -158.5
t31 -158.5t88 -105.5t133 -37q77 0 134 37zM264.5 800.5q-38.5 36.5 -38.5 97.5h51q0 -39 24.5 -63t65.5 -24q42 0 66 24t24 63h51q0 -61 -38.5 -97.5t-102.5 -36.5t-102.5 36.5z" />
    <glyph glyph-name="obreve" unicode="&#x14f;" horiz-adv-x="533" 
d="M147 23q-52 33 -81 91.5t-29 133.5t29 134t81 91.5t119 32.5q68 0 120 -32.5t81 -91.5t29 -134t-29 -133.5t-81 -91.5t-120 -33q-67 0 -119 33zM388.5 100q45.5 55 45.5 148t-45.5 148t-122.5 55q-76 0 -121.5 -55.5t-45.5 -147.5t45.5 -147.5t121.5 -55.5q77 0 122.5 55
zM167.5 602q-37.5 37 -37.5 98h49q0 -41 23 -65t64 -24q42 0 64.5 23.5t22.5 65.5h49q0 -61 -37.5 -98t-98.5 -37t-98.5 37z" />
    <glyph glyph-name="Ohungarumlaut" unicode="&#x150;" horiz-adv-x="735" 
d="M202 35.5q-72 45.5 -112 127.5t-40 187t40 187t112 127.5t165 45.5q94 0 166 -45.5t112 -127.5t40 -187t-40 -187t-112 -127.5t-166 -45.5q-93 0 -165 45.5zM501 86q57 37 88 105.5t31 158.5t-31 158.5t-88 105.5t-134 37q-76 0 -133 -37t-88 -105.5t-31 -158.5
t31 -158.5t88 -105.5t133 -37q77 0 134 37zM287 764h-47l88 146h68v-5zM430 764h-47l88 146h68v-5z" />
    <glyph glyph-name="ohungarumlaut" unicode="&#x151;" horiz-adv-x="533" 
d="M147 23q-52 33 -81 91.5t-29 133.5t29 134t81 91.5t119 32.5q68 0 120 -32.5t81 -91.5t29 -134t-29 -133.5t-81 -91.5t-120 -33q-67 0 -119 33zM388.5 100q45.5 55 45.5 148t-45.5 148t-122.5 55q-76 0 -121.5 -55.5t-45.5 -147.5t45.5 -147.5t121.5 -55.5q77 0 122.5 55
zM194 565h-42l86 151h63v-5zM328 565h-42l86 151h63v-5z" />
    <glyph glyph-name="OE" unicode="&#x152;" horiz-adv-x="1076" 
d="M671 59h348v-59h-409v144q-32 -68 -96.5 -111t-151.5 -43q-91 0 -162 45.5t-110.5 127.5t-39.5 187t39.5 187t110.5 127.5t162 45.5q87 0 151.5 -43t96.5 -111v144h404v-59h-343v-257h306v-58h-306v-267zM493 86q56 37 86.5 105.5t30.5 158.5t-30.5 158.5t-86.5 105.5
t-131 37q-73 0 -129 -37.5t-87 -105.5t-31 -158t31 -158t87 -105.5t129 -37.5q75 0 131 37z" />
    <glyph glyph-name="oe" unicode="&#x153;" horiz-adv-x="897" 
d="M857 232h-374q4 -86 49.5 -136.5t116.5 -50.5q47 0 84 24t56 65l56 -9q-24 -63 -76.5 -99t-119.5 -36q-69 0 -121 35t-75 96q-25 -61 -75.5 -96t-115.5 -35t-116 33.5t-80 92t-29 132.5t29 133t80 92t116 33t115.5 -35t75.5 -96q25 61 76.5 96t113.5 35q61 0 110.5 -30.5
t78 -85.5t28.5 -125q0 -13 -3 -33zM379.5 100.5q44.5 55.5 44.5 147.5t-44.5 147.5t-117.5 55.5t-118 -55.5t-45 -147.5t45 -147.5t118 -55.5t117.5 55.5zM537 405.5q-43 -45.5 -52 -121.5h316q-7 77 -50 122t-108 45q-63 0 -106 -45.5z" />
    <glyph glyph-name="Racute" unicode="&#x154;" horiz-adv-x="611" 
d="M583 0h-74l-189 301h-171v-301h-65v700h236q61 0 110 -26t76.5 -71.5t27.5 -102.5q0 -70 -41.5 -122t-106.5 -70zM149 641v-282h167q70 0 111.5 38.5t41.5 102.5t-41.5 102.5t-111.5 38.5h-167zM292 764h-52l91 146h74v-5z" />
    <glyph glyph-name="racute" unicode="&#x155;" horiz-adv-x="338" 
d="M69 0v496h59v-104h5q57 104 158 104h42v-56h-47q-46 0 -81.5 -23t-54.5 -61.5t-19 -85.5v-270h-62zM202 565h-47l93 151h69v-5z" />
    <glyph glyph-name="uni0156" unicode="&#x156;" horiz-adv-x="611" 
d="M583 0h-74l-189 301h-171v-301h-65v700h236q61 0 110 -26t76.5 -71.5t27.5 -102.5q0 -70 -41.5 -122t-106.5 -70zM149 641v-282h167q70 0 111.5 38.5t41.5 102.5t-41.5 102.5t-111.5 38.5h-167zM333 -233h-40v13l36 77h-40v68h69v-68z" />
    <glyph glyph-name="uni0157" unicode="&#x157;" horiz-adv-x="338" 
d="M69 0v496h59v-104h5q57 104 158 104h42v-56h-47q-46 0 -81.5 -23t-54.5 -61.5t-19 -85.5v-270h-62zM110 -233h-40v13l36 77h-40v68h69v-68z" />
    <glyph glyph-name="Rcaron" unicode="&#x158;" horiz-adv-x="611" 
d="M583 0h-74l-189 301h-171v-301h-65v700h236q61 0 110 -26t76.5 -71.5t27.5 -102.5q0 -70 -41.5 -122t-106.5 -70zM149 641v-282h167q70 0 111.5 38.5t41.5 102.5t-41.5 102.5t-111.5 38.5h-167zM287 806l91 99h66l-132 -141h-51l-132 141h67z" />
    <glyph glyph-name="rcaron" unicode="&#x159;" horiz-adv-x="338" 
d="M69 0v496h59v-104h5q57 104 158 104h42v-56h-47q-46 0 -81.5 -23t-54.5 -61.5t-19 -85.5v-270h-62zM199 606l92 104h60l-129 -145h-47l-129 145h61z" />
    <glyph glyph-name="Sacute" unicode="&#x15a;" horiz-adv-x="568" 
d="M119.5 41.5q-70.5 51.5 -95.5 148.5l59 10q22 -78 77 -114.5t134 -36.5q80 0 125 36.5t45 104.5q0 46 -24.5 73t-61 41t-99.5 30q-72 18 -115.5 36t-74 55.5t-30.5 101.5q0 55 29 96.5t80 64t116 22.5q95 0 156.5 -47t82.5 -133l-59 -10q-17 67 -63.5 99t-116.5 32
q-71 0 -115.5 -32.5t-44.5 -91.5q0 -44 24.5 -71t61 -41t97.5 -29q72 -18 116 -36t75 -56.5t31 -103.5q0 -93 -63 -146.5t-172 -53.5q-104 0 -174.5 51.5zM289 764h-52l91 146h74v-5z" />
    <glyph glyph-name="sacute" unicode="&#x15b;" horiz-adv-x="445" 
d="M92 29.5q-54 39.5 -72 110.5l56 9q12 -51 52 -77.5t100 -26.5q56 0 89.5 24t33.5 67q0 30 -18 48t-45 27t-72 18q-57 12 -90 24.5t-57 40t-24 76.5q0 61 50 98.5t124 37.5t123.5 -36t65.5 -103l-56 -10q-9 46 -44.5 70t-88.5 24q-48 0 -80 -21t-32 -60q0 -29 17.5 -46.5
t43.5 -26t72 -18.5q56 -12 90 -24t58.5 -40.5t24.5 -78.5q0 -67 -51 -106.5t-134 -39.5q-82 0 -136 39.5zM226 565h-47l93 151h69v-5z" />
    <glyph glyph-name="Scircumflex" unicode="&#x15c;" horiz-adv-x="568" 
d="M119.5 41.5q-70.5 51.5 -95.5 148.5l59 10q22 -78 77 -114.5t134 -36.5q80 0 125 36.5t45 104.5q0 46 -24.5 73t-61 41t-99.5 30q-72 18 -115.5 36t-74 55.5t-30.5 101.5q0 55 29 96.5t80 64t116 22.5q95 0 156.5 -47t82.5 -133l-59 -10q-17 67 -63.5 99t-116.5 32
q-71 0 -115.5 -32.5t-44.5 -91.5q0 -44 24.5 -71t61 -41t97.5 -29q72 -18 116 -36t75 -56.5t31 -103.5q0 -93 -63 -146.5t-172 -53.5q-104 0 -174.5 51.5zM309 905l132 -141h-67l-91 98l-91 -98h-66l132 141h51z" />
    <glyph glyph-name="scircumflex" unicode="&#x15d;" horiz-adv-x="445" 
d="M92 29.5q-54 39.5 -72 110.5l56 9q12 -51 52 -77.5t100 -26.5q56 0 89.5 24t33.5 67q0 30 -18 48t-45 27t-72 18q-57 12 -90 24.5t-57 40t-24 76.5q0 61 50 98.5t124 37.5t123.5 -36t65.5 -103l-56 -10q-9 46 -44.5 70t-88.5 24q-48 0 -80 -21t-32 -60q0 -29 17.5 -46.5
t43.5 -26t72 -18.5q56 -12 90 -24t58.5 -40.5t24.5 -78.5q0 -67 -51 -106.5t-134 -39.5q-82 0 -136 39.5zM245 710l129 -145h-61l-92 104l-92 -104h-60l129 145h47z" />
    <glyph glyph-name="Scedilla" unicode="&#x15e;" horiz-adv-x="568" 
d="M470.5 47q-58.5 -53 -162.5 -57l-11 -35q30 -2 49 -22.5t19 -50.5q0 -34 -21.5 -54.5t-58.5 -20.5t-66 19l13 36q21 -12 47 -12q40 0 40 34q0 18 -11 28t-31 10h-23v16l15 53q-94 6 -158 57t-87 142l59 10q22 -78 77 -114.5t134 -36.5q80 0 125 36.5t45 104.5
q0 46 -24.5 73t-61 41t-99.5 30q-72 18 -115.5 36t-74 55.5t-30.5 101.5q0 55 29 96.5t80 64t116 22.5q95 0 156.5 -47t82.5 -133l-59 -10q-17 67 -63.5 99t-116.5 32q-71 0 -115.5 -32.5t-44.5 -91.5q0 -44 24.5 -71t61 -41t97.5 -29q72 -18 116 -36t75 -56.5t31 -103.5
q0 -90 -58.5 -143z" />
    <glyph glyph-name="scedilla" unicode="&#x15f;" horiz-adv-x="445" 
d="M367.5 34q-45.5 -39 -121.5 -43l-11 -36q30 -2 49 -22.5t19 -50.5q0 -34 -21.5 -54.5t-58.5 -20.5t-66 19l13 36q21 -12 47 -12q40 0 40 34q0 18 -11 28t-31 10h-23v16l15 53q-73 4 -121.5 43.5t-65.5 105.5l56 9q12 -51 52 -77.5t100 -26.5q56 0 89.5 24t33.5 67
q0 30 -18 48t-45 27t-72 18q-57 12 -90 24.5t-57 40t-24 76.5q0 61 50 98.5t124 37.5t123.5 -36t65.5 -103l-56 -10q-9 46 -44.5 70t-88.5 24q-48 0 -80 -21t-32 -60q0 -29 17.5 -46.5t43.5 -26t72 -18.5q56 -12 90 -24t58.5 -40.5t24.5 -78.5q0 -63 -45.5 -102z" />
    <glyph glyph-name="Scaron" unicode="&#x160;" horiz-adv-x="568" 
d="M119.5 41.5q-70.5 51.5 -95.5 148.5l59 10q22 -78 77 -114.5t134 -36.5q80 0 125 36.5t45 104.5q0 46 -24.5 73t-61 41t-99.5 30q-72 18 -115.5 36t-74 55.5t-30.5 101.5q0 55 29 96.5t80 64t116 22.5q95 0 156.5 -47t82.5 -133l-59 -10q-17 67 -63.5 99t-116.5 32
q-71 0 -115.5 -32.5t-44.5 -91.5q0 -44 24.5 -71t61 -41t97.5 -29q72 -18 116 -36t75 -56.5t31 -103.5q0 -93 -63 -146.5t-172 -53.5q-104 0 -174.5 51.5zM284 806l91 99h66l-132 -141h-51l-132 141h67z" />
    <glyph glyph-name="scaron" unicode="&#x161;" horiz-adv-x="445" 
d="M92 29.5q-54 39.5 -72 110.5l56 9q12 -51 52 -77.5t100 -26.5q56 0 89.5 24t33.5 67q0 30 -18 48t-45 27t-72 18q-57 12 -90 24.5t-57 40t-24 76.5q0 61 50 98.5t124 37.5t123.5 -36t65.5 -103l-56 -10q-9 46 -44.5 70t-88.5 24q-48 0 -80 -21t-32 -60q0 -29 17.5 -46.5
t43.5 -26t72 -18.5q56 -12 90 -24t58.5 -40.5t24.5 -78.5q0 -67 -51 -106.5t-134 -39.5q-82 0 -136 39.5zM222 606l92 104h60l-129 -145h-47l-129 145h61z" />
    <glyph glyph-name="uni0162" unicode="&#x162;" horiz-adv-x="576" 
d="M321 0h-15l-14 -45q30 -2 49 -22.5t19 -50.5q0 -34 -21.5 -54.5t-58.5 -20.5t-66 19l13 36q21 -12 47 -12q40 0 40 34q0 18 -11 28t-31 10h-23v16l18 62h-11v641h-246v59h556v-59h-245v-641z" />
    <glyph glyph-name="uni0163" unicode="&#x163;" horiz-adv-x="355" 
d="M335 0h-96l-15 -45q30 -2 49 -22.5t19 -50.5q0 -34 -21.5 -54.5t-58.5 -20.5t-66 19l13 36q21 -12 47 -12q40 0 40 34q0 18 -11 28t-31 10h-23v16l19 64q-86 15 -86 123v319h-107v52h107l26 137h36v-137h154v-52h-154v-319q0 -37 14.5 -53.5t47.5 -16.5h97v-55z" />
    <glyph glyph-name="Tcaron" unicode="&#x164;" horiz-adv-x="576" 
d="M321 0h-65v641h-246v59h556v-59h-245v-641zM289 806l91 99h66l-132 -141h-51l-132 141h67z" />
    <glyph glyph-name="tcaron" unicode="&#x165;" horiz-adv-x="355" 
d="M229 0q-58 0 -86.5 31t-28.5 94v319h-107v52h107l26 137h36v-508q0 -37 14.5 -53.5t47.5 -16.5h97v-55h-106zM292 476h-40v13l36 77h-40v67h69v-67z" />
    <glyph glyph-name="Tbar" unicode="&#x166;" horiz-adv-x="576" 
d="M566 700v-59h-245v-248h157v-55h-157v-338h-65v338h-157v55h157v248h-246v59h556z" />
    <glyph glyph-name="tbar" unicode="&#x167;" horiz-adv-x="365" 
d="M340 55v-55h-106q-58 0 -86.5 31t-28.5 94v132h-102v49h102v138h-107v52h107l26 137h36v-137h154v-52h-154v-138h149v-49h-149v-132q0 -37 14.5 -53.5t47.5 -16.5h97z" />
    <glyph glyph-name="Utilde" unicode="&#x168;" horiz-adv-x="658" 
d="M196.5 24.5q-56.5 34.5 -87 99t-30.5 153.5v423h65v-420q0 -112 48.5 -171.5t136.5 -59.5t136.5 59.5t48.5 171.5v420h65v-423q0 -89 -30.5 -153.5t-87 -99t-132.5 -34.5t-132.5 34.5zM178 787q0 43 22 68.5t59 25.5q21 0 38.5 -8t39.5 -23q17 -13 30.5 -19.5t28.5 -6.5
q37 0 37 46v11h47v-11q0 -43 -22 -69t-59 -26q-22 0 -39.5 8.5t-38.5 23.5q-20 13 -32 19.5t-27 6.5q-37 0 -37 -46v-12h-47v12z" />
    <glyph glyph-name="utilde" unicode="&#x169;" horiz-adv-x="530" 
d="M107.5 43.5q-43.5 53.5 -43.5 145.5v307h62v-301q0 -71 30.5 -110.5t84.5 -39.5q44 0 80 24t57 65.5t21 89.5v272h62v-496h-58v104h-5q-30 -55 -74.5 -84.5t-98.5 -29.5q-74 0 -117.5 53.5zM117 592q0 41 21.5 66t57.5 25q20 0 36 -8t39 -23q19 -13 31 -19t26 -6
q17 0 26 11.5t9 32.5v12h46v-12q0 -41 -21.5 -66t-57.5 -25q-21 0 -37.5 8t-37.5 23q-19 13 -31 19t-25 6q-18 0 -27 -11.5t-9 -32.5v-12h-46v12z" />
    <glyph glyph-name="Umacron" unicode="&#x16a;" horiz-adv-x="658" 
d="M196.5 24.5q-56.5 34.5 -87 99t-30.5 153.5v423h65v-420q0 -112 48.5 -171.5t136.5 -59.5t136.5 59.5t48.5 171.5v420h65v-423q0 -89 -30.5 -153.5t-87 -99t-132.5 -34.5t-132.5 34.5zM478 804h-298v49h298v-49z" />
    <glyph glyph-name="umacron" unicode="&#x16b;" horiz-adv-x="530" 
d="M107.5 43.5q-43.5 53.5 -43.5 145.5v307h62v-301q0 -71 30.5 -110.5t84.5 -39.5q44 0 80 24t57 65.5t21 89.5v272h62v-496h-58v104h-5q-30 -55 -74.5 -84.5t-98.5 -29.5q-74 0 -117.5 53.5zM406 609h-286v45h286v-45z" />
    <glyph glyph-name="Ubreve" unicode="&#x16c;" horiz-adv-x="658" 
d="M196.5 24.5q-56.5 34.5 -87 99t-30.5 153.5v423h65v-420q0 -112 48.5 -171.5t136.5 -59.5t136.5 59.5t48.5 171.5v420h65v-423q0 -89 -30.5 -153.5t-87 -99t-132.5 -34.5t-132.5 34.5zM226.5 800.5q-38.5 36.5 -38.5 97.5h51q0 -39 24.5 -63t65.5 -24q42 0 66 24t24 63
h51q0 -61 -38.5 -97.5t-102.5 -36.5t-102.5 36.5z" />
    <glyph glyph-name="ubreve" unicode="&#x16d;" horiz-adv-x="530" 
d="M107.5 43.5q-43.5 53.5 -43.5 145.5v307h62v-301q0 -71 30.5 -110.5t84.5 -39.5q44 0 80 24t57 65.5t21 89.5v272h62v-496h-58v104h-5q-30 -55 -74.5 -84.5t-98.5 -29.5q-74 0 -117.5 53.5zM164.5 602q-37.5 37 -37.5 98h49q0 -41 23 -65t64 -24q42 0 64.5 23.5
t22.5 65.5h49q0 -61 -37.5 -98t-98.5 -37t-98.5 37z" />
    <glyph glyph-name="Uring" unicode="&#x16e;" horiz-adv-x="658" 
d="M196.5 24.5q-56.5 34.5 -87 99t-30.5 153.5v423h65v-420q0 -112 48.5 -171.5t136.5 -59.5t136.5 59.5t48.5 171.5v420h65v-423q0 -89 -30.5 -153.5t-87 -99t-132.5 -34.5t-132.5 34.5zM260 774.5q-28 27.5 -28 67.5t28 67t69 27q40 0 68 -27t28 -67t-28 -67.5t-68 -27.5
q-41 0 -69 27.5zM367 801.5q15 15.5 15 40.5q0 24 -15 39.5t-38 15.5q-24 0 -39 -15t-15 -40t15 -40.5t39 -15.5q23 0 38 15.5z" />
    <glyph glyph-name="uring" unicode="&#x16f;" horiz-adv-x="530" 
d="M107.5 43.5q-43.5 53.5 -43.5 145.5v307h62v-301q0 -71 30.5 -110.5t84.5 -39.5q44 0 80 24t57 65.5t21 89.5v272h62v-496h-58v104h-5q-30 -55 -74.5 -84.5t-98.5 -29.5q-74 0 -117.5 53.5zM195.5 579q-27.5 27 -27.5 67q0 41 27 68t68 27q40 0 67 -27.5t27 -67.5
t-27 -67t-67 -27t-67.5 27zM300.5 606q14.5 15 14.5 40t-14.5 40.5t-37.5 15.5t-37.5 -15.5t-14.5 -40.5t14.5 -40t37.5 -15t37.5 15z" />
    <glyph glyph-name="Uhungarumlaut" unicode="&#x170;" horiz-adv-x="658" 
d="M196.5 24.5q-56.5 34.5 -87 99t-30.5 153.5v423h65v-420q0 -112 48.5 -171.5t136.5 -59.5t136.5 59.5t48.5 171.5v420h65v-423q0 -89 -30.5 -153.5t-87 -99t-132.5 -34.5t-132.5 34.5zM249 764h-47l88 146h68v-5zM392 764h-47l88 146h68v-5z" />
    <glyph glyph-name="uhungarumlaut" unicode="&#x171;" horiz-adv-x="530" 
d="M107.5 43.5q-43.5 53.5 -43.5 145.5v307h62v-301q0 -71 30.5 -110.5t84.5 -39.5q44 0 80 24t57 65.5t21 89.5v272h62v-496h-58v104h-5q-30 -55 -74.5 -84.5t-98.5 -29.5q-74 0 -117.5 53.5zM191 565h-42l86 151h63v-5zM325 565h-42l86 151h63v-5z" />
    <glyph glyph-name="Uogonek" unicode="&#x172;" horiz-adv-x="658" 
d="M514 700h65v-423q0 -91 -29 -151t-82 -100q-94 -72 -94 -138q0 -38 36 -38q14 0 26 6l14 -35q-20 -14 -49 -14q-34 0 -54 20t-20 52t19 64t49 55q-32 -8 -66 -8q-76 0 -132.5 34.5t-87 99t-30.5 153.5v423h65v-420q0 -112 48.5 -171.5t136.5 -59.5t136.5 59.5t48.5 171.5
v420z" />
    <glyph glyph-name="uogonek" unicode="&#x173;" horiz-adv-x="530" 
d="M448 -144l14 -35q-20 -14 -49 -14q-34 0 -54 20t-20 52q0 34 22.5 65.5t61.5 55.5h-20v104h-5q-30 -55 -74.5 -84.5t-98.5 -29.5q-74 0 -117.5 53.5t-43.5 145.5v307h62v-301q0 -71 30.5 -110.5t84.5 -39.5q44 0 80 24t57 65.5t21 89.5v272h62v-496h1q-76 -62 -76 -114
q0 -36 36 -36q14 0 26 6z" />
    <glyph glyph-name="Wcircumflex" unicode="&#x174;" horiz-adv-x="943" 
d="M299 0h-89l-190 700h66l167 -630h5l173 630h83l173 -630h5l167 630h64l-190 -700h-88l-171 622h-5zM498 905l132 -141h-67l-91 98l-91 -98h-66l132 141h51z" />
    <glyph glyph-name="wcircumflex" unicode="&#x175;" horiz-adv-x="726" 
d="M240 0h-81l-144 496h63l120 -430h5l123 430h78l123 -430h5l119 430h60l-143 -496h-79l-122 428h-5zM388 710l129 -145h-61l-92 104l-92 -104h-60l129 145h47z" />
    <glyph glyph-name="Ycircumflex" unicode="&#x176;" horiz-adv-x="558" 
d="M312 0h-65v262l-242 438h71l202 -369h5l202 369h68l-241 -438v-262zM306 905l132 -141h-67l-91 98l-91 -98h-66l132 141h51z" />
    <glyph glyph-name="ycircumflex" unicode="&#x177;" horiz-adv-x="473" 
d="M246 50l155 446h62l-245 -696h-58l70 200h-38l-182 496h65l160 -446h11zM262 710l129 -145h-61l-92 104l-92 -104h-60l129 145h47z" />
    <glyph glyph-name="Ydieresis" unicode="&#x178;" horiz-adv-x="558" 
d="M312 0h-65v262l-242 438h71l202 -369h5l202 369h68l-241 -438v-262zM224 789h-72v77h72v-77zM409 789h-72v77h72v-77z" />
    <glyph glyph-name="Zacute" unicode="&#x179;" horiz-adv-x="557" 
d="M526 0h-496v62l406 574v5h-392v59h467v-62l-406 -574v-5h421v-59zM284 764h-52l91 146h74v-5z" />
    <glyph glyph-name="zacute" unicode="&#x17a;" horiz-adv-x="440" 
d="M411 0h-382v59l298 377v5h-290v55h364v-58l-298 -378v-5h308v-55zM224 565h-47l93 151h69v-5z" />
    <glyph glyph-name="Zdotaccent" unicode="&#x17b;" horiz-adv-x="557" 
d="M526 0h-496v62l406 574v5h-392v59h467v-62l-406 -574v-5h421v-59zM314 789h-72v77h72v-77z" />
    <glyph glyph-name="zdotaccent" unicode="&#x17c;" horiz-adv-x="440" 
d="M411 0h-382v59l298 377v5h-290v55h364v-58l-298 -378v-5h308v-55zM254 594h-69v74h69v-74z" />
    <glyph glyph-name="Zcaron" unicode="&#x17d;" horiz-adv-x="557" 
d="M526 0h-496v62l406 574v5h-392v59h467v-62l-406 -574v-5h421v-59zM278 806l91 99h66l-132 -141h-51l-132 141h67z" />
    <glyph glyph-name="zcaron" unicode="&#x17e;" horiz-adv-x="440" 
d="M411 0h-382v59l298 377v5h-290v55h364v-58l-298 -378v-5h308v-55zM220 606l92 104h60l-129 -145h-47l-129 145h61z" />
    <glyph glyph-name="uni018F" unicode="&#x18f;" horiz-adv-x="720" 
d="M517.5 664.5q72.5 -45.5 112.5 -127t40 -187.5q0 -105 -40 -187t-112.5 -127.5t-164.5 -45.5t-162 44t-108 120.5t-38 170.5q0 16 2 30t3 18h554q-3 84 -35 147t-88 97t-130 34q-78 0 -134.5 -39t-86.5 -114l-60 11q37 98 110 149.5t171 51.5q94 0 166.5 -45.5zM478 82
q55 33 88 93.5t38 142.5h-496q6 -126 71.5 -197.5t173.5 -71.5q70 0 125 33z" />
    <glyph glyph-name="florin" unicode="&#x191;" horiz-adv-x="408" 
d="M327 648q-28 0 -43 -15.5t-22 -52.5l-25 -134h124v-52h-134l-88 -477q-11 -61 -39 -89t-79 -28h-74v52h64q29 0 43.5 15.5t22.5 52.5l88 474h-113v52h123l25 137q11 61 39 89t78 28h84v-52h-74z" />
    <glyph glyph-name="florin" unicode="&#x192;" horiz-adv-x="408" 
d="M327 648q-28 0 -43 -15.5t-22 -52.5l-25 -134h124v-52h-134l-88 -477q-11 -61 -39 -89t-79 -28h-74v52h64q29 0 43.5 15.5t22.5 52.5l88 474h-113v52h123l25 137q11 61 39 89t78 28h84v-52h-74z" />
    <glyph glyph-name="uni01C4" unicode="&#x1c4;" horiz-adv-x="1215" 
d="M84 0v700h211q99 0 174.5 -44.5t117 -124.5t41.5 -181t-41.5 -181t-117 -124.5t-174.5 -44.5h-211zM291 59q84 0 145.5 36.5t94 102.5t32.5 152q0 87 -32.5 152.5t-94 102t-145.5 36.5h-142v-582h142zM1184 0h-496v62l406 574v5h-392v59h467v-62l-406 -574v-5h421v-59z
M936 806l91 99h66l-132 -141h-51l-132 141h67z" />
    <glyph glyph-name="uni01C5" unicode="&#x1c5;" horiz-adv-x="1108" 
d="M84 0v700h211q99 0 174.5 -44.5t117 -124.5t41.5 -181t-41.5 -181t-117 -124.5t-174.5 -44.5h-211zM291 59q84 0 145.5 36.5t94 102.5t32.5 152q0 87 -32.5 152.5t-94 102t-145.5 36.5h-142v-582h142zM1079 0h-382v59l298 377v5h-290v55h364v-58l-298 -378v-5h308v-55z
M888 606l92 104h60l-129 -145h-47l-129 145h61z" />
    <glyph glyph-name="uni01C6" unicode="&#x1c6;" horiz-adv-x="1010" 
d="M140.5 23q-48.5 33 -76 91.5t-27.5 133.5t27.5 133.5t76 91.5t109.5 33q58 0 105 -29.5t74 -82.5h5v306h62v-700h-58v106h-5q-30 -56 -77 -86t-106 -30q-61 0 -109.5 33zM350.5 71q39.5 26 61.5 72t22 105t-22 105.5t-61.5 72t-89.5 25.5q-74 0 -118 -55t-44 -148
t44 -148t118 -55q50 0 89.5 26zM981 0h-382v59l298 377v5h-290v55h364v-58l-298 -378v-5h308v-55zM790 606l92 104h60l-129 -145h-47l-129 145h61z" />
    <glyph glyph-name="uni01C7" unicode="&#x1c7;" horiz-adv-x="971" 
d="M486 0h-402v700h65v-641h337v-59zM571 41.5q-54 48.5 -68 133.5l59 10q11 -64 47.5 -98.5t94.5 -34.5q60 0 91.5 39t31.5 115v494h65v-494q0 -100 -50 -156.5t-138 -56.5q-79 0 -133 48.5z" />
    <glyph glyph-name="uni01C8" unicode="&#x1c8;" horiz-adv-x="704" 
d="M486 0h-402v700h65v-641h337v-59zM461 -200v55h45q35 0 49.5 16t14.5 54v571h60v-571q0 -63 -28 -94t-86 -31h-55zM635 594h-69v74h69v-74z" />
    <glyph glyph-name="uni01C9" unicode="&#x1c9;" horiz-adv-x="418" 
d="M136 0h-62v700h62v-700zM175 -200v55h45q35 0 49.5 16t14.5 54v571h60v-571q0 -63 -28 -94t-86 -31h-55zM349 594h-69v74h69v-74z" />
    <glyph glyph-name="uni01CA" unicode="&#x1ca;" horiz-adv-x="1158" 
d="M148 0h-64v700h77l370 -604h5v604h63v-700h-77l-369 604h-5v-604zM758 41.5q-54 48.5 -68 133.5l59 10q11 -64 47.5 -98.5t94.5 -34.5q60 0 91.5 39t31.5 115v494h65v-494q0 -100 -50 -156.5t-138 -56.5q-79 0 -133 48.5z" />
    <glyph glyph-name="uni01CB" unicode="&#x1cb;" horiz-adv-x="891" 
d="M148 0h-64v700h77l370 -604h5v604h63v-700h-77l-369 604h-5v-604zM648 -200v55h45q35 0 49.5 16t14.5 54v571h60v-571q0 -63 -28 -94t-86 -31h-55zM822 594h-69v74h69v-74z" />
    <glyph glyph-name="uni01CC" unicode="&#x1cc;" horiz-adv-x="743" 
d="M69 0v496h59v-104h5q30 55 74 84.5t100 29.5q76 0 120 -53t44 -145v-308h-62v301q0 72 -31 111t-87 39q-44 0 -80.5 -24t-58 -65t-21.5 -89v-273h-62zM500 -200v55h45q35 0 49.5 16t14.5 54v571h60v-571q0 -63 -28 -94t-86 -31h-55zM674 594h-69v74h69v-74z" />
    <glyph glyph-name="uni01CD" unicode="&#x1cd;" horiz-adv-x="603" 
d="M588 0h-66l-66 191h-311l-66 -191h-64l246 700h81zM298 636l-134 -390h273l-134 390h-5zM302 806l91 99h66l-132 -141h-51l-132 141h67z" />
    <glyph glyph-name="uni01CE" unicode="&#x1ce;" horiz-adv-x="505" 
d="M488 49v-49h-32q-36 0 -56 20.5t-20 57.5v30h-5q-28 -57 -76 -87.5t-106 -30.5q-67 0 -112.5 39.5t-45.5 104.5q0 46 24 82t66 55.5t95 19.5h151v27q0 62 -33 97.5t-94 35.5q-51 0 -86.5 -25.5t-49.5 -73.5l-56 10q19 66 68 105t124 39q89 0 139 -51.5t50 -136.5v-230
q0 -39 33 -39h22zM287 68.5q39 23.5 61.5 64t22.5 91.5v15h-148q-55 0 -90.5 -27.5t-35.5 -74.5q0 -42 28.5 -67t75.5 -25t86 23.5zM242 606l92 104h60l-129 -145h-47l-129 145h61z" />
    <glyph glyph-name="uni01D3" unicode="&#x1d3;" horiz-adv-x="658" 
d="M196.5 24.5q-56.5 34.5 -87 99t-30.5 153.5v423h65v-420q0 -112 48.5 -171.5t136.5 -59.5t136.5 59.5t48.5 171.5v420h65v-423q0 -89 -30.5 -153.5t-87 -99t-132.5 -34.5t-132.5 34.5zM329 806l91 99h66l-132 -141h-51l-132 141h67z" />
    <glyph glyph-name="uni01D4" unicode="&#x1d4;" horiz-adv-x="530" 
d="M107.5 43.5q-43.5 53.5 -43.5 145.5v307h62v-301q0 -71 30.5 -110.5t84.5 -39.5q44 0 80 24t57 65.5t21 89.5v272h62v-496h-58v104h-5q-30 -55 -74.5 -84.5t-98.5 -29.5q-74 0 -117.5 53.5zM264 606l92 104h60l-129 -145h-47l-129 145h61z" />
    <glyph glyph-name="Gcaron" unicode="&#x1e6;" horiz-adv-x="752" 
d="M420 353h260v-353h-46l-11 144q-35 -74 -99 -114t-150 -40q-93 0 -167 45.5t-115.5 127.5t-41.5 187t41 187t116 127.5t174 45.5q105 0 180 -54t109 -156l-60 -10q-27 79 -86 120t-143 41q-81 0 -141 -37.5t-92.5 -105.5t-32.5 -158q0 -91 32.5 -159t91.5 -105t135 -37
q71 0 126 32t85 87.5t30 123.5v6h-195v55zM373 806l91 99h66l-132 -141h-51l-132 141h67z" />
    <glyph glyph-name="gcaron" unicode="&#x1e7;" horiz-adv-x="560" 
d="M121 -158.5q-59 41.5 -77 114.5l55 10q13 -52 57.5 -81.5t109.5 -29.5q80 0 121.5 46t41.5 137v83h-5q-26 -53 -72 -82t-104 -29q-61 0 -109 32t-75 88.5t-27 127.5t27 127.5t75 88.5t109 32q57 0 103.5 -29t76.5 -85h5v104h58v-458q0 -112 -59.5 -175t-165.5 -63
q-86 0 -145 41.5zM347 90q39 25 60.5 69t21.5 99t-21.5 99t-60.5 69t-88 25q-72 0 -116 -53.5t-44 -139.5t44 -139.5t116 -53.5q49 0 88 25zM261 606l92 104h60l-129 -145h-47l-129 145h61z" />
    <glyph glyph-name="uni01F1" unicode="&#x1f1;" horiz-adv-x="1215" 
d="M84 0v700h211q99 0 174.5 -44.5t117 -124.5t41.5 -181t-41.5 -181t-117 -124.5t-174.5 -44.5h-211zM291 59q84 0 145.5 36.5t94 102.5t32.5 152q0 87 -32.5 152.5t-94 102t-145.5 36.5h-142v-582h142zM1184 0h-496v62l406 574v5h-392v59h467v-62l-406 -574v-5h421v-59z
" />
    <glyph glyph-name="uni01F2" unicode="&#x1f2;" horiz-adv-x="1108" 
d="M84 0v700h211q99 0 174.5 -44.5t117 -124.5t41.5 -181t-41.5 -181t-117 -124.5t-174.5 -44.5h-211zM291 59q84 0 145.5 36.5t94 102.5t32.5 152q0 87 -32.5 152.5t-94 102t-145.5 36.5h-142v-582h142zM1079 0h-382v59l298 377v5h-290v55h364v-58l-298 -378v-5h308v-55z
" />
    <glyph glyph-name="uni01F3" unicode="&#x1f3;" horiz-adv-x="1010" 
d="M140.5 23q-48.5 33 -76 91.5t-27.5 133.5t27.5 133.5t76 91.5t109.5 33q58 0 105 -29.5t74 -82.5h5v306h62v-700h-58v106h-5q-30 -56 -77 -86t-106 -30q-61 0 -109.5 33zM350.5 71q39.5 26 61.5 72t22 105t-22 105.5t-61.5 72t-89.5 25.5q-74 0 -118 -55t-44 -148
t44 -148t118 -55q50 0 89.5 26zM981 0h-382v59l298 377v5h-290v55h364v-58l-298 -378v-5h308v-55z" />
    <glyph glyph-name="uni01F4" unicode="&#x1f4;" horiz-adv-x="752" 
d="M420 353h260v-353h-46l-11 144q-35 -74 -99 -114t-150 -40q-93 0 -167 45.5t-115.5 127.5t-41.5 187t41 187t116 127.5t174 45.5q105 0 180 -54t109 -156l-60 -10q-27 79 -86 120t-143 41q-81 0 -141 -37.5t-92.5 -105.5t-32.5 -158q0 -91 32.5 -159t91.5 -105t135 -37
q71 0 126 32t85 87.5t30 123.5v6h-195v55zM378 764h-52l91 146h74v-5z" />
    <glyph glyph-name="uni01F5" unicode="&#x1f5;" horiz-adv-x="560" 
d="M121 -158.5q-59 41.5 -77 114.5l55 10q13 -52 57.5 -81.5t109.5 -29.5q80 0 121.5 46t41.5 137v83h-5q-26 -53 -72 -82t-104 -29q-61 0 -109 32t-75 88.5t-27 127.5t27 127.5t75 88.5t109 32q57 0 103.5 -29t76.5 -85h5v104h58v-458q0 -112 -59.5 -175t-165.5 -63
q-86 0 -145 41.5zM347 90q39 25 60.5 69t21.5 99t-21.5 99t-60.5 69t-88 25q-72 0 -116 -53.5t-44 -139.5t44 -139.5t116 -53.5q49 0 88 25zM265 565h-47l93 151h69v-5z" />
    <glyph glyph-name="Aringacute" unicode="&#x1fa;" horiz-adv-x="603" 
d="M588 0h-66l-66 191h-311l-66 -191h-64l246 700h81zM298 636l-134 -390h273l-134 390h-5zM233 767.5q-28 27.5 -28 67.5q0 34 20.5 59t52.5 32l39 75h57v-5l-49 -70q32 -8 52.5 -32.5t20.5 -58.5q0 -40 -28 -67.5t-68 -27.5q-41 0 -69 27.5zM340 795.5q15 15.5 15 39.5
t-15 39.5t-38 15.5q-24 0 -39 -15t-15 -40t15 -40t39 -15q23 0 38 15.5z" />
    <glyph glyph-name="aringacute" unicode="&#x1fb;" horiz-adv-x="505" 
d="M488 49v-49h-32q-36 0 -56 20.5t-20 57.5v30h-5q-28 -57 -76 -87.5t-106 -30.5q-67 0 -112.5 39.5t-45.5 104.5q0 46 24 82t66 55.5t95 19.5h151v27q0 62 -33 97.5t-94 35.5q-51 0 -86.5 -25.5t-49.5 -73.5l-56 10q19 66 68 105t124 39q89 0 139 -51.5t50 -136.5v-230
q0 -39 33 -39h22zM287 68.5q39 23.5 61.5 64t22.5 91.5v15h-148q-55 0 -90.5 -27.5t-35.5 -74.5q0 -42 28.5 -67t75.5 -25t86 23.5zM174.5 579q-27.5 27 -27.5 67q0 34 20 59t51 33l46 87h54v-5l-56 -81q33 -7 53.5 -32.5t20.5 -60.5q0 -40 -27 -67t-67 -27t-67.5 27z
M279.5 606q14.5 15 14.5 40t-14.5 40.5t-37.5 15.5t-37.5 -15.5t-14.5 -40.5t14.5 -40t37.5 -15t37.5 15z" />
    <glyph glyph-name="AEacute" unicode="&#x1fc;" horiz-adv-x="905" 
d="M500 326v-267h348v-59h-409v191h-268l-102 -191h-69l377 700h466v-59h-343v-257h306v-58h-306zM410 641l-210 -395h239v395h-29zM496 764h-52l91 146h74v-5z" />
    <glyph glyph-name="aeacute" unicode="&#x1fd;" horiz-adv-x="845" 
d="M805 232h-374q4 -86 49.5 -136.5t116.5 -50.5q47 0 84 24t56 65l56 -9q-24 -63 -76.5 -99t-119.5 -36q-68 0 -120 34.5t-75 94.5q-26 -60 -79 -94.5t-119 -34.5q-76 0 -122.5 38.5t-46.5 104.5q0 44 23.5 78.5t66 53.5t95.5 19h153v34q0 62 -33 97.5t-95 35.5
q-52 0 -87.5 -25.5t-49.5 -73.5l-56 10q19 66 68 105t125 39q62 0 105.5 -28t62.5 -78q28 50 75.5 78t102.5 28q61 0 110.5 -30.5t78 -85.5t28.5 -125q0 -13 -3 -33zM485 405.5q-43 -45.5 -52 -121.5h316q-7 77 -50 122t-108 45q-63 0 -106 -45.5zM289 68q39 23 61.5 64
t22.5 92v8h-150q-56 0 -91 -26t-35 -70q0 -42 28.5 -66.5t76.5 -24.5t87 23zM423 565h-47l93 151h69v-5z" />
    <glyph glyph-name="Oslashacute" unicode="&#x1fe;" horiz-adv-x="735" 
d="M569 638q55 -48 85.5 -122.5t30.5 -165.5q0 -105 -40 -187t-112 -127.5t-166 -45.5q-87 0 -156 40l-41 -70h-64l60 102q-55 48 -85.5 122t-30.5 166q0 105 40 187t112 127.5t165 45.5q88 0 157 -40l42 70h63zM136.5 215q21.5 -60 61.5 -100l295 503q-52 33 -126 33
q-76 0 -133 -37t-88 -105.5t-31 -158.5q0 -75 21.5 -135zM501 86q57 37 88 105.5t31 158.5q0 74 -21.5 134t-60.5 100l-297 -503q55 -32 126 -32q77 0 134 37zM373 764h-52l91 146h74v-5z" />
    <glyph glyph-name="oslashacute" unicode="&#x1ff;" horiz-adv-x="533" 
d="M415 451q39 -34 60 -86.5t21 -116.5q0 -75 -29 -133.5t-81 -91.5t-120 -33q-58 0 -109 27l-31 -52h-56l48 80q-39 35 -60 87t-21 116q0 75 29 134t81 91.5t119 32.5q63 0 109 -27l31 52h57zM111.5 162q12.5 -39 36.5 -66l198 335q-35 20 -80 20q-76 0 -121.5 -55.5
t-45.5 -147.5q0 -47 12.5 -86zM388.5 100q45.5 55 45.5 148q0 47 -12.5 86t-36.5 66l-199 -335q35 -20 80 -20q77 0 122.5 55zM270 565h-47l93 151h69v-5z" />
    <glyph glyph-name="uni0218" unicode="&#x218;" horiz-adv-x="568" 
d="M119.5 41.5q-70.5 51.5 -95.5 148.5l59 10q22 -78 77 -114.5t134 -36.5q80 0 125 36.5t45 104.5q0 46 -24.5 73t-61 41t-99.5 30q-72 18 -115.5 36t-74 55.5t-30.5 101.5q0 55 29 96.5t80 64t116 22.5q95 0 156.5 -47t82.5 -133l-59 -10q-17 67 -63.5 99t-116.5 32
q-71 0 -115.5 -32.5t-44.5 -91.5q0 -44 24.5 -71t61 -41t97.5 -29q72 -18 116 -36t75 -56.5t31 -103.5q0 -93 -63 -146.5t-172 -53.5q-104 0 -174.5 51.5zM303 -233h-40v13l36 77h-40v68h69v-68z" />
    <glyph glyph-name="uni0219" unicode="&#x219;" horiz-adv-x="445" 
d="M92 29.5q-54 39.5 -72 110.5l56 9q12 -51 52 -77.5t100 -26.5q56 0 89.5 24t33.5 67q0 30 -18 48t-45 27t-72 18q-57 12 -90 24.5t-57 40t-24 76.5q0 61 50 98.5t124 37.5t123.5 -36t65.5 -103l-56 -10q-9 46 -44.5 70t-88.5 24q-48 0 -80 -21t-32 -60q0 -29 17.5 -46.5
t43.5 -26t72 -18.5q56 -12 90 -24t58.5 -40.5t24.5 -78.5q0 -67 -51 -106.5t-134 -39.5q-82 0 -136 39.5zM241 -233h-40v13l36 77h-40v68h69v-68z" />
    <glyph glyph-name="uni021A" unicode="&#x21a;" horiz-adv-x="576" 
d="M321 0h-65v641h-246v59h556v-59h-245v-641zM298 -233h-40v13l36 77h-40v68h69v-68z" />
    <glyph glyph-name="uni021B" unicode="&#x21b;" horiz-adv-x="355" 
d="M229 0q-58 0 -86.5 31t-28.5 94v319h-107v52h107l26 137h36v-137h154v-52h-154v-319q0 -37 14.5 -53.5t47.5 -16.5h97v-55h-106zM229 -233h-40v13l36 77h-40v68h69v-68z" />
    <glyph glyph-name="uni021E" unicode="&#x21e;" horiz-adv-x="673" 
d="M524 384v316h65v-700h-65v326h-375v-326h-65v700h65v-316h375zM337 806l91 99h66l-132 -141h-51l-132 141h67z" />
    <glyph glyph-name="uni021F" unicode="&#x21f;" horiz-adv-x="540" 
d="M74 0v700h62v-305h5q27 52 71 81.5t100 29.5q76 0 120 -53t44 -145v-308h-62v301q0 72 -31 111t-87 39q-44 0 -80.5 -24t-58 -65t-21.5 -89v-273h-62zM276 806l91 99h66l-132 -141h-51l-132 141h67z" />
    <glyph glyph-name="uni0232" unicode="&#x232;" horiz-adv-x="558" 
d="M312 0h-65v262l-242 438h71l202 -369h5l202 369h68l-241 -438v-262zM430 804h-298v49h298v-49z" />
    <glyph glyph-name="uni0233" unicode="&#x233;" horiz-adv-x="473" 
d="M246 50l155 446h62l-245 -696h-58l70 200h-38l-182 496h65l160 -446h11zM381 609h-286v45h286v-45z" />
    <glyph glyph-name="uni0237" unicode="&#x237;" horiz-adv-x="208" 
d="M-35 -200v55h45q35 0 49.5 16t14.5 54v571h60v-571q0 -63 -28 -94t-86 -31h-55z" />
    <glyph glyph-name="uni0244" unicode="&#x244;" horiz-adv-x="701" 
d="M699 459v-55h-98v-127q0 -89 -30.5 -153.5t-87.5 -99t-133 -34.5t-132.5 34.5t-87 99t-30.5 153.5v127h-98v55h98v241h65v-241h371v241h65v-241h98zM536 404h-371v-124q0 -112 48.5 -171.5t136.5 -59.5q89 0 137.5 59.5t48.5 171.5v124z" />
    <glyph glyph-name="uni0259" unicode="&#x259;" horiz-adv-x="518" 
d="M371 473.5q52 -32.5 81 -91.5t29 -134t-28.5 -133.5t-80 -91.5t-117.5 -33q-64 0 -115 30.5t-79.5 86t-28.5 126.5q0 15 3 33h384q-5 86 -50 135.5t-118 49.5q-50 0 -86.5 -23.5t-56.5 -65.5l-56 10q24 62 76.5 98t122.5 36q68 0 120 -32.5zM366 90.5q43 45.5 51 123.5
h-326q7 -78 51 -123.5t113 -45.5q68 0 111 45.5z" />
    <glyph glyph-name="uni0289" unicode="&#x289;" horiz-adv-x="563" 
d="M561 328v-49h-83v-279h-59v104h-5q-30 -55 -74 -84.5t-98 -29.5q-75 0 -118.5 53t-43.5 146v90h-83v49h83v168h62v-168h274v168h62v-168h83zM416 279h-274v-84q0 -71 30.5 -110.5t85.5 -39.5q43 0 79.5 24t57.5 65.5t21 89.5v55z" />
    <glyph glyph-name="uni02BB" unicode="&#x2bb;" horiz-adv-x="186" 
d="M137 485h-88v89l32 126h53v-20l-54 -106h57v-89z" />
    <glyph glyph-name="uni02BC" unicode="&#x2bc;" horiz-adv-x="186" 
d="M104 485h-52v20l54 106h-57v89h88v-89z" />
    <glyph glyph-name="circumflex" unicode="&#x2c6;" horiz-adv-x="365" 
d="M206 710l129 -145h-61l-92 104l-92 -104h-60l129 145h47z" />
    <glyph glyph-name="caron" unicode="&#x2c7;" horiz-adv-x="365" 
d="M183 606l92 104h60l-129 -145h-47l-129 145h61z" />
    <glyph glyph-name="breve" unicode="&#x2d8;" horiz-adv-x="332" 
d="M67.5 602q-37.5 37 -37.5 98h49q0 -41 23 -65t64 -24q42 0 64.5 23.5t22.5 65.5h49q0 -61 -37.5 -98t-98.5 -37t-98.5 37z" />
    <glyph glyph-name="dotaccent" unicode="&#x2d9;" horiz-adv-x="129" 
d="M99 594h-69v74h69v-74z" />
    <glyph glyph-name="ring" unicode="&#x2da;" horiz-adv-x="249" 
d="M57.5 579q-27.5 27 -27.5 67q0 41 27 68t68 27q40 0 67 -27.5t27 -67.5t-27 -67t-67 -27t-67.5 27zM162.5 606q14.5 15 14.5 40t-14.5 40.5t-37.5 15.5t-37.5 -15.5t-14.5 -40.5t14.5 -40t37.5 -15t37.5 15z" />
    <glyph glyph-name="ogonek" unicode="&#x2db;" horiz-adv-x="183" 
d="M50 -173q-20 20 -20 52q0 37 27 71t70 58l26 -8q-76 -62 -76 -114q0 -36 36 -36q14 0 26 6l14 -35q-20 -14 -49 -14q-34 0 -54 20z" />
    <glyph glyph-name="tilde" unicode="&#x2dc;" horiz-adv-x="352" 
d="M30 592q0 41 21.5 66t57.5 25q20 0 36 -8t39 -23q19 -13 31 -19t26 -6q17 0 26 11.5t9 32.5v12h46v-12q0 -41 -21.5 -66t-57.5 -25q-21 0 -37.5 8t-37.5 23q-19 13 -31 19t-25 6q-18 0 -27 -11.5t-9 -32.5v-12h-46v12z" />
    <glyph glyph-name="hungarumlaut" unicode="&#x2dd;" horiz-adv-x="343" 
d="M72 565h-42l86 151h63v-5zM206 565h-42l86 151h63v-5z" />
    <glyph glyph-name="gravecomb" unicode="&#x300;" horiz-adv-x="0" 
d="M-30 565h-47l-115 146v5h69z" />
    <glyph glyph-name="acutecomb" unicode="&#x301;" horiz-adv-x="0" 
d="M-145 565h-47l93 151h69v-5z" />
    <glyph glyph-name="uni0302" unicode="&#x302;" horiz-adv-x="0" 
d="M-159 710l129 -145h-61l-92 104l-92 -104h-60l129 145h47z" />
    <glyph glyph-name="tildecomb" unicode="&#x303;" horiz-adv-x="0" 
d="M-322 592q0 41 21.5 66t57.5 25q20 0 36 -8t39 -23q19 -13 31 -19t26 -6q17 0 26 11.5t9 32.5v12h46v-12q0 -41 -21.5 -66t-57.5 -25q-21 0 -37.5 8t-37.5 23q-19 13 -31 19t-25 6q-18 0 -27 -11.5t-9 -32.5v-12h-46v12z" />
    <glyph glyph-name="uni0304" unicode="&#x304;" horiz-adv-x="0" 
d="M-30 609h-286v45h286v-45z" />
    <glyph glyph-name="uni0306" unicode="&#x306;" horiz-adv-x="0" 
d="M-264.5 602q-37.5 37 -37.5 98h49q0 -41 23 -65t64 -24q42 0 64.5 23.5t22.5 65.5h49q0 -61 -37.5 -98t-98.5 -37t-98.5 37z" />
    <glyph glyph-name="uni0307" unicode="&#x307;" horiz-adv-x="0" 
d="M-30 594h-69v74h69v-74z" />
    <glyph glyph-name="uni0308" unicode="&#x308;" horiz-adv-x="0" 
d="M-205 594h-69v74h69v-74zM-30 594h-69v74h69v-74z" />
    <glyph glyph-name="uni030A" unicode="&#x30a;" horiz-adv-x="0" 
d="M-191.5 579q-27.5 27 -27.5 67q0 41 27 68t68 27q40 0 67 -27.5t27 -67.5t-27 -67t-67 -27t-67.5 27zM-86.5 606q14.5 15 14.5 40t-14.5 40.5t-37.5 15.5t-37.5 -15.5t-14.5 -40.5t14.5 -40t37.5 -15t37.5 15z" />
    <glyph glyph-name="uni030B" unicode="&#x30b;" horiz-adv-x="0" 
d="M-271 565h-42l86 151h63v-5zM-137 565h-42l86 151h63v-5z" />
    <glyph glyph-name="uni030C" unicode="&#x30c;" horiz-adv-x="0" 
d="M-182 606l92 104h60l-129 -145h-47l-129 145h61z" />
    <glyph glyph-name="uni0312" unicode="&#x312;" horiz-adv-x="0" 
d="M-32 575h-69v68l25 90h40v-14l-36 -76h40v-68z" />
    <glyph glyph-name="dotbelowcomb" unicode="&#x323;" horiz-adv-x="0" 
d="M-30 -171h-69v74h69v-74z" />
    <glyph glyph-name="uni0326" unicode="&#x326;" horiz-adv-x="0" 
d="M-55 -233h-40v13l36 77h-40v68h69v-68z" />
    <glyph glyph-name="uni0327" unicode="&#x327;" horiz-adv-x="0" 
d="M-98 -45q30 -2 49 -22.5t19 -50.5q0 -34 -21.5 -54.5t-58.5 -20.5t-66 19l13 36q21 -12 47 -12q40 0 40 34q0 18 -11 28t-31 10h-23v16l22 75l39 -2z" />
    <glyph glyph-name="uni0328" unicode="&#x328;" horiz-adv-x="0" 
d="M-133 -173q-20 20 -20 52q0 37 27 71t70 58l26 -8q-76 -62 -76 -114q0 -36 36 -36q14 0 26 6l14 -35q-20 -14 -49 -14q-34 0 -54 20z" />
    <glyph glyph-name="uni0400" unicode="&#x400;" horiz-adv-x="563" 
d="M149 326v-267h357v-59h-422v700h417v-59h-352v-257h316v-58h-316zM339 764h-52l-113 141v5h74z" />
    <glyph glyph-name="uni0401" unicode="&#x401;" horiz-adv-x="563" 
d="M149 326v-267h357v-59h-422v700h417v-59h-352v-257h316v-58h-316zM236 789h-72v77h72v-77zM421 789h-72v77h72v-77z" />
    <glyph glyph-name="uni0402" unicode="&#x402;" horiz-adv-x="731" 
d="M560 419q54 -31 84 -88.5t30 -135.5t-31 -136.5t-86.5 -90t-127.5 -31.5h-26v59h23q84 0 133.5 53t49.5 146q0 91 -48 143.5t-130 52.5q-45 0 -89.5 -16t-81.5 -46v-329h-65v641h-180v59h489v-59h-244v-252q79 61 177 61q69 0 123 -31z" />
    <glyph glyph-name="uni0403" unicode="&#x403;" horiz-adv-x="498" 
d="M149 0h-65v700h402v-59h-337v-641zM281 764h-52l91 146h74v-5z" />
    <glyph glyph-name="uni0404" unicode="&#x404;" horiz-adv-x="700" 
d="M660 200q-35 -102 -109 -156t-178 -54q-96 0 -169.5 45.5t-113.5 127t-40 187.5t40 187.5t113 127t168 45.5q102 0 176 -54t108 -156l-60 -10q-27 79 -84.5 120t-139.5 41q-110 0 -178 -72t-77 -195h317v-58h-317q4 -84 36.5 -146.5t89 -96.5t131.5 -34q83 0 141 41.5
t86 119.5z" />
    <glyph glyph-name="uni0405" unicode="&#x405;" horiz-adv-x="568" 
d="M119.5 41.5q-70.5 51.5 -95.5 148.5l59 10q22 -78 77 -114.5t134 -36.5q80 0 125 36.5t45 104.5q0 46 -24.5 73t-61 41t-99.5 30q-72 18 -115.5 36t-74 55.5t-30.5 101.5q0 55 29 96.5t80 64t116 22.5q95 0 156.5 -47t82.5 -133l-59 -10q-17 67 -63.5 99t-116.5 32
q-71 0 -115.5 -32.5t-44.5 -91.5q0 -44 24.5 -71t61 -41t97.5 -29q72 -18 116 -36t75 -56.5t31 -103.5q0 -93 -63 -146.5t-172 -53.5q-104 0 -174.5 51.5z" />
    <glyph glyph-name="uni0406" unicode="&#x406;" horiz-adv-x="242" 
d="M153 0h-64v700h64v-700z" />
    <glyph glyph-name="uni0407" unicode="&#x407;" horiz-adv-x="242" 
d="M153 0h-64v700h64v-700zM82 789h-72v77h72v-77zM230 789h-72v77h72v-77z" />
    <glyph glyph-name="uni0408" unicode="&#x408;" horiz-adv-x="475" 
d="M75 41.5q-54 48.5 -68 133.5l59 10q11 -64 47.5 -98.5t94.5 -34.5q60 0 91.5 39t31.5 115v494h65v-494q0 -100 -50 -156.5t-138 -56.5q-79 0 -133 48.5z" />
    <glyph glyph-name="uni0409" unicode="&#x409;" horiz-adv-x="981" 
d="M701 409q67 0 119 -25.5t80.5 -72t28.5 -106.5t-28.5 -106.5t-80.5 -72.5t-119 -26h-205v641h-272l-16 -331q-6 -126 -24.5 -193.5t-53 -94.5t-94.5 -27h-29v63h20q43 0 66 19.5t35 73.5t17 165l18 384h398v-291h140zM698 59q78 0 122 38.5t44 107.5q0 68 -44.5 107
t-121.5 39h-137v-292h137z" />
    <glyph glyph-name="uni040A" unicode="&#x40a;" horiz-adv-x="988" 
d="M708 409q67 0 119 -25.5t80.5 -72t28.5 -106.5t-28.5 -106.5t-80.5 -72.5t-119 -26h-205v351h-354v-351h-65v700h65v-291h354v291h65v-291h140zM705 59q78 0 122 38.5t44 107.5q0 68 -44.5 107t-121.5 39h-137v-292h137z" />
    <glyph glyph-name="uni040B" unicode="&#x40b;" horiz-adv-x="738" 
d="M607.5 388q61.5 -62 61.5 -169v-219h-65v219q0 82 -44.5 127t-124.5 45q-47 0 -92.5 -16t-82.5 -46v-329h-65v641h-180v59h489v-59h-244v-252q39 30 85.5 45.5t96.5 15.5q104 0 165.5 -62z" />
    <glyph glyph-name="uni040C" unicode="&#x40c;" horiz-adv-x="586" 
d="M228 362l361 -362h-88l-352 353v-353h-65v700h65v-337l327 337h81zM311 764h-52l91 146h74v-5z" />
    <glyph glyph-name="uni040D" unicode="&#x40d;" horiz-adv-x="683" 
d="M160 0h-76v700h64v-602h5l371 602h75v-700h-63v603h-5zM388 764h-52l-113 141v5h74z" />
    <glyph glyph-name="uni040E" unicode="&#x40e;" horiz-adv-x="576" 
d="M307 270l193 430h64l-318 -700h-65l90 199l-264 501h71l224 -430h5zM180 801q-42 37 -42 97h51q0 -39 27 -63t73 -24t73 24t27 63h51q0 -60 -42 -97t-109 -37t-109 37z" />
    <glyph glyph-name="uni040F" unicode="&#x40f;" horiz-adv-x="658" 
d="M300 0h-216v700h65v-641h360v641h65v-700h-215v-157h-59v157z" />
    <glyph glyph-name="uni0410" unicode="&#x410;" horiz-adv-x="603" 
d="M588 0h-66l-66 191h-311l-66 -191h-64l246 700h81zM298 636l-134 -390h273l-134 390h-5z" />
    <glyph glyph-name="uni0411" unicode="&#x411;" horiz-adv-x="598" 
d="M320 424q68 0 119.5 -26.5t80 -75t28.5 -110.5t-28.5 -110.5t-80 -75t-119.5 -26.5h-236v700h417v-59h-352v-217h171zM317 59q79 0 122.5 40t43.5 113t-43.5 113.5t-122.5 40.5h-168v-307h168z" />
    <glyph glyph-name="uni0412" unicode="&#x412;" horiz-adv-x="628" 
d="M536.5 296.5q34.5 -44.5 34.5 -105.5q0 -55 -28 -98.5t-78 -68t-114 -24.5h-267v700h259q60 0 106.5 -23.5t73 -65t26.5 -93.5q0 -53 -29 -93t-83 -63q65 -21 99.5 -65.5zM149 641v-256h191q65 0 104.5 35.5t39.5 92.5q0 58 -39.5 93t-104.5 35h-191zM348 59
q73 0 115.5 36.5t42.5 98.5q0 63 -42.5 99.5t-115.5 36.5h-199v-271h199z" />
    <glyph glyph-name="uni0413" unicode="&#x413;" horiz-adv-x="498" 
d="M149 0h-65v700h402v-59h-337v-641z" />
    <glyph glyph-name="uni0414" unicode="&#x414;" horiz-adv-x="701" 
d="M574 59h93v-216h-58v157h-544v-157h-58v216h65q33 26 49 83.5t21 173.5l18 384h414v-641zM509 59v582h-289l-15 -331q-5 -108 -19 -163.5t-44 -87.5h367z" />
    <glyph glyph-name="uni0415" unicode="&#x415;" horiz-adv-x="563" 
d="M149 326v-267h357v-59h-422v700h417v-59h-352v-257h316v-58h-316z" />
    <glyph glyph-name="uni0416" unicode="&#x416;" horiz-adv-x="869" 
d="M540 361l331 -361h-82l-323 354v-354h-64v353l-322 -353h-83l332 361l-300 339h77l296 -336v336h64v-337l297 337h77z" />
    <glyph glyph-name="uni0417" unicode="&#x417;" horiz-adv-x="585" 
d="M494.5 293.5q36.5 -45.5 36.5 -108.5q0 -58 -30.5 -102t-85.5 -68.5t-125 -24.5q-103 0 -170 50t-91 140l58 10q22 -71 74 -106t129 -35q81 0 128.5 36.5t47.5 102.5q0 64 -45 101t-118 37h-104v58h100q65 0 106 36.5t41 95.5q0 61 -44 98t-119 37q-68 0 -115 -32.5
t-65 -98.5l-59 10q23 85 85 132.5t154 47.5q67 0 118.5 -24.5t80.5 -68t29 -98.5t-31.5 -97.5t-87.5 -62.5q66 -20 102.5 -65.5z" />
    <glyph glyph-name="uni0418" unicode="&#x418;" horiz-adv-x="683" 
d="M160 0h-76v700h64v-602h5l371 602h75v-700h-63v603h-5z" />
    <glyph glyph-name="uni0419" unicode="&#x419;" horiz-adv-x="683" 
d="M160 0h-76v700h64v-602h5l371 602h75v-700h-63v603h-5zM233 801q-42 37 -42 97h51q0 -39 27 -63t73 -24t73 24t27 63h51q0 -60 -42 -97t-109 -37t-109 37z" />
    <glyph glyph-name="uni041A" unicode="&#x41a;" horiz-adv-x="586" 
d="M228 362l361 -362h-88l-352 353v-353h-65v700h65v-337l327 337h81z" />
    <glyph glyph-name="uni041B" unicode="&#x41b;" horiz-adv-x="666" 
d="M163 700h420v-700h-65v641h-294l-16 -331q-6 -126 -24.5 -193.5t-53 -94.5t-94.5 -27h-29v63h20q43 0 66 19.5t35 73.5t17 165z" />
    <glyph glyph-name="uni041C" unicode="&#x41c;" horiz-adv-x="865" 
d="M148 0h-64v700h95l252 -628h5l253 628h92v-700h-64v608h-5l-245 -608h-69l-245 608h-5v-608z" />
    <glyph glyph-name="uni041D" unicode="&#x41d;" horiz-adv-x="673" 
d="M524 384v316h65v-700h-65v326h-375v-326h-65v700h65v-316h375z" />
    <glyph glyph-name="uni041E" unicode="&#x41e;" horiz-adv-x="735" 
d="M202 35.5q-72 45.5 -112 127.5t-40 187t40 187t112 127.5t165 45.5q94 0 166 -45.5t112 -127.5t40 -187t-40 -187t-112 -127.5t-166 -45.5q-93 0 -165 45.5zM501 86q57 37 88 105.5t31 158.5t-31 158.5t-88 105.5t-134 37q-76 0 -133 -37t-88 -105.5t-31 -158.5
t31 -158.5t88 -105.5t133 -37q77 0 134 37z" />
    <glyph glyph-name="uni041F" unicode="&#x41f;" horiz-adv-x="663" 
d="M149 0h-65v700h495v-700h-65v641h-365v-641z" />
    <glyph glyph-name="uni0420" unicode="&#x420;" horiz-adv-x="575" 
d="M310 700q66 0 116.5 -27t79 -75t28.5 -109q0 -60 -28.5 -108t-79.5 -75t-116 -27h-161v-279h-65v700h226zM306 338q76 0 119.5 41t43.5 110q0 70 -43.5 111t-119.5 41h-157v-303h157z" />
    <glyph glyph-name="uni0421" unicode="&#x421;" horiz-adv-x="700" 
d="M204 35.5q-73 45.5 -113.5 127t-40.5 187.5t40 187.5t113 127t168 45.5q102 0 176 -54t108 -156l-60 -10q-27 79 -84.5 120t-139.5 41q-78 0 -135.5 -37t-89 -105t-31.5 -159t31.5 -159t89.5 -105t137 -37q83 0 141 41.5t86 119.5l60 -10q-35 -102 -109 -156t-178 -54
q-96 0 -169 45.5z" />
    <glyph glyph-name="uni0422" unicode="&#x422;" horiz-adv-x="576" 
d="M321 0h-65v641h-246v59h556v-59h-245v-641z" />
    <glyph glyph-name="uni0423" unicode="&#x423;" horiz-adv-x="576" 
d="M307 270l193 430h64l-318 -700h-65l90 199l-264 501h71l224 -430h5z" />
    <glyph glyph-name="uni0424" unicode="&#x424;" horiz-adv-x="803" 
d="M444 648q91 0 163.5 -38t114 -106t41.5 -154t-41.5 -154t-114 -106t-163.5 -38h-10v-87h-65v87h-10q-91 0 -163.5 38t-114 106t-41.5 154t41.5 154t114 106t163.5 38h10v82h65v-82h10zM137 222q32 -55 90.5 -85t134.5 -30h8v486h-8q-76 0 -134.5 -30t-90.5 -85t-32 -128
t32 -128zM441 107q76 0 134.5 30t90.5 85t32 128t-32 128t-90.5 85t-134.5 30h-8v-486h8z" />
    <glyph glyph-name="uni0425" unicode="&#x425;" horiz-adv-x="579" 
d="M554 700l-225 -341l240 -359h-75l-203 304h-5l-203 -304h-73l240 359l-225 341h74l189 -288h5l190 288h71z" />
    <glyph glyph-name="uni0426" unicode="&#x426;" horiz-adv-x="698" 
d="M664 -157h-58v157h-522v700h65v-641h357v641h65v-641h93v-216z" />
    <glyph glyph-name="uni0427" unicode="&#x427;" horiz-adv-x="621" 
d="M473 700h65v-700h-65v298q-38 -30 -85 -45.5t-97 -15.5q-104 0 -165.5 62t-61.5 169v232h65v-232q0 -82 44.5 -127.5t124.5 -45.5q47 0 92.5 16t82.5 47v342z" />
    <glyph glyph-name="uni0428" unicode="&#x428;" horiz-adv-x="993" 
d="M909 0h-825v700h65v-641h315v641h65v-641h315v641h65v-700z" />
    <glyph glyph-name="uni0429" unicode="&#x429;" horiz-adv-x="1036" 
d="M1002 -157h-58v157h-860v700h65v-641h315v641h65v-641h315v641h65v-641h93v-216z" />
    <glyph glyph-name="uni042A" unicode="&#x42a;" horiz-adv-x="666" 
d="M384 436q68 0 120.5 -27t81 -76.5t28.5 -114.5q0 -64 -28.5 -113.5t-81 -77t-120.5 -27.5h-215v641h-164v59h229v-264h150zM381 59q79 0 123.5 42t44.5 117t-44.5 117.5t-123.5 42.5h-147v-319h147z" />
    <glyph glyph-name="uni042B" unicode="&#x42b;" horiz-adv-x="804" 
d="M295 436q68 0 120 -27t80.5 -76.5t28.5 -114.5q0 -64 -28.5 -113.5t-80.5 -77t-120 -27.5h-211v700h65v-264h146zM655 0v700h65v-700h-65zM291 59q79 0 123.5 42t44.5 117t-44.5 117.5t-123.5 42.5h-142v-319h142z" />
    <glyph glyph-name="uni042C" unicode="&#x42c;" horiz-adv-x="586" 
d="M305 436q68 0 120 -27t80.5 -76.5t28.5 -114.5q0 -64 -28.5 -113.5t-80.5 -77t-120 -27.5h-221v700h65v-264h156zM301 59q79 0 123.5 42t44.5 117t-44.5 117.5t-123.5 42.5h-152v-319h152z" />
    <glyph glyph-name="uni042D" unicode="&#x42d;" horiz-adv-x="692" 
d="M491.5 664.5q71.5 -45.5 110.5 -127t39 -187.5t-39.5 -187.5t-111 -127t-166.5 -45.5q-103 0 -177 54t-110 156l59 10q29 -78 87.5 -119.5t140.5 -41.5q112 0 178.5 74.5t72.5 202.5h-316v58h316q-8 123 -75 195t-174 72q-81 0 -139 -41t-86 -120l-59 10
q35 102 108.5 156t175.5 54q94 0 165.5 -45.5z" />
    <glyph glyph-name="uni042E" unicode="&#x42e;" horiz-adv-x="943" 
d="M751 664.5q68 -45.5 105 -127.5t37 -187t-37 -187t-105 -127.5t-156 -45.5q-85 0 -151.5 42.5t-104.5 118.5t-42 175h-148v-326h-65v700h65v-316h148q6 96 44.5 170t104 115t149.5 41q88 0 156 -45.5zM718.5 86.5q52.5 37.5 81 105.5t28.5 158t-28.5 158t-81 105.5
t-123.5 37.5q-72 0 -124.5 -37.5t-81 -105.5t-28.5 -158t28.5 -158t81 -105.5t124.5 -37.5q71 0 123.5 37.5z" />
    <glyph glyph-name="uni042F" unicode="&#x42f;" horiz-adv-x="616" 
d="M533 700v-700h-65v301h-169l-191 -301h-74l200 308q-71 17 -114 69t-43 123q0 57 28 102.5t77 71.5t110 26h241zM184 397.5q42 -38.5 111 -38.5h173v282h-173q-69 0 -111 -38.5t-42 -102.5t42 -102.5z" />
    <glyph glyph-name="uni0430" unicode="&#x430;" horiz-adv-x="505" 
d="M488 49v-49h-32q-36 0 -56 20.5t-20 57.5v30h-5q-28 -57 -76 -87.5t-106 -30.5q-67 0 -112.5 39.5t-45.5 104.5q0 46 24 82t66 55.5t95 19.5h151v27q0 62 -33 97.5t-94 35.5q-51 0 -86.5 -25.5t-49.5 -73.5l-56 10q19 66 68 105t124 39q89 0 139 -51.5t50 -136.5v-230
q0 -39 33 -39h22zM287 68.5q39 23.5 61.5 64t22.5 91.5v15h-148q-55 0 -90.5 -27.5t-35.5 -74.5q0 -42 28.5 -67t75.5 -25t86 23.5z" />
    <glyph glyph-name="uni0431" unicode="&#x431;" horiz-adv-x="525" 
d="M105 69q-61 79 -61 217q0 132 30.5 215.5t90.5 126t153 53.5q101 13 143 25l10 -57q-52 -15 -153 -27q-66 -8 -109 -32.5t-69.5 -77t-36.5 -143.5h5q27 56 72.5 85t102.5 29q61 0 107.5 -31t72 -86.5t25.5 -127.5q0 -73 -26.5 -129.5t-75.5 -87.5t-113 -31
q-107 0 -168 79zM385.5 97q40.5 52 40.5 141q0 88 -40 139t-112 51q-74 0 -119 -51.5t-45 -138.5q0 -86 44.5 -139.5t118.5 -53.5q72 0 112.5 52z" />
    <glyph glyph-name="uni0432" unicode="&#x432;" horiz-adv-x="501" 
d="M435 212.5q26 -31.5 26 -77.5q0 -60 -43.5 -97.5t-114.5 -37.5h-234v496h224q66 0 108.5 -36t42.5 -92q0 -38 -22 -67t-61 -43q48 -14 74 -45.5zM131 441v-162h159q42 0 67.5 22.5t25.5 59.5q0 36 -25.5 58t-67.5 22h-159zM300 55q45 0 72 23.5t27 62.5t-26.5 62.5
t-72.5 23.5h-169v-172h169z" />
    <glyph glyph-name="uni0433" unicode="&#x433;" horiz-adv-x="393" 
d="M131 0h-62v496h312v-55h-250v-441z" />
    <glyph glyph-name="uni0434" unicode="&#x434;" horiz-adv-x="563" 
d="M458 55h83v-197h-56v142h-423v-142h-55v197h51q25 21 36.5 63t16.5 129l13 249h334v-441zM396 55v386h-215l-10 -203q-4 -78 -15 -118.5t-35 -64.5h275z" />
    <glyph glyph-name="uni0435" unicode="&#x435;" horiz-adv-x="523" 
d="M483 232h-384q5 -87 50.5 -137t120.5 -50q52 0 88.5 24t56.5 65l56 -9q-24 -63 -76.5 -99t-124.5 -36q-69 0 -121.5 32.5t-82 91.5t-29.5 134t29 134t80.5 91.5t117.5 32.5q64 0 114.5 -30.5t79 -85.5t28.5 -125q0 -13 -3 -33zM152.5 406q-43.5 -45 -51.5 -122h326
q-6 77 -50 122t-113 45q-68 0 -111.5 -45z" />
    <glyph glyph-name="uni0436" unicode="&#x436;" horiz-adv-x="670" 
d="M433 262l243 -262h-77l-234 253v-253h-60v253l-234 -253h-77l243 262l-217 234h72l213 -233v233h60v-233l213 233h72z" />
    <glyph glyph-name="uni0437" unicode="&#x437;" horiz-adv-x="465" 
d="M397.5 210.5q26.5 -31.5 26.5 -75.5q0 -65 -52.5 -105t-138.5 -40q-82 0 -138 38.5t-75 111.5l56 9q13 -51 54 -77.5t103 -26.5q59 0 94.5 24.5t35.5 67.5q0 41 -33.5 65.5t-91.5 24.5h-70v52h66q51 0 82.5 23t31.5 63t-32.5 63t-86.5 23q-53 0 -88.5 -23.5t-49.5 -70.5
l-56 10q20 69 71 104t123 35q79 0 129.5 -38t50.5 -100q0 -42 -23.5 -71t-65.5 -40q51 -15 77.5 -46.5z" />
    <glyph glyph-name="uni0438" unicode="&#x438;" horiz-adv-x="545" 
d="M138 0h-69v496h60v-407h5l273 407h69v-496h-60v407h-5z" />
    <glyph glyph-name="uni0439" unicode="&#x439;" horiz-adv-x="545" 
d="M138 0h-69v496h60v-407h5l273 407h69v-496h-60v407h-5zM172.5 602q-38.5 37 -38.5 98h49q0 -41 23.5 -65t66.5 -24q42 0 65.5 23.5t23.5 65.5h49q0 -61 -38 -98t-100 -37t-100.5 37z" />
    <glyph glyph-name="uni043A" unicode="&#x43a;" horiz-adv-x="466" 
d="M204 261l268 -261h-83l-258 253v-253h-62v496h62v-233l237 233h77z" />
    <glyph glyph-name="uni043B" unicode="&#x43b;" horiz-adv-x="535" 
d="M127 496h339v-496h-62v441h-220l-9 -203q-5 -96 -20 -148.5t-42.5 -73.5t-71.5 -21h-36v59h23q30 0 47 16t26 57t13 120z" />
    <glyph glyph-name="uni043C" unicode="&#x43c;" horiz-adv-x="685" 
d="M129 0h-60v496h88l184 -432h5l185 432h85v-496h-61v409h-5l-176 -409h-64l-176 409h-5v-409z" />
    <glyph glyph-name="uni043D" unicode="&#x43d;" horiz-adv-x="535" 
d="M404 281v215h62v-496h-62v225h-273v-225h-62v496h62v-215h273z" />
    <glyph glyph-name="uni043E" unicode="&#x43e;" horiz-adv-x="533" 
d="M147 23q-52 33 -81 91.5t-29 133.5t29 134t81 91.5t119 32.5q68 0 120 -32.5t81 -91.5t29 -134t-29 -133.5t-81 -91.5t-120 -33q-67 0 -119 33zM388.5 100q45.5 55 45.5 148t-45.5 148t-122.5 55q-76 0 -121.5 -55.5t-45.5 -147.5t45.5 -147.5t121.5 -55.5q77 0 122.5 55
z" />
    <glyph glyph-name="uni043F" unicode="&#x43f;" horiz-adv-x="525" 
d="M131 0h-62v496h387v-496h-62v441h-263v-441z" />
    <glyph glyph-name="uni0440" unicode="&#x440;" horiz-adv-x="565" 
d="M69 -200v696h59v-106h5q29 56 76 86t106 30q62 0 110.5 -33t75.5 -91.5t27 -133.5t-27 -133.5t-75.5 -91.5t-110.5 -33q-59 0 -105.5 29.5t-73.5 83.5h-5v-303h-62zM422 100q44 55 44 148t-44 148t-118 55q-50 0 -89.5 -25.5t-61.5 -72t-22 -105.5t22 -105t61.5 -72
t89.5 -26q74 0 118 55z" />
    <glyph glyph-name="uni0441" unicode="&#x441;" horiz-adv-x="500" 
d="M147.5 22.5q-52.5 32.5 -81.5 91.5t-29 134t29 134t80.5 91.5t118.5 32.5q73 0 126.5 -39.5t76.5 -109.5l-55 -11q-17 50 -56 77.5t-92 27.5q-76 0 -121 -55t-45 -148t45.5 -148t123.5 -55q54 0 93.5 27.5t56.5 77.5l55 -10q-23 -70 -77 -110t-128 -40q-68 0 -120.5 32.5
z" />
    <glyph glyph-name="uni0442" unicode="&#x442;" horiz-adv-x="440" 
d="M251 0h-62v441h-179v55h420v-55h-179v-441z" />
    <glyph glyph-name="uni0443" unicode="&#x443;" horiz-adv-x="473" 
d="M246 50l155 446h62l-245 -696h-58l70 200h-38l-182 496h65l160 -446h11z" />
    <glyph glyph-name="uni0444" unicode="&#x444;" horiz-adv-x="643" 
d="M573.5 115q-32.5 -59 -90 -92t-130.5 -33v-190h-62v190q-73 0 -131 33t-90.5 91.5t-32.5 133.5t32.5 134t90.5 91.5t131 32.5v194h62v-194q73 0 130.5 -33t90 -91.5t32.5 -133.5q0 -74 -32.5 -133zM151.5 100q52.5 -55 139.5 -55v406q-87 0 -139.5 -55t-52.5 -148
t52.5 -148zM352 45q87 0 139.5 55t52.5 148t-52.5 148t-139.5 55v-406z" />
    <glyph glyph-name="uni0445" unicode="&#x445;" horiz-adv-x="449" 
d="M429 496l-167 -244l177 -252h-71l-142 204h-5l-142 -204h-69l177 251l-167 245h69l134 -198h5l134 198h67z" />
    <glyph glyph-name="uni0446" unicode="&#x446;" 
d="M534 -142h-55v142h-410v496h62v-441h258v441h62v-441h83v-197z" />
    <glyph glyph-name="uni0447" unicode="&#x447;" horiz-adv-x="496" 
d="M366 496h62v-496h-62v202q-29 -24 -65 -36t-74 -12q-82 0 -131 48t-49 133v161h62v-161q0 -62 32.5 -94t90.5 -32q38 0 72.5 13t61.5 37v237z" />
    <glyph glyph-name="uni0448" unicode="&#x448;" horiz-adv-x="773" 
d="M704 0h-635v496h62v-441h225v441h62v-441h225v441h61v-496z" />
    <glyph glyph-name="uni0449" unicode="&#x449;" horiz-adv-x="810" 
d="M788 -142h-56v142h-663v496h62v-441h225v441h62v-441h225v441h61v-441h84v-197z" />
    <glyph glyph-name="uni044A" unicode="&#x44a;" horiz-adv-x="526" 
d="M316 318q75 0 122.5 -44.5t47.5 -114.5t-47.5 -114.5t-122.5 -44.5h-182v441h-129v55h190v-178h121zM313 55q51 0 81 28.5t30 75.5t-30 75t-81 28h-118v-207h118z" />
    <glyph glyph-name="uni044B" unicode="&#x44b;" horiz-adv-x="641" 
d="M246 318q76 0 123 -44.5t47 -114.5t-47 -114.5t-123 -44.5h-177v496h62v-178h115zM510 0v496h62v-496h-62zM243 55q51 0 81 28t30 76q0 47 -30 75t-81 28h-112v-207h112z" />
    <glyph glyph-name="uni044C" unicode="&#x44c;" horiz-adv-x="466" 
d="M256 318q76 0 123 -44.5t47 -114.5t-47 -114.5t-123 -44.5h-187v496h62v-178h125zM253 55q51 0 81 28t30 76q0 47 -30 75t-81 28h-122v-207h122z" />
    <glyph glyph-name="uni044D" unicode="&#x44d;" horiz-adv-x="490" 
d="M346 473.5q51 -32.5 79 -91.5t28 -134t-28 -134t-79.5 -91.5t-119.5 -32.5q-74 0 -127.5 40t-76.5 110l56 10q17 -49 55.5 -77t92.5 -28q72 0 115.5 48t48.5 132h-213v52h213q-7 81 -49.5 127.5t-111.5 46.5q-53 0 -91 -28t-55 -77l-56 11q23 70 76 109.5t126 39.5
q66 0 117 -32.5z" />
    <glyph glyph-name="uni044E" unicode="&#x44e;" horiz-adv-x="713" 
d="M574.5 473.5q48.5 -32.5 75 -91t26.5 -134.5q0 -75 -26.5 -134t-75 -91.5t-112.5 -32.5q-61 0 -108 29.5t-74.5 83t-30.5 123.5h-118v-226h-62v496h62v-215h118q9 102 66.5 163.5t146.5 61.5q64 0 112.5 -32.5zM573.5 99.5q40.5 54.5 40.5 148.5t-40.5 148.5t-111.5 54.5
t-111.5 -54.5t-40.5 -148.5t40.5 -148.5t111.5 -54.5t111.5 54.5z" />
    <glyph glyph-name="uni044F" unicode="&#x44f;" horiz-adv-x="503" 
d="M434 496v-496h-62v199h-139l-137 -199h-72l147 205q-53 13 -85 51.5t-32 89.5q0 43 21.5 77t59.5 53.5t86 19.5h213zM145.5 277q30.5 -26 79.5 -26h147v190h-147q-49 0 -79.5 -26t-30.5 -69t30.5 -69z" />
    <glyph glyph-name="uni0450" unicode="&#x450;" horiz-adv-x="523" 
d="M483 232h-384q5 -87 50.5 -137t120.5 -50q52 0 88.5 24t56.5 65l56 -9q-24 -63 -76.5 -99t-124.5 -36q-69 0 -121.5 32.5t-82 91.5t-29.5 134t29 134t80.5 91.5t117.5 32.5q64 0 114.5 -30.5t79 -85.5t28.5 -125q0 -13 -3 -33zM152.5 406q-43.5 -45 -51.5 -122h326
q-6 77 -50 122t-113 45q-68 0 -111.5 -45zM304 565h-47l-115 146v5h69z" />
    <glyph glyph-name="uni0451" unicode="&#x451;" horiz-adv-x="523" 
d="M483 232h-384q5 -87 50.5 -137t120.5 -50q52 0 88.5 24t56.5 65l56 -9q-24 -63 -76.5 -99t-124.5 -36q-69 0 -121.5 32.5t-82 91.5t-29.5 134t29 134t80.5 91.5t117.5 32.5q64 0 114.5 -30.5t79 -85.5t28.5 -125q0 -13 -3 -33zM152.5 406q-43.5 -45 -51.5 -122h326
q-6 77 -50 122t-113 45q-68 0 -111.5 -45zM208 594h-69v74h69v-74zM383 594h-69v74h69v-74z" />
    <glyph glyph-name="uni0452" unicode="&#x452;" horiz-adv-x="550" 
d="M442 425q44 -53 44 -145v-355q0 -63 -28 -94t-87 -31h-66v55h56q34 0 48.5 16t14.5 54v348q0 71 -31 110.5t-87 39.5q-44 0 -80.5 -24t-58 -65t-21.5 -89v-245h-62v559h-84v49h84v92h62v-92h153v-49h-153v-192h5q27 52 71 81.5t100 29.5q76 0 120 -53z" />
    <glyph glyph-name="uni0453" unicode="&#x453;" horiz-adv-x="393" 
d="M131 0h-62v496h312v-55h-250v-441zM220 565h-47l93 151h69v-5z" />
    <glyph glyph-name="uni0454" unicode="&#x454;" horiz-adv-x="500" 
d="M473 140q-23 -70 -77 -110t-128 -40q-68 0 -120.5 32.5t-81.5 91.5t-29 134t29 134t80.5 91.5t118.5 32.5q73 0 126.5 -39.5t76.5 -109.5l-55 -11q-17 50 -56 77.5t-92 27.5q-69 0 -113 -46.5t-52 -127.5h213v-52h-213q5 -83 50 -131.5t118 -48.5q54 0 93.5 27.5
t56.5 77.5z" />
    <glyph glyph-name="uni0455" unicode="&#x455;" horiz-adv-x="445" 
d="M92 29.5q-54 39.5 -72 110.5l56 9q12 -51 52 -77.5t100 -26.5q56 0 89.5 24t33.5 67q0 30 -18 48t-45 27t-72 18q-57 12 -90 24.5t-57 40t-24 76.5q0 61 50 98.5t124 37.5t123.5 -36t65.5 -103l-56 -10q-9 46 -44.5 70t-88.5 24q-48 0 -80 -21t-32 -60q0 -29 17.5 -46.5
t43.5 -26t72 -18.5q56 -12 90 -24t58.5 -40.5t24.5 -78.5q0 -67 -51 -106.5t-134 -39.5q-82 0 -136 39.5z" />
    <glyph glyph-name="uni0456" unicode="&#x456;" horiz-adv-x="208" 
d="M134 0h-60v496h60v-496zM139 594h-69v74h69v-74z" />
    <glyph glyph-name="uni0457" unicode="&#x457;" horiz-adv-x="208" 
d="M134 0h-60v496h60v-496zM69 594h-69v74h69v-74zM209 594h-69v74h69v-74z" />
    <glyph glyph-name="uni0458" unicode="&#x458;" horiz-adv-x="208" 
d="M-35 -200v55h45q35 0 49.5 16t14.5 54v571h60v-571q0 -63 -28 -94t-86 -31h-55zM139 594h-69v74h69v-74z" />
    <glyph glyph-name="uni0459" unicode="&#x459;" horiz-adv-x="763" 
d="M553 299q76 0 123 -41.5t47 -107.5t-47 -108t-123 -42h-171v441h-198l-9 -203q-5 -96 -20 -148.5t-42.5 -73.5t-71.5 -21h-36v59h23q30 0 47 16t26 57t13 120l13 249h317v-197h109zM550 55q51 0 81 26t30 69q0 42 -30 68t-81 26h-106v-189h106z" />
    <glyph glyph-name="uni045A" unicode="&#x45a;" horiz-adv-x="763" 
d="M553 299q76 0 123 -41.5t47 -107.5t-47 -108t-123 -42h-170v244h-252v-244h-62v496h62v-197h252v197h61v-197h109zM550 55q52 0 81.5 26t29.5 69t-29.5 68.5t-81.5 25.5h-106v-189h106z" />
    <glyph glyph-name="uni045B" unicode="&#x45b;" horiz-adv-x="550" 
d="M442 425q44 -53 44 -145v-280h-62v273q0 71 -31 110.5t-87 39.5q-44 0 -80.5 -24t-58 -65t-21.5 -89v-245h-62v559h-84v49h84v92h62v-92h153v-49h-153v-192h5q27 52 71 81.5t100 29.5q76 0 120 -53z" />
    <glyph glyph-name="uni045C" unicode="&#x45c;" horiz-adv-x="466" 
d="M204 261l268 -261h-83l-258 253v-253h-62v496h62v-233l237 233h77zM245 565h-47l93 151h69v-5z" />
    <glyph glyph-name="uni045D" unicode="&#x45d;" horiz-adv-x="545" 
d="M138 0h-69v496h60v-407h5l273 407h69v-496h-60v407h-5zM316 565h-47l-115 146v5h69z" />
    <glyph glyph-name="uni045E" unicode="&#x45e;" horiz-adv-x="473" 
d="M246 50l155 446h62l-245 -696h-58l70 200h-38l-182 496h65l160 -446h11zM137.5 602q-38.5 37 -38.5 98h49q0 -41 23.5 -65t66.5 -24q42 0 65.5 23.5t23.5 65.5h49q0 -61 -38 -98t-100 -37t-100.5 37z" />
    <glyph glyph-name="uni045F" unicode="&#x45f;" horiz-adv-x="525" 
d="M290 -142h-55v142h-166v496h62v-441h263v441h62v-496h-166v-142z" />
    <glyph glyph-name="uni0490" unicode="&#x490;" horiz-adv-x="498" 
d="M149 0h-65v700h347v140h55v-199h-337v-641z" />
    <glyph glyph-name="uni0491" unicode="&#x491;" horiz-adv-x="393" 
d="M131 0h-62v496h260v130h52v-185h-250v-441z" />
    <glyph glyph-name="uni0492" unicode="&#x492;" horiz-adv-x="520" 
d="M508 700v-59h-338v-262h256v-58h-256v-321h-65v321h-98v58h98v321h403z" />
    <glyph glyph-name="uni0493" unicode="&#x493;" horiz-adv-x="413" 
d="M401 496v-55h-250v-175h179v-55h-179v-211h-62v211h-84v55h84v230h312z" />
    <glyph glyph-name="uni0496" unicode="&#x496;" horiz-adv-x="895" 
d="M540 361l280 -302h70v-216h-59v157h-42l-323 354v-354h-64v353l-322 -353h-83l332 361l-300 339h77l296 -336v336h64v-337l297 337h77z" />
    <glyph glyph-name="uni0497" unicode="&#x497;" horiz-adv-x="695" 
d="M433 262l194 -207h63v-197h-55v142h-36l-234 253v-253h-60v253l-234 -253h-77l243 262l-217 234h72l213 -233v233h60v-233l213 233h72z" />
    <glyph glyph-name="uni0498" unicode="&#x498;" horiz-adv-x="585" 
d="M473.5 52.5q-57.5 -52.5 -150.5 -61.5v-148h-59v148q-92 6 -152 55.5t-83 133.5l58 10q22 -71 74 -106t129 -35q81 0 128.5 36.5t47.5 102.5q0 64 -45 101t-118 37h-104v58h100q65 0 106 36.5t41 95.5q0 61 -44 98t-119 37q-68 0 -115 -32.5t-65 -98.5l-59 10
q23 85 85 132.5t154 47.5q67 0 118.5 -24.5t80.5 -68t29 -98.5t-31.5 -97.5t-87.5 -62.5q66 -20 102.5 -65.5t36.5 -108.5q0 -80 -57.5 -132.5z" />
    <glyph glyph-name="uni0499" unicode="&#x499;" horiz-adv-x="465" 
d="M378.5 36q-45.5 -39 -120.5 -45v-133h-55v133q-70 7 -117.5 45t-65.5 104l56 9q13 -51 54 -77.5t103 -26.5q59 0 94.5 24.5t35.5 67.5q0 41 -33.5 65.5t-91.5 24.5h-70v52h66q51 0 82.5 23t31.5 63t-32.5 63t-86.5 23q-53 0 -88.5 -23.5t-49.5 -70.5l-56 10q20 69 71 104
t123 35q79 0 129.5 -38t50.5 -100q0 -42 -23.5 -71t-65.5 -40q51 -15 77.5 -46.5t26.5 -75.5q0 -60 -45.5 -99z" />
    <glyph glyph-name="uni049A" unicode="&#x49a;" horiz-adv-x="609" 
d="M228 362l305 -303h71v-216h-59v157h-44l-352 353v-353h-65v700h65v-337l327 337h81z" />
    <glyph glyph-name="uni049B" unicode="&#x49b;" horiz-adv-x="483" 
d="M205 261l213 -206h60v-197h-56v142h-33l-258 253v-253h-62v496h62v-233l237 233h77z" />
    <glyph glyph-name="uni04A0" unicode="&#x4a0;" horiz-adv-x="670" 
d="M313 362l360 -362h-87l-352 353v-353h-65v641h-164v59h229v-337l326 337h81z" />
    <glyph glyph-name="uni04A1" unicode="&#x4a1;" horiz-adv-x="530" 
d="M269 262l268 -262h-83l-259 254v-254h-61v441h-129v55h190v-234l238 234h77z" />
    <glyph glyph-name="uni04A2" unicode="&#x4a2;" horiz-adv-x="716" 
d="M589 700v-641h94v-216h-59v157h-100v326h-375v-326h-65v700h65v-316h375v316h65z" />
    <glyph glyph-name="uni04A3" unicode="&#x4a3;" horiz-adv-x="571" 
d="M466 496v-441h83v-197h-55v142h-90v225h-273v-225h-62v496h62v-215h273v215h62z" />
    <glyph glyph-name="uni04AA" unicode="&#x4aa;" horiz-adv-x="700" 
d="M660 200q-33 -94 -99 -147.5t-158 -61.5v-148h-59v148q-88 7 -154.5 54t-103 126t-36.5 179q0 106 40 187.5t113 127t168 45.5q102 0 176 -54t108 -156l-60 -10q-27 79 -84.5 120t-139.5 41q-78 0 -135.5 -37t-89 -105t-31.5 -159t31.5 -159t89.5 -105t137 -37
q83 0 141 41.5t86 119.5z" />
    <glyph glyph-name="uni04AB" unicode="&#x4ab;" horiz-adv-x="500" 
d="M473 140q-20 -63 -66.5 -102t-110.5 -46v-134h-55v133q-61 6 -107 40.5t-71.5 90.5t-25.5 126q0 75 29 134t80.5 91.5t118.5 32.5q73 0 126.5 -39.5t76.5 -109.5l-55 -11q-17 50 -56 77.5t-92 27.5q-76 0 -121 -55t-45 -148t45.5 -148t123.5 -55q54 0 93.5 27.5
t56.5 77.5z" />
    <glyph glyph-name="uni04AE" unicode="&#x4ae;" horiz-adv-x="558" 
d="M312 0h-65v262l-242 438h71l202 -369h5l202 369h68l-241 -438v-262z" />
    <glyph glyph-name="uni04AF" unicode="&#x4af;" horiz-adv-x="473" 
d="M267 -200h-62v200h-15l-175 496h64l156 -450h5l156 450h62l-175 -496h-16v-200z" />
    <glyph glyph-name="uni04B0" unicode="&#x4b0;" horiz-adv-x="558" 
d="M485 700h68l-212 -386h141v-56h-170v-258h-65v258h-170v56h141l-213 386h71l202 -369h5z" />
    <glyph glyph-name="uni04B1" unicode="&#x4b1;" horiz-adv-x="473" 
d="M396 496h62l-157 -444h108v-52h-142v-200h-62v200h-141v52h108l-157 444h64l154 -444h9z" />
    <glyph glyph-name="uni04B2" unicode="&#x4b2;" horiz-adv-x="609" 
d="M329 359l201 -300h73v-216h-59v157h-50l-203 304h-5l-203 -304h-73l240 359l-225 341h74l189 -288h5l190 288h71z" />
    <glyph glyph-name="uni04B3" unicode="&#x4b3;" horiz-adv-x="474" 
d="M262 252l138 -197h68v-197h-56v142h-44l-142 204h-5l-142 -204h-69l177 251l-167 245h69l134 -198h5l134 198h67z" />
    <glyph glyph-name="uni04B6" unicode="&#x4b6;" horiz-adv-x="665" 
d="M538 59h93v-216h-59v157h-99v298q-38 -30 -85 -45.5t-97 -15.5q-104 0 -165.5 62t-61.5 169v232h65v-232q0 -82 44.5 -127.5t124.5 -45.5q47 0 92.5 16t82.5 47v342h65v-641z" />
    <glyph glyph-name="uni04B7" unicode="&#x4b7;" horiz-adv-x="533" 
d="M428 55h83v-197h-56v142h-89v202q-29 -24 -65 -36t-74 -12q-82 0 -131 48t-49 133v161h62v-161q0 -62 32.5 -94t90.5 -32q38 0 72.5 13t61.5 37v237h62v-441z" />
    <glyph glyph-name="uni04BA" unicode="&#x4ba;" horiz-adv-x="621" 
d="M496.5 401q61.5 -62 61.5 -169v-232h-65v232q0 82 -45 127.5t-124 45.5q-47 0 -92.5 -16t-82.5 -47v-342h-65v700h65v-298q38 30 84.5 45.5t96.5 15.5q105 0 166.5 -62z" />
    <glyph glyph-name="uni04BB" unicode="&#x4bb;" horiz-adv-x="540" 
d="M74 0v700h62v-305h5q27 52 71 81.5t100 29.5q76 0 120 -53t44 -145v-308h-62v301q0 72 -31 111t-87 39q-44 0 -80.5 -24t-58 -65t-21.5 -89v-273h-62z" />
    <glyph glyph-name="uni04C0" unicode="&#x4c0;" horiz-adv-x="242" 
d="M153 0h-64v700h64v-700z" />
    <glyph glyph-name="uni04CF" unicode="&#x4cf;" horiz-adv-x="210" 
d="M136 0h-62v700h62v-700z" />
    <glyph glyph-name="uni04D0" unicode="&#x4d0;" horiz-adv-x="603" 
d="M588 0h-66l-66 191h-311l-66 -191h-64l246 700h81zM298 636l-134 -390h273l-134 390h-5zM192 801q-42 37 -42 97h51q0 -39 27 -63t73 -24t73 24t27 63h51q0 -60 -42 -97t-109 -37t-109 37z" />
    <glyph glyph-name="uni04D1" unicode="&#x4d1;" horiz-adv-x="505" 
d="M488 49v-49h-32q-36 0 -56 20.5t-20 57.5v30h-5q-28 -57 -76 -87.5t-106 -30.5q-67 0 -112.5 39.5t-45.5 104.5q0 46 24 82t66 55.5t95 19.5h151v27q0 62 -33 97.5t-94 35.5q-51 0 -86.5 -25.5t-49.5 -73.5l-56 10q19 66 68 105t124 39q89 0 139 -51.5t50 -136.5v-230
q0 -39 33 -39h22zM287 68.5q39 23.5 61.5 64t22.5 91.5v15h-148q-55 0 -90.5 -27.5t-35.5 -74.5q0 -42 28.5 -67t75.5 -25t86 23.5zM141.5 602q-38.5 37 -38.5 98h49q0 -41 23.5 -65t66.5 -24q42 0 65.5 23.5t23.5 65.5h49q0 -61 -38 -98t-100 -37t-100.5 37z" />
    <glyph glyph-name="uni04D6" unicode="&#x4d6;" horiz-adv-x="563" 
d="M149 326v-267h357v-59h-422v700h417v-59h-352v-257h316v-58h-316zM184 801q-42 37 -42 97h51q0 -39 27 -63t73 -24t73 24t27 63h51q0 -60 -42 -97t-109 -37t-109 37z" />
    <glyph glyph-name="uni04D7" unicode="&#x4d7;" horiz-adv-x="523" 
d="M483 232h-384q5 -87 50.5 -137t120.5 -50q52 0 88.5 24t56.5 65l56 -9q-24 -63 -76.5 -99t-124.5 -36q-69 0 -121.5 32.5t-82 91.5t-29.5 134t29 134t80.5 91.5t117.5 32.5q64 0 114.5 -30.5t79 -85.5t28.5 -125q0 -13 -3 -33zM152.5 406q-43.5 -45 -51.5 -122h326
q-6 77 -50 122t-113 45q-68 0 -111.5 -45zM161.5 602q-38.5 37 -38.5 98h49q0 -41 23.5 -65t66.5 -24q42 0 65.5 23.5t23.5 65.5h49q0 -61 -38 -98t-100 -37t-100.5 37z" />
    <glyph glyph-name="uni04D8" unicode="&#x4d8;" horiz-adv-x="720" 
d="M517.5 664.5q72.5 -45.5 112.5 -127t40 -187.5q0 -105 -40 -187t-112.5 -127.5t-164.5 -45.5t-162 44t-108 120.5t-38 170.5q0 16 2 30t3 18h554q-3 84 -35 147t-88 97t-130 34q-78 0 -134.5 -39t-86.5 -114l-60 11q37 98 110 149.5t171 51.5q94 0 166.5 -45.5zM478 82
q55 33 88 93.5t38 142.5h-496q6 -126 71.5 -197.5t173.5 -71.5q70 0 125 33z" />
    <glyph glyph-name="uni04D9" unicode="&#x4d9;" horiz-adv-x="518" 
d="M371 473.5q52 -32.5 81 -91.5t29 -134t-28.5 -133.5t-80 -91.5t-117.5 -33q-64 0 -115 30.5t-79.5 86t-28.5 126.5q0 15 3 33h384q-5 86 -50 135.5t-118 49.5q-50 0 -86.5 -23.5t-56.5 -65.5l-56 10q24 62 76.5 98t122.5 36q68 0 120 -32.5zM366 90.5q43 45.5 51 123.5
h-326q7 -78 51 -123.5t113 -45.5q68 0 111 45.5z" />
    <glyph glyph-name="uni04E2" unicode="&#x4e2;" horiz-adv-x="683" 
d="M160 0h-76v700h64v-602h5l371 602h75v-700h-63v603h-5zM491 804h-298v49h298v-49z" />
    <glyph glyph-name="uni04E3" unicode="&#x4e3;" horiz-adv-x="545" 
d="M138 0h-69v496h60v-407h5l273 407h69v-496h-60v407h-5zM416 609h-286v45h286v-45z" />
    <glyph glyph-name="uni04E8" unicode="&#x4e8;" horiz-adv-x="735" 
d="M533 664.5q72 -45.5 112 -127.5t40 -187t-40 -187t-112 -127.5t-166 -45.5q-93 0 -165 45.5t-112 127.5t-40 187t40 187t112 127.5t165 45.5q94 0 166 -45.5zM239.5 617.5q-55.5 -33.5 -87.5 -95.5t-36 -145h503q-4 83 -36.5 145t-87.5 95.5t-128 33.5
q-72 0 -127.5 -33.5zM495 82.5q55 33.5 87.5 95t36.5 144.5h-503q4 -83 36 -144.5t87.5 -95t127.5 -33.5q73 0 128 33.5z" />
    <glyph glyph-name="uni04E9" unicode="&#x4e9;" horiz-adv-x="533" 
d="M386 473.5q52 -32.5 81 -91.5t29 -134t-29 -133.5t-81 -91.5t-120 -33q-67 0 -119 33t-81 91.5t-29 133.5t29 134t81 91.5t119 32.5q68 0 120 -32.5zM150.5 403q-44.5 -48 -50.5 -130h333q-6 82 -50.5 130t-116.5 48q-71 0 -115.5 -48zM382.5 93.5q44.5 48.5 50.5 130.5
h-333q6 -82 50.5 -130.5t115.5 -48.5q72 0 116.5 48.5z" />
    <glyph glyph-name="uni04EE" unicode="&#x4ee;" horiz-adv-x="576" 
d="M307 270l193 430h64l-318 -700h-65l90 199l-264 501h71l224 -430h5zM439 804h-298v49h298v-49z" />
    <glyph glyph-name="uni04EF" unicode="&#x4ef;" horiz-adv-x="473" 
d="M246 50l155 446h62l-245 -696h-58l70 200h-38l-182 496h65l160 -446h11zM381 609h-286v45h286v-45z" />
    <glyph glyph-name="uni04F2" unicode="&#x4f2;" horiz-adv-x="576" 
d="M307 270l193 430h64l-318 -700h-65l90 199l-264 501h71l224 -430h5zM209 764h-47l88 146h68v-5zM352 764h-47l88 146h68v-5z" />
    <glyph glyph-name="uni04F3" unicode="&#x4f3;" horiz-adv-x="473" 
d="M246 50l155 446h62l-245 -696h-58l70 200h-38l-182 496h65l160 -446h11zM166 565h-42l86 151h63v-5zM300 565h-42l86 151h63v-5z" />
    <glyph glyph-name="uni1E24" unicode="&#x1e24;" horiz-adv-x="673" 
d="M524 384v316h65v-700h-65v326h-375v-326h-65v700h65v-316h375zM371 -171h-69v74h69v-74z" />
    <glyph glyph-name="uni1E25" unicode="&#x1e25;" horiz-adv-x="540" 
d="M74 0v700h62v-305h5q27 52 71 81.5t100 29.5q76 0 120 -53t44 -145v-308h-62v301q0 72 -31 111t-87 39q-44 0 -80.5 -24t-58 -65t-21.5 -89v-273h-62zM309 -171h-69v74h69v-74z" />
    <glyph glyph-name="uni1E26" unicode="&#x1e26;" horiz-adv-x="673" 
d="M524 384v316h65v-700h-65v326h-375v-326h-65v700h65v-316h375zM280 789h-72v77h72v-77zM465 789h-72v77h72v-77z" />
    <glyph glyph-name="uni1E27" unicode="&#x1e27;" horiz-adv-x="540" 
d="M74 0v700h62v-305h5q27 52 71 81.5t100 29.5q76 0 120 -53t44 -145v-308h-62v301q0 72 -31 111t-87 39q-44 0 -80.5 -24t-58 -65t-21.5 -89v-273h-62zM218 789h-72v77h72v-77zM403 789h-72v77h72v-77z" />
    <glyph glyph-name="uni1E30" unicode="&#x1e30;" horiz-adv-x="586" 
d="M228 362l361 -362h-88l-352 353v-353h-65v700h65v-337l327 337h81zM311 764h-52l91 146h74v-5z" />
    <glyph glyph-name="uni1E31" unicode="&#x1e31;" horiz-adv-x="466" 
d="M209 262l263 -262h-82l-254 253v-253h-62v700h62v-437l233 233h76zM267 764h-52l91 146h74v-5z" />
    <glyph glyph-name="uni1E36" unicode="&#x1e36;" horiz-adv-x="496" 
d="M486 0h-402v700h65v-641h337v-59zM320 -171h-69v74h69v-74z" />
    <glyph glyph-name="uni1E37" unicode="&#x1e37;" horiz-adv-x="210" 
d="M136 0h-62v700h62v-700zM139 -171h-69v74h69v-74z" />
    <glyph glyph-name="uni1E3E" unicode="&#x1e3e;" horiz-adv-x="865" 
d="M148 0h-64v700h95l252 -628h5l253 628h92v-700h-64v608h-5l-245 -608h-69l-245 608h-5v-608zM442 764h-52l91 146h74v-5z" />
    <glyph glyph-name="uni1E3F" unicode="&#x1e3f;" horiz-adv-x="822" 
d="M69 0v496h59v-99h5q24 51 66.5 80t92.5 29q52 0 88 -31.5t50 -87.5h5q61 119 170 119q73 0 113 -51.5t40 -143.5v-311h-62v305q0 72 -27 109t-79 37q-41 0 -74.5 -23t-52.5 -63t-19 -89v-276h-61v305q0 72 -27.5 109t-78.5 37q-41 0 -74.5 -23t-52.5 -63t-19 -89v-276
h-62zM417 565h-47l93 151h69v-5z" />
    <glyph glyph-name="uni1E54" unicode="&#x1e54;" horiz-adv-x="575" 
d="M310 700q66 0 116.5 -27t79 -75t28.5 -109q0 -60 -28.5 -108t-79.5 -75t-116 -27h-161v-279h-65v700h226zM306 338q76 0 119.5 41t43.5 110q0 70 -43.5 111t-119.5 41h-157v-303h157zM286 764h-52l91 146h74v-5z" />
    <glyph glyph-name="uni1E55" unicode="&#x1e55;" horiz-adv-x="565" 
d="M69 -200v696h59v-106h5q29 56 76 86t106 30q62 0 110.5 -33t75.5 -91.5t27 -133.5t-27 -133.5t-75.5 -91.5t-110.5 -33q-59 0 -105.5 29.5t-73.5 83.5h-5v-303h-62zM422 100q44 55 44 148t-44 148t-118 55q-50 0 -89.5 -25.5t-61.5 -72t-22 -105.5t22 -105t61.5 -72
t89.5 -26q74 0 118 55zM286 565h-47l93 151h69v-5z" />
    <glyph glyph-name="Wgrave" unicode="&#x1e80;" horiz-adv-x="943" 
d="M299 0h-89l-190 700h66l167 -630h5l173 630h83l173 -630h5l167 630h64l-190 -700h-88l-171 622h-5zM519 764h-52l-113 141v5h74z" />
    <glyph glyph-name="wgrave" unicode="&#x1e81;" horiz-adv-x="726" 
d="M240 0h-81l-144 496h63l120 -430h5l123 430h78l123 -430h5l119 430h60l-143 -496h-79l-122 428h-5zM408 565h-47l-115 146v5h69z" />
    <glyph glyph-name="Wacute" unicode="&#x1e82;" horiz-adv-x="943" 
d="M299 0h-89l-190 700h66l167 -630h5l173 630h83l173 -630h5l167 630h64l-190 -700h-88l-171 622h-5zM479 764h-52l91 146h74v-5z" />
    <glyph glyph-name="wacute" unicode="&#x1e83;" horiz-adv-x="726" 
d="M240 0h-81l-144 496h63l120 -430h5l123 430h78l123 -430h5l119 430h60l-143 -496h-79l-122 428h-5zM369 565h-47l93 151h69v-5z" />
    <glyph glyph-name="Wdieresis" unicode="&#x1e84;" horiz-adv-x="943" 
d="M299 0h-89l-190 700h66l167 -630h5l173 630h83l173 -630h5l167 630h64l-190 -700h-88l-171 622h-5zM416 789h-72v77h72v-77zM601 789h-72v77h72v-77z" />
    <glyph glyph-name="wdieresis" unicode="&#x1e85;" horiz-adv-x="726" 
d="M240 0h-81l-144 496h63l120 -430h5l123 430h78l123 -430h5l119 430h60l-143 -496h-79l-122 428h-5zM311 594h-69v74h69v-74zM486 594h-69v74h69v-74z" />
    <glyph glyph-name="uni1E8C" unicode="&#x1e8c;" horiz-adv-x="579" 
d="M554 700l-225 -341l240 -359h-75l-203 304h-5l-203 -304h-73l240 359l-225 341h74l189 -288h5l190 288h71zM234 789h-72v77h72v-77zM419 789h-72v77h72v-77z" />
    <glyph glyph-name="uni1E8D" unicode="&#x1e8d;" horiz-adv-x="449" 
d="M429 496l-167 -244l177 -252h-71l-142 204h-5l-142 -204h-69l177 251l-167 245h69l134 -198h5l134 198h67zM173 594h-69v74h69v-74zM348 594h-69v74h69v-74z" />
    <glyph glyph-name="uni1E9E" unicode="&#x1e9e;" horiz-adv-x="683" 
d="M413 398q65 0 116.5 -25.5t80 -70.5t28.5 -102q0 -56 -29 -102t-80 -72t-116 -26h-152v59h149q75 0 119 38.5t44 102.5q0 65 -44 104t-119 39h-107v55l221 243h-219q-76 0 -116 -44t-40 -130v-467h-65v467q0 109 58 171t157 62h296v-59l-222 -243h40z" />
    <glyph glyph-name="uni1EBC" unicode="&#x1ebc;" horiz-adv-x="563" 
d="M149 326v-267h357v-59h-422v700h417v-59h-352v-257h316v-58h-316zM142 787q0 43 22 68.5t59 25.5q21 0 38.5 -8t39.5 -23q17 -13 30.5 -19.5t28.5 -6.5q37 0 37 46v11h47v-11q0 -43 -22 -69t-59 -26q-22 0 -39.5 8.5t-38.5 23.5q-20 13 -32 19.5t-27 6.5q-37 0 -37 -46
v-12h-47v12z" />
    <glyph glyph-name="uni1EBD" unicode="&#x1ebd;" horiz-adv-x="523" 
d="M483 232h-384q5 -87 50.5 -137t120.5 -50q52 0 88.5 24t56.5 65l56 -9q-24 -63 -76.5 -99t-124.5 -36q-69 0 -121.5 32.5t-82 91.5t-29.5 134t29 134t80.5 91.5t117.5 32.5q64 0 114.5 -30.5t79 -85.5t28.5 -125q0 -13 -3 -33zM152.5 406q-43.5 -45 -51.5 -122h326
q-6 77 -50 122t-113 45q-68 0 -111.5 -45zM115 592q0 41 21.5 66t57.5 25q20 0 36 -8t39 -23q19 -13 31 -19t26 -6q17 0 26 11.5t9 32.5v12h46v-12q0 -41 -21.5 -66t-57.5 -25q-21 0 -37.5 8t-37.5 23q-19 13 -31 19t-25 6q-18 0 -27 -11.5t-9 -32.5v-12h-46v12z" />
    <glyph glyph-name="Ygrave" unicode="&#x1ef2;" horiz-adv-x="558" 
d="M312 0h-65v262l-242 438h71l202 -369h5l202 369h68l-241 -438v-262zM327 764h-52l-113 141v5h74z" />
    <glyph glyph-name="ygrave" unicode="&#x1ef3;" horiz-adv-x="473" 
d="M246 50l155 446h62l-245 -696h-58l70 200h-38l-182 496h65l160 -446h11zM281 565h-47l-115 146v5h69z" />
    <glyph glyph-name="uni1EF8" unicode="&#x1ef8;" horiz-adv-x="558" 
d="M312 0h-65v262l-242 438h71l202 -369h5l202 369h68l-241 -438v-262zM130 787q0 43 22 68.5t59 25.5q21 0 38.5 -8t39.5 -23q17 -13 30.5 -19.5t28.5 -6.5q37 0 37 46v11h47v-11q0 -43 -22 -69t-59 -26q-22 0 -39.5 8.5t-38.5 23.5q-20 13 -32 19.5t-27 6.5q-37 0 -37 -46
v-12h-47v12z" />
    <glyph glyph-name="uni1EF9" unicode="&#x1ef9;" horiz-adv-x="473" 
d="M246 50l155 446h62l-245 -696h-58l70 200h-38l-182 496h65l160 -446h11zM92 592q0 41 21.5 66t57.5 25q20 0 36 -8t39 -23q19 -13 31 -19t26 -6q17 0 26 11.5t9 32.5v12h46v-12q0 -41 -21.5 -66t-57.5 -25q-21 0 -37.5 8t-37.5 23q-19 13 -31 19t-25 6q-18 0 -27 -11.5
t-9 -32.5v-12h-46v12z" />
    <glyph glyph-name="endash" unicode="&#x2013;" horiz-adv-x="593" 
d="M541 224h-489v59h489v-59z" />
    <glyph glyph-name="emdash" unicode="&#x2014;" horiz-adv-x="773" 
d="M721 224h-669v59h669v-59z" />
    <glyph glyph-name="quoteleft" unicode="&#x2018;" horiz-adv-x="186" 
d="M137 485h-88v89l32 126h53v-20l-54 -106h57v-89z" />
    <glyph glyph-name="quoteright" unicode="&#x2019;" horiz-adv-x="186" 
d="M104 485h-52v20l54 106h-57v89h88v-89z" />
    <glyph glyph-name="quotesinglbase" unicode="&#x201a;" horiz-adv-x="186" 
d="M104 -126h-52v20l54 106h-57v89h88v-89z" />
    <glyph glyph-name="quotedblleft" unicode="&#x201c;" horiz-adv-x="326" 
d="M137 485h-88v89l32 126h53v-20l-54 -106h57v-89zM277 485h-88v89l32 126h53v-20l-54 -106h57v-89z" />
    <glyph glyph-name="quotedblright" unicode="&#x201d;" horiz-adv-x="326" 
d="M104 485h-52v20l54 106h-57v89h88v-89zM244 485h-52v20l54 106h-57v89h88v-89z" />
    <glyph glyph-name="quotedblbase" unicode="&#x201e;" horiz-adv-x="326" 
d="M104 -126h-52v20l54 106h-57v89h88v-89zM244 -126h-52v20l54 106h-57v89h88v-89z" />
    <glyph glyph-name="dagger" unicode="&#x2020;" horiz-adv-x="446" 
d="M253 503h148v-55h-148v-448h-59v448h-149v55h149v197h59v-197z" />
    <glyph glyph-name="daggerdbl" unicode="&#x2021;" horiz-adv-x="446" 
d="M401 516v-55h-148v-222h148v-55h-148v-184h-59v184h-149v55h149v222h-149v55h149v184h59v-184h148z" />
    <glyph glyph-name="bullet" unicode="&#x2022;" horiz-adv-x="338" 
d="M232 186h-127v135h127v-135z" />
    <glyph glyph-name="ellipsis" unicode="&#x2026;" horiz-adv-x="597" 
d="M137 0h-88v89h88v-89zM343 0h-88v89h88v-89zM548 0h-88v89h88v-89z" />
    <glyph glyph-name="perthousand" unicode="&#x2030;" horiz-adv-x="1221" 
d="M99.5 339.5q-35.5 24.5 -55 69t-19.5 101.5t19.5 101.5t55 69t80.5 24.5t80.5 -24.5t55 -69t19.5 -101.5t-19.5 -101.5t-55 -69t-80.5 -24.5t-80.5 24.5zM254 0h-64l415 700h64zM252.5 403.5q26.5 39.5 26.5 106.5t-26.5 106.5t-72.5 39.5t-72.5 -39.5t-26.5 -106.5
t26.5 -106.5t72.5 -39.5t72.5 39.5zM567.5 49q-42.5 54 -42.5 141t42.5 141t111.5 54t112 -54t43 -141t-43 -141t-112 -54t-111.5 54zM929 49q-43 54 -43 141t43 141t112 54t111.5 -54t42.5 -141t-42.5 -141t-111.5 -54t-112 54zM752 84q27 40 27 106t-27 106t-73 40
t-72.5 -39.5t-26.5 -106.5t26.5 -106.5t72.5 -39.5t73 40zM1113.5 83.5q26.5 39.5 26.5 106.5t-26.5 106.5t-72.5 39.5t-73 -40t-27 -106t27 -106t73 -40t72.5 39.5z" />
    <glyph glyph-name="guilsinglleft" unicode="&#x2039;" horiz-adv-x="317" 
d="M289 37h-73l-182 211l182 212h73l-183 -212z" />
    <glyph glyph-name="guilsinglright" unicode="&#x203a;" horiz-adv-x="317" 
d="M101 37h-72l183 211l-183 212h72l183 -212z" />
    <glyph glyph-name="fraction" unicode="&#x2044;" horiz-adv-x="203" 
d="M-74 0h-64l415 700h64z" />
    <glyph glyph-name="uni2070" unicode="&#x2070;" horiz-adv-x="345" 
d="M65 469.5q-41 54.5 -41 140.5t41 140.5t108 54.5q43 0 77 -25t52.5 -69.5t18.5 -100.5t-18.5 -100.5t-52.5 -69.5t-77 -25q-67 0 -108 54.5zM241 504q25 40 25 106t-25 106t-68 40q-44 0 -69 -40t-25 -106t25 -106t69 -40q43 0 68 40z" />
    <glyph glyph-name="uni2074" unicode="&#x2074;" horiz-adv-x="304" 
d="M241 566h52v-49h-52v-97h-52v97h-182v49l177 234h57v-234zM189 566v160h-5l-119 -160h124z" />
    <glyph glyph-name="uni2075" unicode="&#x2075;" horiz-adv-x="308" 
d="M256 631.5q33 -34.5 33 -88.5q0 -57 -36 -92.5t-96 -35.5q-52 0 -89 26.5t-49 73.5l49 9q9 -29 31.5 -44.5t54.5 -15.5q37 0 58.5 21t21.5 58q0 35 -20.5 56.5t-54.5 21.5q-23 0 -42.5 -11t-30.5 -30h-51l20 220h216v-49h-172l-11 -116h5q29 31 79 31q51 0 84 -34.5z" />
    <glyph glyph-name="uni2076" unicode="&#x2076;" horiz-adv-x="318" 
d="M62 462.5q-38 47.5 -38 130.5q0 99 39 155.5t107 56.5q44 0 76 -22.5t46 -63.5l-46 -9q-10 24 -28.5 36.5t-44.5 12.5q-43 0 -69.5 -36t-30.5 -104h5q16 22 41.5 34.5t55.5 12.5q53 0 88.5 -34.5t35.5 -89.5t-37.5 -91t-95.5 -36q-66 0 -104 47.5zM224 484q23 23 23 58
q0 36 -23 59t-58 23q-36 0 -60.5 -23t-24.5 -57q0 -35 24.5 -59t60.5 -24q35 0 58 23z" />
    <glyph glyph-name="uni2077" unicode="&#x2077;" horiz-adv-x="280" 
d="M124 420h-56l136 326v5h-195v49h249v-52z" />
    <glyph glyph-name="uni2078" unicode="&#x2078;" horiz-adv-x="308" 
d="M271.5 582.5q18.5 -24.5 18.5 -57.5q0 -49 -38 -79.5t-98 -30.5t-97.5 30.5t-37.5 79.5q0 33 18.5 57.5t50.5 35.5q-27 12 -41.5 33.5t-14.5 50.5q0 44 35 73.5t87 29.5q53 0 88 -29.5t35 -73.5q0 -28 -15 -50t-42 -33q33 -12 51.5 -36.5zM103.5 742.5
q-19.5 -16.5 -19.5 -43.5q0 -28 19.5 -45t50.5 -17q32 0 51.5 17t19.5 45q0 27 -20 43.5t-51 16.5t-50.5 -16.5zM215 479q23 18 23 49q0 30 -23 48t-61 18t-60.5 -17.5t-22.5 -48.5t22.5 -49t60.5 -18t61 18z" />
    <glyph glyph-name="uni2079" unicode="&#x2079;" horiz-adv-x="318" 
d="M72.5 437.5q-32.5 22.5 -46.5 63.5l46 9q10 -24 29 -36.5t45 -12.5q43 0 69 36.5t30 103.5h-5q-16 -22 -42 -34.5t-56 -12.5q-53 0 -88 34.5t-35 89.5t37.5 91t95.5 36q66 0 104 -47.5t38 -130.5q0 -99 -38.5 -155.5t-106.5 -56.5q-44 0 -76.5 22.5zM212.5 619
q24.5 23 24.5 57q0 35 -24.5 59t-60.5 24q-35 0 -58 -23t-23 -58q0 -36 23 -59t58 -23q36 0 60.5 23z" />
    <glyph glyph-name="uni2080" unicode="&#x2080;" horiz-adv-x="345" 
d="M65 -50.5q-41 54.5 -41 140.5t41 140.5t108 54.5q43 0 77 -25t52.5 -69.5t18.5 -100.5t-18.5 -100.5t-52.5 -69.5t-77 -25q-67 0 -108 54.5zM241 -16q25 40 25 106t-25 106t-68 40q-44 0 -69 -40t-25 -106t25 -106t69 -40q43 0 68 40z" />
    <glyph glyph-name="uni2081" unicode="&#x2081;" horiz-adv-x="203" 
d="M97 -100v254h-83v47h63q24 0 24 24v55h52v-380h-56z" />
    <glyph glyph-name="uni2082" unicode="&#x2082;" horiz-adv-x="298" 
d="M24 -100v55l125 117q36 34 49.5 56.5t13.5 46.5q0 29 -17 45t-49 16q-65 0 -83 -67l-49 8q12 52 47 80t85 28q54 0 88 -29.5t34 -76.5q0 -34 -19.5 -66t-67.5 -76l-87 -83v-5h185v-49h-255z" />
    <glyph glyph-name="uni2083" unicode="&#x2083;" horiz-adv-x="308" 
d="M271 60q18 -26 18 -59q0 -47 -36 -76.5t-95 -29.5q-56 0 -94.5 30.5t-49.5 82.5l49 8q7 -34 32.5 -53t62.5 -19q36 0 56 17t20 47t-20 47t-56 17h-41v46h38q32 0 50.5 16t18.5 43t-18.5 43t-50.5 16q-34 0 -56.5 -17.5t-30.5 -49.5l-50 8q12 50 48.5 79t88.5 29
q54 0 89.5 -29t35.5 -73q0 -30 -15.5 -51.5t-43.5 -33.5q32 -12 50 -38z" />
    <glyph glyph-name="uni2084" unicode="&#x2084;" horiz-adv-x="304" 
d="M241 46h52v-49h-52v-97h-52v97h-182v49l177 234h57v-234zM189 46v160h-5l-119 -160h124z" />
    <glyph glyph-name="uni2085" unicode="&#x2085;" horiz-adv-x="308" 
d="M256 111.5q33 -34.5 33 -88.5q0 -57 -36 -92.5t-96 -35.5q-52 0 -89 26.5t-49 73.5l49 9q9 -29 31.5 -44.5t54.5 -15.5q37 0 58.5 21t21.5 58q0 35 -20.5 56.5t-54.5 21.5q-23 0 -42.5 -11t-30.5 -30h-51l20 220h216v-49h-172l-11 -116h5q29 31 79 31q51 0 84 -34.5z" />
    <glyph glyph-name="uni2086" unicode="&#x2086;" horiz-adv-x="318" 
d="M62 -57.5q-38 47.5 -38 130.5q0 99 39 155.5t107 56.5q44 0 76 -22.5t46 -63.5l-46 -9q-10 24 -28.5 36.5t-44.5 12.5q-43 0 -69.5 -36t-30.5 -104h5q16 22 41.5 34.5t55.5 12.5q53 0 88.5 -34.5t35.5 -89.5t-37.5 -91t-95.5 -36q-66 0 -104 47.5zM224 -36q23 23 23 58
q0 36 -23 59t-58 23q-36 0 -60.5 -23t-24.5 -57q0 -35 24.5 -59t60.5 -24q35 0 58 23z" />
    <glyph glyph-name="uni2087" unicode="&#x2087;" horiz-adv-x="280" 
d="M124 -100h-56l136 326v5h-195v49h249v-52z" />
    <glyph glyph-name="uni2088" unicode="&#x2088;" horiz-adv-x="308" 
d="M271.5 62.5q18.5 -24.5 18.5 -57.5q0 -49 -38 -79.5t-98 -30.5t-97.5 30.5t-37.5 79.5q0 33 18.5 57.5t50.5 35.5q-27 12 -41.5 33.5t-14.5 50.5q0 44 35 73.5t87 29.5q53 0 88 -29.5t35 -73.5q0 -28 -15 -50t-42 -33q33 -12 51.5 -36.5zM103.5 222.5
q-19.5 -16.5 -19.5 -43.5q0 -28 19.5 -45t50.5 -17q32 0 51.5 17t19.5 45q0 27 -20 43.5t-51 16.5t-50.5 -16.5zM215 -41q23 18 23 49q0 30 -23 48t-61 18t-60.5 -17.5t-22.5 -48.5t22.5 -49t60.5 -18t61 18z" />
    <glyph glyph-name="uni2089" unicode="&#x2089;" horiz-adv-x="318" 
d="M72.5 -82.5q-32.5 22.5 -46.5 63.5l46 9q10 -24 29 -36.5t45 -12.5q43 0 69 36.5t30 103.5h-5q-16 -22 -42 -34.5t-56 -12.5q-53 0 -88 34.5t-35 89.5t37.5 91t95.5 36q66 0 104 -47.5t38 -130.5q0 -99 -38.5 -155.5t-106.5 -56.5q-44 0 -76.5 22.5zM212.5 99
q24.5 23 24.5 57q0 35 -24.5 59t-60.5 24q-35 0 -58 -23t-23 -58q0 -36 23 -59t58 -23q36 0 60.5 23z" />
    <glyph glyph-name="uni20A9" unicode="&#x20a9;" horiz-adv-x="930" 
d="M900 480v-56h-115l-33 -150h148v-55h-160l-48 -219h-88l-136 616h-5l-137 -616h-88l-48 219h-160v55h148l-33 150h-115v56h102l-48 220h63l134 -625h5l138 625h84l138 -625h5l134 625h61l-48 -220h102z" />
    <glyph glyph-name="Euro" unicode="&#x20ac;" horiz-adv-x="720" 
d="M675 180q-33 -91 -102 -140.5t-163 -49.5q-114 0 -193.5 69t-105.5 187h-104v55h95q-2 32 -2 49t2 49h-95v55h104q26 118 105 187t192 69q93 0 161.5 -49.5t100.5 -140.5l-60 -11q-26 70 -77.5 106t-124.5 36q-88 0 -148.5 -52t-83.5 -145h274v-55h-283q-2 -32 -2 -49
t2 -49h283v-55h-274q23 -93 84 -145t150 -52q74 0 126 36t79 106z" />
    <glyph glyph-name="uni20AE" unicode="&#x20ae;" horiz-adv-x="566" 
d="M551 700v-59h-235v-190l138 53v-59l-138 -52v-107l138 53v-58l-138 -52v-229h-65v204l-131 -50v57l131 50v107l-131 -50v58l131 50v215h-236v59h536z" />
    <glyph glyph-name="uni20B4" unicode="&#x20b4;" horiz-adv-x="595" 
d="M549 449v-55h-504v55h360q39 36 39 87t-40.5 83t-104.5 32q-60 0 -104.5 -28.5t-63.5 -80.5l-59 12q23 73 84 114.5t143 41.5q59 0 107 -21t75.5 -58t27.5 -82q0 -58 -44 -100h84zM45 251v55h504v-55h-360q-39 -36 -39 -87t40.5 -83t105.5 -32q60 0 104.5 28.5t63.5 80.5
l59 -12q-23 -73 -84 -114.5t-143 -41.5q-59 0 -107.5 21t-76 58t-27.5 82q0 58 44 100h-84z" />
    <glyph glyph-name="uni20B8" unicode="&#x20b8;" horiz-adv-x="566" 
d="M546 641h-526v59h526v-59zM316 0h-65v491h-231v59h526v-59h-230v-491z" />
    <glyph glyph-name="uni20B9" unicode="&#x20b9;" horiz-adv-x="561" 
d="M511 700v-52h-138q64 -43 76 -120h62v-55h-61q-8 -74 -61 -122.5t-132 -55.5l231 -295h-80l-228 294h-125v59h175q65 0 105.5 32t48.5 88h-329v55h328q-9 53 -49.5 83t-103.5 30h-175v59h456z" />
    <glyph glyph-name="uni20BA" unicode="&#x20ba;" horiz-adv-x="569" 
d="M539 304q0 -147 -76.5 -225.5t-216.5 -78.5h-127v243l-99 -46v59l99 46v111l-99 -46v59l99 46v228h65v-198l175 82v-59l-175 -82v-111l175 82v-59l-175 -82v-214h59q118 0 177 60.5t59 184.5h60z" />
    <glyph glyph-name="uni20BD" unicode="&#x20bd;" horiz-adv-x="590" 
d="M184 309v-93h197v-55h-197v-161h-65v161h-99v55h99v93h-99v59h99v332h217q61 0 109.5 -25t76 -70t27.5 -101t-27.5 -100.5t-76 -69.5t-109.5 -25h-152zM184 641v-273h149q69 0 110 37t41 99q0 63 -41 100t-110 37h-149z" />
    <glyph glyph-name="uni20BF" unicode="&#x20bf;" horiz-adv-x="628" 
d="M530.5 76q-40.5 -49 -108.5 -67v-119h-58v110h-13h-112v-110h-58v110h-97v700h97v110h58v-110h104q14 0 21 -1v111h58v-122q58 -20 92.5 -65.5t34.5 -104.5q0 -53 -29 -93t-83 -63q65 -21 99.5 -65.5t34.5 -105.5q0 -66 -40.5 -115zM149 641v-256h191q65 0 104.5 35.5
t39.5 92.5q0 58 -39.5 93t-104.5 35h-191zM348 59q73 0 115.5 36.5t42.5 98.5q0 63 -42.5 99.5t-115.5 36.5h-199v-271h199z" />
    <glyph glyph-name="som" unicode="&#x20c0;" horiz-adv-x="533" 
d="M157.5 223q-53.5 33 -83 92t-29.5 135t29.5 135t82 92t120.5 33q74 0 128.5 -40t77.5 -110l-55 -10q-17 50 -57 77.5t-94 27.5q-77 0 -123.5 -55.5t-46.5 -149.5t47 -149.5t126 -55.5q55 0 95.5 28t57.5 77l55 -10q-23 -70 -78 -110t-130 -40q-69 0 -122.5 33zM461 0
h-382v55h382v-55z" />
    <glyph glyph-name="uni2116" unicode="&#x2116;" horiz-adv-x="1034" 
d="M148 0h-64v700h77l370 -604h5v604h63v-700h-77l-369 604h-5v-604zM758 160.5q-35 20.5 -55 55.5t-20 78q0 44 20 79.5t55 55.5t78 20t78 -20t55 -55.5t20 -79.5q0 -43 -20 -78t-55 -55.5t-78 -20.5t-78 20.5zM906.5 221q27.5 29 27.5 73q0 45 -27.5 74t-70.5 29t-70 -29
t-27 -74q0 -44 27 -73t70 -29t70.5 29zM974 0h-276v52h276v-52z" />
    <glyph glyph-name="trademark" unicode="&#x2122;" horiz-adv-x="616" 
d="M150 444h-46v217h-82v39h209v-39h-81v-217zM319 444h-42v256h62l81 -202h5l81 202h62v-256h-43v191h-5l-78 -191h-39l-79 191h-5v-191z" />
    <glyph glyph-name="uni2150" unicode="&#x2150;" horiz-adv-x="726" 
d="M97 320v254h-83v47h63q24 0 24 24v55h52v-380h-56zM149 0h-64l415 700h64zM570 0h-56l136 326v5h-195v49h249v-52z" />
    <glyph glyph-name="uni2151" unicode="&#x2151;" horiz-adv-x="744" 
d="M97 320v254h-83v47h63q24 0 24 24v55h52v-380h-56zM149 0h-64l415 700h64zM498.5 17.5q-32.5 22.5 -46.5 63.5l46 9q10 -24 29 -36.5t45 -12.5q43 0 69 36.5t30 103.5h-5q-16 -22 -42 -34.5t-56 -12.5q-53 0 -88 34.5t-35 89.5t37.5 91t95.5 36q66 0 104 -47.5t38 -130.5
q0 -99 -38.5 -155.5t-106.5 -56.5q-44 0 -76.5 22.5zM638.5 199q24.5 23 24.5 57q0 35 -24.5 59t-60.5 24q-35 0 -58 -23t-23 -58q0 -36 23 -59t58 -23q36 0 60.5 23z" />
    <glyph glyph-name="uni2152" unicode="&#x2152;" horiz-adv-x="973" 
d="M97 320v254h-83v47h63q24 0 24 24v55h52v-380h-56zM149 0h-64l415 700h64zM523 0v254h-83v47h63q24 0 24 24v55h52v-380h-56zM694 49.5q-41 54.5 -41 140.5t41 140.5t108 54.5q43 0 77 -25t52.5 -69.5t18.5 -100.5t-18.5 -100.5t-52.5 -69.5t-77 -25q-67 0 -108 54.5z
M870 84q25 40 25 106t-25 106t-68 40q-44 0 -69 -40t-25 -106t25 -106t69 -40q43 0 68 40z" />
    <glyph glyph-name="uni2153" unicode="&#x2153;" horiz-adv-x="734" 
d="M97 320v254h-83v47h63q24 0 24 24v55h52v-380h-56zM149 0h-64l415 700h64zM697 160q18 -26 18 -59q0 -47 -36 -76.5t-95 -29.5q-56 0 -94.5 30.5t-49.5 82.5l49 8q7 -34 32.5 -53t62.5 -19q36 0 56 17t20 47t-20 47t-56 17h-41v46h38q32 0 50.5 16t18.5 43t-18.5 43
t-50.5 16q-34 0 -56.5 -17.5t-30.5 -49.5l-50 8q12 50 48.5 79t88.5 29q54 0 89.5 -29t35.5 -73q0 -30 -15.5 -51.5t-43.5 -33.5q32 -12 50 -38z" />
    <glyph glyph-name="uni2154" unicode="&#x2154;" horiz-adv-x="809" 
d="M24 320v55l125 117q36 34 49.5 56.5t13.5 46.5q0 29 -17 45t-49 16q-65 0 -83 -67l-49 8q12 52 47 80t85 28q54 0 88 -29.5t34 -76.5q0 -34 -19.5 -66t-67.5 -76l-87 -83v-5h185v-49h-255zM224 0h-64l415 700h64zM772 160q18 -26 18 -59q0 -47 -36 -76.5t-95 -29.5
q-56 0 -94.5 30.5t-49.5 82.5l49 8q7 -34 32.5 -53t62.5 -19q36 0 56 17t20 47t-20 47t-56 17h-41v46h38q32 0 50.5 16t18.5 43t-18.5 43t-50.5 16q-34 0 -56.5 -17.5t-30.5 -49.5l-50 8q12 50 48.5 79t88.5 29q54 0 89.5 -29t35.5 -73q0 -30 -15.5 -51.5t-43.5 -33.5
q32 -12 50 -38z" />
    <glyph glyph-name="uni2155" unicode="&#x2155;" horiz-adv-x="734" 
d="M97 320v254h-83v47h63q24 0 24 24v55h52v-380h-56zM149 0h-64l415 700h64zM682 211.5q33 -34.5 33 -88.5q0 -57 -36 -92.5t-96 -35.5q-52 0 -89 26.5t-49 73.5l49 9q9 -29 31.5 -44.5t54.5 -15.5q37 0 58.5 21t21.5 58q0 35 -20.5 56.5t-54.5 21.5q-23 0 -42.5 -11
t-30.5 -30h-51l20 220h216v-49h-172l-11 -116h5q29 31 79 31q51 0 84 -34.5z" />
    <glyph glyph-name="uni2156" unicode="&#x2156;" horiz-adv-x="809" 
d="M24 320v55l125 117q36 34 49.5 56.5t13.5 46.5q0 29 -17 45t-49 16q-65 0 -83 -67l-49 8q12 52 47 80t85 28q54 0 88 -29.5t34 -76.5q0 -34 -19.5 -66t-67.5 -76l-87 -83v-5h185v-49h-255zM224 0h-64l415 700h64zM757 211.5q33 -34.5 33 -88.5q0 -57 -36 -92.5t-96 -35.5
q-52 0 -89 26.5t-49 73.5l49 9q9 -29 31.5 -44.5t54.5 -15.5q37 0 58.5 21t21.5 58q0 35 -20.5 56.5t-54.5 21.5q-23 0 -42.5 -11t-30.5 -30h-51l20 220h216v-49h-172l-11 -116h5q29 31 79 31q51 0 84 -34.5z" />
    <glyph glyph-name="uni2157" unicode="&#x2157;" horiz-adv-x="819" 
d="M271 480q18 -26 18 -59q0 -47 -36 -76.5t-95 -29.5q-56 0 -94.5 30.5t-49.5 82.5l49 8q7 -34 32.5 -53t62.5 -19q36 0 56 17t20 47t-20 47t-56 17h-41v46h38q32 0 50.5 16t18.5 43t-18.5 43t-50.5 16q-34 0 -56.5 -17.5t-30.5 -49.5l-50 8q12 50 48.5 79t88.5 29
q54 0 89.5 -29t35.5 -73q0 -30 -15.5 -51.5t-43.5 -33.5q32 -12 50 -38zM234 0h-64l415 700h64zM767 211.5q33 -34.5 33 -88.5q0 -57 -36 -92.5t-96 -35.5q-52 0 -89 26.5t-49 73.5l49 9q9 -29 31.5 -44.5t54.5 -15.5q37 0 58.5 21t21.5 58q0 35 -20.5 56.5t-54.5 21.5
q-23 0 -42.5 -11t-30.5 -30h-51l20 220h216v-49h-172l-11 -116h5q29 31 79 31q51 0 84 -34.5z" />
    <glyph glyph-name="uni2158" unicode="&#x2158;" horiz-adv-x="835" 
d="M241 466h52v-49h-52v-97h-52v97h-182v49l177 234h57v-234zM189 466v160h-5l-119 -160h124zM250 0h-64l415 700h64zM783 211.5q33 -34.5 33 -88.5q0 -57 -36 -92.5t-96 -35.5q-52 0 -89 26.5t-49 73.5l49 9q9 -29 31.5 -44.5t54.5 -15.5q37 0 58.5 21t21.5 58
q0 35 -20.5 56.5t-54.5 21.5q-23 0 -42.5 -11t-30.5 -30h-51l20 220h216v-49h-172l-11 -116h5q29 31 79 31q51 0 84 -34.5z" />
    <glyph glyph-name="uni2159" unicode="&#x2159;" horiz-adv-x="744" 
d="M97 320v254h-83v47h63q24 0 24 24v55h52v-380h-56zM149 0h-64l415 700h64zM488 42.5q-38 47.5 -38 130.5q0 99 39 155.5t107 56.5q44 0 76 -22.5t46 -63.5l-46 -9q-10 24 -28.5 36.5t-44.5 12.5q-43 0 -69.5 -36t-30.5 -104h5q16 22 41.5 34.5t55.5 12.5q53 0 88.5 -34.5
t35.5 -89.5t-37.5 -91t-95.5 -36q-66 0 -104 47.5zM650 64q23 23 23 58q0 36 -23 59t-58 23q-36 0 -60.5 -23t-24.5 -57q0 -35 24.5 -59t60.5 -24q35 0 58 23z" />
    <glyph glyph-name="uni215A" unicode="&#x215a;" horiz-adv-x="829" 
d="M256 531.5q33 -34.5 33 -88.5q0 -57 -36 -92.5t-96 -35.5q-52 0 -89 26.5t-49 73.5l49 9q9 -29 31.5 -44.5t54.5 -15.5q37 0 58.5 21t21.5 58q0 35 -20.5 56.5t-54.5 21.5q-23 0 -42.5 -11t-30.5 -30h-51l20 220h216v-49h-172l-11 -116h5q29 31 79 31q51 0 84 -34.5z
M234 0h-64l415 700h64zM573 42.5q-38 47.5 -38 130.5q0 99 39 155.5t107 56.5q44 0 76 -22.5t46 -63.5l-46 -9q-10 24 -28.5 36.5t-44.5 12.5q-43 0 -69.5 -36t-30.5 -104h5q16 22 41.5 34.5t55.5 12.5q53 0 88.5 -34.5t35.5 -89.5t-37.5 -91t-95.5 -36q-66 0 -104 47.5z
M735 64q23 23 23 58q0 36 -23 59t-58 23q-36 0 -60.5 -23t-24.5 -57q0 -35 24.5 -59t60.5 -24q35 0 58 23z" />
    <glyph glyph-name="oneeighth" unicode="&#x215b;" horiz-adv-x="734" 
d="M97 320v254h-83v47h63q24 0 24 24v55h52v-380h-56zM149 0h-64l415 700h64zM697.5 162.5q18.5 -24.5 18.5 -57.5q0 -49 -38 -79.5t-98 -30.5t-97.5 30.5t-37.5 79.5q0 33 18.5 57.5t50.5 35.5q-27 12 -41.5 33.5t-14.5 50.5q0 44 35 73.5t87 29.5q53 0 88 -29.5t35 -73.5
q0 -28 -15 -50t-42 -33q33 -12 51.5 -36.5zM529.5 322.5q-19.5 -16.5 -19.5 -43.5q0 -28 19.5 -45t50.5 -17q32 0 51.5 17t19.5 45q0 27 -20 43.5t-51 16.5t-50.5 -16.5zM641 59q23 18 23 49q0 30 -23 48t-61 18t-60.5 -17.5t-22.5 -48.5t22.5 -49t60.5 -18t61 18z" />
    <glyph glyph-name="threeeighths" unicode="&#x215c;" horiz-adv-x="819" 
d="M271 480q18 -26 18 -59q0 -47 -36 -76.5t-95 -29.5q-56 0 -94.5 30.5t-49.5 82.5l49 8q7 -34 32.5 -53t62.5 -19q36 0 56 17t20 47t-20 47t-56 17h-41v46h38q32 0 50.5 16t18.5 43t-18.5 43t-50.5 16q-34 0 -56.5 -17.5t-30.5 -49.5l-50 8q12 50 48.5 79t88.5 29
q54 0 89.5 -29t35.5 -73q0 -30 -15.5 -51.5t-43.5 -33.5q32 -12 50 -38zM234 0h-64l415 700h64zM782.5 162.5q18.5 -24.5 18.5 -57.5q0 -49 -38 -79.5t-98 -30.5t-97.5 30.5t-37.5 79.5q0 33 18.5 57.5t50.5 35.5q-27 12 -41.5 33.5t-14.5 50.5q0 44 35 73.5t87 29.5
q53 0 88 -29.5t35 -73.5q0 -28 -15 -50t-42 -33q33 -12 51.5 -36.5zM614.5 322.5q-19.5 -16.5 -19.5 -43.5q0 -28 19.5 -45t50.5 -17q32 0 51.5 17t19.5 45q0 27 -20 43.5t-51 16.5t-50.5 -16.5zM726 59q23 18 23 49q0 30 -23 48t-61 18t-60.5 -17.5t-22.5 -48.5t22.5 -49
t60.5 -18t61 18z" />
    <glyph glyph-name="fiveeighths" unicode="&#x215d;" horiz-adv-x="819" 
d="M256 531.5q33 -34.5 33 -88.5q0 -57 -36 -92.5t-96 -35.5q-52 0 -89 26.5t-49 73.5l49 9q9 -29 31.5 -44.5t54.5 -15.5q37 0 58.5 21t21.5 58q0 35 -20.5 56.5t-54.5 21.5q-23 0 -42.5 -11t-30.5 -30h-51l20 220h216v-49h-172l-11 -116h5q29 31 79 31q51 0 84 -34.5z
M234 0h-64l415 700h64zM782.5 162.5q18.5 -24.5 18.5 -57.5q0 -49 -38 -79.5t-98 -30.5t-97.5 30.5t-37.5 79.5q0 33 18.5 57.5t50.5 35.5q-27 12 -41.5 33.5t-14.5 50.5q0 44 35 73.5t87 29.5q53 0 88 -29.5t35 -73.5q0 -28 -15 -50t-42 -33q33 -12 51.5 -36.5z
M614.5 322.5q-19.5 -16.5 -19.5 -43.5q0 -28 19.5 -45t50.5 -17q32 0 51.5 17t19.5 45q0 27 -20 43.5t-51 16.5t-50.5 -16.5zM726 59q23 18 23 49q0 30 -23 48t-61 18t-60.5 -17.5t-22.5 -48.5t22.5 -49t60.5 -18t61 18z" />
    <glyph glyph-name="seveneighths" unicode="&#x215e;" horiz-adv-x="751" 
d="M124 320h-56l136 326v5h-195v49h249v-52zM166 0h-64l415 700h64zM714.5 162.5q18.5 -24.5 18.5 -57.5q0 -49 -38 -79.5t-98 -30.5t-97.5 30.5t-37.5 79.5q0 33 18.5 57.5t50.5 35.5q-27 12 -41.5 33.5t-14.5 50.5q0 44 35 73.5t87 29.5q53 0 88 -29.5t35 -73.5
q0 -28 -15 -50t-42 -33q33 -12 51.5 -36.5zM546.5 322.5q-19.5 -16.5 -19.5 -43.5q0 -28 19.5 -45t50.5 -17q32 0 51.5 17t19.5 45q0 27 -20 43.5t-51 16.5t-50.5 -16.5zM658 59q23 18 23 49q0 30 -23 48t-61 18t-60.5 -17.5t-22.5 -48.5t22.5 -49t60.5 -18t61 18z" />
    <glyph glyph-name="uni215F" unicode="&#x215f;" horiz-adv-x="426" 
d="M97 320v254h-83v47h63q24 0 24 24v55h52v-380h-56zM149 0h-64l415 700h64z" />
    <glyph glyph-name="arrowleft" unicode="&#x2190;" horiz-adv-x="713" 
d="M147 374l516 5v-58l-516 5l144 -134l-37 -41l-204 199l204 199l37 -41z" />
    <glyph glyph-name="arrowup" unicode="&#x2191;" horiz-adv-x="613" 
d="M306 676l200 -203l-42 -38l-133 144l5 -555h-59l5 555l-133 -144l-42 38z" />
    <glyph glyph-name="arrowright" unicode="&#x2192;" horiz-adv-x="713" 
d="M421 508l38 41l204 -199l-204 -199l-38 41l145 134l-516 -5v58l516 -5z" />
    <glyph glyph-name="arrowdown" unicode="&#x2193;" horiz-adv-x="613" 
d="M331 121l133 144l42 -37l-200 -204l-199 204l42 37l133 -144l-5 555h59z" />
    <glyph glyph-name="arrowboth" unicode="&#x2194;" horiz-adv-x="743" 
d="M475 509l38 40l190 -199l-190 -199l-38 40l135 133h-477l135 -133l-38 -40l-190 199l190 199l38 -40l-135 -133h477z" />
    <glyph glyph-name="arrowupdn" unicode="&#x2195;" horiz-adv-x="613" 
d="M333 603v-506l132 134l41 -38l-200 -189l-199 189l41 38l132 -134v506l-132 -134l-41 38l199 189l200 -189l-41 -38z" />
    <glyph glyph-name="uni2196" unicode="&#x2196;" horiz-adv-x="663" 
d="M192 538l399 -391l-42 -41l-391 398l5 -194l-56 -4v283h283l-3 -56z" />
    <glyph glyph-name="uni2197" unicode="&#x2197;" horiz-adv-x="663" 
d="M276 533l-3 56h283v-283l-56 4l5 194l-391 -398l-42 41l399 391z" />
    <glyph glyph-name="uni2198" unicode="&#x2198;" horiz-adv-x="663" 
d="M505 191l-5 194l56 4v-283h-283l3 56l195 -5l-399 391l42 41z" />
    <glyph glyph-name="uni2199" unicode="&#x2199;" horiz-adv-x="663" 
d="M591 548l-399 -391l195 5l3 -56h-283v283l56 -4l-5 -194l391 398z" />
    <glyph glyph-name="minus" unicode="&#x2212;" 
d="M496 322h-436v55h436v-55z" />
    <glyph glyph-name="approxequal" unicode="&#x2248;" 
d="M74 395q0 50 28.5 82.5t78.5 32.5q30 0 54 -11t55 -32q25 -18 44 -27t40 -9q26 0 41.5 15.5t15.5 46.5v17h52v-17q0 -50 -28.5 -82t-78.5 -32q-30 0 -54 11t-55 32q-27 19 -45.5 27.5t-39.5 8.5q-26 0 -41 -16.5t-15 -46.5v-16h-52v16zM74 207q0 50 28.5 82t78.5 32
q30 0 54 -11t55 -32q26 -18 44.5 -26.5t39.5 -8.5q26 0 41.5 15.5t15.5 46.5v16h52v-16q0 -50 -28.5 -82.5t-78.5 -32.5q-30 0 -54 11t-55 32q-27 19 -45.5 27.5t-39.5 8.5q-26 0 -41 -16t-15 -46v-17h-52v17z" />
    <glyph glyph-name="notequal" unicode="&#x2260;" 
d="M481 468v-56h-148l-53 -124h201v-55h-225l-55 -126h-56l54 126h-124v55h148l54 124h-202v56h226l54 125h57l-54 -125h123z" />
    <glyph glyph-name="lessequal" unicode="&#x2264;" 
d="M92 419l368 169v-58l-316 -143l316 -144v-58l-368 169v65zM460 45h-368v53h368v-53z" />
    <glyph glyph-name="greaterequal" unicode="&#x2265;" 
d="M97 530v58l368 -169v-65l-368 -169v58l315 144zM465 45h-368v53h368v-53z" />
    <glyph glyph-name="uni2460" unicode="&#x2460;" horiz-adv-x="830" 
d="M224.5 21q-85.5 49 -134 135.5t-48.5 193.5t48.5 193.5t134 135.5t190.5 49q106 0 191 -49t133.5 -135.5t48.5 -193.5t-48.5 -193.5t-133.5 -135.5t-191 -49q-105 0 -190.5 49zM579.5 63.5q73.5 42.5 115 117.5t41.5 169t-41.5 169t-115 117.5t-164.5 42.5t-164.5 -42.5
t-115 -117.5t-41.5 -169t41.5 -169t115 -117.5t164.5 -42.5t164.5 42.5zM404 160v254h-84v47h63q25 0 25 24v55h51v-380h-55z" />
    <glyph glyph-name="uni2461" unicode="&#x2461;" horiz-adv-x="830" 
d="M224.5 21q-85.5 49 -134 135.5t-48.5 193.5t48.5 193.5t134 135.5t190.5 49q106 0 191 -49t133.5 -135.5t48.5 -193.5t-48.5 -193.5t-133.5 -135.5t-191 -49q-105 0 -190.5 49zM579.5 63.5q73.5 42.5 115 117.5t41.5 169t-41.5 169t-115 117.5t-164.5 42.5t-164.5 -42.5
t-115 -117.5t-41.5 -169t41.5 -169t115 -117.5t164.5 -42.5t164.5 42.5zM294 160v55l125 117q36 35 50 57t14 46q0 29 -17 45t-49 16t-53.5 -17t-30.5 -50l-49 8q13 52 47.5 80t85.5 28q53 0 87 -29.5t34 -76.5q0 -34 -19.5 -66t-67.5 -76l-87 -83v-5h186v-49h-256z" />
    <glyph glyph-name="uni2462" unicode="&#x2462;" horiz-adv-x="830" 
d="M606 679q85 -49 133.5 -135.5t48.5 -193.5t-48.5 -193.5t-133.5 -135.5t-191 -49q-105 0 -190.5 49t-134 135.5t-48.5 193.5t48.5 193.5t134 135.5t190.5 49q106 0 191 -49zM579.5 63.5q73.5 42.5 115 117.5t41.5 169t-41.5 169t-115 117.5t-164.5 42.5t-164.5 -42.5
t-115 -117.5t-41.5 -169t41.5 -169t115 -117.5t164.5 -42.5t164.5 42.5zM532 320q18 -26 18 -59q0 -47 -36.5 -76.5t-94.5 -29.5q-56 0 -95 30.5t-50 82.5l49 8q8 -34 33.5 -53t62.5 -19q35 0 55.5 17t20.5 47t-20 47t-56 17h-41v46h38q32 0 50.5 16t18.5 43t-18.5 43
t-50.5 16q-34 0 -57 -17.5t-31 -49.5l-49 8q12 50 48.5 79t88.5 29q54 0 89 -29t35 -73q0 -29 -15 -51t-43 -34q32 -12 50 -38z" />
    <glyph glyph-name="uni2463" unicode="&#x2463;" horiz-adv-x="830" 
d="M606 679q85 -49 133.5 -135.5t48.5 -193.5t-48.5 -193.5t-133.5 -135.5t-191 -49q-105 0 -190.5 49t-134 135.5t-48.5 193.5t48.5 193.5t134 135.5t190.5 49q106 0 191 -49zM579.5 63.5q73.5 42.5 115 117.5t41.5 169t-41.5 169t-115 117.5t-164.5 42.5t-164.5 -42.5
t-115 -117.5t-41.5 -169t41.5 -169t115 -117.5t164.5 -42.5t164.5 42.5zM429 540h57v-234h52v-49h-52v-97h-52v97h-182v49zM434 306v160h-5l-119 -160h124z" />
    <glyph glyph-name="uni2464" unicode="&#x2464;" horiz-adv-x="830" 
d="M606 679q85 -49 133.5 -135.5t48.5 -193.5t-48.5 -193.5t-133.5 -135.5t-191 -49q-105 0 -190.5 49t-134 135.5t-48.5 193.5t48.5 193.5t134 135.5t190.5 49q106 0 191 -49zM579.5 63.5q73.5 42.5 115 117.5t41.5 169t-41.5 169t-115 117.5t-164.5 42.5t-164.5 -42.5
t-115 -117.5t-41.5 -169t41.5 -169t115 -117.5t164.5 -42.5t164.5 42.5zM514 372q33 -34 33 -89q0 -57 -36.5 -92.5t-95.5 -35.5q-51 0 -88.5 26.5t-50.5 73.5l49 9q10 -29 32 -44.5t54 -15.5q38 0 59.5 21t21.5 58q0 35 -20.5 56.5t-54.5 21.5q-23 0 -42.5 -10.5
t-31.5 -30.5h-50l19 220h216v-49h-171l-11 -116h5q29 31 78 31q52 0 85 -34z" />
    <glyph glyph-name="uni2465" unicode="&#x2465;" horiz-adv-x="830" 
d="M224.5 21q-85.5 49 -134 135.5t-48.5 193.5t48.5 193.5t134 135.5t190.5 49q106 0 191 -49t133.5 -135.5t48.5 -193.5t-48.5 -193.5t-133.5 -135.5t-191 -49q-105 0 -190.5 49zM579.5 63.5q73.5 42.5 115 117.5t41.5 169t-41.5 169t-115 117.5t-164.5 42.5t-164.5 -42.5
t-115 -117.5t-41.5 -169t41.5 -169t115 -117.5t164.5 -42.5t164.5 42.5zM315 202.5q-38 47.5 -38 130.5q0 99 39.5 155.5t107.5 56.5q44 0 75.5 -22.5t45.5 -63.5l-46 -9q-20 49 -72 49q-43 0 -69.5 -36t-30.5 -104h5q16 22 41.5 34.5t55.5 12.5q53 0 88.5 -34.5t35.5 -89.5
t-37.5 -91t-96.5 -36q-66 0 -104 47.5zM477.5 224q23.5 23 23.5 58q0 36 -23.5 59t-58.5 23q-36 0 -60.5 -23t-24.5 -57q0 -35 25 -59t60 -24t58.5 23z" />
    <glyph glyph-name="uni2466" unicode="&#x2466;" horiz-adv-x="830" 
d="M224.5 21q-85.5 49 -134 135.5t-48.5 193.5t48.5 193.5t134 135.5t190.5 49q106 0 191 -49t133.5 -135.5t48.5 -193.5t-48.5 -193.5t-133.5 -135.5t-191 -49q-105 0 -190.5 49zM579.5 63.5q73.5 42.5 115 117.5t41.5 169t-41.5 169t-115 117.5t-164.5 42.5t-164.5 -42.5
t-115 -117.5t-41.5 -169t41.5 -169t115 -117.5t164.5 -42.5t164.5 42.5zM400 160h-56l136 326v5h-195v49h250v-52z" />
    <glyph glyph-name="uni2467" unicode="&#x2467;" horiz-adv-x="830" 
d="M606 679q85 -49 133.5 -135.5t48.5 -193.5t-48.5 -193.5t-133.5 -135.5t-191 -49q-105 0 -190.5 49t-134 135.5t-48.5 193.5t48.5 193.5t134 135.5t190.5 49q106 0 191 -49zM579.5 63.5q73.5 42.5 115 117.5t41.5 169t-41.5 169t-115 117.5t-164.5 42.5t-164.5 -42.5
t-115 -117.5t-41.5 -169t41.5 -169t115 -117.5t164.5 -42.5t164.5 42.5zM532.5 322.5q18.5 -24.5 18.5 -57.5q0 -49 -38 -79.5t-97 -30.5q-60 0 -98 30.5t-38 79.5q0 33 18.5 57.5t50.5 36.5q-27 11 -41.5 32.5t-14.5 50.5q0 44 35 73.5t88 29.5q52 0 87 -29.5t35 -73.5
q0 -28 -15 -50t-42 -33q33 -12 51.5 -36.5zM365 482.5q-20 -16.5 -20 -43.5q0 -28 19.5 -45t51.5 -17q31 0 50.5 17t19.5 45q0 27 -20 43.5t-50 16.5q-31 0 -51 -16.5zM476 219q23 18 23 49q0 30 -23 48t-60 18q-38 0 -61 -18t-23 -48q0 -31 23 -49t61 -18q37 0 60 18z" />
    <glyph glyph-name="uni2468" unicode="&#x2468;" horiz-adv-x="830" 
d="M224.5 21q-85.5 49 -134 135.5t-48.5 193.5t48.5 193.5t134 135.5t190.5 49q106 0 191 -49t133.5 -135.5t48.5 -193.5t-48.5 -193.5t-133.5 -135.5t-191 -49q-105 0 -190.5 49zM579.5 63.5q73.5 42.5 115 117.5t41.5 169t-41.5 169t-115 117.5t-164.5 42.5t-164.5 -42.5
t-115 -117.5t-41.5 -169t41.5 -169t115 -117.5t164.5 -42.5t164.5 42.5zM331 177.5q-32 22.5 -46 63.5l46 9q10 -24 29 -36.5t44 -12.5q43 0 69 36.5t30 103.5h-5q-16 -22 -41.5 -34.5t-55.5 -12.5q-53 0 -88.5 34.5t-35.5 89.5t37.5 91t96.5 36q66 0 104 -47.5t38 -130.5
q0 -99 -39 -155.5t-107 -56.5q-44 0 -76 22.5zM471.5 359q24.5 23 24.5 57q0 35 -25 59t-60 24t-58.5 -23t-23.5 -58q0 -36 23.5 -59t58.5 -23q36 0 60.5 23z" />
    <glyph glyph-name="uni24EA" unicode="&#x24ea;" horiz-adv-x="830" 
d="M224.5 21q-85.5 49 -134 135.5t-48.5 193.5t48.5 193.5t134 135.5t190.5 49q106 0 191 -49t133.5 -135.5t48.5 -193.5t-48.5 -193.5t-133.5 -135.5t-191 -49q-105 0 -190.5 49zM579.5 63.5q73.5 42.5 115 117.5t41.5 169t-41.5 169t-115 117.5t-164.5 42.5t-164.5 -42.5
t-115 -117.5t-41.5 -169t41.5 -169t115 -117.5t164.5 -42.5t164.5 42.5zM337 180q-34 25 -52.5 69t-18.5 101t18.5 101t52.5 69t78 25t78 -25t52.5 -69t18.5 -101t-18.5 -101t-52.5 -69t-78 -25t-78 25zM484 244q25 40 25 106t-25 106t-69 40q-43 0 -68 -40t-25 -106
t25 -106t68 -40q44 0 69 40z" />
    <glyph glyph-name="uni24FF" unicode="&#x24ff;" horiz-adv-x="830" 
d="M224.5 21q-85.5 49 -134 135.5t-48.5 193.5t48.5 193.5t134 135.5t190.5 49q106 0 191 -49t133.5 -135.5t48.5 -193.5t-48.5 -193.5t-133.5 -135.5t-191 -49q-105 0 -190.5 49zM493 180q34 25 52.5 69t18.5 101t-18.5 101t-52.5 69t-78 25t-78 -25t-52.5 -69t-18.5 -101
t18.5 -101t52.5 -69t78 -25t78 25zM347 244q-25 40 -25 106t25 106t68 40q44 0 69 -40t25 -106t-25 -106t-69 -40q-43 0 -68 40z" />
    <glyph glyph-name="uni2776" unicode="&#x2776;" horiz-adv-x="830" 
d="M224.5 21q-85.5 49 -134 135.5t-48.5 193.5t48.5 193.5t134 135.5t190.5 49q106 0 191 -49t133.5 -135.5t48.5 -193.5t-48.5 -193.5t-133.5 -135.5t-191 -49q-105 0 -190.5 49zM404 160h55v380h-51v-55q0 -24 -25 -24h-63v-47h84v-254z" />
    <glyph glyph-name="uni2777" unicode="&#x2777;" horiz-adv-x="830" 
d="M224.5 21q-85.5 49 -134 135.5t-48.5 193.5t48.5 193.5t134 135.5t190.5 49q106 0 191 -49t133.5 -135.5t48.5 -193.5t-48.5 -193.5t-133.5 -135.5t-191 -49q-105 0 -190.5 49zM294 160h256v49h-186v5l87 83q48 44 67.5 76t19.5 66q0 47 -34 76.5t-87 29.5
q-51 0 -85.5 -28t-47.5 -80l49 -8q9 33 30.5 50t53.5 17t49 -16t17 -45q0 -24 -14 -46t-50 -57l-125 -117v-55z" />
    <glyph glyph-name="uni2778" unicode="&#x2778;" horiz-adv-x="830" 
d="M224.5 21q-85.5 49 -134 135.5t-48.5 193.5t48.5 193.5t134 135.5t190.5 49q106 0 191 -49t133.5 -135.5t48.5 -193.5t-48.5 -193.5t-133.5 -135.5t-191 -49q-105 0 -190.5 49zM513.5 184.5q36.5 29.5 36.5 76.5q0 34 -18.5 59.5t-50.5 37.5q28 12 43.5 33.5t15.5 51.5
q0 44 -35 73t-89 29q-52 0 -88.5 -29t-48.5 -79l49 -8q8 32 31 49.5t57 17.5q32 0 50.5 -16t18.5 -43t-18.5 -43t-50.5 -16h-38v-46h41q36 0 56 -17t20 -47t-20.5 -47t-55.5 -17q-37 0 -62.5 19t-33.5 53l-49 -8q11 -52 50 -82.5t95 -30.5q58 0 94.5 29.5z" />
    <glyph glyph-name="uni2779" unicode="&#x2779;" horiz-adv-x="830" 
d="M224.5 21q-85.5 49 -134 135.5t-48.5 193.5t48.5 193.5t134 135.5t190.5 49q106 0 191 -49t133.5 -135.5t48.5 -193.5t-48.5 -193.5t-133.5 -135.5t-191 -49q-105 0 -190.5 49zM434 257v-97h52v97h52v49h-52v234h-57l-177 -234v-49h182zM434 306h-125l120 160h5v-160z
" />
    <glyph glyph-name="uni277A" unicode="&#x277a;" horiz-adv-x="830" 
d="M224.5 21q-85.5 49 -134 135.5t-48.5 193.5t48.5 193.5t134 135.5t190.5 49q106 0 191 -49t133.5 -135.5t48.5 -193.5t-48.5 -193.5t-133.5 -135.5t-191 -49q-105 0 -190.5 49zM510.5 190.5q36.5 35.5 36.5 92.5q0 55 -33 89t-85 34q-49 0 -78 -31h-5l11 116h171v49h-216
l-19 -220h50q12 20 31.5 30.5t42.5 10.5q34 0 54.5 -21.5t20.5 -56.5q0 -37 -21.5 -58t-59.5 -21q-32 0 -54 15.5t-32 44.5l-49 -9q13 -47 50.5 -73.5t88.5 -26.5q59 0 95.5 35.5z" />
    <glyph glyph-name="uni277B" unicode="&#x277b;" horiz-adv-x="830" 
d="M224.5 21q-85.5 49 -134 135.5t-48.5 193.5t48.5 193.5t134 135.5t190.5 49q106 0 191 -49t133.5 -135.5t48.5 -193.5t-48.5 -193.5t-133.5 -135.5t-191 -49q-105 0 -190.5 49zM515.5 191q37.5 36 37.5 91t-35.5 89.5t-88.5 34.5q-30 0 -55.5 -12.5t-41.5 -34.5h-5
q4 68 30.5 104t69.5 36q52 0 72 -49l46 9q-14 41 -45.5 63.5t-75.5 22.5q-68 0 -107.5 -56.5t-39.5 -155.5q0 -83 38 -130.5t104 -47.5q59 0 96.5 36zM359 225q-25 24 -25 59q0 34 24.5 57t60.5 23q35 0 58.5 -23t23.5 -59q0 -35 -23.5 -58t-58.5 -23t-60 24z" />
    <glyph glyph-name="uni277C" unicode="&#x277c;" horiz-adv-x="830" 
d="M224.5 21q-85.5 49 -134 135.5t-48.5 193.5t48.5 193.5t134 135.5t190.5 49q106 0 191 -49t133.5 -135.5t48.5 -193.5t-48.5 -193.5t-133.5 -135.5t-191 -49q-105 0 -190.5 49zM480 486l-136 -326h56l135 328v52h-250v-49h195v-5z" />
    <glyph glyph-name="uni277D" unicode="&#x277d;" horiz-adv-x="830" 
d="M224.5 21q-85.5 49 -134 135.5t-48.5 193.5t48.5 193.5t134 135.5t190.5 49q106 0 191 -49t133.5 -135.5t48.5 -193.5t-48.5 -193.5t-133.5 -135.5t-191 -49q-105 0 -190.5 49zM513 185.5q38 30.5 38 79.5q0 33 -18.5 57.5t-51.5 36.5q27 11 42 32.5t15 50.5
q0 44 -35 73.5t-87 29.5q-53 0 -88 -29.5t-35 -73.5q0 -29 15 -50.5t42 -32.5q-33 -12 -51.5 -36.5t-18.5 -57.5q0 -49 38 -79.5t98 -30.5q59 0 97 30.5zM364.5 394q-19.5 17 -19.5 45q0 27 20 43.5t51 16.5q30 0 50 -16.5t20 -43.5q0 -28 -19.5 -45t-50.5 -17
q-32 0 -51.5 17zM355 219q-23 18 -23 49q0 30 23 48t61 18q37 0 60 -18t23 -48q0 -31 -23 -49t-60 -18q-38 0 -61 18z" />
    <glyph glyph-name="uni277E" unicode="&#x277e;" horiz-adv-x="830" 
d="M224.5 21q-85.5 49 -134 135.5t-48.5 193.5t48.5 193.5t134 135.5t190.5 49q106 0 191 -49t133.5 -135.5t48.5 -193.5t-48.5 -193.5t-133.5 -135.5t-191 -49q-105 0 -190.5 49zM514 211.5q39 56.5 39 155.5q0 83 -38 130.5t-104 47.5q-59 0 -96.5 -36t-37.5 -91
t35.5 -89.5t88.5 -34.5q30 0 55.5 12.5t41.5 34.5h5q-4 -67 -30 -103.5t-69 -36.5q-25 0 -44 12.5t-29 36.5l-46 -9q14 -41 46 -63.5t76 -22.5q68 0 107 56.5zM352.5 359q-23.5 23 -23.5 59q0 35 23.5 58t58.5 23t60 -24t25 -59q0 -34 -24.5 -57t-60.5 -23q-35 0 -58.5 23z
" />
    <glyph glyph-name="uni2B88" unicode="&#x2b88;" horiz-adv-x="830" 
d="M224.5 21q-85.5 49 -134 135.5t-48.5 193.5t48.5 193.5t134 135.5t190.5 49q106 0 191 -49t133.5 -135.5t48.5 -193.5t-48.5 -193.5t-133.5 -135.5t-191 -49q-105 0 -190.5 49zM214 350l141 -138l30 35l-91 82l322 -5v52l-322 -5l91 82l-30 35z" />
    <glyph glyph-name="uni2B89" unicode="&#x2b89;" horiz-adv-x="830" 
d="M224.5 21q-85.5 49 -134 135.5t-48.5 193.5t48.5 193.5t134 135.5t190.5 49q106 0 191 -49t133.5 -135.5t48.5 -193.5t-48.5 -193.5t-133.5 -135.5t-191 -49q-105 0 -190.5 49zM394 476l-5 -332h52l-5 332l82 -91l35 30l-138 141l-138 -141l35 -30z" />
    <glyph glyph-name="uni2B8A" unicode="&#x2b8a;" horiz-adv-x="830" 
d="M224.5 21q-85.5 49 -134 135.5t-48.5 193.5t48.5 193.5t134 135.5t190.5 49q106 0 191 -49t133.5 -135.5t48.5 -193.5t-48.5 -193.5t-133.5 -135.5t-191 -49q-105 0 -190.5 49zM445 247l30 -35l141 138l-141 138l-30 -35l91 -82l-322 5v-52l322 5z" />
    <glyph glyph-name="uni2B8B" unicode="&#x2b8b;" horiz-adv-x="830" 
d="M224.5 21q-85.5 49 -134 135.5t-48.5 193.5t48.5 193.5t134 135.5t190.5 49q106 0 191 -49t133.5 -135.5t48.5 -193.5t-48.5 -193.5t-133.5 -135.5t-191 -49q-105 0 -190.5 49zM277 285l138 -141l138 141l-35 30l-82 -91l5 332h-52l5 -332l-82 91z" />
    <glyph glyph-name="iacute_j.loclNLD" unicode="&#xe132;" horiz-adv-x="417" 
d="M134 0h-60v496h60v-496zM109 565h-47l93 151h69v-5zM173 -200v55h45q35 0 49.5 16t14.5 54v571h60v-571q0 -63 -28 -94t-86 -31h-55zM317 565h-47l93 151h69v-5z" />
    <glyph glyph-name="Iacute_J.loclNLD" unicode="&#xe133;" horiz-adv-x="716" 
d="M153 0h-64v700h64v-700zM127 764h-52l91 146h74v-5zM317 41.5q-54 48.5 -68 133.5l59 10q11 -64 47.5 -98.5t94.5 -34.5q60 0 91.5 39t31.5 115v494h65v-494q0 -100 -50 -156.5t-138 -56.5q-79 0 -133 48.5zM611 764h-52l91 146h74v-5z" />
    <glyph glyph-name="brevecomb-cy" unicode="&#xe600;" horiz-adv-x="0" 
d="M-268.5 602q-38.5 37 -38.5 98h49q0 -41 23.5 -65t66.5 -24q42 0 65.5 23.5t23.5 65.5h49q0 -61 -38 -98t-100 -37t-100.5 37z" />
    <glyph glyph-name="uni030A_uni0301" unicode="&#xe601;" horiz-adv-x="0" 
d="M-191.5 579q-27.5 27 -27.5 67q0 34 20 59t51 33l46 87h54v-5l-56 -81q33 -7 53.5 -32.5t20.5 -60.5q0 -40 -27 -67t-67 -27t-67.5 27zM-86.5 606q14.5 15 14.5 40t-14.5 40.5t-37.5 15.5t-37.5 -15.5t-14.5 -40.5t14.5 -40t37.5 -15t37.5 15z" />
    <glyph glyph-name="uni2197.blackCircled" unicode="&#xe700;" horiz-adv-x="830" 
d="M224.5 21q-85.5 49 -134 135.5t-48.5 193.5t48.5 193.5t134 135.5t190.5 49q106 0 191 -49t133.5 -135.5t48.5 -193.5t-48.5 -193.5t-133.5 -135.5t-191 -49q-105 0 -190.5 49zM250 232l37 -37l231 239l-4 -122l46 -3v196h-196l3 -46l122 4z" />
    <glyph glyph-name="uni2198.blackCircled" unicode="&#xe701;" horiz-adv-x="830" 
d="M224.5 21q-85.5 49 -134 135.5t-48.5 193.5t48.5 193.5t134 135.5t190.5 49q106 0 191 -49t133.5 -135.5t48.5 -193.5t-48.5 -193.5t-133.5 -135.5t-191 -49q-105 0 -190.5 49zM367 241l-3 -46h196v196l-46 -3l4 -122l-231 239l-37 -37l239 -231z" />
    <glyph glyph-name="uni2199.blackCircled" unicode="&#xe702;" horiz-adv-x="830" 
d="M224.5 21q-85.5 49 -134 135.5t-48.5 193.5t48.5 193.5t134 135.5t190.5 49q106 0 191 -49t133.5 -135.5t48.5 -193.5t-48.5 -193.5t-133.5 -135.5t-191 -49q-105 0 -190.5 49zM270 391v-196h196l-3 46l-122 -4l239 231l-37 37l-231 -239l4 122z" />
    <glyph glyph-name="uni2196.blackCircled" unicode="&#xe703;" horiz-adv-x="830" 
d="M224.5 21q-85.5 49 -134 135.5t-48.5 193.5t48.5 193.5t134 135.5t190.5 49q106 0 191 -49t133.5 -135.5t48.5 -193.5t-48.5 -193.5t-133.5 -135.5t-191 -49q-105 0 -190.5 49zM312 434l231 -239l37 37l-239 231l122 -4l3 46h-196v-196l46 3z" />
    <glyph glyph-name="arrowboth.blackCircled" unicode="&#xe704;" horiz-adv-x="830" 
d="M224.5 21q-85.5 49 -134 135.5t-48.5 193.5t48.5 193.5t134 135.5t190.5 49q106 0 191 -49t133.5 -135.5t48.5 -193.5t-48.5 -193.5t-133.5 -135.5t-191 -49q-105 0 -190.5 49zM189 350l124 -138l31 32l-83 84h309l-84 -84l31 -32l124 138l-124 138l-31 -31l84 -85h-309
l83 85l-31 31z" />
    <glyph glyph-name="arrowupdn.blackCircled" unicode="&#xe705;" horiz-adv-x="830" 
d="M224.5 21q-85.5 49 -134 135.5t-48.5 193.5t48.5 193.5t134 135.5t190.5 49q106 0 191 -49t133.5 -135.5t48.5 -193.5t-48.5 -193.5t-133.5 -135.5t-191 -49q-105 0 -190.5 49zM277 258l138 -124l138 124l-31 31l-85 -83v289l85 -84l31 31l-138 124l-138 -124l32 -31
l84 84v-289l-84 83z" />
    <glyph glyph-name="arrowup.circled" unicode="&#xe706;" horiz-adv-x="830" 
d="M606 679q85 -49 133.5 -135.5t48.5 -193.5t-48.5 -193.5t-133.5 -135.5t-191 -49q-105 0 -190.5 49t-134 135.5t-48.5 193.5t48.5 193.5t134 135.5t190.5 49q106 0 191 -49zM579.5 63.5q73.5 42.5 115 117.5t41.5 169t-41.5 169t-115 117.5t-164.5 42.5t-164.5 -42.5
t-115 -117.5t-41.5 -169t41.5 -169t115 -117.5t164.5 -42.5t164.5 42.5zM312 385l-35 30l138 141l138 -141l-35 -30l-82 91l5 -332h-52l5 332z" />
    <glyph glyph-name="uni2197.circled" unicode="&#xe707;" horiz-adv-x="830" 
d="M606 679q85 -49 133.5 -135.5t48.5 -193.5t-48.5 -193.5t-133.5 -135.5t-191 -49q-105 0 -190.5 49t-134 135.5t-48.5 193.5t48.5 193.5t134 135.5t190.5 49q106 0 191 -49zM579.5 63.5q73.5 42.5 115 117.5t41.5 169t-41.5 169t-115 117.5t-164.5 42.5t-164.5 -42.5
t-115 -117.5t-41.5 -169t41.5 -169t115 -117.5t164.5 -42.5t164.5 42.5zM489 463l-122 -4l-3 46h196v-196l-46 3l4 122l-231 -239l-37 37z" />
    <glyph glyph-name="arrowright.circled" unicode="&#xe708;" horiz-adv-x="830" 
d="M606 679q85 -49 133.5 -135.5t48.5 -193.5t-48.5 -193.5t-133.5 -135.5t-191 -49q-105 0 -190.5 49t-134 135.5t-48.5 193.5t48.5 193.5t134 135.5t190.5 49q106 0 191 -49zM579.5 63.5q73.5 42.5 115 117.5t41.5 169t-41.5 169t-115 117.5t-164.5 42.5t-164.5 -42.5
t-115 -117.5t-41.5 -169t41.5 -169t115 -117.5t164.5 -42.5t164.5 42.5zM536 371l-91 82l30 35l141 -138l-141 -138l-30 35l91 82l-322 -5v52z" />
    <glyph glyph-name="uni2198.circled" unicode="&#xe709;" horiz-adv-x="830" 
d="M606 679q85 -49 133.5 -135.5t48.5 -193.5t-48.5 -193.5t-133.5 -135.5t-191 -49q-105 0 -190.5 49t-134 135.5t-48.5 193.5t48.5 193.5t134 135.5t190.5 49q106 0 191 -49zM579.5 63.5q73.5 42.5 115 117.5t41.5 169t-41.5 169t-115 117.5t-164.5 42.5t-164.5 -42.5
t-115 -117.5t-41.5 -169t41.5 -169t115 -117.5t164.5 -42.5t164.5 42.5zM287 505l231 -239l-4 122l46 3v-196h-196l3 46l122 -4l-239 231z" />
    <glyph glyph-name="arrowdown.circled" unicode="&#xe70a;" horiz-adv-x="830" 
d="M606 679q85 -49 133.5 -135.5t48.5 -193.5t-48.5 -193.5t-133.5 -135.5t-191 -49q-105 0 -190.5 49t-134 135.5t-48.5 193.5t48.5 193.5t134 135.5t190.5 49q106 0 191 -49zM579.5 63.5q73.5 42.5 115 117.5t41.5 169t-41.5 169t-115 117.5t-164.5 42.5t-164.5 -42.5
t-115 -117.5t-41.5 -169t41.5 -169t115 -117.5t164.5 -42.5t164.5 42.5zM441 556l-5 -332l82 91l35 -30l-138 -141l-138 141l35 30l82 -91l-5 332h52z" />
    <glyph glyph-name="uni2199.circled" unicode="&#xe70b;" horiz-adv-x="830" 
d="M606 679q85 -49 133.5 -135.5t48.5 -193.5t-48.5 -193.5t-133.5 -135.5t-191 -49q-105 0 -190.5 49t-134 135.5t-48.5 193.5t48.5 193.5t134 135.5t190.5 49q106 0 191 -49zM579.5 63.5q73.5 42.5 115 117.5t41.5 169t-41.5 169t-115 117.5t-164.5 42.5t-164.5 -42.5
t-115 -117.5t-41.5 -169t41.5 -169t115 -117.5t164.5 -42.5t164.5 42.5zM312 266l231 239l37 -37l-239 -231l122 4l3 -46h-196v196l46 -3z" />
    <glyph glyph-name="arrowleft.circled" unicode="&#xe70c;" horiz-adv-x="830" 
d="M606 679q85 -49 133.5 -135.5t48.5 -193.5t-48.5 -193.5t-133.5 -135.5t-191 -49q-105 0 -190.5 49t-134 135.5t-48.5 193.5t48.5 193.5t134 135.5t190.5 49q106 0 191 -49zM579.5 63.5q73.5 42.5 115 117.5t41.5 169t-41.5 169t-115 117.5t-164.5 42.5t-164.5 -42.5
t-115 -117.5t-41.5 -169t41.5 -169t115 -117.5t164.5 -42.5t164.5 42.5zM355 488l30 -35l-91 -82l322 5v-52l-322 5l91 -82l-30 -35l-141 138z" />
    <glyph glyph-name="uni2196.circled" unicode="&#xe70d;" horiz-adv-x="830" 
d="M606 679q85 -49 133.5 -135.5t48.5 -193.5t-48.5 -193.5t-133.5 -135.5t-191 -49q-105 0 -190.5 49t-134 135.5t-48.5 193.5t48.5 193.5t134 135.5t190.5 49q106 0 191 -49zM579.5 63.5q73.5 42.5 115 117.5t41.5 169t-41.5 169t-115 117.5t-164.5 42.5t-164.5 -42.5
t-115 -117.5t-41.5 -169t41.5 -169t115 -117.5t164.5 -42.5t164.5 42.5zM466 505l-3 -46l-122 4l239 -231l-37 -37l-231 239l4 -122l-46 -3v196h196z" />
    <glyph glyph-name="arrowboth.circled" unicode="&#xe70e;" horiz-adv-x="830" 
d="M606 679q85 -49 133.5 -135.5t48.5 -193.5t-48.5 -193.5t-133.5 -135.5t-191 -49q-105 0 -190.5 49t-134 135.5t-48.5 193.5t48.5 193.5t134 135.5t190.5 49q106 0 191 -49zM579.5 63.5q73.5 42.5 115 117.5t41.5 169t-41.5 169t-115 117.5t-164.5 42.5t-164.5 -42.5
t-115 -117.5t-41.5 -169t41.5 -169t115 -117.5t164.5 -42.5t164.5 42.5zM570 372l-84 85l31 31l124 -138l-124 -138l-31 32l84 84h-310l84 -84l-31 -32l-124 138l124 138l31 -31l-84 -85h310z" />
    <glyph glyph-name="arrowupdn.circled" unicode="&#xe70f;" horiz-adv-x="830" 
d="M606 679q85 -49 133.5 -135.5t48.5 -193.5t-48.5 -193.5t-133.5 -135.5t-191 -49q-105 0 -190.5 49t-134 135.5t-48.5 193.5t48.5 193.5t134 135.5t190.5 49q106 0 191 -49zM579.5 63.5q73.5 42.5 115 117.5t41.5 169t-41.5 169t-115 117.5t-164.5 42.5t-164.5 -42.5
t-115 -117.5t-41.5 -169t41.5 -169t115 -117.5t164.5 -42.5t164.5 42.5zM553 442l-31 -31l-85 84v-290l85 84l31 -31l-138 -124l-138 124l32 31l84 -84v290l-84 -84l-32 31l138 124z" />
    <glyph glyph-name="uniE800" unicode="&#xe800;" horiz-adv-x="729" 
d="M142 381.5q-13 12.5 -13 32.5t13 32.5t32 12.5q20 0 32.5 -12.5t12.5 -32.5t-12.5 -32.5t-32.5 -12.5q-19 0 -32 12.5zM523 381.5q-13 12.5 -13 32.5t13 32.5t32 12.5q20 0 32.5 -12.5t12.5 -32.5t-12.5 -32.5t-32.5 -12.5q-19 0 -32 12.5zM199 88q-70 43 -104 122l54 13
q27 -62 83 -93.5t133 -31.5t133 31.5t83 93.5l53 -13q-34 -79 -104 -122t-165 -43q-96 0 -166 43z" />
    <glyph glyph-name="uniE801" unicode="&#xe801;" horiz-adv-x="729" 
d="M142 381.5q-13 12.5 -13 32.5t13 32.5t32 12.5q20 0 32.5 -12.5t12.5 -32.5t-12.5 -32.5t-32.5 -12.5q-19 0 -32 12.5zM523 381.5q-13 12.5 -13 32.5t13 32.5t32 12.5q20 0 32.5 -12.5t12.5 -32.5t-12.5 -32.5t-32.5 -12.5q-19 0 -32 12.5zM95 58q34 79 104 122t166 43
q95 0 165 -43t104 -122l-53 -13q-27 62 -83.5 94t-132.5 32q-77 0 -133 -32t-83 -94z" />
    <glyph glyph-name="uniE802" unicode="&#xe802;" horiz-adv-x="729" 
d="M246 350l-46 69l-46 -69h-52l80 111h38l79 -111h-53zM574 350l-46 69l-46 -69h-52l79 111h39l79 -111h-53zM634 210q-34 -79 -104 -122t-165 -43q-96 0 -166 43t-104 122l54 13q27 -62 83 -93.5t133 -31.5t133 31.5t83 93.5z" />
    <glyph glyph-name="uniE803" unicode="&#xe803;" horiz-adv-x="729" 
d="M266 358l-40 -40l-124 128l28 29zM627 446l-124 -128l-40 40l136 117zM95 58q34 79 104 122t166 43q95 0 165 -43t104 -122l-53 -13q-27 62 -83.5 94t-132.5 32q-77 0 -133 -32t-83 -94z" />
    <glyph glyph-name="uniE804" unicode="&#xe804;" horiz-adv-x="850" 
d="M244 36.5q-81 46.5 -127.5 129t-46.5 184.5t46.5 184.5t127.5 129t181 46.5t181 -46.5t127.5 -129t46.5 -184.5t-46.5 -184.5t-127.5 -129t-181 -46.5t-181 46.5z" />
    <glyph glyph-name="uniE805" unicode="&#xe805;" horiz-adv-x="900" 
d="M800 0h-700v700h700v-700z" />
    <glyph glyph-name="uniE806" unicode="&#xe806;" horiz-adv-x="740" 
d="M723 0h-706l353 713z" />
    <glyph glyph-name="uniE807" unicode="&#xe807;" horiz-adv-x="800" 
d="M158 2h-5l83 279l-191 165v5l256 16l97 251h5l98 -251l255 -16v-5l-191 -165l83 -279h-5l-243 164z" />
    <glyph glyph-name="uniE808" unicode="&#xe808;" horiz-adv-x="800" 
d="M391 0q-12 170 -15 291q-89 -85 -215 -192l-12 13q120 139 191 214q-110 2 -288 15v18q178 13 288 15q-71 75 -191 214l12 13q126 -107 215 -192q3 121 15 291h18q12 -170 15 -291q89 85 215 192l12 -13q-120 -139 -191 -214q110 -2 288 -15v-18q-178 -13 -288 -15
q71 -75 191 -214l-12 -13q-126 107 -215 192q-3 -121 -15 -291h-18z" />
    <glyph glyph-name="uniE809" unicode="&#xe809;" horiz-adv-x="800" 
d="M426 10h-52l10 301l-206 -221l-37 38l221 206l-300 -10v52l300 -10l-221 206l37 38l206 -221l-10 301h52l-10 -301l206 221l37 -38l-221 -206l300 10v-52l-300 10l221 -206l-37 -38l-206 221z" />
    <glyph glyph-name="uniE80A" unicode="&#xe80a;" horiz-adv-x="800" 
d="M419 560h-38l-8 140h54zM267 512l-27 -27l-104 93l37 38zM664 578l-104 -93l-27 27l94 104zM191 331l-139 -8v54l139 -8v-38zM748 377v-54l-139 8v38zM267 188l-94 -104l-37 38l104 93zM664 122l-37 -38l-94 104l27 27zM427 0h-54l8 140h38z" />
    <glyph glyph-name="uniE80B" unicode="&#xe80b;" horiz-adv-x="800" 
d="M392 -10q-11 122 -16 312q-62 -62 -162 -150l-7 6q97 111 151 168q-153 3 -311 16v16q158 13 311 16q-54 57 -151 168l7 6q100 -88 162 -150q5 190 16 312h16q11 -122 16 -312q65 65 163 150l6 -6q-97 -112 -151 -168q153 -3 311 -16v-16q-158 -13 -311 -16
q54 -57 151 -168l-6 -6q-98 85 -163 150q-5 -190 -16 -312h-16z" />
    <glyph glyph-name="uniE80C" unicode="&#xe80c;" horiz-adv-x="700" 
d="M337 73q0 95 -24 152.5t-76 84.5t-139 27h-46v26h46q87 0 139 27t76 84.5t24 152.5v73h26v-73q0 -95 24 -152.5t76 -84.5t139 -27h46v-26h-46q-87 0 -139 -27t-76 -84.5t-24 -152.5v-73h-26v73z" />
    <glyph glyph-name="uniE80D" unicode="&#xe80d;" horiz-adv-x="813" 
d="M89 29v459h151v-30h28q11 29 30 45.5t50 33.5q27 16 42 28.5t20 33.5q19 81 72 81q30 0 47 -24.5t17 -59.5q0 -41 -13 -80t-34 -64h169q36 0 56 -16.5t20 -42.5q0 -20 -12 -35t-32 -20q30 -15 30 -45q0 -20 -12.5 -34t-32.5 -18q28 -15 28 -44q0 -22 -15 -37.5t-35 -18.5
q28 -16 28 -46q0 -29 -20 -45.5t-56 -16.5h-143q-36 0 -64.5 5.5t-65.5 15.5q-27 8 -44.5 11.5t-34.5 3.5h-23v-40h-151zM613 72q33 0 33 29q0 12 -8 19.5t-23 7.5h-11q-10 0 -16.5 5t-6.5 15q0 19 23 19h30q16 0 24.5 7.5t8.5 21.5q0 13 -8.5 20t-23.5 7h-11q-10 0 -16.5 5
t-6.5 15q0 9 6.5 14t16.5 5h27q16 0 24.5 7.5t8.5 21.5q0 13 -8.5 20t-24.5 7h-12q-10 0 -17 5t-7 15q0 19 24 19h24q18 0 27 8t9 21q0 27 -36 27h-198q-12 0 -18.5 6t-6.5 15t7 18q27 35 41.5 70t14.5 74q0 19 -6 30t-17 11q-10 0 -16 -9.5t-11 -30.5q-9 -36 -26.5 -54
t-47.5 -34q-26 -15 -43 -29.5t-30 -40.5q-6 -11 -13.5 -16t-19.5 -5h-33v-310h23q23 0 42 -4t49 -12q33 -10 58.5 -15t58.5 -5h142zM128 449v-381h72v381h-72z" />
    <glyph glyph-name="uniE80E" unicode="&#xe80e;" horiz-adv-x="813" 
d="M284 -10q-17 25 -17 60q0 40 13 79t34 64h-169q-36 0 -56 16.5t-20 42.5q0 20 12 35t32 21q-30 14 -30 44q0 20 12.5 34t32.5 19q-28 13 -28 43q0 23 15 38t35 18q-28 16 -28 46q0 29 20 45.5t56 16.5h143q36 0 64.5 -5.5t65.5 -15.5q27 -8 44.5 -11.5t34.5 -3.5h23v40
h151v-459h-151v30h-28q-11 -29 -30 -45.5t-50 -33.5q-27 -15 -42 -28t-20 -34q-19 -81 -72 -81q-30 0 -47 25zM613 577v-381h72v381h-72zM349 17.5q6 9.5 11 30.5q9 36 26.5 54t47.5 34q26 15 43 29.5t30 40.5q6 11 13.5 16t19.5 5h33v310h-23q-23 0 -42 4t-49 12
q-33 10 -58.5 15t-58.5 5h-142q-33 0 -33 -29q0 -12 8 -19.5t23 -7.5h11q23 0 23 -20q0 -19 -23 -19h-30q-16 0 -24.5 -7.5t-8.5 -21.5q0 -13 8.5 -20t23.5 -7h11q23 0 23 -20q0 -9 -6.5 -14t-16.5 -5h-27q-16 0 -24.5 -7.5t-8.5 -21.5q0 -13 8.5 -20t24.5 -7h12q10 0 17 -5
t7 -15q0 -19 -24 -19h-24q-18 0 -27 -8t-9 -21q0 -27 36 -27h198q12 0 18.5 -6t6.5 -15t-7 -18q-56 -71 -56 -143q0 -20 6 -31t17 -11q10 0 16 9.5z" />
    <glyph glyph-name="uniE80F" unicode="&#xe80f;" horiz-adv-x="753" 
d="M115 -80v153h68q0 27 -10 54.5t-30 68.5q-20 40 -30 68t-10 55q0 30 15 52.5t44 43.5q10 6 13.5 14t3.5 20q0 11 -1 18l-34 227q-1 6 -1 17q0 27 14 43t39 16q22 0 35.5 -14t25.5 -49l51 -157q14 38 53 38q20 0 33.5 -11.5t18.5 -30.5q17 32 50 32q23 0 38 -16t18 -39
l52 105q14 27 29 40.5t37 13.5q21 0 35 -13.5t14 -36.5q0 -18 -9 -39q-157 -406 -157 -520h63v-153h-468zM481 73q0 72 40 198.5t117 329.5q7 17 7 29q0 13 -12 13q-15 0 -36 -42l-56 -109q-7 -14 -12.5 -19t-14.5 -5q-21 0 -21 28q0 20 -8 31t-24 11q-14 0 -21.5 -9.5
t-7.5 -26.5q0 -10 -5 -17t-15 -7q-19 0 -19 24q0 47 -33 47q-15 0 -23.5 -10.5t-8.5 -27.5q0 -28 -21 -28q-9 0 -14 6t-9 19l-63 192q-6 17 -10.5 24t-12.5 7q-20 0 -15 -35l34 -223q3 -16 3 -29q0 -20 -7 -33.5t-23 -23.5q-25 -17 -36 -33.5t-11 -38.5q0 -18 8 -39t26 -59
q22 -47 33.5 -79.5t11.5 -64.5h259zM154 34v-75h389v75h-389z" />
    <glyph glyph-name="uniE810" unicode="&#xe810;" horiz-adv-x="900" 
d="M259.5 595.5q-73.5 -59.5 -105.5 -166.5l-54 9q36 128 125 200t212 72q99 0 179 -45t128 -128l5 135h52l-17 -219l-224 24l7 52l141 -23q-44 72 -113.5 110.5t-155.5 38.5q-106 0 -179.5 -59.5zM641 104.5q73 59.5 105 166.5l55 -9q-36 -128 -125 -200t-212 -72
q-99 0 -179 44.5t-129 128.5l-4 -135h-52l16 219l225 -24l-7 -52l-141 23q44 -71 113.5 -110t155.5 -39q106 0 179 59.5z" />
    <glyph glyph-name="uniE811" unicode="&#xe811;" horiz-adv-x="780" 
d="M361 170l6 447l-110 -120l-40 36l173 177l173 -177l-40 -36l-110 120l6 -447h-58zM653 52v188h52v-240h-630v240h53v-188h525z" />
    </font>
</defs>
</svg>
