<?xml version="1.0" standalone="no"?>
<!DOCTYPE svg PUBLIC "-//W3C//DTD SVG 1.1//EN" "http://www.w3.org/Graphics/SVG/1.1/DTD/svg11.dtd" >
<svg xmlns="http://www.w3.org/2000/svg" xmlns:xlink="http://www.w3.org/1999/xlink" version="1.1">
<metadata>
Created by FontForge 20201107 at Tue Sep  5 09:27:08 2023
 By 
Copyright (c) 2023 by TypeType. All rights reserved.
</metadata>
<defs>
<font id="TTNeorisTrial-Md" horiz-adv-x="528" >
  <font-face 
    font-family="TT Neoris Trial Medium"
    font-weight="500"
    font-stretch="normal"
    units-per-em="1000"
    panose-1="2 11 0 3 3 0 0 2 0 4"
    ascent="800"
    descent="-200"
    x-height="505"
    cap-height="700"
    bbox="-401 -254 1541 1008"
    underline-thickness="63"
    underline-position="-149"
    unicode-range="U+000D-FB04"
  />
<missing-glyph horiz-adv-x="880" 
d="M90 0v284h45v-139h33v139h50v31h-128v126l19 -61h23l34 106l33 -106h23l54 170h-32l-34 -110l-35 110h-19l-35 -110l-31 103v157h700v-150h-110v-170h110v-91q-6 13 -19.5 20t-30.5 7q-27 0 -43.5 -14.5t-16.5 -34.5q0 -22 14.5 -32.5t39.5 -17.5q17 -5 25.5 -9.5
t8.5 -13.5q0 -21 -28 -21q-14 0 -21 7t-7 18h-33q0 -24 17 -39.5t44 -15.5q17 0 30.5 6.5t19.5 13.5v-163h-700zM301 380h33v62h24l35 -62h37l-40 67q36 17 36 50q0 22 -16 37.5t-41 15.5h-68v-170zM459 550v-170h33v170h-33zM570 519v-139h32v139h50v31h-132v-31h50z
M334 473v46h35q10 0 17 -6.5t7 -16.5q0 -12 -7.5 -17.5t-16.5 -5.5h-35zM790 483h-78v36h78v-36zM790 411h-78v41h78v-41zM377.5 167.5q22.5 24.5 22.5 61.5t-23 62t-59 25t-59 -25t-23 -62t22.5 -61.5t59.5 -24.5t59.5 24.5zM623 162q19 19 19 47v106h-32v-106
q0 -15 -9.5 -25t-25.5 -10q-17 0 -26.5 10.5t-9.5 24.5v106h-32v-106q0 -28 19.5 -47t48.5 -19t48 19zM790 224q-15 14 -46 22q-16 5 -23 9t-7 12q0 9 7.5 14.5t18.5 5.5q10 0 18 -7t8 -18h24v-38zM281.5 190q-14.5 16 -14.5 39q0 25 14 40.5t37 15.5t37 -15.5t14 -40.5
q0 -23 -14.5 -39t-36.5 -16t-36.5 16z" />
    <glyph glyph-name="f_f" unicode="ff" horiz-adv-x="657" 
d="M566 621q-26 0 -38 -14t-12 -44v-58h141v-91h-138v-414h-114v414h-189v-414h-114v414h-98v91h98v58q0 69 34 105.5t98 36.5h117v-84h-88q-26 0 -38 -14t-12 -44v-58h192v58q0 69 34 105.5t98 36.5h125v-84h-96z" />
    <glyph glyph-name="f_i" unicode="fi" horiz-adv-x="578" 
d="M213 505h303v-505h-111v414h-189v-414h-114v414h-98v91h98v58q0 69 34 105.5t98 36.5h113v-84h-84q-26 0 -38 -14t-12 -44v-58zM405 587v105h112v-105h-112z" />
    <glyph glyph-name="f_l" unicode="fl" horiz-adv-x="581" 
d="M519 705v-705h-114v621h-142q-26 0 -38 -14t-12 -44v-58h123v-91h-120v-414h-114v414h-98v91h98v58q0 69 34 105.5t98 36.5h285z" />
    <glyph glyph-name="f_f_i" unicode="ffi" horiz-adv-x="881" 
d="M516 505h303v-505h-111v414h-189v-414h-114v414h-189v-414h-114v414h-98v91h98v58q0 69 34 105.5t98 36.5h117v-84h-88q-26 0 -38 -14t-12 -44v-58h192v58q0 69 34 105.5t98 36.5h113v-84h-84q-26 0 -38 -14t-12 -44v-58zM708 587v105h112v-105h-112z" />
    <glyph glyph-name="f_f_l" unicode="ffl" horiz-adv-x="884" 
d="M822 705v-705h-114v621h-142q-26 0 -38 -14t-12 -44v-58h123v-91h-120v-414h-114v414h-189v-414h-114v414h-98v91h98v58q0 69 34 105.5t98 36.5h117v-84h-88q-26 0 -38 -14t-12 -44v-58h192v58q0 69 34 105.5t98 36.5h285z" />
    <glyph glyph-name="f_f_j" unicode="ffj" horiz-adv-x="881" 
d="M516 505h303v-562q0 -143 -133 -143h-77v96h48q28 0 39.5 12.5t11.5 42.5v463h-189v-414h-114v414h-189v-414h-114v414h-98v91h98v58q0 69 34 105.5t98 36.5h117v-84h-88q-26 0 -38 -14t-12 -44v-58h192v58q0 69 34 105.5t98 36.5h113v-84h-84q-26 0 -38 -14t-12 -44v-58
zM708 587v105h112v-105h-112z" />
    <glyph glyph-name="f_j" unicode="fj" horiz-adv-x="578" 
d="M213 505h303v-562q0 -71 -33.5 -107t-99.5 -36h-77v96h48q28 0 39.5 12.5t11.5 42.5v463h-189v-414h-114v414h-98v91h98v58q0 69 34 105.5t98 36.5h113v-84h-84q-26 0 -38 -14t-12 -44v-58zM405 587v105h112v-105h-112z" />
    <glyph glyph-name="uni04070407.calt" unicode="&#x407;&#x407;" horiz-adv-x="543" 
d="M108 773h-112v110h112v-110zM328 773h-112v110h112v-110zM547 773h-112v110h112v-110zM195 0h-118v700h118v-700zM466 0h-117v700h117v-700z" />
    <glyph glyph-name="uni04570457.calt" unicode="&#x457;&#x457;" horiz-adv-x="470" 
d="M94 587h-106v105h106v-105zM289 587h-106v105h106v-105zM483 587h-106v105h106v-105zM173 0h-111v505h111v-505zM408 0h-111v505h111v-505z" />
    <glyph glyph-name=".notdef" horiz-adv-x="880" 
d="M90 0v284h45v-139h33v139h50v31h-128v126l19 -61h23l34 106l33 -106h23l54 170h-32l-34 -110l-35 110h-19l-35 -110l-31 103v157h700v-150h-110v-170h110v-91q-6 13 -19.5 20t-30.5 7q-27 0 -43.5 -14.5t-16.5 -34.5q0 -22 14.5 -32.5t39.5 -17.5q17 -5 25.5 -9.5
t8.5 -13.5q0 -21 -28 -21q-14 0 -21 7t-7 18h-33q0 -24 17 -39.5t44 -15.5q17 0 30.5 6.5t19.5 13.5v-163h-700zM301 380h33v62h24l35 -62h37l-40 67q36 17 36 50q0 22 -16 37.5t-41 15.5h-68v-170zM459 550v-170h33v170h-33zM570 519v-139h32v139h50v31h-132v-31h50z
M334 473v46h35q10 0 17 -6.5t7 -16.5q0 -12 -7.5 -17.5t-16.5 -5.5h-35zM790 483h-78v36h78v-36zM790 411h-78v41h78v-41zM377.5 167.5q22.5 24.5 22.5 61.5t-23 62t-59 25t-59 -25t-23 -62t22.5 -61.5t59.5 -24.5t59.5 24.5zM623 162q19 19 19 47v106h-32v-106
q0 -15 -9.5 -25t-25.5 -10q-17 0 -26.5 10.5t-9.5 24.5v106h-32v-106q0 -28 19.5 -47t48.5 -19t48 19zM790 224q-15 14 -46 22q-16 5 -23 9t-7 12q0 9 7.5 14.5t18.5 5.5q10 0 18 -7t8 -18h24v-38zM281.5 190q-14.5 16 -14.5 39q0 25 14 40.5t37 15.5t37 -15.5t14 -40.5
q0 -23 -14.5 -39t-36.5 -16t-36.5 16z" />
    <glyph glyph-name=".null" horiz-adv-x="600" 
 />
    <glyph glyph-name="nonmarkingreturn" unicode="&#xd;" horiz-adv-x="600" 
 />
    <glyph glyph-name="space" unicode=" " horiz-adv-x="226" 
 />
    <glyph glyph-name="exclam" unicode="!" horiz-adv-x="287" 
d="M180 219h-72l-27 408v73h125v-73zM208 0h-129v130h129v-130z" />
    <glyph glyph-name="quotedbl" unicode="&#x22;" horiz-adv-x="372" 
d="M135 428h-63l-23 238v34h109v-34zM300 428h-63l-23 238v34h109v-34z" />
    <glyph glyph-name="numbersign" unicode="#" horiz-adv-x="679" 
d="M671 523l-22 -92h-116l-39 -162h115l-22 -91h-116l-43 -178h-100l43 178h-148l-43 -178h-100l43 178h-114l21 91h116l39 162h-115l22 92h116l43 177h100l-43 -177h148l43 177h100l-43 -177h115zM246 269h148l39 162h-148z" />
    <glyph glyph-name="dollar" unicode="$" horiz-adv-x="593" 
d="M507 54.5q-57 -54.5 -158 -63.5v-101h-102v103q-91 14 -151.5 67t-81.5 140l109 17q42 -122 183 -122q64 0 100.5 25.5t36.5 77.5q0 34 -21.5 55t-54 33t-87.5 25q-75 19 -121 38t-78.5 59.5t-32.5 108.5q0 78 54.5 129t144.5 62v102h102v-103q83 -12 136.5 -60.5
t72.5 -126.5l-107 -16q-31 104 -156 104q-57 0 -92 -22.5t-35 -68.5q0 -33 21 -54t53.5 -32t87.5 -24q74 -18 121 -36.5t80 -59t33 -110.5q0 -92 -57 -146.5z" />
    <glyph glyph-name="percent" unicode="%" horiz-adv-x="893" 
d="M65 369q-46 54 -46 141t46 141t120 54q49 0 86.5 -24.5t58.5 -69t21 -101.5t-21 -101.5t-58.5 -69t-86.5 -24.5q-74 0 -120 54zM291 0h-101l411 700h102zM243 424q21 32 21 86t-21 86t-58 32q-38 0 -58.5 -31.5t-20.5 -86.5t20.5 -86.5t58.5 -31.5q37 0 58 32zM588 49
q-46 54 -46 141t46 141t120 54t120 -54t46 -141t-46 -141t-120 -54t-120 54zM766.5 103.5q20.5 31.5 20.5 86.5t-20.5 86.5t-58.5 31.5t-58.5 -31.5t-20.5 -86.5t20.5 -86.5t58.5 -31.5t58.5 31.5z" />
    <glyph glyph-name="ampersand" unicode="&#x26;" horiz-adv-x="672" 
d="M684 0h-133l-81 87q-87 -98 -216 -98q-63 0 -113.5 22.5t-79.5 63.5t-29 95q0 59 35.5 111.5t102.5 94.5l19 11q-43 47 -62.5 86t-19.5 78q0 44 23 80.5t64 58t93 21.5t92.5 -21t62.5 -57t22 -81q0 -89 -110 -167l-19 -13l125 -133l67 104h111l-112 -175zM233 601.5
q-21 -20.5 -21 -52.5q0 -25 15 -51.5t48 -61.5l20 14q66 50 66 99q0 32 -21 52.5t-53 20.5q-33 0 -54 -20.5zM404 157l-151 162l-18 -11q-91 -58 -91 -128q0 -43 33.5 -69t84.5 -26q81 0 142 72z" />
    <glyph glyph-name="quotesingle" unicode="'" horiz-adv-x="207" 
d="M135 428h-63l-23 238v34h109v-34z" />
    <glyph glyph-name="parenleft" unicode="(" horiz-adv-x="356" 
d="M261 -225q-85 93 -134.5 221t-49.5 264t49.5 264t134.5 221l82 -54q-74 -96 -110.5 -201.5t-36.5 -229.5t36.5 -229.5t110.5 -201.5z" />
    <glyph glyph-name="parenright" unicode=")" horiz-adv-x="356" 
d="M14 -171q73 96 110 201.5t37 229.5t-37 229.5t-110 201.5l81 54q85 -93 134.5 -221t49.5 -264t-49.5 -264t-134.5 -221z" />
    <glyph glyph-name="asterisk" unicode="*" horiz-adv-x="435" 
d="M387 602l25 -90l-28 -8l-119 -11l90 -96l18 -28l-76 -54l-17 25l-62 127l-63 -127l-17 -25l-76 54l19 28l89 96l-119 11l-27 8l24 90l30 -7l111 -49l-19 125v29h95v-29l-19 -125l111 49z" />
    <glyph glyph-name="plus" unicode="+" horiz-adv-x="581" 
d="M341 397h179v-95h-179v-184h-101v184h-178v95h178v186h101v-186z" />
    <glyph glyph-name="comma" unicode="," horiz-adv-x="217" 
d="M135 -140h-82v28l70 112h-79v130h129v-128z" />
    <glyph glyph-name="hyphen" unicode="-" horiz-adv-x="459" 
d="M411 204h-362v107h362v-107z" />
    <glyph glyph-name="hyphen" unicode="&#x2011;" horiz-adv-x="459" 
d="M411 204h-362v107h362v-107z" />
    <glyph glyph-name="hyphen" unicode="&#x2010;" horiz-adv-x="459" 
d="M411 204h-362v107h362v-107z" />
    <glyph glyph-name="period" unicode="." horiz-adv-x="217" 
d="M173 0h-129v130h129v-130z" />
    <glyph glyph-name="slash" unicode="/" horiz-adv-x="368" 
d="M116 -200h-116l252 930h116z" />
    <glyph glyph-name="zero" unicode="0" horiz-adv-x="637" 
d="M172.5 34q-62.5 45 -96.5 127t-34 189t34 189t96.5 127t145.5 45t145.5 -45t97 -127t34.5 -189t-34.5 -189t-97 -127t-145.5 -45t-145.5 45zM434.5 162.5q41.5 67.5 41.5 187.5t-41.5 187.5t-116.5 67.5q-74 0 -115.5 -67.5t-41.5 -187.5t41.5 -187.5t115.5 -67.5
q75 0 116.5 67.5z" />
    <glyph glyph-name="one" unicode="1" horiz-adv-x="351" 
d="M156 0v473h-137v104h100q23 0 33.5 10.5t10.5 33.5v79h111v-700h-118z" />
    <glyph glyph-name="two" unicode="2" horiz-adv-x="544" 
d="M35 0v112l217 197q115 106 115 196q0 48 -28.5 74t-80.5 26q-101 0 -129 -109l-110 16q19 93 82.5 146t160.5 53q66 0 118 -25t80.5 -70.5t28.5 -104.5q0 -65 -39.5 -130.5t-120.5 -139.5l-141 -129v-5h324v-107h-477z" />
    <glyph glyph-name="three" unicode="3" horiz-adv-x="578" 
d="M499 296q33 -45 33 -108q0 -60 -30.5 -105t-86.5 -69.5t-130 -24.5q-107 0 -175 52t-93 152l110 16q18 -58 56 -86t99 -28q63 0 96.5 27.5t33.5 77.5t-33 78t-92 28h-85v101h82q52 0 82.5 27t30.5 73q0 47 -31 73.5t-85 26.5q-53 0 -90 -27.5t-51 -78.5l-108 16
q23 92 89.5 143t162.5 51q67 0 119.5 -24t82.5 -67t30 -98q0 -54 -29.5 -95.5t-82.5 -64.5q62 -21 95 -66z" />
    <glyph glyph-name="four" unicode="4" horiz-adv-x="566" 
d="M449 270h93v-99h-93v-171h-119v171h-311v104l303 425h127v-430zM334 551h-5l-198 -281h203v281z" />
    <glyph glyph-name="five" unicode="5" horiz-adv-x="575" 
d="M433 431q50 -29 77.5 -82t27.5 -121q0 -71 -31.5 -125.5t-88.5 -84t-132 -29.5q-99 0 -169 51t-90 138l113 17q17 -48 54 -74t90 -26q63 0 98.5 36t35.5 99q0 62 -33 97t-92 35q-40 0 -72.5 -16.5t-53.5 -48.5h-110l34 403h420v-102h-322l-18 -192h5q25 26 62 40t81 14
q64 0 114 -29z" />
    <glyph glyph-name="six" unicode="6" horiz-adv-x="591" 
d="M112 77q-70 88 -70 251q0 118 33.5 204.5t95 132.5t145.5 46q86 0 148.5 -45.5t81.5 -125.5l-107 -16q-14 41 -44.5 62t-73.5 21q-73 0 -116 -60t-48 -174h5q25 40 68.5 62t97.5 22q65 0 117.5 -30t82.5 -83t30 -118q0 -68 -32 -122t-89.5 -84.5t-130.5 -30.5
q-124 0 -194 88zM400.5 130.5q37.5 37.5 37.5 95.5t-37.5 95.5t-95.5 37.5t-97 -38t-39 -95t39 -95t97 -38t95.5 37.5z" />
    <glyph glyph-name="seven" unicode="7" horiz-adv-x="511" 
d="M234 0h-126l248 588v5h-341v107h463v-112z" />
    <glyph glyph-name="eight" unicode="8" horiz-adv-x="590" 
d="M519.5 295.5q33.5 -47.5 33.5 -104.5q0 -59 -33.5 -105t-92.5 -71.5t-132 -25.5t-132 25.5t-92.5 71.5t-33.5 105q0 57 33.5 104.5t90.5 71.5q-49 21 -76.5 60.5t-27.5 92.5q0 55 31 98.5t85.5 68t121.5 24.5t121.5 -24.5t85.5 -68t31 -98.5q0 -52 -28 -92t-76 -61
q57 -24 90.5 -71.5zM207.5 583q-33.5 -27 -33.5 -74t33.5 -74t87.5 -27q53 0 87 27t34 74t-34 74t-87 27q-54 0 -87.5 -27zM394 122q39 30 39 81q0 52 -39 82.5t-99 30.5q-61 0 -99.5 -30.5t-38.5 -82.5q0 -51 39 -81t99 -30t99 30z" />
    <glyph glyph-name="nine" unicode="9" horiz-adv-x="591" 
d="M126.5 34.5q-62.5 45.5 -81.5 125.5l107 16q14 -41 44.5 -62t73.5 -21q73 0 116 60t48 174h-5q-25 -40 -68.5 -61.5t-97.5 -21.5q-65 0 -117 29.5t-82 82t-30 118.5q0 68 32 122t89 84.5t130 30.5q124 0 194 -88t70 -251q0 -118 -33.5 -204.5t-95 -132.5t-145.5 -46
q-86 0 -148.5 45.5zM384 379.5q39 37.5 39 94.5t-39 95t-98 38q-58 0 -95 -37.5t-37 -95.5t37 -95t95 -37q59 0 98 37.5z" />
    <glyph glyph-name="colon" unicode=":" horiz-adv-x="217" 
d="M173 375h-129v130h129v-130zM173 0h-129v130h129v-130z" />
    <glyph glyph-name="semicolon" unicode=";" horiz-adv-x="217" 
d="M173 375h-129v130h129v-130zM135 -140h-82v28l70 112h-79v130h129v-128z" />
    <glyph glyph-name="less" unicode="&#x3c;" horiz-adv-x="581" 
d="M90 403l396 198v-105l-301 -146l301 -146v-105l-396 198v106z" />
    <glyph glyph-name="equal" unicode="=" horiz-adv-x="581" 
d="M505 401h-428v93h428v-93zM505 206h-428v93h428v-93z" />
    <glyph glyph-name="greater" unicode="&#x3e;" horiz-adv-x="581" 
d="M95 496v105l396 -198v-106l-396 -198v105l301 146z" />
    <glyph glyph-name="question" unicode="?" horiz-adv-x="507" 
d="M193 244q0 39 12 67.5t29 47t46 43.5q36 31 53 54t17 59q0 46 -29 69.5t-78 23.5q-50 0 -83.5 -25.5t-45.5 -78.5l-107 16q18 89 79.5 140t158.5 51q100 0 162.5 -51.5t62.5 -140.5q0 -42 -13.5 -72.5t-32.5 -50.5t-51 -46q-36 -29 -53.5 -51.5t-17.5 -54.5v-29h-109v29z
M314 0h-130v130h130v-130z" />
    <glyph glyph-name="at" unicode="@" horiz-adv-x="843" 
d="M221 -105q-89 48 -138 136t-49 204q0 115 50 205t139.5 140t205.5 50q112 0 199.5 -46.5t136.5 -129.5t49 -189q0 -66 -20.5 -116t-56 -77.5t-79.5 -27.5q-40 0 -71.5 22t-41.5 58h-8q-22 -41 -57 -62.5t-79 -21.5q-50 0 -89 25.5t-60.5 71.5t-21.5 103t21 102.5t59 71.5
t85 26q38 0 68.5 -17.5t47.5 -49.5h5v57h87v-225q0 -38 14.5 -59t41.5 -21q68 0 68 140q0 86 -36.5 151t-103.5 100t-158 35q-92 0 -161.5 -39.5t-107 -111t-37.5 -165.5q0 -95 37 -165t106 -107t162 -37q104 0 165 42l14 -81q-73 -40 -180 -40q-117 0 -206 48zM484.5 154.5
q26.5 32.5 26.5 85.5t-26.5 85.5t-70.5 32.5q-43 0 -67.5 -32t-24.5 -86t24.5 -86t67.5 -32q44 0 70.5 32.5z" />
    <glyph glyph-name="A" unicode="A" horiz-adv-x="631" 
d="M624 0h-120l-53 167h-274l-53 -167h-117l231 700h155zM311 594l-103 -328h212l-104 328h-5z" />
    <glyph glyph-name="B" unicode="B" horiz-adv-x="653" 
d="M573 297.5q33 -43.5 33 -102.5q0 -56 -29 -100.5t-80 -69.5t-116 -25h-309v700h299q62 0 111 -24t76.5 -66.5t27.5 -94.5q0 -51 -27.5 -89.5t-79.5 -61.5q61 -23 94 -66.5zM191 599v-196h165q51 0 81 26t30 71q0 46 -30 72.5t-81 26.5h-165zM361 101q59 0 92 27.5
t33 77.5t-33 77.5t-92 27.5h-170v-210h170z" />
    <glyph glyph-name="C" unicode="C" horiz-adv-x="712" 
d="M202.5 34.5q-76.5 45.5 -118.5 127.5t-42 188t42 188t118 127.5t175 45.5q112 0 189.5 -59t109.5 -168l-113 -16q-21 65 -69 99.5t-118 34.5q-98 0 -155 -68t-57 -184t57 -184t156 -68q71 0 120 35t71 100l112 -17q-32 -109 -110.5 -168t-191.5 -59q-99 0 -175.5 45.5z
" />
    <glyph glyph-name="D" unicode="D" horiz-adv-x="695" 
d="M72 0v700h234q103 0 182 -44.5t122 -124t43 -181.5t-43 -181.5t-122 -124t-182 -44.5h-234zM303 107q105 0 167 66t62 177t-62 177t-167 66h-111v-486h111z" />
    <glyph glyph-name="E" unicode="E" horiz-adv-x="579" 
d="M191 304v-200h336v-104h-455v700h450v-104h-331v-191h296v-101h-296z" />
    <glyph glyph-name="F" unicode="F" horiz-adv-x="544" 
d="M512 700v-105h-320v-197h290v-106h-290v-292h-120v700h440z" />
    <glyph glyph-name="G" unicode="G" horiz-adv-x="761" 
d="M417 366h282v-366h-71l-18 116q-35 -63 -94.5 -95t-138.5 -32q-96 0 -172.5 45.5t-119.5 127.5t-43 188t43 188t120.5 127.5t179.5 45.5q113 0 192 -57.5t111 -163.5l-113 -16q-22 62 -71 95t-119 33q-102 0 -161.5 -68.5t-59.5 -183.5q0 -77 27 -134t76 -87.5t114 -30.5
q84 0 139.5 48t58.5 130h-162v90z" />
    <glyph glyph-name="H" unicode="H" horiz-adv-x="696" 
d="M504 409v291h120v-700h-120v302h-312v-302h-120v700h120v-291h312z" />
    <glyph glyph-name="I" unicode="I" horiz-adv-x="272" 
d="M195 0h-118v700h118v-700z" />
    <glyph glyph-name="J" unicode="J" horiz-adv-x="509" 
d="M76.5 45q-60.5 53 -76.5 147l110 16q20 -107 116 -107t96 121v478h120v-478q0 -108 -56.5 -169t-156.5 -61q-92 0 -152.5 53z" />
    <glyph glyph-name="K" unicode="K" horiz-adv-x="627" 
d="M322 367l318 -367h-151l-297 345v-345h-120v700h120v-325l279 325h139z" />
    <glyph glyph-name="L" unicode="L" horiz-adv-x="517" 
d="M507 0h-435v700h120v-593h315v-107z" />
    <glyph glyph-name="M" unicode="M" horiz-adv-x="897" 
d="M188 0h-116v700h165l212 -565h5l211 565h160v-700h-116v534h-5l-200 -534h-111l-200 534h-5v-534z" />
    <glyph glyph-name="N" unicode="N" horiz-adv-x="706" 
d="M188 0h-116v700h133l308 -522h5v522h116v-700h-133l-308 522h-5v-522z" />
    <glyph glyph-name="O" unicode="O" horiz-adv-x="747" 
d="M200.5 34.5q-75.5 45.5 -117 128t-41.5 187.5q0 106 41.5 188t117 127.5t172.5 45.5q98 0 173.5 -45.5t117 -127.5t41.5 -188t-41.5 -188t-117 -127.5t-173.5 -45.5q-97 0 -172.5 45.5zM527 166q57 68 57 184t-57 184t-154 68t-153 -68t-56 -184t56 -184t153 -68t154 68z
" />
    <glyph glyph-name="P" unicode="P" horiz-adv-x="603" 
d="M333 700q68 0 122.5 -28.5t85 -79t30.5 -114.5t-30.5 -114.5t-85 -79.5t-122.5 -29h-141v-255h-120v700h261zM319 359q63 0 97.5 31.5t34.5 87.5q0 55 -34.5 86.5t-97.5 31.5h-127v-237h127z" />
    <glyph glyph-name="Q" unicode="Q" horiz-adv-x="747" 
d="M672 181.5q-33 -75.5 -93 -124.5l67 -104l-79 -50l-69 108q-60 -22 -125 -22q-97 0 -172.5 45.5t-117 128t-41.5 187.5q0 106 41.5 188t117 127.5t172.5 45.5q98 0 173.5 -45.5t117 -127.5t41.5 -188q0 -93 -33 -168.5zM437 107l-67 104l78 50l69 -107q32 33 49.5 83
t17.5 113q0 116 -57 184t-154 68t-153 -68t-56 -184t56 -184t153 -68q34 0 64 9z" />
    <glyph glyph-name="R" unicode="R" horiz-adv-x="635" 
d="M488 0l-160 275h-136v-275h-120v700h271q65 0 117 -27.5t81.5 -75t29.5 -106.5q0 -65 -36 -115.5t-94 -75.5l181 -300h-134zM191 596v-220h137q58 0 90.5 29.5t32.5 80.5t-32.5 80.5t-90.5 29.5h-137z" />
    <glyph glyph-name="S" unicode="S" horiz-adv-x="593" 
d="M116 44q-77 55 -102 156l109 17q42 -122 183 -122q64 0 100.5 25.5t36.5 77.5q0 34 -21.5 55t-54 33t-87.5 25q-75 19 -121 38t-78.5 59.5t-32.5 108.5q0 59 31.5 103t88 67.5t127.5 23.5q105 0 173 -50t90 -141l-107 -16q-31 104 -156 104q-57 0 -92 -22.5t-35 -68.5
q0 -33 21 -54t53.5 -32t87.5 -24q74 -18 121 -36.5t80 -59t33 -110.5q0 -101 -68.5 -156.5t-187.5 -55.5q-115 0 -192 55z" />
    <glyph glyph-name="T" unicode="T" horiz-adv-x="592" 
d="M356 0h-120v595h-226v105h572v-105h-226v-595z" />
    <glyph glyph-name="U" unicode="U" horiz-adv-x="681" 
d="M196 24.5q-62 35.5 -95.5 102t-33.5 157.5v416h120v-411q0 -93 40 -142t114 -49t113.5 49t39.5 142v411h120v-416q0 -91 -33.5 -157.5t-95 -102t-144.5 -35.5t-145 35.5z" />
    <glyph glyph-name="V" unicode="V" horiz-adv-x="626" 
d="M391 0h-156l-228 700h125l181 -575h5l181 575h120z" />
    <glyph glyph-name="W" unicode="W" horiz-adv-x="971" 
d="M348 0h-164l-172 700h120l136 -580h5l146 580h137l147 -580h5l136 580h115l-172 -700h-161l-137 541h-5z" />
    <glyph glyph-name="X" unicode="X" horiz-adv-x="614" 
d="M595 700l-209 -342l225 -358h-136l-168 270h-5l-168 -270h-130l224 358l-209 342h130l158 -258h5l158 258h125z" />
    <glyph glyph-name="Y" unicode="Y" horiz-adv-x="582" 
d="M351 0h-120v254l-236 446h130l166 -324h5l166 324h124l-235 -446v-254z" />
    <glyph glyph-name="Z" unicode="Z" horiz-adv-x="570" 
d="M547 0h-522v112l366 476v5h-351v107h490v-112l-366 -476v-5h383v-107z" />
    <glyph glyph-name="bracketleft" unicode="[" horiz-adv-x="340" 
d="M326 -210h-229v940h229v-96h-118v-748h118v-96z" />
    <glyph glyph-name="backslash" unicode="\" horiz-adv-x="368" 
d="M368 -200h-116l-252 930h116z" />
    <glyph glyph-name="bracketright" unicode="]" horiz-adv-x="340" 
d="M243 -210h-229v96h118v748h-118v96h229v-940z" />
    <glyph glyph-name="asciicircum" unicode="^" horiz-adv-x="389" 
d="M113 449h-94l125 251h100l126 -251h-97l-77 163h-5z" />
    <glyph glyph-name="underscore" unicode="_" horiz-adv-x="339" 
d="M359 -196h-379v99h379v-99z" />
    <glyph glyph-name="grave" unicode="`" horiz-adv-x="269" 
d="M239 567h-85l-124 153v6h116z" />
    <glyph glyph-name="a" unicode="a" horiz-adv-x="534" 
d="M519 88v-88q-24 -2 -42 -2q-49 0 -74 24.5t-25 70.5v2h-5q-29 -52 -75 -79t-102 -27q-72 0 -119.5 41.5t-47.5 109.5q0 48 25 85t69.5 57.5t101.5 20.5h135v16q0 50 -26 76.5t-76 26.5q-89 0 -116 -77l-98 14q19 73 74 114.5t142 41.5q100 0 155.5 -53t55.5 -142v-197
q0 -19 7 -27t23 -8h18zM320 121q40 37 40 96v9h-122q-43 0 -70 -19.5t-27 -55.5q0 -32 21.5 -49.5t59.5 -17.5q58 0 98 37z" />
    <glyph glyph-name="b" unicode="b" horiz-adv-x="591" 
d="M245.5 15q-44.5 26 -74.5 74h-5v-89h-104v700h114v-276h5q24 43 68 67t98 24q62 0 111 -33t77 -92.5t28 -137.5q0 -77 -28 -137t-77.5 -93t-112.5 -33q-55 0 -99.5 26zM414 131q35 44 35 121t-35.5 121.5t-96.5 44.5q-63 0 -102 -45.5t-39 -120.5t39 -120t102 -45
q62 0 97 44z" />
    <glyph glyph-name="c" unicode="c" horiz-adv-x="521" 
d="M148.5 22.5q-56.5 33.5 -88 93t-31.5 136.5t31 137t87.5 93t128.5 33q84 0 143 -44t79 -123l-100 -15q-13 41 -45 63t-75 22q-63 0 -99.5 -44t-36.5 -122q0 -77 37 -121t101 -44q45 0 77 22t45 63l101 -16q-20 -78 -79.5 -122.5t-144.5 -44.5q-74 0 -130.5 33.5z" />
    <glyph glyph-name="d" unicode="d" horiz-adv-x="591" 
d="M133.5 22q-49.5 33 -77 93t-27.5 137q0 78 27.5 137.5t76.5 92.5t111 33q54 0 98.5 -24t68.5 -67h5v276h113v-700h-104v89h-5q-29 -48 -73.5 -74t-100.5 -26q-63 0 -112.5 33zM376.5 132q39.5 45 39.5 120t-39.5 120.5t-102.5 45.5q-61 0 -96.5 -44.5t-35.5 -121.5
t35.5 -121t96.5 -44q63 0 102.5 45z" />
    <glyph glyph-name="e" unicode="e" horiz-adv-x="543" 
d="M510 223h-370q7 -65 43.5 -101.5t96.5 -36.5q40 0 71 17t48 49l100 -14q-24 -70 -82 -109t-137 -39q-74 0 -131 33.5t-88.5 93t-31.5 136.5t31 136.5t87 93t127 33.5q69 0 124 -31.5t86 -88t31 -129.5q0 -18 -5 -43zM187.5 390.5q-34.5 -31.5 -45.5 -88.5h266
q-9 57 -44.5 88.5t-89.5 31.5q-52 0 -86.5 -31.5z" />
    <glyph glyph-name="f" unicode="f" horiz-adv-x="354" 
d="M263 620q-50 0 -50 -58v-57h141v-91h-138v-414h-114v414h-98v91h98v58q0 69 34 105.5t98 36.5h125v-85h-96z" />
    <glyph glyph-name="g" unicode="g" horiz-adv-x="581" 
d="M116 -159q-64 44 -84 122l103 15q13 -41 50 -63t91 -22q135 0 135 149v62h-5q-24 -41 -66.5 -65t-96.5 -24q-62 0 -110.5 32t-76 89t-27.5 129q0 71 27.5 128t76.5 89.5t111 32.5q54 0 98 -25t72 -71h5v86h105v-460q0 -117 -66 -182.5t-182 -65.5q-96 0 -160 44z
M372 152.5q39 43.5 39 111.5q0 69 -38.5 112t-100.5 43q-59 0 -94.5 -42t-35.5 -113t35.5 -113t94.5 -42q61 0 100 43.5z" />
    <glyph glyph-name="h" unicode="h" horiz-adv-x="563" 
d="M62 0v700h114v-276h5q26 42 67.5 66.5t94.5 24.5q77 0 122.5 -52t45.5 -142v-321h-114v299q0 56 -24.5 86.5t-70.5 30.5q-54 0 -90 -40t-36 -99v-277h-114z" />
    <glyph glyph-name="i" unicode="i" horiz-adv-x="235" 
d="M173 0h-111v505h111v-505zM174 587h-112v105h112v-105z" />
    <glyph glyph-name="j" unicode="j" horiz-adv-x="235" 
d="M-37 -200v96h48q28 0 39.5 12.5t11.5 42.5v554h111v-562q0 -143 -133 -143h-77zM174 587h-112v105h112v-105z" />
    <glyph glyph-name="k" unicode="k" horiz-adv-x="510" 
d="M293 268l230 -268h-139l-208 247v-247h-114v700h114v-423l193 228h129z" />
    <glyph glyph-name="l" unicode="l" horiz-adv-x="238" 
d="M176 0h-114v700h114v-700z" />
    <glyph glyph-name="m" unicode="m" horiz-adv-x="849" 
d="M57 0v505h106v-84h5q25 45 66.5 69.5t88.5 24.5q49 0 86 -27t53 -74h5q65 101 169 101q75 0 118 -50.5t43 -139.5v-325h-114v304q0 56 -21.5 85t-62.5 29q-51 0 -83 -38t-32 -98v-282h-114v304q0 56 -21.5 85t-62.5 29q-51 0 -83 -38t-32 -98v-282h-114z" />
    <glyph glyph-name="n" unicode="n" horiz-adv-x="558" 
d="M57 0v505h106v-87h5q65 97 169 97q78 0 123.5 -52t45.5 -142v-321h-114v299q0 56 -24.5 86.5t-70.5 30.5q-54 0 -90 -40t-36 -99v-277h-114z" />
    <glyph glyph-name="o" unicode="o" horiz-adv-x="555" 
d="M148 22.5q-56 33.5 -87.5 93.5t-31.5 136q0 77 31.5 136.5t87.5 93t129 33.5t129.5 -33.5t88 -93t31.5 -136.5q0 -76 -31.5 -136t-88 -93.5t-129.5 -33.5t-129 33.5zM376.5 131.5q36.5 44.5 36.5 120.5q0 77 -36.5 121.5t-99.5 44.5t-99 -44.5t-36 -121.5t36 -121t99 -44
t99.5 44.5z" />
    <glyph glyph-name="p" unicode="p" horiz-adv-x="586" 
d="M57 -200v705h106v-87h5q29 47 73 72t99 25q63 0 112.5 -33t77.5 -92.5t28 -137.5q0 -77 -28 -137t-77 -93t-111 -33q-54 0 -98 24.5t-68 67.5h-5v-281h-114zM409 131q35 44 35 121t-35.5 121.5t-96.5 44.5q-63 0 -102 -45.5t-39 -120.5t39 -120t102 -45q62 0 97 44z" />
    <glyph glyph-name="q" unicode="q" horiz-adv-x="586" 
d="M416 -200v281h-5q-24 -43 -68.5 -67.5t-98.5 -24.5q-62 0 -111 33t-76.5 93t-27.5 137q0 78 27.5 137.5t77 92.5t112.5 33q55 0 99.5 -25t73.5 -72h5v87h105v-705h-113zM376.5 132q39.5 45 39.5 120t-39.5 120.5t-102.5 45.5q-61 0 -96.5 -44.5t-35.5 -121.5t35.5 -121
t96.5 -44q63 0 102.5 45z" />
    <glyph glyph-name="r" unicode="r" horiz-adv-x="364" 
d="M57 0v505h104v-89h5q30 45 66 67t84 22h43v-104h-51q-65 0 -101 -38t-36 -103v-260h-114z" />
    <glyph glyph-name="s" unicode="s" horiz-adv-x="476" 
d="M91.5 31q-58.5 42 -77.5 118l103 15q25 -80 127 -80q44 0 69.5 15t25.5 46q0 32 -29 46t-88 25q-58 12 -94.5 25t-62.5 43.5t-26 83.5q0 66 55.5 106.5t142.5 40.5q85 0 138.5 -39t70.5 -110l-98 -15q-9 36 -39 54.5t-74 18.5q-38 0 -61 -14t-23 -42q0 -31 28 -44t88 -25
q58 -12 95 -25t63.5 -44t26.5 -85q0 -72 -56.5 -114t-151.5 -42q-94 0 -152.5 42z" />
    <glyph glyph-name="t" unicode="t" horiz-adv-x="386" 
d="M236 0q-134 0 -134 144v270h-98v91h100l44 133h68v-133h145v-91h-145v-260q0 -29 11.5 -42t38.5 -13h100v-99h-130z" />
    <glyph glyph-name="u" unicode="u" horiz-adv-x="553" 
d="M97 41.5q-45 52.5 -45 142.5v321h114v-299q0 -56 24 -87t69 -31q52 0 87.5 40.5t35.5 99.5v277h114v-505h-104v89h-5q-67 -100 -168 -100q-77 0 -122 52.5z" />
    <glyph glyph-name="v" unicode="v" horiz-adv-x="503" 
d="M325 0h-148l-175 505h117l132 -405h5l131 405h114z" />
    <glyph glyph-name="w" unicode="w" horiz-adv-x="768" 
d="M286 0h-147l-132 505h113l94 -396h5l102 396h130l102 -396h5l94 396h109l-132 -505h-144l-97 376h-5z" />
    <glyph glyph-name="x" unicode="x" horiz-adv-x="487" 
d="M473 505l-156 -250l167 -255h-124l-116 180h-5l-116 -180h-119l166 256l-156 249h119l110 -178h5l111 178h114z" />
    <glyph glyph-name="y" unicode="y" horiz-adv-x="503" 
d="M257 92l131 413h113l-234 -705h-105l66 200h-55l-171 505h117l133 -413h5z" />
    <glyph glyph-name="z" unicode="z" horiz-adv-x="463" 
d="M438 0h-413v101l266 301v5h-256v98h392v-101l-267 -301v-5h278v-98z" />
    <glyph glyph-name="braceleft" unicode="{" horiz-adv-x="348" 
d="M262 -210q-69 0 -107 39t-38 109v228q0 23 -11 36t-32 13h-45v91h45q21 0 32 12.5t11 35.5v228q0 70 38 109t107 39h73v-96h-55q-55 0 -55 -63v-208q0 -43 -16 -65.5t-51 -32.5v-10q35 -9 51 -32t16 -66v-208q0 -63 55 -63h55v-96h-73z" />
    <glyph glyph-name="bar" unicode="|" horiz-adv-x="295" 
d="M200 -210h-104v940h104v-940z" />
    <glyph glyph-name="braceright" unicode="}" horiz-adv-x="348" 
d="M14 -210v96h55q54 0 54 63v208q0 43 16 66t51 32v10q-35 10 -51 32.5t-16 65.5v208q0 63 -54 63h-55v96h72q69 0 107 -39t38 -109v-228q0 -48 44 -48h45v-91h-45q-22 0 -33 -13t-11 -36v-228q0 -70 -38 -109t-107 -39h-72z" />
    <glyph glyph-name="asciitilde" unicode="~" horiz-adv-x="581" 
d="M65 294q0 64 33 104t93 40q36 0 62.5 -12.5t56.5 -35.5q26 -18 41 -25.5t32 -7.5q43 0 43 57v24h90v-31q0 -65 -33 -104.5t-92 -39.5q-36 0 -62.5 12.5t-58.5 34.5q-22 17 -37.5 25t-33.5 8q-44 0 -44 -57v-23h-90v31z" />
    <glyph glyph-name="uni00A0" unicode="&#xa0;" horiz-adv-x="226" 
 />
    <glyph glyph-name="exclamdown" unicode="&#xa1;" horiz-adv-x="287" 
d="M208 375h-129v130h129v-130zM206 -200h-125v74l27 412h72l26 -412v-74z" />
    <glyph glyph-name="cent" unicode="&#xa2;" horiz-adv-x="521" 
d="M503 156q-17 -67 -63.5 -109.5t-113.5 -53.5v-103h-97v103q-91 17 -145.5 87t-54.5 172q0 104 54.5 174t145.5 85v104h97v-104q65 -12 110 -54.5t62 -108.5l-100 -16q-13 41 -45 63.5t-75 22.5q-63 0 -99.5 -44t-36.5 -122q0 -77 37 -121t101 -44q45 0 77 22t45 63z" />
    <glyph glyph-name="sterling" unicode="&#xa3;" horiz-adv-x="575" 
d="M182 107h344v-107h-489v108q50 28 73.5 66t23.5 88v3h-97v89h75q-8 18 -13 26q-16 33 -24 58t-8 58q0 62 30.5 111t85 76.5t123.5 27.5q95 0 158 -51.5t84 -142.5l-108 -16q-30 104 -132 104q-57 0 -89 -32.5t-32 -89.5q0 -28 7 -51.5t20 -52.5l10 -25h186v-89h-167v-3
q0 -88 -61 -149v-6z" />
    <glyph glyph-name="currency" unicode="&#xa4;" horiz-adv-x="554" 
d="M442 239l70 -71l-63 -62l-72 73q-44 -26 -100 -26t-100 26l-72 -73l-63 62l70 70q-34 49 -34 112t34 112l-70 70l63 62l71 -72q46 26 101 26q53 0 100 -26l72 72l63 -62l-70 -71q33 -49 33 -111t-33 -111zM349 275q28 29 28 75t-28 75.5t-72 29.5q-45 0 -73 -29.5
t-28 -75.5t28 -75t73 -29q44 0 72 29z" />
    <glyph glyph-name="yen" unicode="&#xa5;" horiz-adv-x="582" 
d="M459 700h122l-185 -337h104v-81h-149v-64h149v-81h-149v-137h-120v137h-148v81h148v64h-148v81h103l-185 337h127l163 -306h5z" />
    <glyph glyph-name="brokenbar" unicode="&#xa6;" horiz-adv-x="295" 
d="M200 320h-104v410h104v-410zM200 -210h-104v410h104v-410z" />
    <glyph glyph-name="section" unicode="&#xa7;" horiz-adv-x="549" 
d="M475.5 194q-21.5 -36 -58.5 -60q53 -43 53 -110q0 -45 -25.5 -83t-72 -60t-106.5 -22q-92 0 -150.5 49t-76.5 129l99 16q13 -47 45 -73t82 -26q43 0 68 19.5t25 49.5q0 25 -17 43t-42 30t-70 29q-58 22 -94 41.5t-62 52.5t-26 82q0 40 21.5 76t58.5 59q-53 45 -53 111
q0 45 25 82.5t71.5 59.5t107.5 22q92 0 150.5 -49t76.5 -129l-99 -16q-13 47 -45 73t-82 26q-43 0 -68 -19.5t-25 -49.5q0 -25 17 -43t42 -30t70 -29q58 -22 94 -41.5t62 -52.5t26 -82q0 -39 -21.5 -75zM175.5 266.5q17.5 -19.5 43 -33t71.5 -32.5l47 -20q23 14 36 34t13 43
q0 37 -33 60t-99 50l-48 21q-22 -14 -35 -34t-13 -43q0 -26 17.5 -45.5z" />
    <glyph glyph-name="dieresis" unicode="&#xa8;" horiz-adv-x="358" 
d="M136 587h-106v105h106v-105zM328 587h-106v105h106v-105z" />
    <glyph glyph-name="copyright" unicode="&#xa9;" horiz-adv-x="800" 
d="M215.5 35.5q-81.5 46.5 -127.5 128.5t-46 186t46 186t127.5 128.5t184.5 46.5t184.5 -46.5t127.5 -128.5t46 -186t-46 -186t-127.5 -128.5t-184.5 -46.5t-184.5 46.5zM545.5 98.5q63.5 36.5 99.5 102t36 149.5t-35.5 149.5t-99.5 102t-146 36.5t-145.5 -36.5t-99 -102
t-35.5 -149.5t35.5 -149.5t99 -102t145.5 -36.5t145.5 36.5zM324 191.5q-39 22.5 -61.5 63.5t-22.5 95t22.5 95t61 63.5t86.5 22.5q57 0 97 -31.5t53 -86.5l-71 -10q-9 29 -30 43t-49 14q-41 0 -66.5 -28t-25.5 -82t25.5 -82t67.5 -28q60 0 83 57l71 -10q-14 -55 -55 -86.5
t-99 -31.5q-48 0 -87 22.5z" />
    <glyph glyph-name="ordfeminine" unicode="&#xaa;" horiz-adv-x="363" 
d="M349 429v-67q-18 -2 -28 -2q-32 0 -51.5 17t-19.5 42v1h-5q-40 -65 -110 -65q-48 0 -79.5 28.5t-31.5 72.5q0 48 36 78.5t95 30.5h84v12q0 27 -16 42t-46 15q-50 0 -66 -41l-76 11q14 49 51.5 76t90.5 27q63 0 101 -35t38 -95v-123q0 -25 20 -25h13zM213.5 449
q25.5 20 25.5 49v12h-78q-27 0 -43 -11.5t-16 -31.5q0 -18 15 -28t38 -10q33 0 58.5 20z" />
    <glyph glyph-name="guillemotleft" unicode="&#xab;" horiz-adv-x="546" 
d="M312 34h-121l-162 219l162 220h121l-166 -220zM523 34h-121l-163 219l163 220h121l-167 -220z" />
    <glyph glyph-name="logicalnot" unicode="&#xac;" horiz-adv-x="581" 
d="M407 320h-330v94h423v-228h-93v134z" />
    <glyph glyph-name="uni00AD" unicode="&#xad;" horiz-adv-x="0" 
 />
    <glyph glyph-name="registered" unicode="&#xae;" horiz-adv-x="450" 
d="M331.5 705q47.5 -27 74.5 -74.5t27 -106.5q0 -60 -27 -107.5t-74.5 -74t-106.5 -26.5t-106.5 26.5t-74.5 74t-27 107.5q0 59 27 106.5t74.5 74.5t106.5 27t106.5 -27zM333.5 412q41.5 43 41.5 112q0 68 -41.5 111.5t-108.5 43.5t-108.5 -43.5t-41.5 -111.5
q0 -69 41.5 -112t108.5 -43t108.5 43zM299 530.5q-10 -13.5 -27 -20.5l48 -81h-52l-39 73h-25v-73h-48v190h83q31 0 50.5 -16.5t19.5 -41.5q0 -17 -10 -30.5zM204 581v-42h29q12 0 20 5.5t8 14.5q0 11 -8 16.5t-20 5.5h-29z" />
    <glyph glyph-name="macron" unicode="&#xaf;" horiz-adv-x="380" 
d="M350 602h-320v75h320v-75z" />
    <glyph glyph-name="degree" unicode="&#xb0;" horiz-adv-x="308" 
d="M57.5 502.5q-38.5 38.5 -38.5 95.5t38.5 95.5t96.5 38.5t96.5 -38.5t38.5 -95.5t-38.5 -95.5t-96.5 -38.5t-96.5 38.5zM200.5 548q18.5 20 18.5 50t-18.5 50t-46.5 20t-46.5 -20t-18.5 -50t18.5 -50t46.5 -20t46.5 20z" />
    <glyph glyph-name="plusminus" unicode="&#xb1;" horiz-adv-x="581" 
d="M340 616v-172h165v-92h-165v-167h-98v167h-165v92h165v172h98zM505 33h-428v88h428v-88z" />
    <glyph glyph-name="uni00B2" unicode="&#xb2;" horiz-adv-x="313" 
d="M20 420v81l125 102q32 27 44.5 45t12.5 38q0 21 -12.5 32.5t-36.5 11.5q-25 0 -42.5 -14t-24.5 -41l-77 12q13 56 51 87t95 31q60 0 97 -31t37 -81q0 -35 -20 -66.5t-67 -69.5l-69 -56v-5h166v-76h-279z" />
    <glyph glyph-name="uni00B3" unicode="&#xb3;" horiz-adv-x="324" 
d="M292.5 581q18.5 -25 18.5 -57q0 -49 -40 -79t-104 -30q-62 0 -103.5 32t-54.5 90l77 11q7 -29 28 -44t52 -15q27 0 42.5 12t15.5 34t-15 34t-43 12h-41v66h37q24 0 38 11.5t14 31.5t-14 31.5t-38 11.5q-28 0 -47 -15t-26 -41l-76 12q13 54 52.5 85t97.5 31q60 0 98.5 -29
t38.5 -74q0 -27 -15 -49t-42 -35q31 -12 49.5 -37z" />
    <glyph glyph-name="acute" unicode="&#xb4;" horiz-adv-x="269" 
d="M115 567h-85l93 159h116v-6z" />
    <glyph glyph-name="uni00B5" unicode="&#xb5;" horiz-adv-x="558" 
d="M387 505h114v-505h-104v89h-5q-26 -47 -63 -72.5t-80 -25.5q-46 0 -78 26v-217h-114v705h114v-299q0 -56 24 -87t69 -31q52 0 87.5 40.5t35.5 99.5v277z" />
    <glyph glyph-name="paragraph" unicode="&#xb6;" horiz-adv-x="552" 
d="M215 307q-54 0 -97.5 25t-68.5 70t-25 102t25 101.5t69 69.5t99 25h89v-840h-91v447zM475 -140h-92v840h92v-840z" />
    <glyph glyph-name="periodcentered" unicode="&#xb7;" horiz-adv-x="226" 
d="M176 193h-126v129h126v-129z" />
    <glyph glyph-name="cedilla" unicode="&#xb8;" horiz-adv-x="238" 
d="M135 -38q32 -5 52.5 -27t20.5 -55q0 -39 -26 -63.5t-72 -24.5q-44 0 -80 22l20 57q24 -12 47 -12q36 0 36 28q0 30 -39 30h-24v20l26 85l58 -5z" />
    <glyph glyph-name="uni00B9" unicode="&#xb9;" horiz-adv-x="219" 
d="M89 420v232h-79v75h61q24 0 24 21v52h82v-380h-88z" />
    <glyph glyph-name="ordmasculine" unicode="&#xba;" horiz-adv-x="376" 
d="M103.5 377.5q-37.5 22.5 -58.5 63t-21 90.5t21 90.5t58.5 63t84.5 22.5t84.5 -22.5t59 -63t21.5 -90.5t-21.5 -90.5t-59 -63t-84.5 -22.5t-84.5 22.5zM248.5 458q22.5 27 22.5 73t-22.5 73t-60.5 27t-60 -27t-22 -73t22 -73t60 -27t60.5 27z" />
    <glyph glyph-name="guillemotright" unicode="&#xbb;" horiz-adv-x="546" 
d="M144 34h-120l166 219l-166 220h120l163 -220zM355 34h-121l166 219l-166 220h121l163 -220z" />
    <glyph glyph-name="onequarter" unicode="&#xbc;" horiz-adv-x="744" 
d="M89 320v232h-79v75h61q24 0 24 21v52h82v-380h-88zM193 0h-102l412 700h102zM686 161h48v-72h-48v-89h-84v89h-180v72l167 219h97v-219zM605 286h-5l-93 -125h98v125z" />
    <glyph glyph-name="onehalf" unicode="&#xbd;" horiz-adv-x="769" 
d="M89 320v232h-79v75h61q24 0 24 21v52h82v-380h-88zM193 0h-102l412 700h102zM477 0v81l125 102q32 27 44.5 45t12.5 38q0 21 -12.5 32.5t-36.5 11.5q-25 0 -42.5 -14t-24.5 -41l-77 12q13 56 51 87t95 31q60 0 97 -31t37 -81q0 -35 -20 -66.5t-67 -69.5l-69 -56v-5h166
v-76h-279z" />
    <glyph glyph-name="threequarters" unicode="&#xbe;" horiz-adv-x="829" 
d="M292.5 481q18.5 -25 18.5 -57q0 -49 -40 -79t-104 -30q-62 0 -103.5 32t-54.5 90l77 11q7 -29 28 -44t52 -15q27 0 42.5 12t15.5 34t-15 34t-43 12h-41v66h37q24 0 38 11.5t14 31.5t-14 31.5t-38 11.5q-28 0 -47 -15t-26 -41l-76 12q13 54 52.5 85t97.5 31q60 0 98.5 -29
t38.5 -74q0 -27 -15 -49t-42 -35q31 -12 49.5 -37zM278 0h-102l412 700h102zM771 161h48v-72h-48v-89h-84v89h-180v72l167 219h97v-219zM690 286h-5l-93 -125h98v125z" />
    <glyph glyph-name="questiondown" unicode="&#xbf;" horiz-adv-x="505" 
d="M327 375h-129v130h129v-130zM104 -151.5q-62 51.5 -62 141.5q0 41 13.5 71t32 50t49.5 45q37 30 54.5 52.5t17.5 56.5v25h109v-25q0 -40 -12 -69t-29.5 -48t-45.5 -43q-35 -29 -52 -52.5t-17 -59.5q0 -46 29 -70t78 -24q46 0 78.5 23t47.5 71l108 -17q-22 -84 -83 -131.5
t-153 -47.5q-101 0 -163 51.5z" />
    <glyph glyph-name="Agrave" unicode="&#xc0;" horiz-adv-x="631" 
d="M624 0h-120l-53 167h-274l-53 -167h-117l231 700h155zM311 594l-103 -328h212l-104 328h-5zM381 757h-92l-122 148v7h123z" />
    <glyph glyph-name="Aacute" unicode="&#xc1;" horiz-adv-x="631" 
d="M624 0h-120l-53 167h-274l-53 -167h-117l231 700h155zM311 594l-103 -328h212l-104 328h-5zM342 757h-92l91 155h123v-7z" />
    <glyph glyph-name="Acircumflex" unicode="&#xc2;" horiz-adv-x="631" 
d="M624 0h-120l-53 167h-274l-53 -167h-117l231 700h155zM311 594l-103 -328h212l-104 328h-5zM362 908l137 -151h-108l-77 87l-77 -87h-105l137 151h93z" />
    <glyph glyph-name="Atilde" unicode="&#xc3;" horiz-adv-x="631" 
d="M624 0h-120l-53 167h-274l-53 -167h-117l231 700h155zM311 594l-103 -328h212l-104 328h-5zM144 778q0 51 25.5 82t70.5 31q23 0 41.5 -7t41.5 -20q19 -11 31 -16t26 -5q31 0 31 37v11h76v-14q0 -51 -25.5 -82t-70.5 -31q-23 0 -41.5 7t-41.5 20q-20 11 -32 16t-26 5
q-30 0 -30 -37v-11h-76v14z" />
    <glyph glyph-name="Adieresis" unicode="&#xc4;" horiz-adv-x="631" 
d="M624 0h-120l-53 167h-274l-53 -167h-117l231 700h155zM311 594l-103 -328h212l-104 328h-5zM271 773h-113v110h113v-110zM474 773h-112v110h112v-110z" />
    <glyph glyph-name="Aring" unicode="&#xc5;" horiz-adv-x="631" 
d="M624 0h-120l-53 167h-274l-53 -167h-117l231 700h155zM311 594l-103 -328h212l-104 328h-5zM237.5 767q-31.5 30 -31.5 76t31.5 76t78.5 30q46 0 77.5 -30.5t31.5 -75.5t-31.5 -75.5t-77.5 -30.5q-47 0 -78.5 30zM347 810q12 12 12 33t-12 33.5t-31 12.5q-20 0 -32 -12.5
t-12 -33.5t12 -33t32 -12q19 0 31 12z" />
    <glyph glyph-name="AE" unicode="&#xc6;" horiz-adv-x="925" 
d="M550 304v-200h323v-104h-436v170h-237l-84 -170h-124l354 700h522v-104h-318v-191h283v-101h-283zM410 596l-161 -327h188v327h-27z" />
    <glyph glyph-name="Ccedilla" unicode="&#xc7;" horiz-adv-x="712" 
d="M680 216q-31 -103 -102.5 -161.5t-174.5 -64.5l-10 -28q32 -5 52.5 -27t20.5 -55q0 -39 -26 -63.5t-72 -24.5q-44 0 -80 22l20 57q24 -12 47 -12q36 0 36 28q0 30 -39 30h-24v20l16 53q-90 8 -158.5 55t-106 126t-37.5 179q0 106 42 188t118 127.5t175 45.5
q112 0 189.5 -59t109.5 -168l-113 -16q-21 65 -69 99.5t-118 34.5q-98 0 -155 -68t-57 -184t57 -184t156 -68q71 0 120 35t71 100z" />
    <glyph glyph-name="Egrave" unicode="&#xc8;" horiz-adv-x="579" 
d="M191 304v-200h336v-104h-455v700h450v-104h-331v-191h296v-101h-296zM362 757h-92l-122 148v7h123z" />
    <glyph glyph-name="Eacute" unicode="&#xc9;" horiz-adv-x="579" 
d="M191 304v-200h336v-104h-455v700h450v-104h-331v-191h296v-101h-296zM323 757h-92l91 155h123v-7z" />
    <glyph glyph-name="Ecircumflex" unicode="&#xca;" horiz-adv-x="579" 
d="M191 304v-200h336v-104h-455v700h450v-104h-331v-191h296v-101h-296zM343 908l137 -151h-108l-77 87l-77 -87h-105l137 151h93z" />
    <glyph glyph-name="Edieresis" unicode="&#xcb;" horiz-adv-x="579" 
d="M191 304v-200h336v-104h-455v700h450v-104h-331v-191h296v-101h-296zM252 773h-113v110h113v-110zM455 773h-112v110h112v-110z" />
    <glyph glyph-name="Igrave" unicode="&#xcc;" horiz-adv-x="272" 
d="M195 0h-118v700h118v-700zM201 757h-92l-122 148v7h123z" />
    <glyph glyph-name="Iacute" unicode="&#xcd;" horiz-adv-x="272" 
d="M195 0h-118v700h118v-700zM163 757h-92l91 155h123v-7z" />
    <glyph glyph-name="Icircumflex" unicode="&#xce;" horiz-adv-x="272" 
d="M195 0h-118v700h118v-700zM182 908l137 -151h-108l-77 87l-77 -87h-105l137 151h93z" />
    <glyph glyph-name="Idieresis" unicode="&#xcf;" horiz-adv-x="272" 
d="M195 0h-118v700h118v-700zM106 773h-110v110h110v-110zM276 773h-110v110h110v-110z" />
    <glyph glyph-name="Eth" unicode="&#xd0;" horiz-adv-x="720" 
d="M331 700q103 0 182 -44.5t122 -124t43 -181.5t-43 -181.5t-122 -124t-182 -44.5h-234v303h-92v95h92v302h234zM328 107q105 0 167 66t62 177t-62 177t-167 66h-111v-195h162v-95h-162v-196h111z" />
    <glyph glyph-name="Ntilde" unicode="&#xd1;" horiz-adv-x="706" 
d="M188 0h-116v700h133l308 -522h5v522h116v-700h-133l-308 522h-5v-522zM182 778q0 51 25.5 82t70.5 31q23 0 41.5 -7t41.5 -20q19 -11 31 -16t26 -5q31 0 31 37v11h76v-14q0 -51 -25.5 -82t-70.5 -31q-23 0 -41.5 7t-41.5 20q-20 11 -32 16t-26 5q-30 0 -30 -37v-11h-76
v14z" />
    <glyph glyph-name="Ograve" unicode="&#xd2;" horiz-adv-x="747" 
d="M200.5 34.5q-75.5 45.5 -117 128t-41.5 187.5q0 106 41.5 188t117 127.5t172.5 45.5q98 0 173.5 -45.5t117 -127.5t41.5 -188t-41.5 -188t-117 -127.5t-173.5 -45.5q-97 0 -172.5 45.5zM527 166q57 68 57 184t-57 184t-154 68t-153 -68t-56 -184t56 -184t153 -68t154 68z
M439 757h-92l-122 148v7h123z" />
    <glyph glyph-name="Oacute" unicode="&#xd3;" horiz-adv-x="747" 
d="M200.5 34.5q-75.5 45.5 -117 128t-41.5 187.5q0 106 41.5 188t117 127.5t172.5 45.5q98 0 173.5 -45.5t117 -127.5t41.5 -188t-41.5 -188t-117 -127.5t-173.5 -45.5q-97 0 -172.5 45.5zM527 166q57 68 57 184t-57 184t-154 68t-153 -68t-56 -184t56 -184t153 -68t154 68z
M400 757h-92l91 155h123v-7z" />
    <glyph glyph-name="Ocircumflex" unicode="&#xd4;" horiz-adv-x="747" 
d="M200.5 34.5q-75.5 45.5 -117 128t-41.5 187.5q0 106 41.5 188t117 127.5t172.5 45.5q98 0 173.5 -45.5t117 -127.5t41.5 -188t-41.5 -188t-117 -127.5t-173.5 -45.5q-97 0 -172.5 45.5zM527 166q57 68 57 184t-57 184t-154 68t-153 -68t-56 -184t56 -184t153 -68t154 68z
M420 908l137 -151h-108l-77 87l-77 -87h-105l137 151h93z" />
    <glyph glyph-name="Otilde" unicode="&#xd5;" horiz-adv-x="747" 
d="M200.5 34.5q-75.5 45.5 -117 128t-41.5 187.5q0 106 41.5 188t117 127.5t172.5 45.5q98 0 173.5 -45.5t117 -127.5t41.5 -188t-41.5 -188t-117 -127.5t-173.5 -45.5q-97 0 -172.5 45.5zM527 166q57 68 57 184t-57 184t-154 68t-153 -68t-56 -184t56 -184t153 -68t154 68z
M202 778q0 51 25.5 82t70.5 31q23 0 41.5 -7t41.5 -20q19 -11 31 -16t26 -5q31 0 31 37v11h76v-14q0 -51 -25.5 -82t-70.5 -31q-23 0 -41.5 7t-41.5 20q-20 11 -32 16t-26 5q-30 0 -30 -37v-11h-76v14z" />
    <glyph glyph-name="Odieresis" unicode="&#xd6;" horiz-adv-x="747" 
d="M200.5 34.5q-75.5 45.5 -117 128t-41.5 187.5q0 106 41.5 188t117 127.5t172.5 45.5q98 0 173.5 -45.5t117 -127.5t41.5 -188t-41.5 -188t-117 -127.5t-173.5 -45.5q-97 0 -172.5 45.5zM527 166q57 68 57 184t-57 184t-154 68t-153 -68t-56 -184t56 -184t153 -68t154 68z
M328 773h-113v110h113v-110zM531 773h-112v110h112v-110z" />
    <glyph glyph-name="multiply" unicode="&#xd7;" horiz-adv-x="581" 
d="M291 286l-146 -146l-65 64l146 146l-146 146l65 65l146 -146l145 146l65 -65l-146 -146l146 -146l-65 -64z" />
    <glyph glyph-name="Oslash" unicode="&#xd8;" horiz-adv-x="747" 
d="M594 630q53 -49 82 -120.5t29 -159.5q0 -106 -41.5 -188t-117 -127.5t-173.5 -45.5q-78 0 -145 31l-37 -62h-105l67 112q-53 49 -82 120.5t-29 159.5q0 106 41.5 188t117 127.5t172.5 45.5q79 0 146 -31l37 62h105zM261 572.5q-48 -31.5 -73.5 -88.5t-25.5 -134
q0 -111 53 -180l248 415q-41 19 -90 19q-64 0 -112 -31.5zM486 127.5q48 31.5 73.5 88.5t25.5 134q0 111 -53 180l-249 -415q43 -19 90 -19q65 0 113 31.5z" />
    <glyph glyph-name="Ugrave" unicode="&#xd9;" horiz-adv-x="681" 
d="M196 24.5q-62 35.5 -95.5 102t-33.5 157.5v416h120v-411q0 -93 40 -142t114 -49t113.5 49t39.5 142v411h120v-416q0 -91 -33.5 -157.5t-95 -102t-144.5 -35.5t-145 35.5zM406 757h-92l-122 148v7h123z" />
    <glyph glyph-name="Uacute" unicode="&#xda;" horiz-adv-x="681" 
d="M196 24.5q-62 35.5 -95.5 102t-33.5 157.5v416h120v-411q0 -93 40 -142t114 -49t113.5 49t39.5 142v411h120v-416q0 -91 -33.5 -157.5t-95 -102t-144.5 -35.5t-145 35.5zM367 757h-92l91 155h123v-7z" />
    <glyph glyph-name="Ucircumflex" unicode="&#xdb;" horiz-adv-x="681" 
d="M196 24.5q-62 35.5 -95.5 102t-33.5 157.5v416h120v-411q0 -93 40 -142t114 -49t113.5 49t39.5 142v411h120v-416q0 -91 -33.5 -157.5t-95 -102t-144.5 -35.5t-145 35.5zM387 908l137 -151h-108l-77 87l-77 -87h-105l137 151h93z" />
    <glyph glyph-name="Udieresis" unicode="&#xdc;" horiz-adv-x="681" 
d="M196 24.5q-62 35.5 -95.5 102t-33.5 157.5v416h120v-411q0 -93 40 -142t114 -49t113.5 49t39.5 142v411h120v-416q0 -91 -33.5 -157.5t-95 -102t-144.5 -35.5t-145 35.5zM296 773h-113v110h113v-110zM499 773h-112v110h112v-110z" />
    <glyph glyph-name="Yacute" unicode="&#xdd;" horiz-adv-x="582" 
d="M351 0h-120v254l-236 446h130l166 -324h5l166 324h124l-235 -446v-254zM320 757h-92l91 155h123v-7z" />
    <glyph glyph-name="Thorn" unicode="&#xde;" horiz-adv-x="661" 
d="M396 573q67 0 120.5 -27.5t83 -76t29.5 -109.5t-29.5 -109t-82.5 -75.5t-121 -27.5h-204v-148h-120v700h120v-127h204zM380 252q62 0 95.5 28t33.5 80t-34 80.5t-95 28.5h-188v-217h188z" />
    <glyph glyph-name="germandbls" unicode="&#xdf;" horiz-adv-x="556" 
d="M497.5 297q33.5 -45 33.5 -106q0 -55 -27 -98.5t-75.5 -68t-110.5 -24.5h-78v98h62q53 0 85 28t32 78t-32 79t-85 29h-62v88h43q49 0 78 29t29 80q0 50 -28 78t-74 28q-54 0 -84.5 -37.5t-30.5 -103.5v-474h-112v468q0 110 61 176.5t166 66.5q61 0 109.5 -24t75.5 -68
t27 -100q0 -52 -24.5 -93t-71.5 -62q60 -22 93.5 -67z" />
    <glyph glyph-name="agrave" unicode="&#xe0;" horiz-adv-x="534" 
d="M519 88v-88q-24 -2 -42 -2q-49 0 -74 24.5t-25 70.5v2h-5q-29 -52 -75 -79t-102 -27q-72 0 -119.5 41.5t-47.5 109.5q0 48 25 85t69.5 57.5t101.5 20.5h135v16q0 50 -26 76.5t-76 26.5q-89 0 -116 -77l-98 14q19 73 74 114.5t142 41.5q100 0 155.5 -53t55.5 -142v-197
q0 -19 7 -27t23 -8h18zM320 121q40 37 40 96v9h-122q-43 0 -70 -19.5t-27 -55.5q0 -32 21.5 -49.5t59.5 -17.5q58 0 98 37zM318 567h-85l-124 153v6h116z" />
    <glyph glyph-name="aacute" unicode="&#xe1;" horiz-adv-x="534" 
d="M519 88v-88q-24 -2 -42 -2q-49 0 -74 24.5t-25 70.5v2h-5q-29 -52 -75 -79t-102 -27q-72 0 -119.5 41.5t-47.5 109.5q0 48 25 85t69.5 57.5t101.5 20.5h135v16q0 50 -26 76.5t-76 26.5q-89 0 -116 -77l-98 14q19 73 74 114.5t142 41.5q100 0 155.5 -53t55.5 -142v-197
q0 -19 7 -27t23 -8h18zM320 121q40 37 40 96v9h-122q-43 0 -70 -19.5t-27 -55.5q0 -32 21.5 -49.5t59.5 -17.5q58 0 98 37zM282 567h-85l93 159h116v-6z" />
    <glyph glyph-name="acircumflex" unicode="&#xe2;" horiz-adv-x="534" 
d="M519 88v-88q-24 -2 -42 -2q-49 0 -74 24.5t-25 70.5v2h-5q-29 -52 -75 -79t-102 -27q-72 0 -119.5 41.5t-47.5 109.5q0 48 25 85t69.5 57.5t101.5 20.5h135v16q0 50 -26 76.5t-76 26.5q-89 0 -116 -77l-98 14q19 73 74 114.5t142 41.5q100 0 155.5 -53t55.5 -142v-197
q0 -19 7 -27t23 -8h18zM320 121q40 37 40 96v9h-122q-43 0 -70 -19.5t-27 -55.5q0 -32 21.5 -49.5t59.5 -17.5q58 0 98 37zM301 723l135 -156h-99l-80 94l-80 -94h-98l135 156h87z" />
    <glyph glyph-name="atilde" unicode="&#xe3;" horiz-adv-x="534" 
d="M519 88v-88q-24 -2 -42 -2q-49 0 -74 24.5t-25 70.5v2h-5q-29 -52 -75 -79t-102 -27q-72 0 -119.5 41.5t-47.5 109.5q0 48 25 85t69.5 57.5t101.5 20.5h135v16q0 50 -26 76.5t-76 26.5q-89 0 -116 -77l-98 14q19 73 74 114.5t142 41.5q100 0 155.5 -53t55.5 -142v-197
q0 -19 7 -27t23 -8h18zM320 121q40 37 40 96v9h-122q-43 0 -70 -19.5t-27 -55.5q0 -32 21.5 -49.5t59.5 -17.5q58 0 98 37zM91 592q0 49 25.5 79t69.5 30q22 0 38.5 -6.5t40.5 -19.5q21 -11 32 -15.5t23 -4.5q30 0 30 36v10h74v-13q0 -50 -25.5 -79.5t-69.5 -29.5
q-22 0 -39.5 6.5t-39.5 18.5q-17 10 -29.5 15t-25.5 5q-30 0 -30 -35v-10h-74v13z" />
    <glyph glyph-name="adieresis" unicode="&#xe4;" horiz-adv-x="534" 
d="M519 88v-88q-24 -2 -42 -2q-49 0 -74 24.5t-25 70.5v2h-5q-29 -52 -75 -79t-102 -27q-72 0 -119.5 41.5t-47.5 109.5q0 48 25 85t69.5 57.5t101.5 20.5h135v16q0 50 -26 76.5t-76 26.5q-89 0 -116 -77l-98 14q19 73 74 114.5t142 41.5q100 0 155.5 -53t55.5 -142v-197
q0 -19 7 -27t23 -8h18zM320 121q40 37 40 96v9h-122q-43 0 -70 -19.5t-27 -55.5q0 -32 21.5 -49.5t59.5 -17.5q58 0 98 37zM214 587h-106v105h106v-105zM406 587h-106v105h106v-105z" />
    <glyph glyph-name="aring" unicode="&#xe5;" horiz-adv-x="534" 
d="M519 88v-88q-24 -2 -42 -2q-49 0 -74 24.5t-25 70.5v2h-5q-29 -52 -75 -79t-102 -27q-72 0 -119.5 41.5t-47.5 109.5q0 48 25 85t69.5 57.5t101.5 20.5h135v16q0 50 -26 76.5t-76 26.5q-89 0 -116 -77l-98 14q19 73 74 114.5t142 41.5q100 0 155.5 -53t55.5 -142v-197
q0 -19 7 -27t23 -8h18zM320 121q40 37 40 96v9h-122q-43 0 -70 -19.5t-27 -55.5q0 -32 21.5 -49.5t59.5 -17.5q58 0 98 37zM181.5 581.5q-30.5 29.5 -30.5 74.5t30.5 75t75.5 30t75.5 -30t30.5 -75t-30.5 -74.5t-75.5 -29.5t-75.5 29.5zM287.5 623q11.5 12 11.5 33
t-11.5 33.5t-30.5 12.5t-30.5 -12.5t-11.5 -33.5t11.5 -33t30.5 -12t30.5 12z" />
    <glyph glyph-name="ae" unicode="&#xe6;" horiz-adv-x="864" 
d="M831 223h-360q7 -65 43 -101.5t92 -36.5q36 0 67 17.5t48 48.5l99 -14q-24 -69 -81.5 -108.5t-132.5 -39.5q-64 0 -115 28t-77 76q-31 -49 -82.5 -76.5t-117.5 -27.5q-86 0 -135.5 40.5t-49.5 111.5q0 47 25 83.5t69.5 57t101.5 20.5h137v18q0 49 -26.5 75.5t-77.5 26.5
q-90 0 -115 -76l-99 15q20 71 75 112.5t139 41.5q58 0 102.5 -21.5t68.5 -60.5q29 39 74.5 60.5t97.5 21.5q66 0 119.5 -31.5t84.5 -88.5t31 -129q0 -18 -5 -43zM517.5 390.5q-34.5 -31.5 -44.5 -88.5h256q-9 56 -43.5 88t-84.5 32q-49 0 -83.5 -31.5zM322 121q40 37 40 96
v6h-123q-44 0 -71 -19t-27 -53q0 -32 21.5 -49.5t60.5 -17.5q59 0 99 37z" />
    <glyph glyph-name="ccedilla" unicode="&#xe7;" horiz-adv-x="521" 
d="M503 156q-19 -72 -71.5 -115.5t-127.5 -50.5l-10 -28q32 -5 52.5 -27t20.5 -55q0 -39 -26 -63.5t-72 -24.5q-44 0 -80 22l20 57q24 -12 47 -12q36 0 36 28q0 30 -39 30h-24v20l16 54q-64 7 -113 42t-76 91.5t-27 127.5q0 77 31 137t87.5 93t128.5 33q84 0 143 -44
t79 -123l-100 -15q-13 41 -45 63t-75 22q-63 0 -99.5 -44t-36.5 -122q0 -77 37 -121t101 -44q45 0 77 22t45 63z" />
    <glyph glyph-name="egrave" unicode="&#xe8;" horiz-adv-x="543" 
d="M510 223h-370q7 -65 43.5 -101.5t96.5 -36.5q40 0 71 17t48 49l100 -14q-24 -70 -82 -109t-137 -39q-74 0 -131 33.5t-88.5 93t-31.5 136.5t31 136.5t87 93t127 33.5q69 0 124 -31.5t86 -88t31 -129.5q0 -18 -5 -43zM187.5 390.5q-34.5 -31.5 -45.5 -88.5h266
q-9 57 -44.5 88.5t-89.5 31.5q-52 0 -86.5 -31.5zM331 567h-85l-124 153v6h116z" />
    <glyph glyph-name="eacute" unicode="&#xe9;" horiz-adv-x="543" 
d="M510 223h-370q7 -65 43.5 -101.5t96.5 -36.5q40 0 71 17t48 49l100 -14q-24 -70 -82 -109t-137 -39q-74 0 -131 33.5t-88.5 93t-31.5 136.5t31 136.5t87 93t127 33.5q69 0 124 -31.5t86 -88t31 -129.5q0 -18 -5 -43zM187.5 390.5q-34.5 -31.5 -45.5 -88.5h266
q-9 57 -44.5 88.5t-89.5 31.5q-52 0 -86.5 -31.5zM295 567h-85l93 159h116v-6z" />
    <glyph glyph-name="ecircumflex" unicode="&#xea;" horiz-adv-x="543" 
d="M510 223h-370q7 -65 43.5 -101.5t96.5 -36.5q40 0 71 17t48 49l100 -14q-24 -70 -82 -109t-137 -39q-74 0 -131 33.5t-88.5 93t-31.5 136.5t31 136.5t87 93t127 33.5q69 0 124 -31.5t86 -88t31 -129.5q0 -18 -5 -43zM187.5 390.5q-34.5 -31.5 -45.5 -88.5h266
q-9 57 -44.5 88.5t-89.5 31.5q-52 0 -86.5 -31.5zM314 723l135 -156h-99l-80 94l-80 -94h-98l135 156h87z" />
    <glyph glyph-name="edieresis" unicode="&#xeb;" horiz-adv-x="543" 
d="M510 223h-370q7 -65 43.5 -101.5t96.5 -36.5q40 0 71 17t48 49l100 -14q-24 -70 -82 -109t-137 -39q-74 0 -131 33.5t-88.5 93t-31.5 136.5t31 136.5t87 93t127 33.5q69 0 124 -31.5t86 -88t31 -129.5q0 -18 -5 -43zM187.5 390.5q-34.5 -31.5 -45.5 -88.5h266
q-9 57 -44.5 88.5t-89.5 31.5q-52 0 -86.5 -31.5zM227 587h-106v105h106v-105zM419 587h-106v105h106v-105z" />
    <glyph glyph-name="igrave" unicode="&#xec;" horiz-adv-x="235" 
d="M173 0h-111v505h111v-505zM179 567h-85l-124 153v6h116z" />
    <glyph glyph-name="iacute" unicode="&#xed;" horiz-adv-x="235" 
d="M173 0h-111v505h111v-505zM143 567h-85l93 159h116v-6z" />
    <glyph glyph-name="icircumflex" unicode="&#xee;" horiz-adv-x="235" 
d="M173 0h-111v505h111v-505zM161 723l111 -156h-93l-61 90l-62 -90h-91l111 156h85z" />
    <glyph glyph-name="idieresis" unicode="&#xef;" horiz-adv-x="235" 
d="M173 0h-111v505h111v-505zM91 587h-103v105h103v-105zM248 587h-103v105h103v-105z" />
    <glyph glyph-name="eth" unicode="&#xf0;" horiz-adv-x="545" 
d="M375 620q63 -62 99.5 -147t36.5 -191q0 -138 -64.5 -215.5t-177.5 -77.5q-70 0 -124.5 31t-85 87.5t-30.5 129.5q0 72 28.5 127.5t77 85.5t106.5 30q52 0 94 -23.5t63 -60.5h5q-20 99 -102 178l-99 -62l-33 60l76 47q-48 33 -99 53l81 44q48 -19 93 -50l90 57l34 -59z
M359 125.5q34 38.5 34 111.5q0 71 -34.5 110t-91.5 39q-56 0 -90.5 -39t-34.5 -110q0 -73 35.5 -111.5t91.5 -38.5t90 38.5z" />
    <glyph glyph-name="ntilde" unicode="&#xf1;" horiz-adv-x="558" 
d="M57 0v505h106v-87h5q65 97 169 97q78 0 123.5 -52t45.5 -142v-321h-114v299q0 56 -24.5 86.5t-70.5 30.5q-54 0 -90 -40t-36 -99v-277h-114zM115 592q0 49 25.5 79t69.5 30q22 0 38.5 -6.5t40.5 -19.5q21 -11 32 -15.5t23 -4.5q30 0 30 36v10h74v-13q0 -50 -25.5 -79.5
t-69.5 -29.5q-22 0 -39.5 6.5t-39.5 18.5q-17 10 -29.5 15t-25.5 5q-30 0 -30 -35v-10h-74v13z" />
    <glyph glyph-name="ograve" unicode="&#xf2;" horiz-adv-x="555" 
d="M148 22.5q-56 33.5 -87.5 93.5t-31.5 136q0 77 31.5 136.5t87.5 93t129 33.5t129.5 -33.5t88 -93t31.5 -136.5q0 -76 -31.5 -136t-88 -93.5t-129.5 -33.5t-129 33.5zM376.5 131.5q36.5 44.5 36.5 120.5q0 77 -36.5 121.5t-99.5 44.5t-99 -44.5t-36 -121.5t36 -121t99 -44
t99.5 44.5zM337 567h-85l-124 153v6h116z" />
    <glyph glyph-name="oacute" unicode="&#xf3;" horiz-adv-x="555" 
d="M148 22.5q-56 33.5 -87.5 93.5t-31.5 136q0 77 31.5 136.5t87.5 93t129 33.5t129.5 -33.5t88 -93t31.5 -136.5q0 -76 -31.5 -136t-88 -93.5t-129.5 -33.5t-129 33.5zM376.5 131.5q36.5 44.5 36.5 120.5q0 77 -36.5 121.5t-99.5 44.5t-99 -44.5t-36 -121.5t36 -121t99 -44
t99.5 44.5zM301 567h-85l93 159h116v-6z" />
    <glyph glyph-name="ocircumflex" unicode="&#xf4;" horiz-adv-x="555" 
d="M148 22.5q-56 33.5 -87.5 93.5t-31.5 136q0 77 31.5 136.5t87.5 93t129 33.5t129.5 -33.5t88 -93t31.5 -136.5q0 -76 -31.5 -136t-88 -93.5t-129.5 -33.5t-129 33.5zM376.5 131.5q36.5 44.5 36.5 120.5q0 77 -36.5 121.5t-99.5 44.5t-99 -44.5t-36 -121.5t36 -121t99 -44
t99.5 44.5zM320 723l135 -156h-99l-80 94l-80 -94h-98l135 156h87z" />
    <glyph glyph-name="otilde" unicode="&#xf5;" horiz-adv-x="555" 
d="M148 22.5q-56 33.5 -87.5 93.5t-31.5 136q0 77 31.5 136.5t87.5 93t129 33.5t129.5 -33.5t88 -93t31.5 -136.5q0 -76 -31.5 -136t-88 -93.5t-129.5 -33.5t-129 33.5zM376.5 131.5q36.5 44.5 36.5 120.5q0 77 -36.5 121.5t-99.5 44.5t-99 -44.5t-36 -121.5t36 -121t99 -44
t99.5 44.5zM111 592q0 49 25.5 79t69.5 30q22 0 38.5 -6.5t40.5 -19.5q21 -11 32 -15.5t23 -4.5q30 0 30 36v10h74v-13q0 -50 -25.5 -79.5t-69.5 -29.5q-22 0 -39.5 6.5t-39.5 18.5q-17 10 -29.5 15t-25.5 5q-30 0 -30 -35v-10h-74v13z" />
    <glyph glyph-name="odieresis" unicode="&#xf6;" horiz-adv-x="555" 
d="M148 22.5q-56 33.5 -87.5 93.5t-31.5 136q0 77 31.5 136.5t87.5 93t129 33.5t129.5 -33.5t88 -93t31.5 -136.5q0 -76 -31.5 -136t-88 -93.5t-129.5 -33.5t-129 33.5zM376.5 131.5q36.5 44.5 36.5 120.5q0 77 -36.5 121.5t-99.5 44.5t-99 -44.5t-36 -121.5t36 -121t99 -44
t99.5 44.5zM233 587h-106v105h106v-105zM425 587h-106v105h106v-105z" />
    <glyph glyph-name="divide" unicode="&#xf7;" horiz-adv-x="581" 
d="M343 484h-105v108h105v-108zM515 303h-448v93h448v-93zM343 108h-105v109h105v-109z" />
    <glyph glyph-name="oslash" unicode="&#xf8;" horiz-adv-x="555" 
d="M441 457q41 -36 63 -88.5t22 -116.5q0 -76 -31.5 -136t-88 -93.5t-129.5 -33.5q-54 0 -102 20l-27 -46h-84l50 84q-40 36 -62.5 88.5t-22.5 116.5q0 77 31.5 136.5t87.5 93t129 33.5q55 0 103 -20l28 46h84zM176 374.5q-37 -44.5 -37 -122.5q0 -72 32 -115l162 271
q-27 11 -56 11q-64 0 -101 -44.5zM378.5 130q37.5 45 37.5 122q0 70 -31 115l-162 -272q27 -10 54 -10q64 0 101.5 45z" />
    <glyph glyph-name="ugrave" unicode="&#xf9;" horiz-adv-x="553" 
d="M97 41.5q-45 52.5 -45 142.5v321h114v-299q0 -56 24 -87t69 -31q52 0 87.5 40.5t35.5 99.5v277h114v-505h-104v89h-5q-67 -100 -168 -100q-77 0 -122 52.5zM335 567h-85l-124 153v6h116z" />
    <glyph glyph-name="uacute" unicode="&#xfa;" horiz-adv-x="553" 
d="M97 41.5q-45 52.5 -45 142.5v321h114v-299q0 -56 24 -87t69 -31q52 0 87.5 40.5t35.5 99.5v277h114v-505h-104v89h-5q-67 -100 -168 -100q-77 0 -122 52.5zM299 567h-85l93 159h116v-6z" />
    <glyph glyph-name="ucircumflex" unicode="&#xfb;" horiz-adv-x="553" 
d="M97 41.5q-45 52.5 -45 142.5v321h114v-299q0 -56 24 -87t69 -31q52 0 87.5 40.5t35.5 99.5v277h114v-505h-104v89h-5q-67 -100 -168 -100q-77 0 -122 52.5zM318 723l135 -156h-99l-80 94l-80 -94h-98l135 156h87z" />
    <glyph glyph-name="udieresis" unicode="&#xfc;" horiz-adv-x="553" 
d="M97 41.5q-45 52.5 -45 142.5v321h114v-299q0 -56 24 -87t69 -31q52 0 87.5 40.5t35.5 99.5v277h114v-505h-104v89h-5q-67 -100 -168 -100q-77 0 -122 52.5zM231 587h-106v105h106v-105zM423 587h-106v105h106v-105z" />
    <glyph glyph-name="yacute" unicode="&#xfd;" horiz-adv-x="503" 
d="M257 92l131 413h113l-234 -705h-105l66 200h-55l-171 505h117l133 -413h5zM278 567h-85l93 159h116v-6z" />
    <glyph glyph-name="thorn" unicode="&#xfe;" horiz-adv-x="591" 
d="M62 -200v900h114v-276h5q24 43 68 67t98 24q62 0 111 -33t77 -92.5t28 -137.5q0 -77 -28 -137t-77 -93t-111 -33q-54 0 -98 24.5t-68 67.5h-5v-281h-114zM414 131q35 44 35 121t-35.5 121.5t-96.5 44.5q-63 0 -102 -45.5t-39 -120.5t39 -120t102 -45q62 0 97 44z" />
    <glyph glyph-name="ydieresis" unicode="&#xff;" horiz-adv-x="503" 
d="M257 92l131 413h113l-234 -705h-105l66 200h-55l-171 505h117l133 -413h5zM210 587h-106v105h106v-105zM402 587h-106v105h106v-105z" />
    <glyph glyph-name="Amacron" unicode="&#x100;" horiz-adv-x="631" 
d="M624 0h-120l-53 167h-274l-53 -167h-117l231 700h155zM311 594l-103 -328h212l-104 328h-5zM481 787h-331v80h331v-80z" />
    <glyph glyph-name="amacron" unicode="&#x101;" horiz-adv-x="534" 
d="M519 88v-88q-24 -2 -42 -2q-49 0 -74 24.5t-25 70.5v2h-5q-29 -52 -75 -79t-102 -27q-72 0 -119.5 41.5t-47.5 109.5q0 48 25 85t69.5 57.5t101.5 20.5h135v16q0 50 -26 76.5t-76 26.5q-89 0 -116 -77l-98 14q19 73 74 114.5t142 41.5q100 0 155.5 -53t55.5 -142v-197
q0 -19 7 -27t23 -8h18zM320 121q40 37 40 96v9h-122q-43 0 -70 -19.5t-27 -55.5q0 -32 21.5 -49.5t59.5 -17.5q58 0 98 37zM417 602h-320v75h320v-75z" />
    <glyph glyph-name="Abreve" unicode="&#x102;" horiz-adv-x="631" 
d="M624 0h-120l-53 167h-274l-53 -167h-117l231 700h155zM311 594l-103 -328h212l-104 328h-5zM198 797.5q-44 40.5 -44 107.5h85q0 -33 20.5 -52.5t56.5 -19.5t56.5 19.5t20.5 52.5h85q0 -67 -44 -107.5t-118 -40.5t-118 40.5z" />
    <glyph glyph-name="abreve" unicode="&#x103;" horiz-adv-x="534" 
d="M519 88v-88q-24 -2 -42 -2q-49 0 -74 24.5t-25 70.5v2h-5q-29 -52 -75 -79t-102 -27q-72 0 -119.5 41.5t-47.5 109.5q0 48 25 85t69.5 57.5t101.5 20.5h135v16q0 50 -26 76.5t-76 26.5q-89 0 -116 -77l-98 14q19 73 74 114.5t142 41.5q100 0 155.5 -53t55.5 -142v-197
q0 -19 7 -27t23 -8h18zM320 121q40 37 40 96v9h-122q-43 0 -70 -19.5t-27 -55.5q0 -32 21.5 -49.5t59.5 -17.5q58 0 98 37zM143 607q-43 40 -43 107h82q0 -36 19.5 -55.5t55.5 -19.5t56 19.5t20 55.5h81q0 -67 -43 -107t-114 -40t-114 40z" />
    <glyph glyph-name="Aogonek" unicode="&#x104;" horiz-adv-x="631" 
d="M626 -191q-25 -17 -59 -17q-41 0 -67 23.5t-26 60.5t24 69t63 55h-57l-53 167h-274l-53 -167h-117l231 700h155l231 -700q-36 -31 -54 -56t-18 -49q0 -33 32 -33q11 0 21 5zM311 594l-103 -328h212l-104 328h-5z" />
    <glyph glyph-name="aogonek" unicode="&#x105;" horiz-adv-x="534" 
d="M521 -191q-25 -17 -59 -17q-41 0 -67 23.5t-26 60.5t23.5 69t62.5 54q-38 6 -57.5 30t-19.5 64v2h-5q-29 -52 -75 -79t-102 -27q-72 0 -119.5 41.5t-47.5 109.5q0 48 25 85t69.5 57.5t101.5 20.5h135v16q0 50 -26 76.5t-76 26.5q-89 0 -116 -77l-98 14q19 73 74 114.5
t142 41.5q100 0 155.5 -53t55.5 -142v-197q0 -19 7 -27t23 -8h18v-88q-36 -31 -54 -56t-18 -49q0 -33 32 -33q11 0 21 5zM320 121q40 37 40 96v9h-122q-43 0 -70 -19.5t-27 -55.5q0 -32 21.5 -49.5t59.5 -17.5q58 0 98 37z" />
    <glyph glyph-name="Cacute" unicode="&#x106;" horiz-adv-x="712" 
d="M202.5 34.5q-76.5 45.5 -118.5 127.5t-42 188t42 188t118 127.5t175 45.5q112 0 189.5 -59t109.5 -168l-113 -16q-21 65 -69 99.5t-118 34.5q-98 0 -155 -68t-57 -184t57 -184t156 -68q71 0 120 35t71 100l112 -17q-32 -109 -110.5 -168t-191.5 -59q-99 0 -175.5 45.5z
M394 757h-92l91 155h123v-7z" />
    <glyph glyph-name="cacute" unicode="&#x107;" horiz-adv-x="521" 
d="M148.5 22.5q-56.5 33.5 -88 93t-31.5 136.5t31 137t87.5 93t128.5 33q84 0 143 -44t79 -123l-100 -15q-13 41 -45 63t-75 22q-63 0 -99.5 -44t-36.5 -122q0 -77 37 -121t101 -44q45 0 77 22t45 63l101 -16q-20 -78 -79.5 -122.5t-144.5 -44.5q-74 0 -130.5 33.5zM295 567
h-85l93 159h116v-6z" />
    <glyph glyph-name="Ccircumflex" unicode="&#x108;" horiz-adv-x="712" 
d="M202.5 34.5q-76.5 45.5 -118.5 127.5t-42 188t42 188t118 127.5t175 45.5q112 0 189.5 -59t109.5 -168l-113 -16q-21 65 -69 99.5t-118 34.5q-98 0 -155 -68t-57 -184t57 -184t156 -68q71 0 120 35t71 100l112 -17q-32 -109 -110.5 -168t-191.5 -59q-99 0 -175.5 45.5z
M414 908l137 -151h-108l-77 87l-77 -87h-105l137 151h93z" />
    <glyph glyph-name="ccircumflex" unicode="&#x109;" horiz-adv-x="521" 
d="M148.5 22.5q-56.5 33.5 -88 93t-31.5 136.5t31 137t87.5 93t128.5 33q84 0 143 -44t79 -123l-100 -15q-13 41 -45 63t-75 22q-63 0 -99.5 -44t-36.5 -122q0 -77 37 -121t101 -44q45 0 77 22t45 63l101 -16q-20 -78 -79.5 -122.5t-144.5 -44.5q-74 0 -130.5 33.5zM314 723
l135 -156h-99l-80 94l-80 -94h-98l135 156h87z" />
    <glyph glyph-name="Cdotaccent" unicode="&#x10a;" horiz-adv-x="712" 
d="M202.5 34.5q-76.5 45.5 -118.5 127.5t-42 188t42 188t118 127.5t175 45.5q112 0 189.5 -59t109.5 -168l-113 -16q-21 65 -69 99.5t-118 34.5q-98 0 -155 -68t-57 -184t57 -184t156 -68q71 0 120 35t71 100l112 -17q-32 -109 -110.5 -168t-191.5 -59q-99 0 -175.5 45.5z
M426 773h-117v110h117v-110z" />
    <glyph glyph-name="cdotaccent" unicode="&#x10b;" horiz-adv-x="521" 
d="M148.5 22.5q-56.5 33.5 -88 93t-31.5 136.5t31 137t87.5 93t128.5 33q84 0 143 -44t79 -123l-100 -15q-13 41 -45 63t-75 22q-63 0 -99.5 -44t-36.5 -122q0 -77 37 -121t101 -44q45 0 77 22t45 63l101 -16q-20 -78 -79.5 -122.5t-144.5 -44.5q-74 0 -130.5 33.5zM326 587
h-112v105h112v-105z" />
    <glyph glyph-name="Ccaron" unicode="&#x10c;" horiz-adv-x="712" 
d="M202.5 34.5q-76.5 45.5 -118.5 127.5t-42 188t42 188t118 127.5t175 45.5q112 0 189.5 -59t109.5 -168l-113 -16q-21 65 -69 99.5t-118 34.5q-98 0 -155 -68t-57 -184t57 -184t156 -68q71 0 120 35t71 100l112 -17q-32 -109 -110.5 -168t-191.5 -59q-99 0 -175.5 45.5z
M369 821l77 87h105l-137 -151h-93l-137 151h108z" />
    <glyph glyph-name="ccaron" unicode="&#x10d;" horiz-adv-x="521" 
d="M148.5 22.5q-56.5 33.5 -88 93t-31.5 136.5t31 137t87.5 93t128.5 33q84 0 143 -44t79 -123l-100 -15q-13 41 -45 63t-75 22q-63 0 -99.5 -44t-36.5 -122q0 -77 37 -121t101 -44q45 0 77 22t45 63l101 -16q-20 -78 -79.5 -122.5t-144.5 -44.5q-74 0 -130.5 33.5zM272 629
l79 94h98l-135 -156h-87l-135 156h100z" />
    <glyph glyph-name="Dcaron" unicode="&#x10e;" horiz-adv-x="695" 
d="M72 0v700h234q103 0 182 -44.5t122 -124t43 -181.5t-43 -181.5t-122 -124t-182 -44.5h-234zM303 107q105 0 167 66t62 177t-62 177t-167 66h-111v-486h111zM338 821l77 87h105l-137 -151h-93l-137 151h108z" />
    <glyph glyph-name="dcaron" unicode="&#x10f;" horiz-adv-x="625" 
d="M133.5 22q-49.5 33 -77 93t-27.5 137q0 78 27.5 137.5t76.5 92.5t111 33q54 0 98.5 -24t68.5 -67h5v276h113v-700h-104v89h-5q-29 -48 -73.5 -74t-100.5 -26q-63 0 -112.5 33zM376.5 132q39.5 45 39.5 120t-39.5 120.5t-102.5 45.5q-61 0 -96.5 -44.5t-35.5 -121.5
t35.5 -121t96.5 -44q63 0 102.5 45zM638 515h-58v20l42 72h-52v93h97v-92z" />
    <glyph glyph-name="Dcroat" unicode="&#x110;" horiz-adv-x="720" 
d="M331 700q103 0 182 -44.5t122 -124t43 -181.5t-43 -181.5t-122 -124t-182 -44.5h-234v303h-92v95h92v302h234zM328 107q105 0 167 66t62 177t-62 177t-167 66h-111v-195h162v-95h-162v-196h111z" />
    <glyph glyph-name="dcroat" unicode="&#x111;" horiz-adv-x="595" 
d="M601 623v-77h-77v-546h-104v89h-5q-28 -48 -72 -74t-99 -26q-62 0 -111 32t-76.5 88.5t-27.5 127.5t27.5 127t76 87.5t109.5 31.5q54 0 97.5 -24t66.5 -67h5v154h-147v77h147v77h113v-77h77zM372 129q39 42 39 108q0 64 -39 106.5t-100 42.5q-59 0 -94.5 -41t-35.5 -108
q0 -68 35 -109t95 -41q61 0 100 42z" />
    <glyph glyph-name="Emacron" unicode="&#x112;" horiz-adv-x="579" 
d="M191 304v-200h336v-104h-455v700h450v-104h-331v-191h296v-101h-296zM462 787h-331v80h331v-80z" />
    <glyph glyph-name="emacron" unicode="&#x113;" horiz-adv-x="543" 
d="M510 223h-370q7 -65 43.5 -101.5t96.5 -36.5q40 0 71 17t48 49l100 -14q-24 -70 -82 -109t-137 -39q-74 0 -131 33.5t-88.5 93t-31.5 136.5t31 136.5t87 93t127 33.5q69 0 124 -31.5t86 -88t31 -129.5q0 -18 -5 -43zM187.5 390.5q-34.5 -31.5 -45.5 -88.5h266
q-9 57 -44.5 88.5t-89.5 31.5q-52 0 -86.5 -31.5zM431 602h-320v75h320v-75z" />
    <glyph glyph-name="Ebreve" unicode="&#x114;" horiz-adv-x="579" 
d="M191 304v-200h336v-104h-455v700h450v-104h-331v-191h296v-101h-296zM179 797.5q-44 40.5 -44 107.5h85q0 -33 20.5 -52.5t56.5 -19.5t56.5 19.5t20.5 52.5h85q0 -67 -44 -107.5t-118 -40.5t-118 40.5z" />
    <glyph glyph-name="ebreve" unicode="&#x115;" horiz-adv-x="543" 
d="M510 223h-370q7 -65 43.5 -101.5t96.5 -36.5q40 0 71 17t48 49l100 -14q-24 -70 -82 -109t-137 -39q-74 0 -131 33.5t-88.5 93t-31.5 136.5t31 136.5t87 93t127 33.5q69 0 124 -31.5t86 -88t31 -129.5q0 -18 -5 -43zM187.5 390.5q-34.5 -31.5 -45.5 -88.5h266
q-9 57 -44.5 88.5t-89.5 31.5q-52 0 -86.5 -31.5zM156 607q-43 40 -43 107h82q0 -36 19.5 -55.5t55.5 -19.5t56 19.5t20 55.5h81q0 -67 -43 -107t-114 -40t-114 40z" />
    <glyph glyph-name="Edotaccent" unicode="&#x116;" horiz-adv-x="579" 
d="M191 304v-200h336v-104h-455v700h450v-104h-331v-191h296v-101h-296zM355 773h-117v110h117v-110z" />
    <glyph glyph-name="edotaccent" unicode="&#x117;" horiz-adv-x="543" 
d="M510 223h-370q7 -65 43.5 -101.5t96.5 -36.5q40 0 71 17t48 49l100 -14q-24 -70 -82 -109t-137 -39q-74 0 -131 33.5t-88.5 93t-31.5 136.5t31 136.5t87 93t127 33.5q69 0 124 -31.5t86 -88t31 -129.5q0 -18 -5 -43zM187.5 390.5q-34.5 -31.5 -45.5 -88.5h266
q-9 57 -44.5 88.5t-89.5 31.5q-52 0 -86.5 -31.5zM326 587h-112v105h112v-105z" />
    <glyph glyph-name="Eogonek" unicode="&#x118;" horiz-adv-x="579" 
d="M529 -191q-25 -17 -59 -17q-41 0 -67 23.5t-26 60.5t24 69t63 55h-392v700h450v-104h-331v-191h296v-101h-296v-200h336v-104q-36 -31 -54 -56t-18 -49q0 -33 32 -33q11 0 21 5z" />
    <glyph glyph-name="eogonek" unicode="&#x119;" horiz-adv-x="543" 
d="M510 223h-370q7 -65 43.5 -101.5t96.5 -36.5q40 0 71 17t48 49l100 -14q-10 -33 -30 -60.5t-54 -64.5q-34 -36 -51 -61.5t-17 -54.5q0 -17 9 -25.5t24 -8.5q11 0 21 5l20 -58q-23 -17 -58 -17q-41 0 -67 23.5t-26 60.5q0 35 20.5 66t53.5 55q-32 -8 -64 -8
q-74 0 -131 33.5t-88.5 93t-31.5 136.5t31 136.5t87 93t127 33.5q69 0 124 -31.5t86 -88t31 -129.5q0 -18 -5 -43zM187.5 390.5q-34.5 -31.5 -45.5 -88.5h266q-9 57 -44.5 88.5t-89.5 31.5q-52 0 -86.5 -31.5z" />
    <glyph glyph-name="Ecaron" unicode="&#x11a;" horiz-adv-x="579" 
d="M191 304v-200h336v-104h-455v700h450v-104h-331v-191h296v-101h-296zM298 821l77 87h105l-137 -151h-93l-137 151h108z" />
    <glyph glyph-name="ecaron" unicode="&#x11b;" horiz-adv-x="543" 
d="M510 223h-370q7 -65 43.5 -101.5t96.5 -36.5q40 0 71 17t48 49l100 -14q-24 -70 -82 -109t-137 -39q-74 0 -131 33.5t-88.5 93t-31.5 136.5t31 136.5t87 93t127 33.5q69 0 124 -31.5t86 -88t31 -129.5q0 -18 -5 -43zM187.5 390.5q-34.5 -31.5 -45.5 -88.5h266
q-9 57 -44.5 88.5t-89.5 31.5q-52 0 -86.5 -31.5zM272 629l79 94h98l-135 -156h-87l-135 156h100z" />
    <glyph glyph-name="Gcircumflex" unicode="&#x11c;" horiz-adv-x="761" 
d="M417 366h282v-366h-71l-18 116q-35 -63 -94.5 -95t-138.5 -32q-96 0 -172.5 45.5t-119.5 127.5t-43 188t43 188t120.5 127.5t179.5 45.5q113 0 192 -57.5t111 -163.5l-113 -16q-22 62 -71 95t-119 33q-102 0 -161.5 -68.5t-59.5 -183.5q0 -77 27 -134t76 -87.5t114 -30.5
q84 0 139.5 48t58.5 130h-162v90zM422 908l137 -151h-108l-77 87l-77 -87h-105l137 151h93z" />
    <glyph glyph-name="gcircumflex" unicode="&#x11d;" horiz-adv-x="581" 
d="M116 -159q-64 44 -84 122l103 15q13 -41 50 -63t91 -22q135 0 135 149v62h-5q-24 -41 -66.5 -65t-96.5 -24q-62 0 -110.5 32t-76 89t-27.5 129q0 71 27.5 128t76.5 89.5t111 32.5q54 0 98 -25t72 -71h5v86h105v-460q0 -117 -66 -182.5t-182 -65.5q-96 0 -160 44z
M372 152.5q39 43.5 39 111.5q0 69 -38.5 112t-100.5 43q-59 0 -94.5 -42t-35.5 -113t35.5 -113t94.5 -42q61 0 100 43.5zM313 723l135 -156h-99l-80 94l-80 -94h-98l135 156h87z" />
    <glyph glyph-name="Gbreve" unicode="&#x11e;" horiz-adv-x="761" 
d="M417 366h282v-366h-71l-18 116q-35 -63 -94.5 -95t-138.5 -32q-96 0 -172.5 45.5t-119.5 127.5t-43 188t43 188t120.5 127.5t179.5 45.5q113 0 192 -57.5t111 -163.5l-113 -16q-22 62 -71 95t-119 33q-102 0 -161.5 -68.5t-59.5 -183.5q0 -77 27 -134t76 -87.5t114 -30.5
q84 0 139.5 48t58.5 130h-162v90zM258 797.5q-44 40.5 -44 107.5h85q0 -33 20.5 -52.5t56.5 -19.5t56.5 19.5t20.5 52.5h85q0 -67 -44 -107.5t-118 -40.5t-118 40.5z" />
    <glyph glyph-name="gbreve" unicode="&#x11f;" horiz-adv-x="581" 
d="M116 -159q-64 44 -84 122l103 15q13 -41 50 -63t91 -22q135 0 135 149v62h-5q-24 -41 -66.5 -65t-96.5 -24q-62 0 -110.5 32t-76 89t-27.5 129q0 71 27.5 128t76.5 89.5t111 32.5q54 0 98 -25t72 -71h5v86h105v-460q0 -117 -66 -182.5t-182 -65.5q-96 0 -160 44z
M372 152.5q39 43.5 39 111.5q0 69 -38.5 112t-100.5 43q-59 0 -94.5 -42t-35.5 -113t35.5 -113t94.5 -42q61 0 100 43.5zM155 607q-43 40 -43 107h82q0 -36 19.5 -55.5t55.5 -19.5t56 19.5t20 55.5h81q0 -67 -43 -107t-114 -40t-114 40z" />
    <glyph glyph-name="Gdotaccent" unicode="&#x120;" horiz-adv-x="761" 
d="M417 366h282v-366h-71l-18 116q-35 -63 -94.5 -95t-138.5 -32q-96 0 -172.5 45.5t-119.5 127.5t-43 188t43 188t120.5 127.5t179.5 45.5q113 0 192 -57.5t111 -163.5l-113 -16q-22 62 -71 95t-119 33q-102 0 -161.5 -68.5t-59.5 -183.5q0 -77 27 -134t76 -87.5t114 -30.5
q84 0 139.5 48t58.5 130h-162v90zM434 773h-117v110h117v-110z" />
    <glyph glyph-name="gdotaccent" unicode="&#x121;" horiz-adv-x="581" 
d="M116 -159q-64 44 -84 122l103 15q13 -41 50 -63t91 -22q135 0 135 149v62h-5q-24 -41 -66.5 -65t-96.5 -24q-62 0 -110.5 32t-76 89t-27.5 129q0 71 27.5 128t76.5 89.5t111 32.5q54 0 98 -25t72 -71h5v86h105v-460q0 -117 -66 -182.5t-182 -65.5q-96 0 -160 44z
M372 152.5q39 43.5 39 111.5q0 69 -38.5 112t-100.5 43q-59 0 -94.5 -42t-35.5 -113t35.5 -113t94.5 -42q61 0 100 43.5zM325 587h-112v105h112v-105z" />
    <glyph glyph-name="uni0122" unicode="&#x122;" horiz-adv-x="761" 
d="M417 366h282v-366h-71l-18 116q-35 -63 -94.5 -95t-138.5 -32q-96 0 -172.5 45.5t-119.5 127.5t-43 188t43 188t120.5 127.5t179.5 45.5q113 0 192 -57.5t111 -163.5l-113 -16q-22 62 -71 95t-119 33q-102 0 -161.5 -68.5t-59.5 -183.5q0 -77 27 -134t76 -87.5t114 -30.5
q84 0 139.5 48t58.5 130h-162v90zM401 -249h-62v20l44 73h-56v92h106v-91z" />
    <glyph glyph-name="uni0123" unicode="&#x123;" horiz-adv-x="581" 
d="M116 -159q-64 44 -84 122l103 15q13 -41 50 -63t91 -22q135 0 135 149v62h-5q-24 -41 -66.5 -65t-96.5 -24q-62 0 -110.5 32t-76 89t-27.5 129q0 71 27.5 128t76.5 89.5t111 32.5q54 0 98 -25t72 -71h5v86h105v-460q0 -117 -66 -182.5t-182 -65.5q-96 0 -160 44z
M372 152.5q39 43.5 39 111.5q0 69 -38.5 112t-100.5 43q-59 0 -94.5 -42t-35.5 -113t35.5 -113t94.5 -42q61 0 100 43.5zM322 574h-106v90l32 93h62v-20l-44 -71h56v-92z" />
    <glyph glyph-name="Hcircumflex" unicode="&#x124;" horiz-adv-x="696" 
d="M504 409v291h120v-700h-120v302h-312v-302h-120v700h120v-291h312zM395 908l137 -151h-108l-77 87l-77 -87h-105l137 151h93z" />
    <glyph glyph-name="hcircumflex" unicode="&#x125;" horiz-adv-x="563" 
d="M62 0v700h114v-276h5q26 42 67.5 66.5t94.5 24.5q77 0 122.5 -52t45.5 -142v-321h-114v299q0 56 -24.5 86.5t-70.5 30.5q-54 0 -90 -40t-36 -99v-277h-114zM333 908l137 -151h-108l-77 87l-77 -87h-105l137 151h93z" />
    <glyph glyph-name="Hbar" unicode="&#x126;" horiz-adv-x="746" 
d="M649 592h92v-92h-92v-500h-120v302h-312v-302h-120v500h-92v92h92v108h120v-111h312v111h120v-108zM217 502v-93h312v93h-312z" />
    <glyph glyph-name="hbar" unicode="&#x127;" horiz-adv-x="571" 
d="M473.5 430.5q45.5 -52.5 45.5 -141.5v-289h-113v267q0 56 -25 86.5t-70 30.5q-54 0 -90.5 -40t-36.5 -99v-245h-113v546h-78v77h78v77h113v-77h147v-77h-147v-154h5q26 42 67.5 66.5t94.5 24.5q77 0 122.5 -52.5z" />
    <glyph glyph-name="Itilde" unicode="&#x128;" horiz-adv-x="272" 
d="M195 0h-118v700h118v-700zM-35 778q0 51 25.5 82t70.5 31q23 0 41.5 -7t41.5 -20q19 -11 31 -16t26 -5q31 0 31 37v11h76v-14q0 -51 -25.5 -82t-70.5 -31q-23 0 -41.5 7t-41.5 20q-20 11 -32 16t-26 5q-30 0 -30 -37v-11h-76v14z" />
    <glyph glyph-name="itilde" unicode="&#x129;" horiz-adv-x="235" 
d="M173 0h-111v505h111v-505zM-37 592q0 49 24.5 79t65.5 30q22 0 38 -7t35 -20q14 -10 24 -14.5t21 -4.5q14 0 22 9.5t8 26.5v10h73v-13q0 -50 -24.5 -79.5t-65.5 -29.5q-22 0 -37.5 6.5t-35.5 19.5q-14 10 -24 14.5t-21 4.5q-14 0 -21.5 -9t-7.5 -26v-10h-74v13z" />
    <glyph glyph-name="Imacron" unicode="&#x12a;" horiz-adv-x="272" 
d="M195 0h-118v700h118v-700zM301 787h-331v80h331v-80z" />
    <glyph glyph-name="imacron" unicode="&#x12b;" horiz-adv-x="235" 
d="M173 0h-111v505h111v-505zM262 602h-288v75h288v-75z" />
    <glyph glyph-name="Ibreve" unicode="&#x12c;" horiz-adv-x="272" 
d="M195 0h-118v700h118v-700zM18 797.5q-44 40.5 -44 107.5h85q0 -33 20.5 -52.5t56.5 -19.5t56.5 19.5t20.5 52.5h85q0 -67 -44 -107.5t-118 -40.5t-118 40.5z" />
    <glyph glyph-name="ibreve" unicode="&#x12d;" horiz-adv-x="235" 
d="M173 0h-111v505h111v-505zM12.5 607q-40.5 40 -40.5 107h80q0 -36 17.5 -55.5t48.5 -19.5t49 19.5t18 55.5h80q0 -67 -41 -107t-106 -40t-105.5 40z" />
    <glyph glyph-name="Iogonek" unicode="&#x12e;" horiz-adv-x="272" 
d="M196 -191q-20 -17 -55 -17q-39 0 -63.5 23.5t-24.5 60.5t23.5 69t62.5 55h-62v700h118v-700q-33 -31 -49 -56.5t-16 -49.5q0 -16 8 -24t20 -8q10 0 18 5z" />
    <glyph glyph-name="iogonek" unicode="&#x12f;" horiz-adv-x="235" 
d="M62 692h112v-105h-112v105zM175 -191q-20 -17 -55 -17q-39 0 -63.5 23.5t-24.5 60.5t23.5 69t62.5 55h-56v505h111v-505h1q-33 -31 -49 -56.5t-16 -49.5q0 -16 8 -24t20 -8q10 0 18 5z" />
    <glyph glyph-name="Idotaccent" unicode="&#x130;" horiz-adv-x="272" 
d="M195 0h-118v700h118v-700zM195 773h-117v110h117v-110z" />
    <glyph glyph-name="dotlessi" unicode="&#x131;" horiz-adv-x="235" 
d="M173 0h-111v505h111v-505z" />
    <glyph glyph-name="IJ" unicode="&#x132;" horiz-adv-x="780" 
d="M195 0h-118v700h118v-700zM348.5 45q-60.5 53 -76.5 147l110 16q20 -107 116 -107t96 121v478h120v-478q0 -108 -56.5 -169t-156.5 -61q-92 0 -152.5 53z" />
    <glyph glyph-name="ij" unicode="&#x133;" horiz-adv-x="470" 
d="M173 0h-111v505h111v-505zM174 587h-112v105h112v-105zM198 -200v96h48q28 0 39.5 12.5t11.5 42.5v554h111v-562q0 -143 -133 -143h-77zM409 587h-112v105h112v-105z" />
    <glyph glyph-name="Jcircumflex" unicode="&#x134;" horiz-adv-x="509" 
d="M76.5 45q-60.5 53 -76.5 147l110 16q20 -107 116 -107t96 121v478h120v-478q0 -108 -56.5 -169t-156.5 -61q-92 0 -152.5 53zM428 908l137 -151h-108l-77 87l-77 -87h-105l137 151h93z" />
    <glyph glyph-name="jcircumflex" unicode="&#x135;" horiz-adv-x="235" 
d="M-37 -200v96h48q28 0 39.5 12.5t11.5 42.5v554h111v-562q0 -143 -133 -143h-77zM161 723l111 -156h-93l-61 90l-62 -90h-91l111 156h85z" />
    <glyph glyph-name="uni0136" unicode="&#x136;" horiz-adv-x="627" 
d="M322 367l318 -367h-151l-297 345v-345h-120v700h120v-325l279 325h139zM354 -249h-62v20l44 73h-56v92h106v-91z" />
    <glyph glyph-name="uni0137" unicode="&#x137;" horiz-adv-x="510" 
d="M293 268l230 -268h-139l-208 247v-247h-114v700h114v-423l193 228h129zM301 -249h-62v20l44 73h-56v92h106v-91z" />
    <glyph glyph-name="Lacute" unicode="&#x139;" horiz-adv-x="517" 
d="M507 0h-435v700h120v-593h315v-107zM159 757h-92l91 155h123v-7z" />
    <glyph glyph-name="lacute" unicode="&#x13a;" horiz-adv-x="238" 
d="M176 0h-114v700h114v-700zM146 757h-92l91 155h123v-7z" />
    <glyph glyph-name="uni013B" unicode="&#x13b;" horiz-adv-x="517" 
d="M507 0h-435v700h120v-593h315v-107zM312 -249h-62v20l44 73h-56v92h106v-91z" />
    <glyph glyph-name="uni013C" unicode="&#x13c;" horiz-adv-x="238" 
d="M176 0h-114v700h114v-700zM140 -249h-62v20l44 73h-56v92h106v-91z" />
    <glyph glyph-name="Lcaron" unicode="&#x13d;" horiz-adv-x="517" 
d="M507 0h-435v700h120v-593h315v-107zM326 515h-58v20l42 72h-52v93h97v-92z" />
    <glyph glyph-name="lcaron" unicode="&#x13e;" horiz-adv-x="271" 
d="M176 0h-114v700h114v-700zM284 515h-58v20l42 72h-52v93h97v-92z" />
    <glyph glyph-name="Ldot" unicode="&#x13f;" horiz-adv-x="517" 
d="M507 0h-435v700h120v-593h315v-107zM454 313h-126v129h126v-129z" />
    <glyph glyph-name="ldot" unicode="&#x140;" horiz-adv-x="368" 
d="M176 0h-114v700h114v-700zM366 291h-126v129h126v-129z" />
    <glyph glyph-name="Lslash" unicode="&#x141;" horiz-adv-x="542" 
d="M217 309v-202h315v-107h-435v254l-92 -42v105l92 42v341h120v-287l161 73v-104z" />
    <glyph glyph-name="lslash" unicode="&#x142;" horiz-adv-x="305" 
d="M209 419l82 43v-90l-82 -43v-329h-113v270l-82 -43v90l82 43v340h113v-281z" />
    <glyph glyph-name="Nacute" unicode="&#x143;" horiz-adv-x="706" 
d="M188 0h-116v700h133l308 -522h5v522h116v-700h-133l-308 522h-5v-522zM380 757h-92l91 155h123v-7z" />
    <glyph glyph-name="nacute" unicode="&#x144;" horiz-adv-x="558" 
d="M57 0v505h106v-87h5q65 97 169 97q78 0 123.5 -52t45.5 -142v-321h-114v299q0 56 -24.5 86.5t-70.5 30.5q-54 0 -90 -40t-36 -99v-277h-114zM306 567h-85l93 159h116v-6z" />
    <glyph glyph-name="uni0145" unicode="&#x145;" horiz-adv-x="706" 
d="M188 0h-116v700h133l308 -522h5v522h116v-700h-133l-308 522h-5v-522zM375 -249h-62v20l44 73h-56v92h106v-91z" />
    <glyph glyph-name="uni0146" unicode="&#x146;" horiz-adv-x="558" 
d="M57 0v505h106v-87h5q65 97 169 97q78 0 123.5 -52t45.5 -142v-321h-114v299q0 56 -24.5 86.5t-70.5 30.5q-54 0 -90 -40t-36 -99v-277h-114zM302 -249h-62v20l44 73h-56v92h106v-91z" />
    <glyph glyph-name="Ncaron" unicode="&#x147;" horiz-adv-x="706" 
d="M188 0h-116v700h133l308 -522h5v522h116v-700h-133l-308 522h-5v-522zM355 821l77 87h105l-137 -151h-93l-137 151h108z" />
    <glyph glyph-name="ncaron" unicode="&#x148;" horiz-adv-x="558" 
d="M57 0v505h106v-87h5q65 97 169 97q78 0 123.5 -52t45.5 -142v-321h-114v299q0 56 -24.5 86.5t-70.5 30.5q-54 0 -90 -40t-36 -99v-277h-114zM283 629l79 94h98l-135 -156h-87l-135 156h100z" />
    <glyph glyph-name="Eng" unicode="&#x14a;" horiz-adv-x="706" 
d="M518 700h116v-724q0 -88 -41 -132t-127 -44h-95v95h78q40 0 59 20t19 61v24h-26l-308 522h-5v-522h-116v700h133l308 -522h5v522z" />
    <glyph glyph-name="eng" unicode="&#x14b;" horiz-adv-x="558" 
d="M288 -200v93h54q27 0 38.5 12t11.5 41v353q0 56 -24.5 86.5t-70.5 30.5q-54 0 -90 -40t-36 -99v-277h-114v505h106v-87h5q65 97 169 97q78 0 123.5 -52t45.5 -142v-378q0 -143 -134 -143h-84z" />
    <glyph glyph-name="Omacron" unicode="&#x14c;" horiz-adv-x="747" 
d="M200.5 34.5q-75.5 45.5 -117 128t-41.5 187.5q0 106 41.5 188t117 127.5t172.5 45.5q98 0 173.5 -45.5t117 -127.5t41.5 -188t-41.5 -188t-117 -127.5t-173.5 -45.5q-97 0 -172.5 45.5zM527 166q57 68 57 184t-57 184t-154 68t-153 -68t-56 -184t56 -184t153 -68t154 68z
M539 787h-331v80h331v-80z" />
    <glyph glyph-name="omacron" unicode="&#x14d;" horiz-adv-x="555" 
d="M148 22.5q-56 33.5 -87.5 93.5t-31.5 136q0 77 31.5 136.5t87.5 93t129 33.5t129.5 -33.5t88 -93t31.5 -136.5q0 -76 -31.5 -136t-88 -93.5t-129.5 -33.5t-129 33.5zM376.5 131.5q36.5 44.5 36.5 120.5q0 77 -36.5 121.5t-99.5 44.5t-99 -44.5t-36 -121.5t36 -121t99 -44
t99.5 44.5zM437 602h-320v75h320v-75z" />
    <glyph glyph-name="Obreve" unicode="&#x14e;" horiz-adv-x="747" 
d="M200.5 34.5q-75.5 45.5 -117 128t-41.5 187.5q0 106 41.5 188t117 127.5t172.5 45.5q98 0 173.5 -45.5t117 -127.5t41.5 -188t-41.5 -188t-117 -127.5t-173.5 -45.5q-97 0 -172.5 45.5zM527 166q57 68 57 184t-57 184t-154 68t-153 -68t-56 -184t56 -184t153 -68t154 68z
M255 797.5q-44 40.5 -44 107.5h85q0 -33 20.5 -52.5t56.5 -19.5t56.5 19.5t20.5 52.5h85q0 -67 -44 -107.5t-118 -40.5t-118 40.5z" />
    <glyph glyph-name="obreve" unicode="&#x14f;" horiz-adv-x="555" 
d="M148 22.5q-56 33.5 -87.5 93.5t-31.5 136q0 77 31.5 136.5t87.5 93t129 33.5t129.5 -33.5t88 -93t31.5 -136.5q0 -76 -31.5 -136t-88 -93.5t-129.5 -33.5t-129 33.5zM376.5 131.5q36.5 44.5 36.5 120.5q0 77 -36.5 121.5t-99.5 44.5t-99 -44.5t-36 -121.5t36 -121t99 -44
t99.5 44.5zM163 607q-43 40 -43 107h82q0 -36 19.5 -55.5t55.5 -19.5t56 19.5t20 55.5h81q0 -67 -43 -107t-114 -40t-114 40z" />
    <glyph glyph-name="Ohungarumlaut" unicode="&#x150;" horiz-adv-x="747" 
d="M200.5 34.5q-75.5 45.5 -117 128t-41.5 187.5q0 106 41.5 188t117 127.5t172.5 45.5q98 0 173.5 -45.5t117 -127.5t41.5 -188t-41.5 -188t-117 -127.5t-173.5 -45.5q-97 0 -172.5 45.5zM527 166q57 68 57 184t-57 184t-154 68t-153 -68t-56 -184t56 -184t153 -68t154 68z
M297 757h-82l89 155h112v-7zM467 757h-83l89 155h113v-7z" />
    <glyph glyph-name="ohungarumlaut" unicode="&#x151;" horiz-adv-x="555" 
d="M148 22.5q-56 33.5 -87.5 93.5t-31.5 136q0 77 31.5 136.5t87.5 93t129 33.5t129.5 -33.5t88 -93t31.5 -136.5q0 -76 -31.5 -136t-88 -93.5t-129.5 -33.5t-129 33.5zM376.5 131.5q36.5 44.5 36.5 120.5q0 77 -36.5 121.5t-99.5 44.5t-99 -44.5t-36 -121.5t36 -121t99 -44
t99.5 44.5zM207 567h-73l87 159h102v-6zM363 567h-74l87 159h103v-6z" />
    <glyph glyph-name="OE" unicode="&#x152;" horiz-adv-x="1064" 
d="M689 104h323v-104h-431v94q-33 -50 -91 -77.5t-129 -27.5q-91 0 -163.5 45.5t-114 127.5t-41.5 188t41.5 188t114 127.5t163.5 45.5q71 0 129 -27.5t91 -77.5v94h426v-104h-318v-191h283v-101h-283v-200zM521.5 166q55.5 68 55.5 184t-55.5 184t-151.5 68
q-62 0 -108.5 -31t-72 -88t-25.5 -133t25.5 -133t72 -88t108.5 -31q96 0 151.5 68z" />
    <glyph glyph-name="oe" unicode="&#x153;" horiz-adv-x="908" 
d="M875 223h-360q7 -65 43 -101.5t92 -36.5q36 0 67 17.5t48 48.5l99 -14q-24 -69 -81.5 -108.5t-132.5 -39.5q-64 0 -115 28t-77 76q-28 -49 -77.5 -76.5t-110.5 -27.5q-69 0 -124 34t-86 94t-31 135q0 76 31 135.5t85.5 93.5t124.5 34q61 0 110.5 -27.5t77.5 -76.5
q28 49 78 76.5t109 27.5q66 0 119.5 -31.5t84.5 -88.5t31 -129q0 -18 -5 -43zM561.5 390.5q-34.5 -31.5 -44.5 -88.5h256q-9 56 -43.5 88t-84.5 32q-49 0 -83.5 -31.5zM370 131.5q36 44.5 36 120.5q0 77 -36 121.5t-96 44.5q-61 0 -96.5 -44.5t-35.5 -121.5
q0 -76 35.5 -120.5t96.5 -44.5q60 0 96 44.5z" />
    <glyph glyph-name="Racute" unicode="&#x154;" horiz-adv-x="635" 
d="M488 0l-160 275h-136v-275h-120v700h271q65 0 117 -27.5t81.5 -75t29.5 -106.5q0 -65 -36 -115.5t-94 -75.5l181 -300h-134zM191 596v-220h137q58 0 90.5 29.5t32.5 80.5t-32.5 80.5t-90.5 29.5h-137zM330 757h-92l91 155h123v-7z" />
    <glyph glyph-name="racute" unicode="&#x155;" horiz-adv-x="364" 
d="M57 0v505h104v-89h5q30 45 66 67t84 22h43v-104h-51q-65 0 -101 -38t-36 -103v-260h-114zM231 567h-85l93 159h116v-6z" />
    <glyph glyph-name="uni0156" unicode="&#x156;" horiz-adv-x="635" 
d="M488 0l-160 275h-136v-275h-120v700h271q65 0 117 -27.5t81.5 -75t29.5 -106.5q0 -65 -36 -115.5t-94 -75.5l181 -300h-134zM191 596v-220h137q58 0 90.5 29.5t32.5 80.5t-32.5 80.5t-90.5 29.5h-137zM357 -249h-62v20l44 73h-56v92h106v-91z" />
    <glyph glyph-name="uni0157" unicode="&#x157;" horiz-adv-x="364" 
d="M57 0v505h104v-89h5q30 45 66 67t84 22h43v-104h-51q-65 0 -101 -38t-36 -103v-260h-114zM135 -249h-62v20l44 73h-56v92h106v-91z" />
    <glyph glyph-name="Rcaron" unicode="&#x158;" horiz-adv-x="635" 
d="M488 0l-160 275h-136v-275h-120v700h271q65 0 117 -27.5t81.5 -75t29.5 -106.5q0 -65 -36 -115.5t-94 -75.5l181 -300h-134zM191 596v-220h137q58 0 90.5 29.5t32.5 80.5t-32.5 80.5t-90.5 29.5h-137zM305 821l77 87h105l-137 -151h-93l-137 151h108z" />
    <glyph glyph-name="rcaron" unicode="&#x159;" horiz-adv-x="364" 
d="M57 0v505h104v-89h5q30 45 66 67t84 22h43v-104h-51q-65 0 -101 -38t-36 -103v-260h-114zM208 629l79 94h98l-135 -156h-87l-135 156h100z" />
    <glyph glyph-name="Sacute" unicode="&#x15a;" horiz-adv-x="593" 
d="M116 44q-77 55 -102 156l109 17q42 -122 183 -122q64 0 100.5 25.5t36.5 77.5q0 34 -21.5 55t-54 33t-87.5 25q-75 19 -121 38t-78.5 59.5t-32.5 108.5q0 59 31.5 103t88 67.5t127.5 23.5q105 0 173 -50t90 -141l-107 -16q-31 104 -156 104q-57 0 -92 -22.5t-35 -68.5
q0 -33 21 -54t53.5 -32t87.5 -24q74 -18 121 -36.5t80 -59t33 -110.5q0 -101 -68.5 -156.5t-187.5 -55.5q-115 0 -192 55zM322 757h-92l91 155h123v-7z" />
    <glyph glyph-name="sacute" unicode="&#x15b;" horiz-adv-x="476" 
d="M91.5 31q-58.5 42 -77.5 118l103 15q25 -80 127 -80q44 0 69.5 15t25.5 46q0 32 -29 46t-88 25q-58 12 -94.5 25t-62.5 43.5t-26 83.5q0 66 55.5 106.5t142.5 40.5q85 0 138.5 -39t70.5 -110l-98 -15q-9 36 -39 54.5t-74 18.5q-38 0 -61 -14t-23 -42q0 -31 28 -44t88 -25
q58 -12 95 -25t63.5 -44t26.5 -85q0 -72 -56.5 -114t-151.5 -42q-94 0 -152.5 42zM259 567h-85l93 159h116v-6z" />
    <glyph glyph-name="Scircumflex" unicode="&#x15c;" horiz-adv-x="593" 
d="M116 44q-77 55 -102 156l109 17q42 -122 183 -122q64 0 100.5 25.5t36.5 77.5q0 34 -21.5 55t-54 33t-87.5 25q-75 19 -121 38t-78.5 59.5t-32.5 108.5q0 59 31.5 103t88 67.5t127.5 23.5q105 0 173 -50t90 -141l-107 -16q-31 104 -156 104q-57 0 -92 -22.5t-35 -68.5
q0 -33 21 -54t53.5 -32t87.5 -24q74 -18 121 -36.5t80 -59t33 -110.5q0 -101 -68.5 -156.5t-187.5 -55.5q-115 0 -192 55zM342 908l137 -151h-108l-77 87l-77 -87h-105l137 151h93z" />
    <glyph glyph-name="scircumflex" unicode="&#x15d;" horiz-adv-x="476" 
d="M91.5 31q-58.5 42 -77.5 118l103 15q25 -80 127 -80q44 0 69.5 15t25.5 46q0 32 -29 46t-88 25q-58 12 -94.5 25t-62.5 43.5t-26 83.5q0 66 55.5 106.5t142.5 40.5q85 0 138.5 -39t70.5 -110l-98 -15q-9 36 -39 54.5t-74 18.5q-38 0 -61 -14t-23 -42q0 -31 28 -44t88 -25
q58 -12 95 -25t63.5 -44t26.5 -85q0 -72 -56.5 -114t-151.5 -42q-94 0 -152.5 42zM278 723l135 -156h-99l-80 94l-80 -94h-98l135 156h87z" />
    <glyph glyph-name="Scedilla" unicode="&#x15e;" horiz-adv-x="593" 
d="M501.5 50q-62.5 -55 -171.5 -60l-9 -28q32 -5 52.5 -27t20.5 -55q0 -39 -26 -63.5t-72 -24.5q-44 0 -80 22l20 57q24 -12 47 -12q36 0 36 28q0 30 -39 30h-24v20l16 53q-101 8 -168.5 62.5t-89.5 147.5l109 17q42 -122 183 -122q64 0 100.5 25.5t36.5 77.5q0 34 -21.5 55
t-54 33t-87.5 25q-75 19 -121 38t-78.5 59.5t-32.5 108.5q0 59 31.5 103t88 67.5t127.5 23.5q105 0 173 -50t90 -141l-107 -16q-31 104 -156 104q-57 0 -92 -22.5t-35 -68.5q0 -33 21 -54t53.5 -32t87.5 -24q74 -18 121 -36.5t80 -59t33 -110.5q0 -96 -62.5 -151z" />
    <glyph glyph-name="scedilla" unicode="&#x15f;" horiz-adv-x="476" 
d="M403.5 37q-48.5 -41 -131.5 -47l-10 -28q32 -5 52.5 -27t20.5 -55q0 -39 -26 -63.5t-72 -24.5q-44 0 -80 22l20 57q24 -12 47 -12q36 0 36 28q0 30 -39 30h-24v20l16 53q-80 7 -130.5 48t-68.5 111l103 15q25 -80 127 -80q44 0 69.5 15t25.5 46q0 32 -29 46t-88 25
q-58 12 -94.5 25t-62.5 43.5t-26 83.5q0 66 55.5 106.5t142.5 40.5q85 0 138.5 -39t70.5 -110l-98 -15q-9 36 -39 54.5t-74 18.5q-38 0 -61 -14t-23 -42q0 -31 28 -44t88 -25q58 -12 95 -25t63.5 -44t26.5 -85q0 -67 -48.5 -108z" />
    <glyph glyph-name="Scaron" unicode="&#x160;" horiz-adv-x="593" 
d="M116 44q-77 55 -102 156l109 17q42 -122 183 -122q64 0 100.5 25.5t36.5 77.5q0 34 -21.5 55t-54 33t-87.5 25q-75 19 -121 38t-78.5 59.5t-32.5 108.5q0 59 31.5 103t88 67.5t127.5 23.5q105 0 173 -50t90 -141l-107 -16q-31 104 -156 104q-57 0 -92 -22.5t-35 -68.5
q0 -33 21 -54t53.5 -32t87.5 -24q74 -18 121 -36.5t80 -59t33 -110.5q0 -101 -68.5 -156.5t-187.5 -55.5q-115 0 -192 55zM297 821l77 87h105l-137 -151h-93l-137 151h108z" />
    <glyph glyph-name="scaron" unicode="&#x161;" horiz-adv-x="476" 
d="M91.5 31q-58.5 42 -77.5 118l103 15q25 -80 127 -80q44 0 69.5 15t25.5 46q0 32 -29 46t-88 25q-58 12 -94.5 25t-62.5 43.5t-26 83.5q0 66 55.5 106.5t142.5 40.5q85 0 138.5 -39t70.5 -110l-98 -15q-9 36 -39 54.5t-74 18.5q-38 0 -61 -14t-23 -42q0 -31 28 -44t88 -25
q58 -12 95 -25t63.5 -44t26.5 -85q0 -72 -56.5 -114t-151.5 -42q-94 0 -152.5 42zM236 629l79 94h98l-135 -156h-87l-135 156h100z" />
    <glyph glyph-name="uni0162" unicode="&#x162;" horiz-adv-x="592" 
d="M356 0h-32l-13 -38q32 -5 52.5 -27t20.5 -55q0 -39 -26 -63.5t-72 -24.5q-44 0 -80 22l20 57q24 -12 47 -12q36 0 36 28q0 30 -39 30h-24v20l19 63h-29v595h-226v105h572v-105h-226v-595z" />
    <glyph glyph-name="uni0163" unicode="&#x163;" horiz-adv-x="386" 
d="M366 0h-106l-13 -38q32 -5 52.5 -27t20.5 -55q0 -39 -26 -63.5t-72 -24.5q-44 0 -80 22l20 57q24 -12 47 -12q36 0 36 28q0 30 -39 30h-24v20l20 66q-49 8 -74.5 43.5t-25.5 97.5v270h-98v91h100l44 133h68v-133h145v-91h-145v-260q0 -29 11.5 -42t38.5 -13h100v-99z" />
    <glyph glyph-name="Tcaron" unicode="&#x164;" horiz-adv-x="592" 
d="M356 0h-120v595h-226v105h572v-105h-226v-595zM298 821l77 87h105l-137 -151h-93l-137 151h108z" />
    <glyph glyph-name="tcaron" unicode="&#x165;" horiz-adv-x="386" 
d="M236 0q-134 0 -134 144v270h-98v91h100l44 133h68v-484q0 -29 11.5 -42t38.5 -13h100v-99h-130zM336 453h-58v20l42 72h-52v93h97v-92z" />
    <glyph glyph-name="Tbar" unicode="&#x166;" horiz-adv-x="592" 
d="M582 700v-105h-226v-196h144v-95h-144v-304h-120v304h-144v95h144v196h-226v105h572z" />
    <glyph glyph-name="tbar" unicode="&#x167;" horiz-adv-x="396" 
d="M371 99v-99h-130q-134 0 -134 144v99h-93v75h93v96h-98v91h100l44 133h68v-133h145v-91h-145v-96h138v-75h-138v-89q0 -29 11.5 -42t38.5 -13h100z" />
    <glyph glyph-name="Utilde" unicode="&#x168;" horiz-adv-x="681" 
d="M196 24.5q-62 35.5 -95.5 102t-33.5 157.5v416h120v-411q0 -93 40 -142t114 -49t113.5 49t39.5 142v411h120v-416q0 -91 -33.5 -157.5t-95 -102t-144.5 -35.5t-145 35.5zM169 778q0 51 25.5 82t70.5 31q23 0 41.5 -7t41.5 -20q19 -11 31 -16t26 -5q31 0 31 37v11h76v-14
q0 -51 -25.5 -82t-70.5 -31q-23 0 -41.5 7t-41.5 20q-20 11 -32 16t-26 5q-30 0 -30 -37v-11h-76v14z" />
    <glyph glyph-name="utilde" unicode="&#x169;" horiz-adv-x="553" 
d="M97 41.5q-45 52.5 -45 142.5v321h114v-299q0 -56 24 -87t69 -31q52 0 87.5 40.5t35.5 99.5v277h114v-505h-104v89h-5q-67 -100 -168 -100q-77 0 -122 52.5zM108 592q0 49 25.5 79t69.5 30q22 0 38.5 -6.5t40.5 -19.5q21 -11 32 -15.5t23 -4.5q30 0 30 36v10h74v-13
q0 -50 -25.5 -79.5t-69.5 -29.5q-22 0 -39.5 6.5t-39.5 18.5q-17 10 -29.5 15t-25.5 5q-30 0 -30 -35v-10h-74v13z" />
    <glyph glyph-name="Umacron" unicode="&#x16a;" horiz-adv-x="681" 
d="M196 24.5q-62 35.5 -95.5 102t-33.5 157.5v416h120v-411q0 -93 40 -142t114 -49t113.5 49t39.5 142v411h120v-416q0 -91 -33.5 -157.5t-95 -102t-144.5 -35.5t-145 35.5zM506 787h-331v80h331v-80z" />
    <glyph glyph-name="umacron" unicode="&#x16b;" horiz-adv-x="553" 
d="M97 41.5q-45 52.5 -45 142.5v321h114v-299q0 -56 24 -87t69 -31q52 0 87.5 40.5t35.5 99.5v277h114v-505h-104v89h-5q-67 -100 -168 -100q-77 0 -122 52.5zM434 602h-320v75h320v-75z" />
    <glyph glyph-name="Ubreve" unicode="&#x16c;" horiz-adv-x="681" 
d="M196 24.5q-62 35.5 -95.5 102t-33.5 157.5v416h120v-411q0 -93 40 -142t114 -49t113.5 49t39.5 142v411h120v-416q0 -91 -33.5 -157.5t-95 -102t-144.5 -35.5t-145 35.5zM223 797.5q-44 40.5 -44 107.5h85q0 -33 20.5 -52.5t56.5 -19.5t56.5 19.5t20.5 52.5h85
q0 -67 -44 -107.5t-118 -40.5t-118 40.5z" />
    <glyph glyph-name="ubreve" unicode="&#x16d;" horiz-adv-x="553" 
d="M97 41.5q-45 52.5 -45 142.5v321h114v-299q0 -56 24 -87t69 -31q52 0 87.5 40.5t35.5 99.5v277h114v-505h-104v89h-5q-67 -100 -168 -100q-77 0 -122 52.5zM160 607q-43 40 -43 107h82q0 -36 19.5 -55.5t55.5 -19.5t56 19.5t20 55.5h81q0 -67 -43 -107t-114 -40t-114 40z
" />
    <glyph glyph-name="Uring" unicode="&#x16e;" horiz-adv-x="681" 
d="M196 24.5q-62 35.5 -95.5 102t-33.5 157.5v416h120v-411q0 -93 40 -142t114 -49t113.5 49t39.5 142v411h120v-416q0 -91 -33.5 -157.5t-95 -102t-144.5 -35.5t-145 35.5zM262.5 767q-31.5 30 -31.5 76t31.5 76t78.5 30q46 0 77.5 -30.5t31.5 -75.5t-31.5 -75.5
t-77.5 -30.5q-47 0 -78.5 30zM372 810q12 12 12 33t-12 33.5t-31 12.5q-20 0 -32 -12.5t-12 -33.5t12 -33t32 -12q19 0 31 12z" />
    <glyph glyph-name="uring" unicode="&#x16f;" horiz-adv-x="553" 
d="M97 41.5q-45 52.5 -45 142.5v321h114v-299q0 -56 24 -87t69 -31q52 0 87.5 40.5t35.5 99.5v277h114v-505h-104v89h-5q-67 -100 -168 -100q-77 0 -122 52.5zM198.5 581.5q-30.5 29.5 -30.5 74.5t30.5 75t75.5 30t75.5 -30t30.5 -75t-30.5 -74.5t-75.5 -29.5t-75.5 29.5z
M304.5 623q11.5 12 11.5 33t-11.5 33.5t-30.5 12.5t-30.5 -12.5t-11.5 -33.5t11.5 -33t30.5 -12t30.5 12z" />
    <glyph glyph-name="Uhungarumlaut" unicode="&#x170;" horiz-adv-x="681" 
d="M196 24.5q-62 35.5 -95.5 102t-33.5 157.5v416h120v-411q0 -93 40 -142t114 -49t113.5 49t39.5 142v411h120v-416q0 -91 -33.5 -157.5t-95 -102t-144.5 -35.5t-145 35.5zM264 757h-82l89 155h112v-7zM434 757h-83l89 155h113v-7z" />
    <glyph glyph-name="uhungarumlaut" unicode="&#x171;" horiz-adv-x="553" 
d="M97 41.5q-45 52.5 -45 142.5v321h114v-299q0 -56 24 -87t69 -31q52 0 87.5 40.5t35.5 99.5v277h114v-505h-104v89h-5q-67 -100 -168 -100q-77 0 -122 52.5zM204 567h-73l87 159h102v-6zM360 567h-74l87 159h103v-6z" />
    <glyph glyph-name="Uogonek" unicode="&#x172;" horiz-adv-x="681" 
d="M494 700h120v-416q0 -93 -31.5 -153.5t-88.5 -104.5q-46 -36 -66.5 -69t-20.5 -60q0 -35 32 -35q11 0 21 5l21 -58q-25 -17 -59 -17q-41 0 -67 23.5t-26 60.5q0 34 20 65.5t53 53.5q-29 -6 -61 -6q-83 0 -145 35.5t-95.5 102t-33.5 157.5v416h120v-411q0 -93 40 -142
t114 -49t113.5 49t39.5 142v411z" />
    <glyph glyph-name="uogonek" unicode="&#x173;" horiz-adv-x="553" 
d="M498 -191q-25 -17 -59 -17q-41 0 -67 23.5t-26 60.5t24 69t63 55h-41v89h-5q-67 -100 -168 -100q-77 0 -122 52.5t-45 142.5v321h114v-299q0 -56 24 -87t69 -31q52 0 87.5 40.5t35.5 99.5v277h114v-505q-36 -31 -54 -56t-18 -49q0 -33 32 -33q11 0 21 5z" />
    <glyph glyph-name="Wcircumflex" unicode="&#x174;" horiz-adv-x="971" 
d="M348 0h-164l-172 700h120l136 -580h5l146 580h137l147 -580h5l136 580h115l-172 -700h-161l-137 541h-5zM535 908l137 -151h-108l-77 87l-77 -87h-105l137 151h93z" />
    <glyph glyph-name="wcircumflex" unicode="&#x175;" horiz-adv-x="768" 
d="M286 0h-147l-132 505h113l94 -396h5l102 396h130l102 -396h5l94 396h109l-132 -505h-144l-97 376h-5zM429 723l135 -156h-99l-80 94l-80 -94h-98l135 156h87z" />
    <glyph glyph-name="Ycircumflex" unicode="&#x176;" horiz-adv-x="582" 
d="M351 0h-120v254l-236 446h130l166 -324h5l166 324h124l-235 -446v-254zM340 908l137 -151h-108l-77 87l-77 -87h-105l137 151h93z" />
    <glyph glyph-name="ycircumflex" unicode="&#x177;" horiz-adv-x="503" 
d="M257 92l131 413h113l-234 -705h-105l66 200h-55l-171 505h117l133 -413h5zM297 723l135 -156h-99l-80 94l-80 -94h-98l135 156h87z" />
    <glyph glyph-name="Ydieresis" unicode="&#x178;" horiz-adv-x="582" 
d="M351 0h-120v254l-236 446h130l166 -324h5l166 324h124l-235 -446v-254zM249 773h-113v110h113v-110zM452 773h-112v110h112v-110z" />
    <glyph glyph-name="Zacute" unicode="&#x179;" horiz-adv-x="570" 
d="M547 0h-522v112l366 476v5h-351v107h490v-112l-366 -476v-5h383v-107zM312 757h-92l91 155h123v-7z" />
    <glyph glyph-name="zacute" unicode="&#x17a;" horiz-adv-x="463" 
d="M438 0h-413v101l266 301v5h-256v98h392v-101l-267 -301v-5h278v-98zM256 567h-85l93 159h116v-6z" />
    <glyph glyph-name="Zdotaccent" unicode="&#x17b;" horiz-adv-x="570" 
d="M547 0h-522v112l366 476v5h-351v107h490v-112l-366 -476v-5h383v-107zM344 773h-117v110h117v-110z" />
    <glyph glyph-name="zdotaccent" unicode="&#x17c;" horiz-adv-x="463" 
d="M438 0h-413v101l266 301v5h-256v98h392v-101l-267 -301v-5h278v-98zM287 587h-112v105h112v-105z" />
    <glyph glyph-name="Zcaron" unicode="&#x17d;" horiz-adv-x="570" 
d="M547 0h-522v112l366 476v5h-351v107h490v-112l-366 -476v-5h383v-107zM287 821l77 87h105l-137 -151h-93l-137 151h108z" />
    <glyph glyph-name="zcaron" unicode="&#x17e;" horiz-adv-x="463" 
d="M438 0h-413v101l266 301v5h-256v98h392v-101l-267 -301v-5h278v-98zM233 629l79 94h98l-135 -156h-87l-135 156h100z" />
    <glyph glyph-name="uni018F" unicode="&#x18f;" horiz-adv-x="732" 
d="M531 665.5q76 -45.5 117.5 -127.5t41.5 -188t-42 -188t-117.5 -127.5t-172.5 -45.5t-169.5 44t-112 120.5t-39.5 171.5q0 31 7 61h524q-9 102 -64 159t-146 57q-63 0 -109 -29.5t-71 -89.5l-116 17q36 102 113 156.5t182 54.5q98 0 174 -45.5zM499 150q55 54 67 148h-410
q10 -97 63 -149.5t139 -52.5t141 54z" />
    <glyph glyph-name="florin" unicode="&#x191;" horiz-adv-x="430" 
d="M346 609q-24 0 -37.5 -13.5t-18.5 -43.5l-18 -102h117v-88h-133l-75 -425q-12 -69 -45.5 -103t-92.5 -34h-98v94h69q24 0 37.5 13.5t18.5 43.5l73 411h-103v88h118l20 113q12 69 46 103t92 34h109v-91h-79z" />
    <glyph glyph-name="florin" unicode="&#x192;" horiz-adv-x="430" 
d="M346 609q-24 0 -37.5 -13.5t-18.5 -43.5l-18 -102h117v-88h-133l-75 -425q-12 -69 -45.5 -103t-92.5 -34h-98v94h69q24 0 37.5 13.5t18.5 43.5l73 411h-103v88h118l20 113q12 69 46 103t92 34h109v-91h-79z" />
    <glyph glyph-name="uni01C4" unicode="&#x1c4;" horiz-adv-x="1247" 
d="M72 0v700h234q103 0 182 -44.5t122 -124t43 -181.5t-43 -181.5t-122 -124t-182 -44.5h-234zM303 107q105 0 167 66t62 177t-62 177t-167 66h-111v-486h111zM1224 0h-522v112l366 476v5h-351v107h490v-112l-366 -476v-5h383v-107zM964 821l77 87h105l-137 -151h-93
l-137 151h108z" />
    <glyph glyph-name="uni01C5" unicode="&#x1c5;" horiz-adv-x="1150" 
d="M72 0v700h234q103 0 182 -44.5t122 -124t43 -181.5t-43 -181.5t-122 -124t-182 -44.5h-234zM303 107q105 0 167 66t62 177t-62 177t-167 66h-111v-486h111zM1125 0h-413v101l266 301v5h-256v98h392v-101l-267 -301v-5h278v-98zM920 629l79 94h98l-135 -156h-87l-135 156
h100z" />
    <glyph glyph-name="uni01C6" unicode="&#x1c6;" horiz-adv-x="1054" 
d="M133.5 22q-49.5 33 -77 93t-27.5 137q0 78 27.5 137.5t76.5 92.5t111 33q54 0 98.5 -24t68.5 -67h5v276h113v-700h-104v89h-5q-29 -48 -73.5 -74t-100.5 -26q-63 0 -112.5 33zM376.5 132q39.5 45 39.5 120t-39.5 120.5t-102.5 45.5q-61 0 -96.5 -44.5t-35.5 -121.5
t35.5 -121t96.5 -44q63 0 102.5 45zM1029 0h-413v101l266 301v5h-256v98h392v-101l-267 -301v-5h278v-98zM824 629l79 94h98l-135 -156h-87l-135 156h100z" />
    <glyph glyph-name="uni01C7" unicode="&#x1c7;" horiz-adv-x="1025" 
d="M507 0h-435v700h120v-593h315v-107zM593.5 45q-60.5 53 -76.5 147l110 16q20 -107 116 -107t96 121v478h120v-478q0 -108 -56.5 -169t-156.5 -61q-92 0 -152.5 53z" />
    <glyph glyph-name="uni01C8" unicode="&#x1c8;" horiz-adv-x="752" 
d="M507 0h-435v700h120v-593h315v-107zM480 -200v96h48q28 0 39.5 12.5t11.5 42.5v554h111v-562q0 -143 -133 -143h-77zM691 587h-112v105h112v-105z" />
    <glyph glyph-name="uni01C9" unicode="&#x1c9;" horiz-adv-x="473" 
d="M176 0h-114v700h114v-700zM201 -200v96h48q28 0 39.5 12.5t11.5 42.5v554h111v-562q0 -143 -133 -143h-77zM412 587h-112v105h112v-105z" />
    <glyph glyph-name="uni01CA" unicode="&#x1ca;" horiz-adv-x="1215" 
d="M188 0h-116v700h133l308 -522h5v522h116v-700h-133l-308 522h-5v-522zM782.5 45q-60.5 53 -76.5 147l110 16q20 -107 116 -107t96 121v478h120v-478q0 -108 -56.5 -169t-156.5 -61q-92 0 -152.5 53z" />
    <glyph glyph-name="uni01CB" unicode="&#x1cb;" horiz-adv-x="941" 
d="M188 0h-116v700h133l308 -522h5v522h116v-700h-133l-308 522h-5v-522zM669 -200v96h48q28 0 39.5 12.5t11.5 42.5v554h111v-562q0 -143 -133 -143h-77zM880 587h-112v105h112v-105z" />
    <glyph glyph-name="uni01CC" unicode="&#x1cc;" horiz-adv-x="793" 
d="M57 0v505h106v-87h5q65 97 169 97q78 0 123.5 -52t45.5 -142v-321h-114v299q0 56 -24.5 86.5t-70.5 30.5q-54 0 -90 -40t-36 -99v-277h-114zM521 -200v96h48q28 0 39.5 12.5t11.5 42.5v554h111v-562q0 -143 -133 -143h-77zM732 587h-112v105h112v-105z" />
    <glyph glyph-name="uni01CD" unicode="&#x1cd;" horiz-adv-x="631" 
d="M624 0h-120l-53 167h-274l-53 -167h-117l231 700h155zM311 594l-103 -328h212l-104 328h-5zM317 821l77 87h105l-137 -151h-93l-137 151h108z" />
    <glyph glyph-name="uni01CE" unicode="&#x1ce;" horiz-adv-x="534" 
d="M519 88v-88q-24 -2 -42 -2q-49 0 -74 24.5t-25 70.5v2h-5q-29 -52 -75 -79t-102 -27q-72 0 -119.5 41.5t-47.5 109.5q0 48 25 85t69.5 57.5t101.5 20.5h135v16q0 50 -26 76.5t-76 26.5q-89 0 -116 -77l-98 14q19 73 74 114.5t142 41.5q100 0 155.5 -53t55.5 -142v-197
q0 -19 7 -27t23 -8h18zM320 121q40 37 40 96v9h-122q-43 0 -70 -19.5t-27 -55.5q0 -32 21.5 -49.5t59.5 -17.5q58 0 98 37zM259 629l79 94h98l-135 -156h-87l-135 156h100z" />
    <glyph glyph-name="uni01D3" unicode="&#x1d3;" horiz-adv-x="681" 
d="M196 24.5q-62 35.5 -95.5 102t-33.5 157.5v416h120v-411q0 -93 40 -142t114 -49t113.5 49t39.5 142v411h120v-416q0 -91 -33.5 -157.5t-95 -102t-144.5 -35.5t-145 35.5zM342 821l77 87h105l-137 -151h-93l-137 151h108z" />
    <glyph glyph-name="uni01D4" unicode="&#x1d4;" horiz-adv-x="553" 
d="M97 41.5q-45 52.5 -45 142.5v321h114v-299q0 -56 24 -87t69 -31q52 0 87.5 40.5t35.5 99.5v277h114v-505h-104v89h-5q-67 -100 -168 -100q-77 0 -122 52.5zM276 629l79 94h98l-135 -156h-87l-135 156h100z" />
    <glyph glyph-name="Gcaron" unicode="&#x1e6;" horiz-adv-x="761" 
d="M417 366h282v-366h-71l-18 116q-35 -63 -94.5 -95t-138.5 -32q-96 0 -172.5 45.5t-119.5 127.5t-43 188t43 188t120.5 127.5t179.5 45.5q113 0 192 -57.5t111 -163.5l-113 -16q-22 62 -71 95t-119 33q-102 0 -161.5 -68.5t-59.5 -183.5q0 -77 27 -134t76 -87.5t114 -30.5
q84 0 139.5 48t58.5 130h-162v90zM377 821l77 87h105l-137 -151h-93l-137 151h108z" />
    <glyph glyph-name="gcaron" unicode="&#x1e7;" horiz-adv-x="581" 
d="M116 -159q-64 44 -84 122l103 15q13 -41 50 -63t91 -22q135 0 135 149v62h-5q-24 -41 -66.5 -65t-96.5 -24q-62 0 -110.5 32t-76 89t-27.5 129q0 71 27.5 128t76.5 89.5t111 32.5q54 0 98 -25t72 -71h5v86h105v-460q0 -117 -66 -182.5t-182 -65.5q-96 0 -160 44z
M372 152.5q39 43.5 39 111.5q0 69 -38.5 112t-100.5 43q-59 0 -94.5 -42t-35.5 -113t35.5 -113t94.5 -42q61 0 100 43.5zM271 629l79 94h98l-135 -156h-87l-135 156h100z" />
    <glyph glyph-name="uni01F1" unicode="&#x1f1;" horiz-adv-x="1247" 
d="M72 0v700h234q103 0 182 -44.5t122 -124t43 -181.5t-43 -181.5t-122 -124t-182 -44.5h-234zM303 107q105 0 167 66t62 177t-62 177t-167 66h-111v-486h111zM1224 0h-522v112l366 476v5h-351v107h490v-112l-366 -476v-5h383v-107z" />
    <glyph glyph-name="uni01F2" unicode="&#x1f2;" horiz-adv-x="1150" 
d="M72 0v700h234q103 0 182 -44.5t122 -124t43 -181.5t-43 -181.5t-122 -124t-182 -44.5h-234zM303 107q105 0 167 66t62 177t-62 177t-167 66h-111v-486h111zM1125 0h-413v101l266 301v5h-256v98h392v-101l-267 -301v-5h278v-98z" />
    <glyph glyph-name="uni01F3" unicode="&#x1f3;" horiz-adv-x="1054" 
d="M133.5 22q-49.5 33 -77 93t-27.5 137q0 78 27.5 137.5t76.5 92.5t111 33q54 0 98.5 -24t68.5 -67h5v276h113v-700h-104v89h-5q-29 -48 -73.5 -74t-100.5 -26q-63 0 -112.5 33zM376.5 132q39.5 45 39.5 120t-39.5 120.5t-102.5 45.5q-61 0 -96.5 -44.5t-35.5 -121.5
t35.5 -121t96.5 -44q63 0 102.5 45zM1029 0h-413v101l266 301v5h-256v98h392v-101l-267 -301v-5h278v-98z" />
    <glyph glyph-name="uni01F4" unicode="&#x1f4;" horiz-adv-x="761" 
d="M417 366h282v-366h-71l-18 116q-35 -63 -94.5 -95t-138.5 -32q-96 0 -172.5 45.5t-119.5 127.5t-43 188t43 188t120.5 127.5t179.5 45.5q113 0 192 -57.5t111 -163.5l-113 -16q-22 62 -71 95t-119 33q-102 0 -161.5 -68.5t-59.5 -183.5q0 -77 27 -134t76 -87.5t114 -30.5
q84 0 139.5 48t58.5 130h-162v90zM402 757h-92l91 155h123v-7z" />
    <glyph glyph-name="uni01F5" unicode="&#x1f5;" horiz-adv-x="581" 
d="M116 -159q-64 44 -84 122l103 15q13 -41 50 -63t91 -22q135 0 135 149v62h-5q-24 -41 -66.5 -65t-96.5 -24q-62 0 -110.5 32t-76 89t-27.5 129q0 71 27.5 128t76.5 89.5t111 32.5q54 0 98 -25t72 -71h5v86h105v-460q0 -117 -66 -182.5t-182 -65.5q-96 0 -160 44z
M372 152.5q39 43.5 39 111.5q0 69 -38.5 112t-100.5 43q-59 0 -94.5 -42t-35.5 -113t35.5 -113t94.5 -42q61 0 100 43.5zM294 567h-85l93 159h116v-6z" />
    <glyph glyph-name="Aringacute" unicode="&#x1fa;" horiz-adv-x="631" 
d="M624 0h-120l-53 167h-274l-53 -167h-117l231 700h155zM311 594l-103 -328h212l-104 328h-5zM237.5 762q-31.5 30 -31.5 76q0 36 21.5 63.5t55.5 36.5l35 70h87v-6l-49 -67q31 -12 50 -37t19 -60q0 -45 -31.5 -75.5t-77.5 -30.5q-47 0 -78.5 30zM347 805q12 12 12 33
t-12 33.5t-31 12.5q-20 0 -32 -12.5t-12 -33.5t12 -33t32 -12q19 0 31 12z" />
    <glyph glyph-name="aringacute" unicode="&#x1fb;" horiz-adv-x="534" 
d="M519 88v-88q-24 -2 -42 -2q-49 0 -74 24.5t-25 70.5v2h-5q-29 -52 -75 -79t-102 -27q-72 0 -119.5 41.5t-47.5 109.5q0 48 25 85t69.5 57.5t101.5 20.5h135v16q0 50 -26 76.5t-76 26.5q-89 0 -116 -77l-98 14q19 73 74 114.5t142 41.5q100 0 155.5 -53t55.5 -142v-197
q0 -19 7 -27t23 -8h18zM320 121q40 37 40 96v9h-122q-43 0 -70 -19.5t-27 -55.5q0 -32 21.5 -49.5t59.5 -17.5q58 0 98 37zM181.5 580q-30.5 30 -30.5 75q0 36 21.5 63.5t55.5 36.5l40 83h83v-7l-56 -79q30 -11 49 -37t19 -60q0 -45 -30.5 -75t-75.5 -30t-75.5 30z
M287.5 621.5q11.5 12.5 11.5 33.5t-11.5 33t-30.5 12t-30.5 -12t-11.5 -33t11.5 -33.5t30.5 -12.5t30.5 12.5z" />
    <glyph glyph-name="AEacute" unicode="&#x1fc;" horiz-adv-x="925" 
d="M550 304v-200h323v-104h-436v170h-237l-84 -170h-124l354 700h522v-104h-318v-191h283v-101h-283zM410 596l-161 -327h188v327h-27zM531 757h-92l91 155h123v-7z" />
    <glyph glyph-name="aeacute" unicode="&#x1fd;" horiz-adv-x="864" 
d="M831 223h-360q7 -65 43 -101.5t92 -36.5q36 0 67 17.5t48 48.5l99 -14q-24 -69 -81.5 -108.5t-132.5 -39.5q-64 0 -115 28t-77 76q-31 -49 -82.5 -76.5t-117.5 -27.5q-86 0 -135.5 40.5t-49.5 111.5q0 47 25 83.5t69.5 57t101.5 20.5h137v18q0 49 -26.5 75.5t-77.5 26.5
q-90 0 -115 -76l-99 15q20 71 75 112.5t139 41.5q58 0 102.5 -21.5t68.5 -60.5q29 39 74.5 60.5t97.5 21.5q66 0 119.5 -31.5t84.5 -88.5t31 -129q0 -18 -5 -43zM517.5 390.5q-34.5 -31.5 -44.5 -88.5h256q-9 56 -43.5 88t-84.5 32q-49 0 -83.5 -31.5zM322 121q40 37 40 96
v6h-123q-44 0 -71 -19t-27 -53q0 -32 21.5 -49.5t60.5 -17.5q59 0 99 37zM452 567h-85l93 159h116v-6z" />
    <glyph glyph-name="Oslashacute" unicode="&#x1fe;" horiz-adv-x="747" 
d="M594 630q53 -49 82 -120.5t29 -159.5q0 -106 -41.5 -188t-117 -127.5t-173.5 -45.5q-78 0 -145 31l-37 -62h-105l67 112q-53 49 -82 120.5t-29 159.5q0 106 41.5 188t117 127.5t172.5 45.5q79 0 146 -31l37 62h105zM261 572.5q-48 -31.5 -73.5 -88.5t-25.5 -134
q0 -111 53 -180l248 415q-41 19 -90 19q-64 0 -112 -31.5zM486 127.5q48 31.5 73.5 88.5t25.5 134q0 111 -53 180l-249 -415q43 -19 90 -19q65 0 113 31.5zM400 757h-92l91 155h123v-7z" />
    <glyph glyph-name="oslashacute" unicode="&#x1ff;" horiz-adv-x="555" 
d="M441 457q41 -36 63 -88.5t22 -116.5q0 -76 -31.5 -136t-88 -93.5t-129.5 -33.5q-54 0 -102 20l-27 -46h-84l50 84q-40 36 -62.5 88.5t-22.5 116.5q0 77 31.5 136.5t87.5 93t129 33.5q55 0 103 -20l28 46h84zM176 374.5q-37 -44.5 -37 -122.5q0 -72 32 -115l162 271
q-27 11 -56 11q-64 0 -101 -44.5zM378.5 130q37.5 45 37.5 122q0 70 -31 115l-162 -272q27 -10 54 -10q64 0 101.5 45zM301 567h-85l93 159h116v-6z" />
    <glyph glyph-name="uni0218" unicode="&#x218;" horiz-adv-x="593" 
d="M116 44q-77 55 -102 156l109 17q42 -122 183 -122q64 0 100.5 25.5t36.5 77.5q0 34 -21.5 55t-54 33t-87.5 25q-75 19 -121 38t-78.5 59.5t-32.5 108.5q0 59 31.5 103t88 67.5t127.5 23.5q105 0 173 -50t90 -141l-107 -16q-31 104 -156 104q-57 0 -92 -22.5t-35 -68.5
q0 -33 21 -54t53.5 -32t87.5 -24q74 -18 121 -36.5t80 -59t33 -110.5q0 -101 -68.5 -156.5t-187.5 -55.5q-115 0 -192 55zM326 -249h-62v20l44 73h-56v92h106v-91z" />
    <glyph glyph-name="uni0219" unicode="&#x219;" horiz-adv-x="476" 
d="M91.5 31q-58.5 42 -77.5 118l103 15q25 -80 127 -80q44 0 69.5 15t25.5 46q0 32 -29 46t-88 25q-58 12 -94.5 25t-62.5 43.5t-26 83.5q0 66 55.5 106.5t142.5 40.5q85 0 138.5 -39t70.5 -110l-98 -15q-9 36 -39 54.5t-74 18.5q-38 0 -61 -14t-23 -42q0 -31 28 -44t88 -25
q58 -12 95 -25t63.5 -44t26.5 -85q0 -72 -56.5 -114t-151.5 -42q-94 0 -152.5 42zM267 -249h-62v20l44 73h-56v92h106v-91z" />
    <glyph glyph-name="uni021A" unicode="&#x21a;" horiz-adv-x="592" 
d="M356 0h-120v595h-226v105h572v-105h-226v-595zM317 -249h-62v20l44 73h-56v92h106v-91z" />
    <glyph glyph-name="uni021B" unicode="&#x21b;" horiz-adv-x="386" 
d="M236 0q-134 0 -134 144v270h-98v91h100l44 133h68v-133h145v-91h-145v-260q0 -29 11.5 -42t38.5 -13h100v-99h-130zM252 -249h-62v20l44 73h-56v92h106v-91z" />
    <glyph glyph-name="uni021E" unicode="&#x21e;" horiz-adv-x="696" 
d="M504 409v291h120v-700h-120v302h-312v-302h-120v700h120v-291h312zM350 821l77 87h105l-137 -151h-93l-137 151h108z" />
    <glyph glyph-name="uni021F" unicode="&#x21f;" horiz-adv-x="563" 
d="M62 0v700h114v-276h5q26 42 67.5 66.5t94.5 24.5q77 0 122.5 -52t45.5 -142v-321h-114v299q0 56 -24.5 86.5t-70.5 30.5q-54 0 -90 -40t-36 -99v-277h-114zM288 821l77 87h105l-137 -151h-93l-137 151h108z" />
    <glyph glyph-name="uni0232" unicode="&#x232;" horiz-adv-x="582" 
d="M351 0h-120v254l-236 446h130l166 -324h5l166 324h124l-235 -446v-254zM459 787h-331v80h331v-80z" />
    <glyph glyph-name="uni0233" unicode="&#x233;" horiz-adv-x="503" 
d="M257 92l131 413h113l-234 -705h-105l66 200h-55l-171 505h117l133 -413h5zM413 602h-320v75h320v-75z" />
    <glyph glyph-name="uni0237" unicode="&#x237;" horiz-adv-x="235" 
d="M-37 -200v96h48q28 0 39.5 12.5t11.5 42.5v554h111v-562q0 -143 -133 -143h-77z" />
    <glyph glyph-name="uni0244" unicode="&#x244;" horiz-adv-x="731" 
d="M731 481v-95h-92v-102q0 -91 -33.5 -157.5t-95 -102t-144.5 -35.5t-145 35.5t-95.5 102t-33.5 157.5v102h-92v95h92v219h120v-219h307v219h120v-219h92zM519 386h-307v-97q0 -93 40 -142t114 -49t113.5 49t39.5 142v97z" />
    <glyph glyph-name="uni0259" unicode="&#x259;" horiz-adv-x="538" 
d="M390.5 482q56.5 -33 88 -93t31.5 -137q0 -76 -31.5 -136t-87.5 -93.5t-127 -33.5q-69 0 -124 31.5t-85.5 88.5t-30.5 130q0 22 4 43h371q-7 65 -43 101t-94 36q-40 0 -70.5 -17t-46.5 -49l-101 15q25 70 82.5 108.5t135.5 38.5q72 0 128.5 -33zM352 113.5
q35 31.5 45 89.5h-266q8 -57 43.5 -89t89.5 -32q53 0 88 31.5z" />
    <glyph glyph-name="uni0289" unicode="&#x289;" horiz-adv-x="593" 
d="M593 357v-80h-77v-277h-104v89h-5q-67 -100 -168 -100q-77 0 -122 52.5t-45 142.5v93h-77v80h77v148h114v-148h216v148h114v-148h77zM402 277h-216v-71q0 -56 24 -87t69 -31q52 0 87.5 40.5t35.5 99.5v49z" />
    <glyph glyph-name="uni02BB" unicode="&#x2bb;" horiz-adv-x="217" 
d="M173 431h-129v128l37 141h83v-28l-70 -111h79v-130z" />
    <glyph glyph-name="uni02BC" unicode="&#x2bc;" horiz-adv-x="217" 
d="M135 431h-82v28l70 112h-79v129h129v-128z" />
    <glyph glyph-name="circumflex" unicode="&#x2c6;" horiz-adv-x="417" 
d="M252 723l135 -156h-99l-80 94l-80 -94h-98l135 156h87z" />
    <glyph glyph-name="caron" unicode="&#x2c7;" horiz-adv-x="417" 
d="M210 629l79 94h98l-135 -156h-87l-135 156h100z" />
    <glyph glyph-name="breve" unicode="&#x2d8;" horiz-adv-x="374" 
d="M73 607q-43 40 -43 107h82q0 -36 19.5 -55.5t55.5 -19.5t56 19.5t20 55.5h81q0 -67 -43 -107t-114 -40t-114 40z" />
    <glyph glyph-name="dotaccent" unicode="&#x2d9;" horiz-adv-x="172" 
d="M142 587h-112v105h112v-105z" />
    <glyph glyph-name="ring" unicode="&#x2da;" horiz-adv-x="272" 
d="M60.5 581.5q-30.5 29.5 -30.5 74.5t30.5 75t75.5 30t75.5 -30t30.5 -75t-30.5 -74.5t-75.5 -29.5t-75.5 29.5zM166.5 623q11.5 12 11.5 33t-11.5 33.5t-30.5 12.5t-30.5 -12.5t-11.5 -33.5t11.5 -33t30.5 -12t30.5 12z" />
    <glyph glyph-name="ogonek" unicode="&#x2db;" horiz-adv-x="212" 
d="M56 -184.5q-26 23.5 -26 60.5q0 43 31 79t80 57l39 -12q-36 -31 -54 -56t-18 -49q0 -33 32 -33q11 0 21 5l21 -58q-25 -17 -59 -17q-41 0 -67 23.5z" />
    <glyph glyph-name="tilde" unicode="&#x2dc;" horiz-adv-x="393" 
d="M30 592q0 49 25.5 79t69.5 30q22 0 38.5 -6.5t40.5 -19.5q21 -11 32 -15.5t23 -4.5q30 0 30 36v10h74v-13q0 -50 -25.5 -79.5t-69.5 -29.5q-22 0 -39.5 6.5t-39.5 18.5q-17 10 -29.5 15t-25.5 5q-30 0 -30 -35v-10h-74v13z" />
    <glyph glyph-name="hungarumlaut" unicode="&#x2dd;" horiz-adv-x="405" 
d="M103 567h-73l87 159h102v-6zM259 567h-74l87 159h103v-6z" />
    <glyph glyph-name="gravecomb" unicode="&#x300;" horiz-adv-x="0" 
d="M-30 567h-85l-124 153v6h116z" />
    <glyph glyph-name="acutecomb" unicode="&#x301;" horiz-adv-x="0" 
d="M-154 567h-85l93 159h116v-6z" />
    <glyph glyph-name="uni0302" unicode="&#x302;" horiz-adv-x="0" 
d="M-165 723l135 -156h-99l-80 94l-80 -94h-98l135 156h87z" />
    <glyph glyph-name="tildecomb" unicode="&#x303;" horiz-adv-x="0" 
d="M-363 592q0 49 25.5 79t69.5 30q22 0 38.5 -6.5t40.5 -19.5q21 -11 32 -15.5t23 -4.5q30 0 30 36v10h74v-13q0 -50 -25.5 -79.5t-69.5 -29.5q-22 0 -39.5 6.5t-39.5 18.5q-17 10 -29.5 15t-25.5 5q-30 0 -30 -35v-10h-74v13z" />
    <glyph glyph-name="uni0304" unicode="&#x304;" horiz-adv-x="0" 
d="M-30 602h-320v75h320v-75z" />
    <glyph glyph-name="uni0306" unicode="&#x306;" horiz-adv-x="0" 
d="M-301 607q-43 40 -43 107h82q0 -36 19.5 -55.5t55.5 -19.5t56 19.5t20 55.5h81q0 -67 -43 -107t-114 -40t-114 40z" />
    <glyph glyph-name="uni0307" unicode="&#x307;" horiz-adv-x="0" 
d="M-30 587h-112v105h112v-105z" />
    <glyph glyph-name="uni0308" unicode="&#x308;" horiz-adv-x="0" 
d="M-222 587h-106v105h106v-105zM-30 587h-106v105h106v-105z" />
    <glyph glyph-name="uni030A" unicode="&#x30a;" horiz-adv-x="0" 
d="M-211.5 581.5q-30.5 29.5 -30.5 74.5t30.5 75t75.5 30t75.5 -30t30.5 -75t-30.5 -74.5t-75.5 -29.5t-75.5 29.5zM-105.5 623q11.5 12 11.5 33t-11.5 33.5t-30.5 12.5t-30.5 -12.5t-11.5 -33.5t11.5 -33t30.5 -12t30.5 12z" />
    <glyph glyph-name="uni030B" unicode="&#x30b;" horiz-adv-x="0" 
d="M-302 567h-73l87 159h102v-6zM-146 567h-74l87 159h103v-6z" />
    <glyph glyph-name="uni030C" unicode="&#x30c;" horiz-adv-x="0" 
d="M-207 629l79 94h98l-135 -156h-87l-135 156h100z" />
    <glyph glyph-name="uni0312" unicode="&#x312;" horiz-adv-x="0" 
d="M-30 574h-106v90l32 93h62v-20l-44 -71h56v-92z" />
    <glyph glyph-name="dotbelowcomb" unicode="&#x323;" horiz-adv-x="0" 
d="M-30 -188h-109v105h109v-105z" />
    <glyph glyph-name="uni0326" unicode="&#x326;" horiz-adv-x="0" 
d="M-62 -249h-62v20l44 73h-56v92h106v-91z" />
    <glyph glyph-name="uni0327" unicode="&#x327;" horiz-adv-x="0" 
d="M-103 -38q32 -5 52.5 -27t20.5 -55q0 -39 -26 -63.5t-72 -24.5q-44 0 -80 22l20 57q24 -12 47 -12q36 0 36 28q0 30 -39 30h-24v20l26 85l58 -5z" />
    <glyph glyph-name="uni0328" unicode="&#x328;" horiz-adv-x="0" 
d="M-156 -184.5q-26 23.5 -26 60.5q0 43 31 79t80 57l39 -12q-36 -31 -54 -56t-18 -49q0 -33 32 -33q11 0 21 5l21 -58q-25 -17 -59 -17q-41 0 -67 23.5z" />
    <glyph glyph-name="uni0400" unicode="&#x400;" horiz-adv-x="579" 
d="M191 304v-200h336v-104h-455v700h450v-104h-331v-191h296v-101h-296zM362 757h-92l-122 148v7h123z" />
    <glyph glyph-name="uni0401" unicode="&#x401;" horiz-adv-x="579" 
d="M191 304v-200h336v-104h-455v700h450v-104h-331v-191h296v-101h-296zM252 773h-113v110h113v-110zM455 773h-112v110h112v-110z" />
    <glyph glyph-name="uni0402" unicode="&#x402;" horiz-adv-x="761" 
d="M595.5 417q56.5 -32 88.5 -92t32 -140q0 -81 -33 -142.5t-93 -94.5t-138 -33h-28v107h18q70 0 112 43.5t42 118.5q0 73 -40.5 115.5t-111.5 42.5q-37 0 -72.5 -11.5t-65.5 -32.5v-298h-120v599h-172v101h521v-101h-229v-197q35 23 76.5 35t84.5 12q72 0 128.5 -32z" />
    <glyph glyph-name="uni0403" unicode="&#x403;" horiz-adv-x="517" 
d="M192 0h-120v700h435v-105h-315v-595zM306 757h-92l91 155h123v-7z" />
    <glyph glyph-name="uni0404" unicode="&#x404;" horiz-adv-x="712" 
d="M680 215q-33 -109 -111 -167.5t-191 -58.5q-99 0 -175.5 45.5t-118.5 127.5t-42 188t42 188t118 127.5t175 45.5q111 0 188.5 -58.5t110.5 -167.5l-111 -16q-22 65 -71 100t-118 35q-87 0 -142 -53t-68 -146h272v-101h-273q11 -97 67 -152.5t145 -55.5q70 0 120 35
t72 100z" />
    <glyph glyph-name="uni0405" unicode="&#x405;" horiz-adv-x="593" 
d="M116 44q-77 55 -102 156l109 17q42 -122 183 -122q64 0 100.5 25.5t36.5 77.5q0 34 -21.5 55t-54 33t-87.5 25q-75 19 -121 38t-78.5 59.5t-32.5 108.5q0 59 31.5 103t88 67.5t127.5 23.5q105 0 173 -50t90 -141l-107 -16q-31 104 -156 104q-57 0 -92 -22.5t-35 -68.5
q0 -33 21 -54t53.5 -32t87.5 -24q74 -18 121 -36.5t80 -59t33 -110.5q0 -101 -68.5 -156.5t-187.5 -55.5q-115 0 -192 55z" />
    <glyph glyph-name="uni0406" unicode="&#x406;" horiz-adv-x="272" 
d="M195 0h-118v700h118v-700z" />
    <glyph glyph-name="uni0407" unicode="&#x407;" horiz-adv-x="272" 
d="M195 0h-118v700h118v-700zM106 773h-110v110h110v-110zM276 773h-110v110h110v-110z" />
    <glyph glyph-name="uni0408" unicode="&#x408;" horiz-adv-x="509" 
d="M76.5 45q-60.5 53 -76.5 147l110 16q20 -107 116 -107t96 121v478h120v-478q0 -108 -56.5 -169t-156.5 -61q-92 0 -152.5 53z" />
    <glyph glyph-name="uni0409" unicode="&#x409;" horiz-adv-x="1006" 
d="M725 432q71 0 126 -27t85 -76t30 -113q0 -63 -30 -112.5t-85 -76.5t-126 -27h-244v593h-217l-13 -275q-6 -125 -28 -195t-63 -99.5t-109 -29.5q-14 0 -25.5 1t-20.5 1v112h22q39 0 60 16t32.5 63t15.5 141l17 372h449v-268h124zM714 104q63 0 97.5 29t34.5 84t-34.5 84
t-97.5 29h-113v-226h113z" />
    <glyph glyph-name="uni040A" unicode="&#x40a;" horiz-adv-x="1011" 
d="M730 432q71 0 126 -27t85 -76t30 -113q0 -63 -30 -112.5t-85 -76.5t-126 -27h-244v325h-294v-325h-120v700h120v-268h294v268h120v-268h124zM719 104q63 0 97.5 29t34.5 84t-34.5 84t-97.5 29h-113v-226h113z" />
    <glyph glyph-name="uni040B" unicode="&#x40b;" horiz-adv-x="765" 
d="M594.5 420q54.5 -29 84.5 -84t30 -130v-206h-120v197q0 71 -37.5 108t-105.5 37q-38 0 -74 -11t-66 -33v-298h-120v599h-172v101h521v-101h-229v-197q35 23 77 35t86 12q71 0 125.5 -29z" />
    <glyph glyph-name="uni040C" unicode="&#x40c;" horiz-adv-x="627" 
d="M322 367l318 -367h-151l-297 345v-345h-120v700h120v-325l279 325h139zM350 757h-92l91 155h123v-7z" />
    <glyph glyph-name="uni040D" unicode="&#x40d;" horiz-adv-x="706" 
d="M201 0h-129v700h116v-523h5l312 523h129v-700h-116v523h-5zM419 757h-92l-122 148v7h123z" />
    <glyph glyph-name="uni040E" unicode="&#x40e;" horiz-adv-x="601" 
d="M320 324l160 376h119l-311 -700h-119l88 197l-260 503h129l189 -376h5zM178.5 797.5q-47.5 40.5 -47.5 107.5h85q0 -34 23 -53t64 -19t64 19t23 53h85q0 -67 -47.5 -107.5t-124.5 -40.5t-124.5 40.5z" />
    <glyph glyph-name="uni040F" unicode="&#x40f;" horiz-adv-x="681" 
d="M287 0h-215v700h120v-593h297v593h120v-700h-215v-155h-107v155z" />
    <glyph glyph-name="uni0410" unicode="&#x410;" horiz-adv-x="631" 
d="M624 0h-120l-53 167h-274l-53 -167h-117l231 700h155zM311 594l-103 -328h212l-104 328h-5z" />
    <glyph glyph-name="uni0411" unicode="&#x411;" horiz-adv-x="623" 
d="M341 438q70 0 125 -28t85 -78t30 -113t-30 -113t-85 -78t-125 -28h-269v700h457v-104h-337v-158h149zM329 104q64 0 98 30.5t34 86.5t-34 87t-98 31h-137v-235h137z" />
    <glyph glyph-name="uni0412" unicode="&#x412;" horiz-adv-x="653" 
d="M573 297.5q33 -43.5 33 -102.5q0 -56 -29 -100.5t-80 -69.5t-116 -25h-309v700h299q62 0 111 -24t76.5 -66.5t27.5 -94.5q0 -51 -27.5 -89.5t-79.5 -61.5q61 -23 94 -66.5zM191 599v-196h165q51 0 81 26t30 71q0 46 -30 72.5t-81 26.5h-165zM361 101q59 0 92 27.5
t33 77.5t-33 77.5t-92 27.5h-170v-210h170z" />
    <glyph glyph-name="uni0413" unicode="&#x413;" horiz-adv-x="517" 
d="M192 0h-120v700h435v-105h-315v-595z" />
    <glyph glyph-name="uni0414" unicode="&#x414;" horiz-adv-x="734" 
d="M616 107h96v-262h-107v155h-493v-155h-107v262h71q27 27 41.5 80t18.5 150l16 363h464v-593zM496 107v488h-232l-13 -264q-4 -91 -16.5 -140.5t-40.5 -83.5h302z" />
    <glyph glyph-name="uni0415" unicode="&#x415;" horiz-adv-x="579" 
d="M191 304v-200h336v-104h-455v700h450v-104h-331v-191h296v-101h-296z" />
    <glyph glyph-name="uni0416" unicode="&#x416;" horiz-adv-x="920" 
d="M641 367l292 -367h-144l-270 342v-342h-117v344l-271 -344h-144l292 367l-262 333h132l253 -323v323h117v-322l252 322h132z" />
    <glyph glyph-name="uni0417" unicode="&#x417;" horiz-adv-x="613" 
d="M535 296q34 -44 34 -105q0 -60 -33 -105.5t-92.5 -71t-136.5 -25.5q-116 0 -189 53t-97 151l110 16q36 -114 175 -114q67 0 105 27t38 79q0 51 -36.5 77.5t-99.5 26.5h-96v101h96q53 0 85.5 26.5t32.5 72.5q0 47 -35 74.5t-97 27.5q-58 0 -99 -26t-57 -80l-107 16
q23 92 92 143t173 51q73 0 129.5 -25t87.5 -69.5t31 -101.5q0 -52 -29 -92t-82 -61q63 -22 97 -66z" />
    <glyph glyph-name="uni0418" unicode="&#x418;" horiz-adv-x="706" 
d="M201 0h-129v700h116v-523h5l312 523h129v-700h-116v523h-5z" />
    <glyph glyph-name="uni0419" unicode="&#x419;" horiz-adv-x="706" 
d="M201 0h-129v700h116v-523h5l312 523h129v-700h-116v523h-5zM229.5 797.5q-47.5 40.5 -47.5 107.5h85q0 -34 23 -53t64 -19t64 19t23 53h85q0 -67 -47.5 -107.5t-124.5 -40.5t-124.5 40.5z" />
    <glyph glyph-name="uni041A" unicode="&#x41a;" horiz-adv-x="627" 
d="M322 367l318 -367h-151l-297 345v-345h-120v700h120v-325l279 325h139z" />
    <glyph glyph-name="uni041B" unicode="&#x41b;" horiz-adv-x="693" 
d="M152 700h469v-700h-120v593h-237l-13 -275q-6 -125 -28 -195t-63 -99.5t-109 -29.5q-14 0 -25.5 1t-20.5 1v112h22q39 0 60 16t32.5 63t15.5 141z" />
    <glyph glyph-name="uni041C" unicode="&#x41c;" horiz-adv-x="897" 
d="M188 0h-116v700h165l212 -565h5l211 565h160v-700h-116v534h-5l-200 -534h-111l-200 534h-5v-534z" />
    <glyph glyph-name="uni041D" unicode="&#x41d;" horiz-adv-x="696" 
d="M504 409v291h120v-700h-120v302h-312v-302h-120v700h120v-291h312z" />
    <glyph glyph-name="uni041E" unicode="&#x41e;" horiz-adv-x="747" 
d="M200.5 34.5q-75.5 45.5 -117 128t-41.5 187.5q0 106 41.5 188t117 127.5t172.5 45.5q98 0 173.5 -45.5t117 -127.5t41.5 -188t-41.5 -188t-117 -127.5t-173.5 -45.5q-97 0 -172.5 45.5zM527 166q57 68 57 184t-57 184t-154 68t-153 -68t-56 -184t56 -184t153 -68t154 68z
" />
    <glyph glyph-name="uni041F" unicode="&#x41f;" horiz-adv-x="686" 
d="M192 0h-120v700h542v-700h-120v593h-302v-593z" />
    <glyph glyph-name="uni0420" unicode="&#x420;" horiz-adv-x="603" 
d="M333 700q68 0 122.5 -28.5t85 -79t30.5 -114.5t-30.5 -114.5t-85 -79.5t-122.5 -29h-141v-255h-120v700h261zM319 359q63 0 97.5 31.5t34.5 87.5q0 55 -34.5 86.5t-97.5 31.5h-127v-237h127z" />
    <glyph glyph-name="uni0421" unicode="&#x421;" horiz-adv-x="712" 
d="M202.5 34.5q-76.5 45.5 -118.5 127.5t-42 188t42 188t118 127.5t175 45.5q112 0 189.5 -59t109.5 -168l-113 -16q-21 65 -69 99.5t-118 34.5q-98 0 -155 -68t-57 -184t57 -184t156 -68q71 0 120 35t71 100l112 -17q-32 -109 -110.5 -168t-191.5 -59q-99 0 -175.5 45.5z
" />
    <glyph glyph-name="uni0422" unicode="&#x422;" horiz-adv-x="592" 
d="M356 0h-120v595h-226v105h572v-105h-226v-595z" />
    <glyph glyph-name="uni0423" unicode="&#x423;" horiz-adv-x="601" 
d="M320 324l160 376h119l-311 -700h-119l88 197l-260 503h129l189 -376h5z" />
    <glyph glyph-name="uni0424" unicode="&#x424;" horiz-adv-x="834" 
d="M481 652q89 0 162 -38.5t115.5 -107.5t42.5 -156t-42.5 -155.5t-115.5 -107t-162 -38.5h-4v-86h-120v86h-4q-89 0 -162 38.5t-115 107t-42 155.5t42 156t115 107.5t162 38.5h4v80h120v-80h4zM178 243q26 -46 72.5 -70.5t106.5 -24.5h2v405h-2q-60 0 -106.5 -25t-72.5 -71
t-26 -107t26 -107zM478 148q59 0 105.5 25t72.5 70.5t26 106.5t-26 107t-72.5 71t-105.5 25h-3v-405h3z" />
    <glyph glyph-name="uni0425" unicode="&#x425;" horiz-adv-x="614" 
d="M595 700l-209 -342l225 -358h-136l-168 270h-5l-168 -270h-130l224 358l-209 342h130l158 -258h5l158 258h125z" />
    <glyph glyph-name="uni0426" unicode="&#x426;" horiz-adv-x="723" 
d="M701 -155h-107v155h-522v700h120v-593h292v593h120v-593h97v-262z" />
    <glyph glyph-name="uni0427" unicode="&#x427;" horiz-adv-x="648" 
d="M456 700h120v-700h-120v271q-70 -46 -164 -46q-71 0 -125.5 29t-84.5 84t-30 129v233h120v-224q0 -70 37.5 -107t105.5 -37q80 0 141 44v324z" />
    <glyph glyph-name="uni0428" unicode="&#x428;" horiz-adv-x="1021" 
d="M949 0h-877v700h120v-593h259v593h120v-593h258v593h120v-700z" />
    <glyph glyph-name="uni0429" unicode="&#x429;" horiz-adv-x="1068" 
d="M1046 -155h-107v155h-867v700h120v-593h259v593h120v-593h258v593h120v-593h97v-262z" />
    <glyph glyph-name="uni042A" unicode="&#x42a;" horiz-adv-x="696" 
d="M413 459q71 0 126 -29t86 -81.5t31 -119.5t-31 -119t-86 -81t-126 -29h-251v595h-157v105h277v-241h131zM401 104q65 0 100 32.5t35 92.5q0 61 -35 93.5t-100 32.5h-119v-251h119z" />
    <glyph glyph-name="uni042B" unicode="&#x42b;" horiz-adv-x="854" 
d="M315 459q71 0 126 -29t86 -81.5t31 -119.5t-31 -119t-86 -81t-126 -29h-243v700h120v-241h123zM662 0v700h120v-700h-120zM304 104q65 0 100 32.5t35 92.5q0 61 -35 93.5t-100 32.5h-112v-251h112z" />
    <glyph glyph-name="uni042C" unicode="&#x42c;" horiz-adv-x="611" 
d="M328 459q71 0 126 -29t86 -81.5t31 -119.5t-31 -119t-86 -81t-126 -29h-256v700h120v-241h136zM316 104q65 0 100 32.5t35 92.5q0 61 -35 93.5t-100 32.5h-124v-251h124z" />
    <glyph glyph-name="uni042D" unicode="&#x42d;" horiz-adv-x="704" 
d="M505 665.5q75 -45.5 116 -127.5t41 -188q0 -107 -41 -188.5t-116.5 -127t-173.5 -45.5q-113 0 -191.5 58.5t-112.5 167.5l111 16q23 -65 73 -100t120 -35q88 0 143 55t66 153h-274v101h272q-12 93 -66 146t-139 53q-69 0 -118.5 -35t-72.5 -100l-111 16
q34 109 112.5 167.5t189.5 58.5q97 0 172 -45.5z" />
    <glyph glyph-name="uni042E" unicode="&#x42e;" horiz-adv-x="977" 
d="M787.5 665.5q70.5 -45.5 109 -127.5t38.5 -188t-38.5 -188t-109 -127.5t-162.5 -45.5q-86 0 -153 39t-107.5 110t-48.5 164h-124v-302h-120v700h120v-292h125q10 90 51 158.5t107 106.5t150 38q92 0 162.5 -45.5zM763.5 166q50.5 68 50.5 184t-50.5 184t-139.5 68
q-90 0 -140 -68t-50 -184t50 -184t140 -68q89 0 139.5 68z" />
    <glyph glyph-name="uni042F" unicode="&#x42f;" horiz-adv-x="640" 
d="M568 700v-700h-120v275h-132l-164 -275h-134l184 298q-63 23 -101 74.5t-38 118.5q0 59 29.5 106.5t81.5 75t116 27.5h278zM306 596q-57 0 -90 -29.5t-33 -80.5t33 -80.5t90 -29.5h143v220h-143z" />
    <glyph glyph-name="uni0430" unicode="&#x430;" horiz-adv-x="534" 
d="M519 88v-88q-24 -2 -42 -2q-49 0 -74 24.5t-25 70.5v2h-5q-29 -52 -75 -79t-102 -27q-72 0 -119.5 41.5t-47.5 109.5q0 48 25 85t69.5 57.5t101.5 20.5h135v16q0 50 -26 76.5t-76 26.5q-89 0 -116 -77l-98 14q19 73 74 114.5t142 41.5q100 0 155.5 -53t55.5 -142v-197
q0 -19 7 -27t23 -8h18zM320 121q40 37 40 96v9h-122q-43 0 -70 -19.5t-27 -55.5q0 -32 21.5 -49.5t59.5 -17.5q58 0 98 37z" />
    <glyph glyph-name="uni0431" unicode="&#x431;" horiz-adv-x="545" 
d="M99 71q-65 82 -65 234q0 182 73.5 275t225.5 110q93 10 145 23l17 -100q-62 -14 -163 -26q-91 -10 -136 -54.5t-58 -143.5h5q26 46 68 70.5t97 24.5q61 0 108.5 -30.5t73.5 -86t26 -127.5q0 -115 -62.5 -183t-170.5 -68q-119 0 -184 82zM372 126q32 41 32 114
q0 72 -31.5 111.5t-90.5 39.5q-60 0 -95 -40.5t-35 -110.5t35 -112.5t95 -42.5q58 0 90 41z" />
    <glyph glyph-name="uni0432" unicode="&#x432;" horiz-adv-x="529" 
d="M496 140q0 -62 -45.5 -101t-119.5 -39h-274v505h263q69 0 114 -37t45 -94q0 -38 -21 -67.5t-59 -42.5q97 -35 97 -124zM169 416v-120h131q32 0 50.5 16t18.5 44t-18.5 44t-50.5 16h-131zM310 89q33 0 52.5 17t19.5 46q0 31 -19.5 48t-52.5 17h-141v-128h141z" />
    <glyph glyph-name="uni0433" unicode="&#x433;" horiz-adv-x="413" 
d="M171 0h-114v505h346v-98h-232v-407z" />
    <glyph glyph-name="uni0434" unicode="&#x434;" horiz-adv-x="599" 
d="M499 98h86v-238h-99v140h-382v-140h-99v238h58q19 21 28 57.5t13 101.5l12 248h383v-407zM387 98v312h-168l-8 -160q-3 -59 -12 -93.5t-29 -58.5h217z" />
    <glyph glyph-name="uni0435" unicode="&#x435;" horiz-adv-x="543" 
d="M510 223h-370q7 -65 43.5 -101.5t96.5 -36.5q40 0 71 17t48 49l100 -14q-24 -70 -82 -109t-137 -39q-74 0 -131 33.5t-88.5 93t-31.5 136.5t31 136.5t87 93t127 33.5q69 0 124 -31.5t86 -88t31 -129.5q0 -18 -5 -43zM187.5 390.5q-34.5 -31.5 -45.5 -88.5h266
q-9 57 -44.5 88.5t-89.5 31.5q-52 0 -86.5 -31.5z" />
    <glyph glyph-name="uni0436" unicode="&#x436;" horiz-adv-x="731" 
d="M531 268l213 -268h-131l-192 245v-245h-111v245l-192 -245h-131l213 268l-188 237h122l176 -226v226h111v-226l176 226h122z" />
    <glyph glyph-name="uni0437" unicode="&#x437;" horiz-adv-x="491" 
d="M432.5 215.5q25.5 -31.5 25.5 -76.5q0 -68 -58 -109t-154 -41q-92 0 -152.5 40.5t-81.5 120.5l103 15q12 -41 45.5 -61t83.5 -20q46 0 73 17.5t27 49.5q0 31 -25.5 48.5t-70.5 17.5h-70v82h65q42 0 65 16.5t23 45.5q0 30 -24 46.5t-68 16.5q-89 0 -114 -74l-99 14
q21 75 76 113t139 38q59 0 104.5 -18t71 -51t25.5 -75q0 -39 -21.5 -67t-61.5 -40q48 -17 73.5 -48.5z" />
    <glyph glyph-name="uni0438" unicode="&#x438;" horiz-adv-x="568" 
d="M176 0h-119v505h109v-350h5l220 350h120v-505h-110v350h-5z" />
    <glyph glyph-name="uni0439" unicode="&#x439;" horiz-adv-x="568" 
d="M176 0h-119v505h109v-350h5l220 350h120v-505h-110v350h-5zM168 607q-44 40 -44 107h82q0 -36 20.5 -55.5t58.5 -19.5q37 0 57.5 19.5t20.5 55.5h82q0 -67 -43.5 -107t-116.5 -40t-117 40z" />
    <glyph glyph-name="uni043A" unicode="&#x43a;" horiz-adv-x="510" 
d="M289 267l234 -267h-141l-211 247v-247h-114v505h114v-228l197 228h130z" />
    <glyph glyph-name="uni043B" unicode="&#x43b;" horiz-adv-x="563" 
d="M118 505h388v-505h-114v409h-170l-8 -170q-4 -94 -21.5 -147t-49.5 -75.5t-84 -22.5q-22 0 -54 2v102h25q27 0 42 13t23 46.5t11 97.5z" />
    <glyph glyph-name="uni043C" unicode="&#x43c;" horiz-adv-x="716" 
d="M165 0h-108v505h148l153 -385h5l154 385h142v-505h-108v352h-5l-142 -352h-92l-142 352h-5v-352z" />
    <glyph glyph-name="uni043D" unicode="&#x43d;" horiz-adv-x="558" 
d="M387 305v200h114v-505h-114v209h-216v-209h-114v505h114v-200h216z" />
    <glyph glyph-name="uni043E" unicode="&#x43e;" horiz-adv-x="555" 
d="M148 22.5q-56 33.5 -87.5 93.5t-31.5 136q0 77 31.5 136.5t87.5 93t129 33.5t129.5 -33.5t88 -93t31.5 -136.5q0 -76 -31.5 -136t-88 -93.5t-129.5 -33.5t-129 33.5zM376.5 131.5q36.5 44.5 36.5 120.5q0 77 -36.5 121.5t-99.5 44.5t-99 -44.5t-36 -121.5t36 -121t99 -44
t99.5 44.5z" />
    <glyph glyph-name="uni043F" unicode="&#x43f;" horiz-adv-x="548" 
d="M171 0h-114v505h434v-505h-114v409h-206v-409z" />
    <glyph glyph-name="uni0440" unicode="&#x440;" horiz-adv-x="586" 
d="M57 -200v705h106v-87h5q29 47 73 72t99 25q63 0 112.5 -33t77.5 -92.5t28 -137.5q0 -77 -28 -137t-77 -93t-111 -33q-54 0 -98 24.5t-68 67.5h-5v-281h-114zM409 131q35 44 35 121t-35.5 121.5t-96.5 44.5q-63 0 -102 -45.5t-39 -120.5t39 -120t102 -45q62 0 97 44z" />
    <glyph glyph-name="uni0441" unicode="&#x441;" horiz-adv-x="521" 
d="M148.5 22.5q-56.5 33.5 -88 93t-31.5 136.5t31 137t87.5 93t128.5 33q84 0 143 -44t79 -123l-100 -15q-13 41 -45 63t-75 22q-63 0 -99.5 -44t-36.5 -122q0 -77 37 -121t101 -44q45 0 77 22t45 63l101 -16q-20 -78 -79.5 -122.5t-144.5 -44.5q-74 0 -130.5 33.5z" />
    <glyph glyph-name="uni0442" unicode="&#x442;" horiz-adv-x="459" 
d="M286 0h-113v407h-164v98h441v-98h-164v-407z" />
    <glyph glyph-name="uni0443" unicode="&#x443;" horiz-adv-x="503" 
d="M257 92l131 413h113l-234 -705h-105l66 200h-55l-171 505h117l133 -413h5z" />
    <glyph glyph-name="uni0444" unicode="&#x444;" horiz-adv-x="677" 
d="M615.5 118q-32.5 -59 -90.5 -93t-130 -36v-189h-113v189q-72 2 -130 36t-90.5 93t-32.5 134t32.5 134t90.5 93t130 36v185h113v-185q72 -2 130 -36t90.5 -93t32.5 -134t-32.5 -134zM391 84q67 2 107.5 47t40.5 121t-40.5 121.5t-107.5 47.5v-337zM178 131.5
q40 -45.5 107 -47.5v337q-67 -2 -107 -47.5t-40 -121.5q0 -75 40 -120.5z" />
    <glyph glyph-name="uni0445" unicode="&#x445;" horiz-adv-x="487" 
d="M473 505l-156 -250l167 -255h-124l-116 180h-5l-116 -180h-119l166 256l-156 249h119l110 -178h5l111 178h114z" />
    <glyph glyph-name="uni0446" unicode="&#x446;" horiz-adv-x="586" 
d="M572 -140h-99v140h-416v505h114v-407h201v407h114v-407h86v-238z" />
    <glyph glyph-name="uni0447" unicode="&#x447;" horiz-adv-x="523" 
d="M352 505h114v-505h-114v182q-51 -36 -124 -36q-88 0 -139.5 51.5t-51.5 140.5v167h114v-161q0 -101 99 -101q61 0 102 35v227z" />
    <glyph glyph-name="uni0448" unicode="&#x448;" horiz-adv-x="798" 
d="M741 0h-684v505h114v-407h173v407h110v-407h173v407h114v-505z" />
    <glyph glyph-name="uni0449" unicode="&#x449;" horiz-adv-x="841" 
d="M827 -140h-99v140h-671v505h114v-407h173v407h110v-407h173v407h114v-407h86v-238z" />
    <glyph glyph-name="uni044A" unicode="&#x44a;" horiz-adv-x="556" 
d="M343 341q54 0 95.5 -22t64.5 -61t23 -88t-23 -87.5t-64.5 -60.5t-95.5 -22h-216v410h-122v95h236v-164h102zM328 92q40 0 63 21t23 59q0 37 -23 58.5t-63 21.5h-89v-160h89z" />
    <glyph glyph-name="uni044B" unicode="&#x44b;" horiz-adv-x="696" 
d="M267 341q54 0 95 -22t64 -61t23 -88t-23 -87.5t-64 -60.5t-95 -22h-210v505h114v-164h96zM525 0v505h114v-505h-114zM251 92q40 0 63 21t23 59q0 37 -23 58.5t-63 21.5h-83v-160h83z" />
    <glyph glyph-name="uni044C" unicode="&#x44c;" horiz-adv-x="491" 
d="M278 341q54 0 95.5 -22t64.5 -61t23 -88t-23 -87.5t-64.5 -60.5t-95.5 -22h-221v505h114v-164h107zM263 92q40 0 63 21t23 59q0 37 -23 58.5t-63 21.5h-94v-160h94z" />
    <glyph glyph-name="uni044D" unicode="&#x44d;" horiz-adv-x="513" 
d="M367.5 482q55.5 -33 86 -93t30.5 -137t-30.5 -136.5t-87 -93t-129.5 -33.5q-84 0 -143 44t-80 122l97 15q14 -41 46.5 -63t78.5 -22q57 0 92.5 33.5t43.5 94.5h-183v84h182q-10 58 -44.5 90t-87.5 32q-45 0 -77.5 -22t-46.5 -63l-97 16q21 78 79.5 121.5t141.5 43.5
q73 0 128.5 -33z" />
    <glyph glyph-name="uni044E" unicode="&#x44e;" horiz-adv-x="752" 
d="M612.5 482q52.5 -33 81.5 -92.5t29 -137.5t-29 -137.5t-81.5 -92.5t-119.5 -33q-93 0 -154.5 60.5t-72.5 161.5h-95v-211h-114v505h114v-200h97q14 96 74.5 153t150.5 57q67 0 119.5 -33zM579 130.5q31 43.5 31 121.5q0 79 -31 122.5t-87 43.5t-87 -43.5t-31 -122.5
q0 -78 31 -121.5t87 -43.5t87 43.5z" />
    <glyph glyph-name="uni044F" unicode="&#x44f;" horiz-adv-x="531" 
d="M474 505v-505h-113v183h-104l-116 -183h-125l133 198q-48 18 -75.5 56.5t-27.5 86.5q0 47 23.5 84t65 58.5t95.5 21.5h244zM244 413q-40 0 -63 -19.5t-23 -54.5q0 -33 23 -53t63 -20h118v147h-118z" />
    <glyph glyph-name="uni0450" unicode="&#x450;" horiz-adv-x="543" 
d="M510 223h-370q7 -65 43.5 -101.5t96.5 -36.5q40 0 71 17t48 49l100 -14q-24 -70 -82 -109t-137 -39q-74 0 -131 33.5t-88.5 93t-31.5 136.5t31 136.5t87 93t127 33.5q69 0 124 -31.5t86 -88t31 -129.5q0 -18 -5 -43zM187.5 390.5q-34.5 -31.5 -45.5 -88.5h266
q-9 57 -44.5 88.5t-89.5 31.5q-52 0 -86.5 -31.5zM331 567h-85l-124 153v6h116z" />
    <glyph glyph-name="uni0451" unicode="&#x451;" horiz-adv-x="543" 
d="M510 223h-370q7 -65 43.5 -101.5t96.5 -36.5q40 0 71 17t48 49l100 -14q-24 -70 -82 -109t-137 -39q-74 0 -131 33.5t-88.5 93t-31.5 136.5t31 136.5t87 93t127 33.5q69 0 124 -31.5t86 -88t31 -129.5q0 -18 -5 -43zM187.5 390.5q-34.5 -31.5 -45.5 -88.5h266
q-9 57 -44.5 88.5t-89.5 31.5q-52 0 -86.5 -31.5zM227 587h-106v105h106v-105zM419 587h-106v105h106v-105z" />
    <glyph glyph-name="uni0452" unicode="&#x452;" horiz-adv-x="571" 
d="M473.5 430.5q45.5 -52.5 45.5 -141.5v-346q0 -143 -133 -143h-84v93h54q27 0 38.5 12t11.5 41v321q0 56 -25 86.5t-70 30.5q-54 0 -90.5 -40t-36.5 -99v-245h-113v546h-78v77h78v77h113v-77h147v-77h-147v-154h5q26 42 67.5 66.5t94.5 24.5q77 0 122.5 -52.5z" />
    <glyph glyph-name="uni0453" unicode="&#x453;" horiz-adv-x="413" 
d="M171 0h-114v505h346v-98h-232v-407zM246 567h-85l93 159h116v-6z" />
    <glyph glyph-name="uni0454" unicode="&#x454;" horiz-adv-x="521" 
d="M503 155q-21 -78 -80.5 -122t-143.5 -44q-74 0 -130.5 33.5t-88 93t-31.5 136.5t31 137t87.5 93t128.5 33q84 0 143 -43.5t79 -121.5l-97 -16q-14 41 -46.5 63t-77.5 22q-53 0 -89 -32t-46 -90h182v-84h-183q9 -61 45.5 -94.5t92.5 -33.5q46 0 79.5 22t46.5 63z" />
    <glyph glyph-name="uni0455" unicode="&#x455;" horiz-adv-x="476" 
d="M91.5 31q-58.5 42 -77.5 118l103 15q25 -80 127 -80q44 0 69.5 15t25.5 46q0 32 -29 46t-88 25q-58 12 -94.5 25t-62.5 43.5t-26 83.5q0 66 55.5 106.5t142.5 40.5q85 0 138.5 -39t70.5 -110l-98 -15q-9 36 -39 54.5t-74 18.5q-38 0 -61 -14t-23 -42q0 -31 28 -44t88 -25
q58 -12 95 -25t63.5 -44t26.5 -85q0 -72 -56.5 -114t-151.5 -42q-94 0 -152.5 42z" />
    <glyph glyph-name="uni0456" unicode="&#x456;" horiz-adv-x="235" 
d="M173 0h-111v505h111v-505zM174 587h-112v105h112v-105z" />
    <glyph glyph-name="uni0457" unicode="&#x457;" horiz-adv-x="235" 
d="M173 0h-111v505h111v-505zM91 587h-103v105h103v-105zM248 587h-103v105h103v-105z" />
    <glyph glyph-name="uni0458" unicode="&#x458;" horiz-adv-x="235" 
d="M-37 -200v96h48q28 0 39.5 12.5t11.5 42.5v554h111v-562q0 -143 -133 -143h-77zM174 587h-112v105h112v-105z" />
    <glyph glyph-name="uni0459" unicode="&#x459;" horiz-adv-x="794" 
d="M581 321q54 0 95.5 -20.5t64.5 -57t23 -83.5q0 -46 -23 -82.5t-64.5 -57t-95.5 -20.5h-207v409h-152l-8 -170q-4 -94 -21.5 -147t-49.5 -75.5t-84 -22.5q-22 0 -54 2v102h25q27 0 42 13t23 46.5t11 97.5l12 250h369v-184h94zM570 92q40 0 62.5 19t22.5 52
q0 32 -22.5 51.5t-62.5 19.5h-84v-142h84z" />
    <glyph glyph-name="uni045A" unicode="&#x45a;" horiz-adv-x="789" 
d="M576 321q54 0 95.5 -20.5t64.5 -57t23 -83.5q0 -46 -23 -82.5t-64.5 -57t-95.5 -20.5h-207v226h-198v-226h-114v505h114v-184h198v184h113v-184h94zM565 92q40 0 62.5 19t22.5 52q0 32 -22.5 51.5t-62.5 19.5h-84v-142h84z" />
    <glyph glyph-name="uni045B" unicode="&#x45b;" horiz-adv-x="571" 
d="M473.5 430.5q45.5 -52.5 45.5 -141.5v-289h-113v267q0 56 -25 86.5t-70 30.5q-54 0 -90.5 -40t-36.5 -99v-245h-113v546h-78v77h78v77h113v-77h147v-77h-147v-154h5q26 42 67.5 66.5t94.5 24.5q77 0 122.5 -52.5z" />
    <glyph glyph-name="uni045C" unicode="&#x45c;" horiz-adv-x="510" 
d="M289 267l234 -267h-141l-211 247v-247h-114v505h114v-228l197 228h130zM285 567h-85l93 159h116v-6z" />
    <glyph glyph-name="uni045D" unicode="&#x45d;" horiz-adv-x="568" 
d="M176 0h-119v505h109v-350h5l220 350h120v-505h-110v350h-5zM345 567h-85l-124 153v6h116z" />
    <glyph glyph-name="uni045E" unicode="&#x45e;" horiz-adv-x="503" 
d="M257 92l131 413h113l-234 -705h-105l66 200h-55l-171 505h117l133 -413h5zM136 607q-44 40 -44 107h82q0 -36 20.5 -55.5t58.5 -19.5q37 0 57.5 19.5t20.5 55.5h82q0 -67 -43.5 -107t-116.5 -40t-117 40z" />
    <glyph glyph-name="uni045F" unicode="&#x45f;" horiz-adv-x="548" 
d="M323 -140h-99v140h-167v505h114v-407h206v407h114v-505h-168v-140z" />
    <glyph glyph-name="uni0490" unicode="&#x490;" horiz-adv-x="517" 
d="M192 0h-120v700h334v140h101v-245h-315v-595z" />
    <glyph glyph-name="uni0491" unicode="&#x491;" horiz-adv-x="413" 
d="M171 0h-114v505h252v130h94v-228h-232v-407z" />
    <glyph glyph-name="uni0492" unicode="&#x492;" horiz-adv-x="542" 
d="M532 700v-105h-315v-198h235v-105h-235v-292h-120v292h-92v105h92v303h435z" />
    <glyph glyph-name="uni0493" unicode="&#x493;" horiz-adv-x="433" 
d="M423 505v-96h-232v-129h164v-95h-164v-185h-114v185h-77v95h77v225h346z" />
    <glyph glyph-name="uni0496" unicode="&#x496;" horiz-adv-x="952" 
d="M640 369l212 -262h96v-262h-107v155h-52l-270 342v-342h-117v344l-271 -344h-144l292 367l-262 333h132l253 -323v323h117v-322l252 322h132z" />
    <glyph glyph-name="uni0497" unicode="&#x497;" horiz-adv-x="756" 
d="M531 269l139 -171h83v-238h-99v140h-41l-192 245v-245h-111v245l-192 -245h-131l213 268l-188 237h122l176 -226v226h111v-226l176 226h122z" />
    <glyph glyph-name="uni0498" unicode="&#x498;" horiz-adv-x="613" 
d="M514 60q-55 -53 -148 -67v-148h-107v147q-95 10 -155.5 61.5t-82.5 139.5l110 16q36 -114 175 -114q67 0 105 27t38 79q0 51 -36.5 77.5t-99.5 26.5h-96v101h96q53 0 85.5 26.5t32.5 72.5q0 47 -35 74.5t-97 27.5q-58 0 -99 -26t-57 -80l-107 16q23 92 92 143t173 51
q73 0 129.5 -25t87.5 -69.5t31 -101.5q0 -52 -29 -92t-82 -61q63 -22 97 -66t34 -105q0 -78 -55 -131z" />
    <glyph glyph-name="uni0499" unicode="&#x499;" horiz-adv-x="491" 
d="M414.5 41.5q-43.5 -38.5 -118.5 -49.5v-132h-99v132q-72 10 -119.5 49.5t-65.5 108.5l103 15q12 -41 45.5 -61t83.5 -20q46 0 73 17.5t27 49.5q0 31 -25.5 48.5t-70.5 17.5h-70v82h65q42 0 65 16.5t23 45.5q0 30 -24 46.5t-68 16.5q-89 0 -114 -74l-99 14q21 75 76 113
t139 38q59 0 104.5 -18t71 -51t25.5 -75q0 -39 -21.5 -67t-61.5 -40q48 -17 73.5 -48.5t25.5 -76.5q0 -59 -43.5 -97.5z" />
    <glyph glyph-name="uni049A" unicode="&#x49a;" horiz-adv-x="652" 
d="M322 368l230 -261h97v-262h-107v155h-53l-297 345v-345h-120v700h120v-325l279 325h139z" />
    <glyph glyph-name="uni049B" unicode="&#x49b;" horiz-adv-x="527" 
d="M289 268l152 -170h82v-238h-99v140h-42l-211 247v-247h-114v505h114v-228l197 228h130z" />
    <glyph glyph-name="uni04A0" unicode="&#x4a0;" horiz-adv-x="717" 
d="M412 367l318 -367h-151l-297 345v-345h-120v595h-157v105h277v-325l279 325h139z" />
    <glyph glyph-name="uni04A1" unicode="&#x4a1;" horiz-adv-x="580" 
d="M359 267l234 -267h-140l-212 247v-247h-114v410h-122v95h236v-228l197 228h130z" />
    <glyph glyph-name="uni04A2" unicode="&#x4a2;" horiz-adv-x="743" 
d="M624 700v-593h97v-262h-107v155h-110v302h-312v-302h-120v700h120v-291h312v291h120z" />
    <glyph glyph-name="uni04A3" unicode="&#x4a3;" horiz-adv-x="601" 
d="M501 505v-407h86v-238h-99v140h-101v209h-216v-209h-114v505h114v-200h216v200h114z" />
    <glyph glyph-name="uni04AA" unicode="&#x4aa;" horiz-adv-x="712" 
d="M680 216q-28 -96 -92.5 -153t-156.5 -70v-148h-107v148q-85 12 -148.5 59.5t-98.5 124.5t-35 173q0 106 42 188t118 127.5t175 45.5q112 0 189.5 -59t109.5 -168l-113 -16q-21 65 -69 99.5t-118 34.5q-98 0 -155 -68t-57 -184t57 -184t156 -68q71 0 120 35t71 100z" />
    <glyph glyph-name="uni04AB" unicode="&#x4ab;" horiz-adv-x="521" 
d="M503 156q-17 -67 -63 -109.5t-113 -53.5v-133h-99v133q-91 17 -145 87t-54 172q0 77 31 137t87.5 93t128.5 33q84 0 143 -44t79 -123l-100 -15q-13 41 -45 63t-75 22q-63 0 -99.5 -44t-36.5 -122q0 -77 37 -121t101 -44q45 0 77 22t45 63z" />
    <glyph glyph-name="uni04AE" unicode="&#x4ae;" horiz-adv-x="582" 
d="M351 0h-120v254l-236 446h130l166 -324h5l166 324h124l-235 -446v-254z" />
    <glyph glyph-name="uni04AF" unicode="&#x4af;" horiz-adv-x="503" 
d="M308 -200h-114v200h-23l-164 505h116l128 -417h5l127 417h113l-164 -505h-24v-200z" />
    <glyph glyph-name="uni04B0" unicode="&#x4b0;" horiz-adv-x="582" 
d="M462 700h124l-189 -358h121v-94h-167v-248h-120v248h-167v94h120l-189 358h130l166 -324h5z" />
    <glyph glyph-name="uni04B1" unicode="&#x4b1;" horiz-adv-x="503" 
d="M383 505h113l-135 -417h92v-88h-145v-200h-114v200h-143v88h91l-135 417h116l128 -417h5z" />
    <glyph glyph-name="uni04B2" unicode="&#x4b2;" horiz-adv-x="644" 
d="M386 359l160 -252h95v-262h-107v155h-59l-168 270h-5l-168 -270h-130l224 358l-209 342h130l158 -258h5l158 258h125z" />
    <glyph glyph-name="uni04B3" unicode="&#x4b3;" horiz-adv-x="511" 
d="M317 256l105 -158h85v-238h-99v140h-48l-116 180h-5l-116 -180h-119l166 256l-156 249h119l110 -178h5l111 178h114z" />
    <glyph glyph-name="uni04B6" unicode="&#x4b6;" horiz-adv-x="694" 
d="M576 107h96v-262h-107v155h-109v271q-70 -46 -164 -46q-71 0 -125.5 29t-84.5 84t-30 129v233h120v-224q0 -70 37.5 -107t105.5 -37q80 0 141 44v324h120v-593z" />
    <glyph glyph-name="uni04B7" unicode="&#x4b7;" horiz-adv-x="566" 
d="M466 98h86v-238h-99v140h-101v182q-51 -36 -124 -36q-88 0 -139.5 51.5t-51.5 140.5v167h114v-161q0 -101 99 -101q61 0 102 35v227h114v-407z" />
    <glyph glyph-name="uni04BA" unicode="&#x4ba;" horiz-adv-x="648" 
d="M481.5 447q54.5 -29 84.5 -84t30 -130v-233h-120v224q0 71 -37.5 108t-105.5 37q-79 0 -141 -44v-325h-120v700h120v-271q71 47 164 47q71 0 125.5 -29z" />
    <glyph glyph-name="uni04BB" unicode="&#x4bb;" horiz-adv-x="563" 
d="M62 0v700h114v-276h5q26 42 67.5 66.5t94.5 24.5q77 0 122.5 -52t45.5 -142v-321h-114v299q0 56 -24.5 86.5t-70.5 30.5q-54 0 -90 -40t-36 -99v-277h-114z" />
    <glyph glyph-name="uni04C0" unicode="&#x4c0;" horiz-adv-x="272" 
d="M195 0h-118v700h118v-700z" />
    <glyph glyph-name="uni04CF" unicode="&#x4cf;" horiz-adv-x="238" 
d="M176 0h-114v700h114v-700z" />
    <glyph glyph-name="uni04D0" unicode="&#x4d0;" horiz-adv-x="631" 
d="M624 0h-120l-53 167h-274l-53 -167h-117l231 700h155zM311 594l-103 -328h212l-104 328h-5zM191.5 797.5q-47.5 40.5 -47.5 107.5h85q0 -34 23 -53t64 -19t64 19t23 53h85q0 -67 -47.5 -107.5t-124.5 -40.5t-124.5 40.5z" />
    <glyph glyph-name="uni04D1" unicode="&#x4d1;" horiz-adv-x="534" 
d="M519 88v-88q-24 -2 -42 -2q-49 0 -74 24.5t-25 70.5v2h-5q-29 -52 -75 -79t-102 -27q-72 0 -119.5 41.5t-47.5 109.5q0 48 25 85t69.5 57.5t101.5 20.5h135v16q0 50 -26 76.5t-76 26.5q-89 0 -116 -77l-98 14q19 73 74 114.5t142 41.5q100 0 155.5 -53t55.5 -142v-197
q0 -19 7 -27t23 -8h18zM320 121q40 37 40 96v9h-122q-43 0 -70 -19.5t-27 -55.5q0 -32 21.5 -49.5t59.5 -17.5q58 0 98 37zM140 607q-44 40 -44 107h82q0 -36 20.5 -55.5t58.5 -19.5q37 0 57.5 19.5t20.5 55.5h82q0 -67 -43.5 -107t-116.5 -40t-117 40z" />
    <glyph glyph-name="uni04D6" unicode="&#x4d6;" horiz-adv-x="579" 
d="M191 304v-200h336v-104h-455v700h450v-104h-331v-191h296v-101h-296zM172.5 797.5q-47.5 40.5 -47.5 107.5h85q0 -34 23 -53t64 -19t64 19t23 53h85q0 -67 -47.5 -107.5t-124.5 -40.5t-124.5 40.5z" />
    <glyph glyph-name="uni04D7" unicode="&#x4d7;" horiz-adv-x="543" 
d="M510 223h-370q7 -65 43.5 -101.5t96.5 -36.5q40 0 71 17t48 49l100 -14q-24 -70 -82 -109t-137 -39q-74 0 -131 33.5t-88.5 93t-31.5 136.5t31 136.5t87 93t127 33.5q69 0 124 -31.5t86 -88t31 -129.5q0 -18 -5 -43zM187.5 390.5q-34.5 -31.5 -45.5 -88.5h266
q-9 57 -44.5 88.5t-89.5 31.5q-52 0 -86.5 -31.5zM154 607q-44 40 -44 107h82q0 -36 20.5 -55.5t58.5 -19.5q37 0 57.5 19.5t20.5 55.5h82q0 -67 -43.5 -107t-116.5 -40t-117 40z" />
    <glyph glyph-name="uni04D8" unicode="&#x4d8;" horiz-adv-x="732" 
d="M531 665.5q76 -45.5 117.5 -127.5t41.5 -188t-42 -188t-117.5 -127.5t-172.5 -45.5t-169.5 44t-112 120.5t-39.5 171.5q0 31 7 61h524q-9 102 -64 159t-146 57q-63 0 -109 -29.5t-71 -89.5l-116 17q36 102 113 156.5t182 54.5q98 0 174 -45.5zM499 150q55 54 67 148h-410
q10 -97 63 -149.5t139 -52.5t141 54z" />
    <glyph glyph-name="uni04D9" unicode="&#x4d9;" horiz-adv-x="538" 
d="M390.5 482q56.5 -33 88 -93t31.5 -137q0 -76 -31.5 -136t-87.5 -93.5t-127 -33.5q-69 0 -124 31.5t-85.5 88.5t-30.5 130q0 22 4 43h371q-7 65 -43 101t-94 36q-40 0 -70.5 -17t-46.5 -49l-101 15q25 70 82.5 108.5t135.5 38.5q72 0 128.5 -33zM352 113.5
q35 31.5 45 89.5h-266q8 -57 43.5 -89t89.5 -32q53 0 88 31.5z" />
    <glyph glyph-name="uni04E2" unicode="&#x4e2;" horiz-adv-x="706" 
d="M201 0h-129v700h116v-523h5l312 523h129v-700h-116v523h-5zM519 787h-331v80h331v-80z" />
    <glyph glyph-name="uni04E3" unicode="&#x4e3;" horiz-adv-x="568" 
d="M176 0h-119v505h109v-350h5l220 350h120v-505h-110v350h-5zM444 602h-320v75h320v-75z" />
    <glyph glyph-name="uni04E8" unicode="&#x4e8;" horiz-adv-x="747" 
d="M546.5 665.5q75.5 -45.5 117 -127.5t41.5 -188t-41.5 -188t-117 -127.5t-173.5 -45.5q-97 0 -172.5 45.5t-117 128t-41.5 187.5q0 106 41.5 188t117 127.5t172.5 45.5q98 0 173.5 -45.5zM231.5 548.5q-55.5 -55.5 -66.5 -151.5h417q-11 96 -66.5 151.5t-142.5 55.5
q-86 0 -141.5 -55.5zM515.5 152q55.5 56 66.5 152h-417q11 -97 66 -152.5t142 -55.5t142.5 56z" />
    <glyph glyph-name="uni04E9" unicode="&#x4e9;" horiz-adv-x="555" 
d="M406.5 481.5q56.5 -33.5 88 -93t31.5 -136.5q0 -76 -31.5 -136t-88 -93.5t-129.5 -33.5t-129 33.5t-87.5 93.5t-31.5 136q0 77 31.5 136.5t87.5 93t129 33.5t129.5 -33.5zM186 385q-36 -34 -44 -95h271q-8 61 -44 95t-92 34q-55 0 -91 -34zM368 119q36 34 45 95h-271
q8 -61 44 -95t91 -34t91 34z" />
    <glyph glyph-name="uni04EE" unicode="&#x4ee;" horiz-adv-x="601" 
d="M320 324l160 376h119l-311 -700h-119l88 197l-260 503h129l189 -376h5zM469 787h-331v80h331v-80z" />
    <glyph glyph-name="uni04EF" unicode="&#x4ef;" horiz-adv-x="503" 
d="M257 92l131 413h113l-234 -705h-105l66 200h-55l-171 505h117l133 -413h5zM413 602h-320v75h320v-75z" />
    <glyph glyph-name="uni04F2" unicode="&#x4f2;" horiz-adv-x="601" 
d="M320 324l160 376h119l-311 -700h-119l88 197l-260 503h129l189 -376h5zM227 757h-82l89 155h112v-7zM397 757h-83l89 155h113v-7z" />
    <glyph glyph-name="uni04F3" unicode="&#x4f3;" horiz-adv-x="503" 
d="M257 92l131 413h113l-234 -705h-105l66 200h-55l-171 505h117l133 -413h5zM183 567h-73l87 159h102v-6zM339 567h-74l87 159h103v-6z" />
    <glyph glyph-name="uni1E24" unicode="&#x1e24;" horiz-adv-x="696" 
d="M504 409v291h120v-700h-120v302h-312v-302h-120v700h120v-291h312zM403 -188h-109v105h109v-105z" />
    <glyph glyph-name="uni1E25" unicode="&#x1e25;" horiz-adv-x="563" 
d="M62 0v700h114v-276h5q26 42 67.5 66.5t94.5 24.5q77 0 122.5 -52t45.5 -142v-321h-114v299q0 56 -24.5 86.5t-70.5 30.5q-54 0 -90 -40t-36 -99v-277h-114zM340 -188h-109v105h109v-105z" />
    <glyph glyph-name="uni1E26" unicode="&#x1e26;" horiz-adv-x="696" 
d="M504 409v291h120v-700h-120v302h-312v-302h-120v700h120v-291h312zM304 773h-113v110h113v-110zM507 773h-112v110h112v-110z" />
    <glyph glyph-name="uni1E27" unicode="&#x1e27;" horiz-adv-x="563" 
d="M62 0v700h114v-276h5q26 42 67.5 66.5t94.5 24.5q77 0 122.5 -52t45.5 -142v-321h-114v299q0 56 -24.5 86.5t-70.5 30.5q-54 0 -90 -40t-36 -99v-277h-114zM241 773h-113v110h113v-110zM444 773h-112v110h112v-110z" />
    <glyph glyph-name="uni1E30" unicode="&#x1e30;" horiz-adv-x="627" 
d="M322 367l318 -367h-151l-297 345v-345h-120v700h120v-325l279 325h139zM350 757h-92l91 155h123v-7z" />
    <glyph glyph-name="uni1E31" unicode="&#x1e31;" horiz-adv-x="510" 
d="M293 268l230 -268h-139l-208 247v-247h-114v700h114v-423l193 228h129zM307 757h-92l91 155h123v-7z" />
    <glyph glyph-name="uni1E36" unicode="&#x1e36;" horiz-adv-x="517" 
d="M507 0h-435v700h120v-593h315v-107zM345 -188h-109v105h109v-105z" />
    <glyph glyph-name="uni1E37" unicode="&#x1e37;" horiz-adv-x="238" 
d="M176 0h-114v700h114v-700zM173 -188h-109v105h109v-105z" />
    <glyph glyph-name="uni1E3E" unicode="&#x1e3e;" horiz-adv-x="897" 
d="M188 0h-116v700h165l212 -565h5l211 565h160v-700h-116v534h-5l-200 -534h-111l-200 534h-5v-534zM479 757h-92l91 155h123v-7z" />
    <glyph glyph-name="uni1E3F" unicode="&#x1e3f;" horiz-adv-x="849" 
d="M57 0v505h106v-84h5q25 45 66.5 69.5t88.5 24.5q49 0 86 -27t53 -74h5q65 101 169 101q75 0 118 -50.5t43 -139.5v-325h-114v304q0 56 -21.5 85t-62.5 29q-51 0 -83 -38t-32 -98v-282h-114v304q0 56 -21.5 85t-62.5 29q-51 0 -83 -38t-32 -98v-282h-114zM451 567h-85
l93 159h116v-6z" />
    <glyph glyph-name="uni1E54" unicode="&#x1e54;" horiz-adv-x="603" 
d="M333 700q68 0 122.5 -28.5t85 -79t30.5 -114.5t-30.5 -114.5t-85 -79.5t-122.5 -29h-141v-255h-120v700h261zM319 359q63 0 97.5 31.5t34.5 87.5q0 55 -34.5 86.5t-97.5 31.5h-127v-237h127zM317 757h-92l91 155h123v-7z" />
    <glyph glyph-name="uni1E55" unicode="&#x1e55;" horiz-adv-x="586" 
d="M57 -200v705h106v-87h5q29 47 73 72t99 25q63 0 112.5 -33t77.5 -92.5t28 -137.5q0 -77 -28 -137t-77 -93t-111 -33q-54 0 -98 24.5t-68 67.5h-5v-281h-114zM409 131q35 44 35 121t-35.5 121.5t-96.5 44.5q-63 0 -102 -45.5t-39 -120.5t39 -120t102 -45q62 0 97 44z
M315 567h-85l93 159h116v-6z" />
    <glyph glyph-name="Wgrave" unicode="&#x1e80;" horiz-adv-x="971" 
d="M348 0h-164l-172 700h120l136 -580h5l146 580h137l147 -580h5l136 580h115l-172 -700h-161l-137 541h-5zM554 757h-92l-122 148v7h123z" />
    <glyph glyph-name="wgrave" unicode="&#x1e81;" horiz-adv-x="768" 
d="M286 0h-147l-132 505h113l94 -396h5l102 396h130l102 -396h5l94 396h109l-132 -505h-144l-97 376h-5zM446 567h-85l-124 153v6h116z" />
    <glyph glyph-name="Wacute" unicode="&#x1e82;" horiz-adv-x="971" 
d="M348 0h-164l-172 700h120l136 -580h5l146 580h137l147 -580h5l136 580h115l-172 -700h-161l-137 541h-5zM515 757h-92l91 155h123v-7z" />
    <glyph glyph-name="wacute" unicode="&#x1e83;" horiz-adv-x="768" 
d="M286 0h-147l-132 505h113l94 -396h5l102 396h130l102 -396h5l94 396h109l-132 -505h-144l-97 376h-5zM410 567h-85l93 159h116v-6z" />
    <glyph glyph-name="Wdieresis" unicode="&#x1e84;" horiz-adv-x="971" 
d="M348 0h-164l-172 700h120l136 -580h5l146 580h137l147 -580h5l136 580h115l-172 -700h-161l-137 541h-5zM443 773h-113v110h113v-110zM646 773h-112v110h112v-110z" />
    <glyph glyph-name="wdieresis" unicode="&#x1e85;" horiz-adv-x="768" 
d="M286 0h-147l-132 505h113l94 -396h5l102 396h130l102 -396h5l94 396h109l-132 -505h-144l-97 376h-5zM342 587h-106v105h106v-105zM534 587h-106v105h106v-105z" />
    <glyph glyph-name="uni1E8C" unicode="&#x1e8c;" horiz-adv-x="614" 
d="M595 700l-209 -342l225 -358h-136l-168 270h-5l-168 -270h-130l224 358l-209 342h130l158 -258h5l158 258h125zM264 773h-113v110h113v-110zM467 773h-112v110h112v-110z" />
    <glyph glyph-name="uni1E8D" unicode="&#x1e8d;" horiz-adv-x="487" 
d="M473 505l-156 -250l167 -255h-124l-116 180h-5l-116 -180h-119l166 256l-156 249h119l110 -178h5l111 178h114zM202 587h-106v105h106v-105zM394 587h-106v105h106v-105z" />
    <glyph glyph-name="uni1E9E" unicode="&#x1e9e;" horiz-adv-x="706" 
d="M439 408q66 0 118.5 -26t82 -71.5t29.5 -103.5q0 -59 -29.5 -106.5t-82 -74t-118.5 -26.5h-159v107h144q58 0 91.5 28t33.5 78q0 49 -33.5 77t-91.5 28h-107v90l182 191h-180q-128 0 -128 -143v-456h-120v456q0 113 61.5 178.5t165.5 65.5h326v-95l-187 -197h2z" />
    <glyph glyph-name="uni1EBC" unicode="&#x1ebc;" horiz-adv-x="579" 
d="M191 304v-200h336v-104h-455v700h450v-104h-331v-191h296v-101h-296zM126 778q0 51 25.5 82t70.5 31q23 0 41.5 -7t41.5 -20q19 -11 31 -16t26 -5q31 0 31 37v11h76v-14q0 -51 -25.5 -82t-70.5 -31q-23 0 -41.5 7t-41.5 20q-20 11 -32 16t-26 5q-30 0 -30 -37v-11h-76v14
z" />
    <glyph glyph-name="uni1EBD" unicode="&#x1ebd;" horiz-adv-x="543" 
d="M510 223h-370q7 -65 43.5 -101.5t96.5 -36.5q40 0 71 17t48 49l100 -14q-24 -70 -82 -109t-137 -39q-74 0 -131 33.5t-88.5 93t-31.5 136.5t31 136.5t87 93t127 33.5q69 0 124 -31.5t86 -88t31 -129.5q0 -18 -5 -43zM187.5 390.5q-34.5 -31.5 -45.5 -88.5h266
q-9 57 -44.5 88.5t-89.5 31.5q-52 0 -86.5 -31.5zM104 592q0 49 25.5 79t69.5 30q22 0 38.5 -6.5t40.5 -19.5q21 -11 32 -15.5t23 -4.5q30 0 30 36v10h74v-13q0 -50 -25.5 -79.5t-69.5 -29.5q-22 0 -39.5 6.5t-39.5 18.5q-17 10 -29.5 15t-25.5 5q-30 0 -30 -35v-10h-74v13z
" />
    <glyph glyph-name="Ygrave" unicode="&#x1ef2;" horiz-adv-x="582" 
d="M351 0h-120v254l-236 446h130l166 -324h5l166 324h124l-235 -446v-254zM359 757h-92l-122 148v7h123z" />
    <glyph glyph-name="ygrave" unicode="&#x1ef3;" horiz-adv-x="503" 
d="M257 92l131 413h113l-234 -705h-105l66 200h-55l-171 505h117l133 -413h5zM314 567h-85l-124 153v6h116z" />
    <glyph glyph-name="uni1EF8" unicode="&#x1ef8;" horiz-adv-x="582" 
d="M351 0h-120v254l-236 446h130l166 -324h5l166 324h124l-235 -446v-254zM122 778q0 51 25.5 82t70.5 31q23 0 41.5 -7t41.5 -20q19 -11 31 -16t26 -5q31 0 31 37v11h76v-14q0 -51 -25.5 -82t-70.5 -31q-23 0 -41.5 7t-41.5 20q-20 11 -32 16t-26 5q-30 0 -30 -37v-11h-76
v14z" />
    <glyph glyph-name="uni1EF9" unicode="&#x1ef9;" horiz-adv-x="503" 
d="M257 92l131 413h113l-234 -705h-105l66 200h-55l-171 505h117l133 -413h5zM87 592q0 49 25.5 79t69.5 30q22 0 38.5 -6.5t40.5 -19.5q21 -11 32 -15.5t23 -4.5q30 0 30 36v10h74v-13q0 -50 -25.5 -79.5t-69.5 -29.5q-22 0 -39.5 6.5t-39.5 18.5q-17 10 -29.5 15t-25.5 5
q-30 0 -30 -35v-10h-74v13z" />
    <glyph glyph-name="endash" unicode="&#x2013;" horiz-adv-x="609" 
d="M561 205h-512v105h512v-105z" />
    <glyph glyph-name="emdash" unicode="&#x2014;" horiz-adv-x="789" 
d="M741 205h-692v105h692v-105z" />
    <glyph glyph-name="quoteleft" unicode="&#x2018;" horiz-adv-x="217" 
d="M173 431h-129v128l37 141h83v-28l-70 -111h79v-130z" />
    <glyph glyph-name="quoteright" unicode="&#x2019;" horiz-adv-x="217" 
d="M135 431h-82v28l70 112h-79v129h129v-128z" />
    <glyph glyph-name="quotesinglbase" unicode="&#x201a;" horiz-adv-x="217" 
d="M135 -140h-82v28l70 112h-79v130h129v-128z" />
    <glyph glyph-name="quotedblleft" unicode="&#x201c;" horiz-adv-x="395" 
d="M173 431h-129v128l37 141h83v-28l-70 -111h79v-130zM351 431h-129v128l37 141h83v-28l-70 -111h79v-130z" />
    <glyph glyph-name="quotedblright" unicode="&#x201d;" horiz-adv-x="395" 
d="M135 431h-82v28l70 112h-79v129h129v-128zM313 431h-82v28l70 112h-79v129h129v-128z" />
    <glyph glyph-name="quotedblbase" unicode="&#x201e;" horiz-adv-x="395" 
d="M135 -140h-82v28l70 112h-79v130h129v-128zM313 -140h-82v28l70 112h-79v130h129v-128z" />
    <glyph glyph-name="dagger" unicode="&#x2020;" horiz-adv-x="468" 
d="M288 513h142v-96h-142v-417h-107v417h-142v96h142v187h107v-187z" />
    <glyph glyph-name="daggerdbl" unicode="&#x2021;" horiz-adv-x="468" 
d="M430 531v-93h-142v-176h142v-93h-142v-169h-107v169h-142v93h142v176h-142v93h142v169h107v-169h142z" />
    <glyph glyph-name="bullet" unicode="&#x2022;" horiz-adv-x="362" 
d="M267 168h-171v179h171v-179z" />
    <glyph glyph-name="ellipsis" unicode="&#x2026;" horiz-adv-x="687" 
d="M173 0h-129v130h129v-130zM408 0h-129v130h129v-130zM643 0h-129v130h129v-130z" />
    <glyph glyph-name="perthousand" unicode="&#x2030;" horiz-adv-x="1267" 
d="M65 369q-46 54 -46 141t46 141t120 54q49 0 86.5 -24.5t58.5 -69t21 -101.5t-21 -101.5t-58.5 -69t-86.5 -24.5q-74 0 -120 54zM291 0h-101l411 700h102zM243 424q21 32 21 86t-21 86t-58 32q-38 0 -58.5 -31.5t-20.5 -86.5t20.5 -86.5t58.5 -31.5q37 0 58 32zM588 49
q-46 54 -46 141t46 141t120 54t120 -54t46 -141t-46 -141t-120 -54t-120 54zM962 49q-46 54 -46 141t46 141t120 54t120 -54t46 -141t-46 -141t-120 -54t-120 54zM766.5 103.5q20.5 31.5 20.5 86.5t-20.5 86.5t-58.5 31.5t-58.5 -31.5t-20.5 -86.5t20.5 -86.5t58.5 -31.5
t58.5 31.5zM1140.5 103.5q20.5 31.5 20.5 86.5t-20.5 86.5t-58.5 31.5t-58.5 -31.5t-20.5 -86.5t20.5 -86.5t58.5 -31.5t58.5 31.5z" />
    <glyph glyph-name="guilsinglleft" unicode="&#x2039;" horiz-adv-x="355" 
d="M331 34h-128l-174 219l174 220h128l-178 -220z" />
    <glyph glyph-name="guilsinglright" unicode="&#x203a;" horiz-adv-x="355" 
d="M151 34h-127l177 219l-177 220h127l175 -220z" />
    <glyph glyph-name="fraction" unicode="&#x2044;" horiz-adv-x="218" 
d="M-46 0h-102l412 700h102z" />
    <glyph glyph-name="uni2070" unicode="&#x2070;" horiz-adv-x="358" 
d="M63 469q-44 54 -44 141t44 141t116 54q47 0 83.5 -24.5t56.5 -69t20 -101.5t-20 -101.5t-56.5 -69t-83.5 -24.5q-72 0 -116 54zM234 523.5q20 32.5 20 86.5q0 55 -20 87.5t-55 32.5t-55 -32.5t-20 -87.5t19.5 -87t55.5 -32q35 0 55 32.5z" />
    <glyph glyph-name="uni2074" unicode="&#x2074;" horiz-adv-x="327" 
d="M269 581h48v-72h-48v-89h-84v89h-180v72l167 219h97v-219zM188 706h-5l-93 -125h98v125z" />
    <glyph glyph-name="uni2075" unicode="&#x2075;" horiz-adv-x="324" 
d="M274.5 635.5q34.5 -35.5 34.5 -90.5q0 -58 -39 -94t-103 -36q-58 0 -100 29.5t-53 78.5l77 12q9 -22 27 -34t43 -12q28 0 44.5 15.5t16.5 43.5q0 27 -16 43t-43 16q-37 0 -57 -31h-76l19 224h240v-72h-172l-8 -83h5q26 26 72 26q54 0 88.5 -35.5z" />
    <glyph glyph-name="uni2076" unicode="&#x2076;" horiz-adv-x="333" 
d="M61 465q-42 50 -42 135q0 94 43.5 149.5t115.5 55.5q50 0 86 -24.5t49 -68.5l-71 -11q-9 18 -24.5 27.5t-35.5 9.5q-35 0 -57.5 -28t-27.5 -77h5q32 37 90 37q55 0 91 -34t36 -89q0 -58 -41 -95t-104 -37q-71 0 -113 50zM218.5 502q18.5 18 18.5 45q0 28 -18.5 46
t-46.5 18t-47 -18t-19 -46q0 -27 19 -45t47 -18t46.5 18z" />
    <glyph glyph-name="uni2077" unicode="&#x2077;" horiz-adv-x="293" 
d="M146 420h-89l132 300v5h-184v75h269v-81z" />
    <glyph glyph-name="uni2078" unicode="&#x2078;" horiz-adv-x="326" 
d="M293.5 582.5q17.5 -24.5 17.5 -55.5q0 -50 -41.5 -81t-106.5 -31t-106.5 31t-41.5 81q0 31 17.5 55.5t48.5 37.5q-25 11 -39 32t-14 47q0 45 38.5 75.5t96.5 30.5t96.5 -30.5t38.5 -75.5q0 -27 -14 -47.5t-39 -31.5q31 -13 48.5 -37.5zM123 726.5q-16 -12.5 -16 -33.5
t16 -34.5t40 -13.5t39.5 13t15.5 35q0 21 -15.5 33.5t-39.5 12.5t-40 -12.5zM212 496.5q18 13.5 18 37.5t-18.5 38t-48.5 14q-31 0 -49 -13.5t-18 -38.5q0 -24 18 -37.5t49 -13.5t49 13.5z" />
    <glyph glyph-name="uni2079" unicode="&#x2079;" horiz-adv-x="333" 
d="M68.5 439.5q-35.5 24.5 -49.5 68.5l72 11q8 -18 23.5 -27t36.5 -9q35 0 58 27.5t27 76.5h-5q-32 -37 -90 -37q-55 0 -91 34.5t-36 89.5q0 58 40.5 94.5t104.5 36.5q71 0 113 -50t42 -135q0 -94 -43.5 -149.5t-116.5 -55.5q-50 0 -85.5 24.5zM208 628q19 18 19 45t-19 45
t-48 18q-28 0 -46 -18t-18 -45t18 -45t46 -18q29 0 48 18z" />
    <glyph glyph-name="uni2080" unicode="&#x2080;" horiz-adv-x="358" 
d="M63 -51q-44 54 -44 141t44 141t116 54q47 0 83.5 -24.5t56.5 -69t20 -101.5t-20 -101.5t-56.5 -69t-83.5 -24.5q-72 0 -116 54zM234 3.5q20 32.5 20 86.5q0 55 -20 87.5t-55 32.5t-55 -32.5t-20 -87.5t19.5 -87t55.5 -32q35 0 55 32.5z" />
    <glyph glyph-name="uni2081" unicode="&#x2081;" horiz-adv-x="219" 
d="M89 -100v232h-79v75h61q24 0 24 21v52h82v-380h-88z" />
    <glyph glyph-name="uni2082" unicode="&#x2082;" horiz-adv-x="313" 
d="M20 -100v81l125 102q32 27 44.5 45t12.5 38q0 21 -12.5 32.5t-36.5 11.5q-25 0 -42.5 -14t-24.5 -41l-77 12q13 56 51 87t95 31q60 0 97 -31t37 -81q0 -35 -20 -66.5t-67 -69.5l-69 -56v-5h166v-76h-279z" />
    <glyph glyph-name="uni2083" unicode="&#x2083;" horiz-adv-x="324" 
d="M292.5 61q18.5 -25 18.5 -57q0 -49 -40 -79t-104 -30q-62 0 -103.5 32t-54.5 90l77 11q7 -29 28 -44t52 -15q27 0 42.5 12t15.5 34t-15 34t-43 12h-41v66h37q24 0 38 11.5t14 31.5t-14 31.5t-38 11.5q-28 0 -47 -15t-26 -41l-76 12q13 54 52.5 85t97.5 31q60 0 98.5 -29
t38.5 -74q0 -27 -15 -49t-42 -35q31 -12 49.5 -37z" />
    <glyph glyph-name="uni2084" unicode="&#x2084;" horiz-adv-x="327" 
d="M269 61h48v-72h-48v-89h-84v89h-180v72l167 219h97v-219zM188 186h-5l-93 -125h98v125z" />
    <glyph glyph-name="uni2085" unicode="&#x2085;" horiz-adv-x="324" 
d="M274.5 115.5q34.5 -35.5 34.5 -90.5q0 -58 -39 -94t-103 -36q-58 0 -100 29.5t-53 78.5l77 12q9 -22 27 -34t43 -12q28 0 44.5 15.5t16.5 43.5q0 27 -16 43t-43 16q-37 0 -57 -31h-76l19 224h240v-72h-172l-8 -83h5q26 26 72 26q54 0 88.5 -35.5z" />
    <glyph glyph-name="uni2086" unicode="&#x2086;" horiz-adv-x="333" 
d="M61 -55q-42 50 -42 135q0 94 43.5 149.5t115.5 55.5q50 0 86 -24.5t49 -68.5l-71 -11q-9 18 -24.5 27.5t-35.5 9.5q-35 0 -57.5 -28t-27.5 -77h5q32 37 90 37q55 0 91 -34t36 -89q0 -58 -41 -95t-104 -37q-71 0 -113 50zM218.5 -18q18.5 18 18.5 45q0 28 -18.5 46
t-46.5 18t-47 -18t-19 -46q0 -27 19 -45t47 -18t46.5 18z" />
    <glyph glyph-name="uni2087" unicode="&#x2087;" horiz-adv-x="293" 
d="M146 -100h-89l132 300v5h-184v75h269v-81z" />
    <glyph glyph-name="uni2088" unicode="&#x2088;" horiz-adv-x="326" 
d="M293.5 62.5q17.5 -24.5 17.5 -55.5q0 -50 -41.5 -81t-106.5 -31t-106.5 31t-41.5 81q0 31 17.5 55.5t48.5 37.5q-25 11 -39 32t-14 47q0 45 38.5 75.5t96.5 30.5t96.5 -30.5t38.5 -75.5q0 -27 -14 -47.5t-39 -31.5q31 -13 48.5 -37.5zM123 206.5q-16 -12.5 -16 -33.5
t16 -34.5t40 -13.5t39.5 13t15.5 35q0 21 -15.5 33.5t-39.5 12.5t-40 -12.5zM212 -23.5q18 13.5 18 37.5t-18.5 38t-48.5 14q-31 0 -49 -13.5t-18 -38.5q0 -24 18 -37.5t49 -13.5t49 13.5z" />
    <glyph glyph-name="uni2089" unicode="&#x2089;" horiz-adv-x="333" 
d="M68.5 -80.5q-35.5 24.5 -49.5 68.5l72 11q8 -18 23.5 -27t36.5 -9q35 0 58 27.5t27 76.5h-5q-32 -37 -90 -37q-55 0 -91 34.5t-36 89.5q0 58 40.5 94.5t104.5 36.5q71 0 113 -50t42 -135q0 -94 -43.5 -149.5t-116.5 -55.5q-50 0 -85.5 24.5zM208 108q19 18 19 45t-19 45
t-48 18q-28 0 -46 -18t-18 -45t18 -45t46 -18q29 0 48 18z" />
    <glyph glyph-name="uni20A9" unicode="&#x20a9;" horiz-adv-x="944" 
d="M922 488v-85h-107l-23 -115h130v-85h-147l-41 -203h-151l-107 532h-5l-108 -532h-153l-41 203h-147v85h130l-23 115h-107v85h90l-43 212h112l108 -570h5l116 570h128l116 -570h5l108 570h108l-43 -212h90z" />
    <glyph glyph-name="Euro" unicode="&#x20ac;" horiz-adv-x="729" 
d="M694 196q-29 -97 -103.5 -152t-177.5 -55q-115 0 -197 66.5t-111 179.5h-101v80h88q-1 11 -1 35t1 36h-88v79h101q29 114 110.5 180t196.5 66q101 0 175 -55t102 -152l-108 -17q-46 118 -169 118q-69 0 -117 -36.5t-70 -103.5h228v-79h-243q-1 -12 -1 -36t1 -35h243v-80
h-228q22 -67 70.5 -103.5t117.5 -36.5q125 0 173 118z" />
    <glyph glyph-name="uni20AE" unicode="&#x20ae;" horiz-adv-x="588" 
d="M572 700v-104h-218v-137l131 45v-83l-131 -44v-77l131 44v-82l-131 -44v-218h-120v177l-120 -41v82l120 41v77l-120 -41v82l120 41v178h-217v104h555z" />
    <glyph glyph-name="uni20B4" unicode="&#x20b4;" horiz-adv-x="623" 
d="M584 460v-78h-545v78h369q19 26 19 58q0 42 -32.5 67t-85.5 25q-50 0 -87 -22.5t-52 -61.5l-106 17q20 77 87.5 122.5t160.5 45.5q64 0 117.5 -22t84 -60.5t30.5 -84.5t-32 -84h72zM39 240v78h545v-78h-369q-19 -25 -19 -57q0 -42 32.5 -67.5t85.5 -25.5q50 0 87 22.5
t52 61.5l106 -17q-21 -77 -88.5 -122.5t-160.5 -45.5q-64 0 -117 22t-83.5 60.5t-30.5 84.5q0 45 31 84h-71z" />
    <glyph glyph-name="uni20B8" unicode="&#x20b8;" horiz-adv-x="588" 
d="M567 613h-545v87h545v-87zM354 0h-120v448h-212v101h545v-101h-213v-448z" />
    <glyph glyph-name="uni20B9" unicode="&#x20b9;" horiz-adv-x="583" 
d="M541 700v-79h-116q39 -35 52 -92h64v-79h-63q-11 -67 -59 -113.5t-120 -59.5l216 -277h-142l-207 272h-119v93h188q52 0 85 22t43 63h-316v79h314q-12 37 -44.5 57.5t-81.5 20.5h-188v93h494z" />
    <glyph glyph-name="uni20BA" unicode="&#x20ba;" horiz-adv-x="603" 
d="M579 320q0 -156 -80 -238t-227 -82h-166v227l-92 -41v87l92 41v80l-92 -41v87l92 41v219h118v-166l160 72v-87l-160 -72v-80l160 72v-87l-160 -72v-173h43q103 0 152.5 51.5t49.5 161.5h110z" />
    <glyph glyph-name="uni20BD" unicode="&#x20bd;" horiz-adv-x="616" 
d="M226 293v-68h184v-84h-184v-141h-120v141h-92v84h92v68h-92v96h92v311h252q65 0 116.5 -26.5t80.5 -73t29 -104.5q0 -57 -29 -103.5t-81 -73t-116 -26.5h-132zM224 601v-212h122q56 0 88.5 28t32.5 78t-32.5 78t-88.5 28h-122z" />
    <glyph glyph-name="uni20BF" unicode="&#x20bf;" horiz-adv-x="653" 
d="M566.5 80q-39.5 -49 -105.5 -69v-121h-95v110h-101v-110h-95v110h-98v700h98v110h95v-110h101v110h95v-125q57 -21 91 -66.5t34 -103.5q0 -51 -27.5 -89.5t-79.5 -61.5q61 -23 94 -66.5t33 -102.5q0 -66 -39.5 -115zM437 572.5q-30 26.5 -81 26.5h-165v-196h165
q51 0 81 26t30 71q0 46 -30 72.5zM361 101q59 0 92 27.5t33 77.5t-33 77.5t-92 27.5h-170v-210h170z" />
    <glyph glyph-name="som" unicode="&#x20c0;" horiz-adv-x="547" 
d="M156.5 223q-56.5 33 -88 92.5t-31.5 135.5t31.5 135t87.5 92t128 33q82 0 142 -43.5t80 -120.5l-99 -16q-13 40 -46 62t-76 22q-62 0 -99.5 -44.5t-37.5 -119.5q0 -76 37.5 -120.5t101.5 -44.5q45 0 78 22t46 62l99 -16q-20 -77 -80 -120.5t-144 -43.5q-73 0 -129.5 33z
M479 0h-407v93h407v-93z" />
    <glyph glyph-name="uni2116" unicode="&#x2116;" horiz-adv-x="1078" 
d="M188 0h-116v700h133l308 -522h5v522h116v-700h-133l-308 522h-5v-522zM787 169.5q-38 21.5 -60 59.5t-22 85t22 85t60 59.5t85 21.5t85.5 -21.5t60.5 -59.5t22 -85t-22 -85t-60.5 -59.5t-85.5 -21.5t-85 21.5zM928 255q22 23 22 59t-22 59.5t-56 23.5t-55.5 -23.5
t-21.5 -59.5t21.5 -59t55.5 -23t56 23zM1023 0h-302v81h302v-81z" />
    <glyph glyph-name="trademark" unicode="&#x2122;" horiz-adv-x="642" 
d="M165 436h-69v207h-77v57h222v-57h-76v-207zM344 436h-64v264h88l70 -182h5l69 182h86v-264h-64v165h-5l-64 -165h-52l-64 165h-5v-165z" />
    <glyph glyph-name="uni2150" unicode="&#x2150;" horiz-adv-x="769" 
d="M89 320v232h-79v75h61q24 0 24 21v52h82v-380h-88zM193 0h-102l412 700h102zM623 0h-89l132 300v5h-184v75h269v-81z" />
    <glyph glyph-name="uni2151" unicode="&#x2151;" horiz-adv-x="789" 
d="M89 320v232h-79v75h61q24 0 24 21v52h82v-380h-88zM193 0h-102l412 700h102zM525.5 19.5q-35.5 24.5 -49.5 68.5l72 11q8 -18 23.5 -27t36.5 -9q35 0 58 27.5t27 76.5h-5q-32 -37 -90 -37q-55 0 -91 34.5t-36 89.5q0 58 40.5 94.5t104.5 36.5q71 0 113 -50t42 -135
q0 -94 -43.5 -149.5t-116.5 -55.5q-50 0 -85.5 24.5zM665 208q19 18 19 45t-19 45t-48 18q-28 0 -46 -18t-18 -45t18 -45t46 -18q29 0 48 18z" />
    <glyph glyph-name="uni2152" unicode="&#x2152;" horiz-adv-x="1033" 
d="M89 320v232h-79v75h61q24 0 24 21v52h82v-380h-88zM193 0h-102l412 700h102zM546 0v232h-79v75h61q24 0 24 21v52h82v-380h-88zM739 49q-44 54 -44 141t44 141t116 54q47 0 83.5 -24.5t56.5 -69t20 -101.5t-20 -101.5t-56.5 -69t-83.5 -24.5q-72 0 -116 54zM910 103.5
q20 32.5 20 86.5q0 55 -20 87.5t-55 32.5t-55 -32.5t-20 -87.5t19.5 -87t55.5 -32q35 0 55 32.5z" />
    <glyph glyph-name="uni2153" unicode="&#x2153;" horiz-adv-x="781" 
d="M89 320v232h-79v75h61q24 0 24 21v52h82v-380h-88zM193 0h-102l412 700h102zM749.5 161q18.5 -25 18.5 -57q0 -49 -40 -79t-104 -30q-62 0 -103.5 32t-54.5 90l77 11q7 -29 28 -44t52 -15q27 0 42.5 12t15.5 34t-15 34t-43 12h-41v66h37q24 0 38 11.5t14 31.5t-14 31.5
t-38 11.5q-28 0 -47 -15t-26 -41l-76 12q13 54 52.5 85t97.5 31q60 0 98.5 -29t38.5 -74q0 -27 -15 -49t-42 -35q31 -12 49.5 -37z" />
    <glyph glyph-name="uni2154" unicode="&#x2154;" horiz-adv-x="855" 
d="M20 320v81l125 102q32 27 44.5 45t12.5 38q0 21 -12.5 32.5t-36.5 11.5q-25 0 -42.5 -14t-24.5 -41l-77 12q13 56 51 87t95 31q60 0 97 -31t37 -81q0 -35 -20 -66.5t-67 -69.5l-69 -56v-5h166v-76h-279zM267 0h-102l412 700h102zM823.5 161q18.5 -25 18.5 -57
q0 -49 -40 -79t-104 -30q-62 0 -103.5 32t-54.5 90l77 11q7 -29 28 -44t52 -15q27 0 42.5 12t15.5 34t-15 34t-43 12h-41v66h37q24 0 38 11.5t14 31.5t-14 31.5t-38 11.5q-28 0 -47 -15t-26 -41l-76 12q13 54 52.5 85t97.5 31q60 0 98.5 -29t38.5 -74q0 -27 -15 -49t-42 -35
q31 -12 49.5 -37z" />
    <glyph glyph-name="uni2155" unicode="&#x2155;" horiz-adv-x="781" 
d="M89 320v232h-79v75h61q24 0 24 21v52h82v-380h-88zM193 0h-102l412 700h102zM731.5 215.5q34.5 -35.5 34.5 -90.5q0 -58 -39 -94t-103 -36q-58 0 -100 29.5t-53 78.5l77 12q9 -22 27 -34t43 -12q28 0 44.5 15.5t16.5 43.5q0 27 -16 43t-43 16q-37 0 -57 -31h-76l19 224
h240v-72h-172l-8 -83h5q26 26 72 26q54 0 88.5 -35.5z" />
    <glyph glyph-name="uni2156" unicode="&#x2156;" horiz-adv-x="855" 
d="M20 320v81l125 102q32 27 44.5 45t12.5 38q0 21 -12.5 32.5t-36.5 11.5q-25 0 -42.5 -14t-24.5 -41l-77 12q13 56 51 87t95 31q60 0 97 -31t37 -81q0 -35 -20 -66.5t-67 -69.5l-69 -56v-5h166v-76h-279zM267 0h-102l412 700h102zM805.5 215.5q34.5 -35.5 34.5 -90.5
q0 -58 -39 -94t-103 -36q-58 0 -100 29.5t-53 78.5l77 12q9 -22 27 -34t43 -12q28 0 44.5 15.5t16.5 43.5q0 27 -16 43t-43 16q-37 0 -57 -31h-76l19 224h240v-72h-172l-8 -83h5q26 26 72 26q54 0 88.5 -35.5z" />
    <glyph glyph-name="uni2157" unicode="&#x2157;" horiz-adv-x="866" 
d="M292.5 481q18.5 -25 18.5 -57q0 -49 -40 -79t-104 -30q-62 0 -103.5 32t-54.5 90l77 11q7 -29 28 -44t52 -15q27 0 42.5 12t15.5 34t-15 34t-43 12h-41v66h37q24 0 38 11.5t14 31.5t-14 31.5t-38 11.5q-28 0 -47 -15t-26 -41l-76 12q13 54 52.5 85t97.5 31q60 0 98.5 -29
t38.5 -74q0 -27 -15 -49t-42 -35q31 -12 49.5 -37zM278 0h-102l412 700h102zM816.5 215.5q34.5 -35.5 34.5 -90.5q0 -58 -39 -94t-103 -36q-58 0 -100 29.5t-53 78.5l77 12q9 -22 27 -34t43 -12q28 0 44.5 15.5t16.5 43.5q0 27 -16 43t-43 16q-37 0 -57 -31h-76l19 224h240
v-72h-172l-8 -83h5q26 26 72 26q54 0 88.5 -35.5z" />
    <glyph glyph-name="uni2158" unicode="&#x2158;" horiz-adv-x="889" 
d="M269 481h48v-72h-48v-89h-84v89h-180v72l167 219h97v-219zM188 606h-5l-93 -125h98v125zM301 0h-102l412 700h102zM839.5 215.5q34.5 -35.5 34.5 -90.5q0 -58 -39 -94t-103 -36q-58 0 -100 29.5t-53 78.5l77 12q9 -22 27 -34t43 -12q28 0 44.5 15.5t16.5 43.5
q0 27 -16 43t-43 16q-37 0 -57 -31h-76l19 224h240v-72h-172l-8 -83h5q26 26 72 26q54 0 88.5 -35.5z" />
    <glyph glyph-name="uni2159" unicode="&#x2159;" horiz-adv-x="789" 
d="M89 320v232h-79v75h61q24 0 24 21v52h82v-380h-88zM193 0h-102l412 700h102zM518 45q-42 50 -42 135q0 94 43.5 149.5t115.5 55.5q50 0 86 -24.5t49 -68.5l-71 -11q-9 18 -24.5 27.5t-35.5 9.5q-35 0 -57.5 -28t-27.5 -77h5q32 37 90 37q55 0 91 -34t36 -89
q0 -58 -41 -95t-104 -37q-71 0 -113 50zM675.5 82q18.5 18 18.5 45q0 28 -18.5 46t-46.5 18t-47 -18t-19 -46q0 -27 19 -45t47 -18t46.5 18z" />
    <glyph glyph-name="uni215A" unicode="&#x215a;" horiz-adv-x="874" 
d="M274.5 535.5q34.5 -35.5 34.5 -90.5q0 -58 -39 -94t-103 -36q-58 0 -100 29.5t-53 78.5l77 12q9 -22 27 -34t43 -12q28 0 44.5 15.5t16.5 43.5q0 27 -16 43t-43 16q-37 0 -57 -31h-76l19 224h240v-72h-172l-8 -83h5q26 26 72 26q54 0 88.5 -35.5zM278 0h-102l412 700h102
zM603 45q-42 50 -42 135q0 94 43.5 149.5t115.5 55.5q50 0 86 -24.5t49 -68.5l-71 -11q-9 18 -24.5 27.5t-35.5 9.5q-35 0 -57.5 -28t-27.5 -77h5q32 37 90 37q55 0 91 -34t36 -89q0 -58 -41 -95t-104 -37q-71 0 -113 50zM760.5 82q18.5 18 18.5 45q0 28 -18.5 46t-46.5 18
t-47 -18t-19 -46q0 -27 19 -45t47 -18t46.5 18z" />
    <glyph glyph-name="oneeighth" unicode="&#x215b;" horiz-adv-x="782" 
d="M89 320v232h-79v75h61q24 0 24 21v52h82v-380h-88zM193 0h-102l412 700h102zM750.5 162.5q17.5 -24.5 17.5 -55.5q0 -50 -41.5 -81t-106.5 -31t-106.5 31t-41.5 81q0 31 17.5 55.5t48.5 37.5q-25 11 -39 32t-14 47q0 45 38.5 75.5t96.5 30.5t96.5 -30.5t38.5 -75.5
q0 -27 -14 -47.5t-39 -31.5q31 -13 48.5 -37.5zM580 306.5q-16 -12.5 -16 -33.5t16 -34.5t40 -13.5t39.5 13t15.5 35q0 21 -15.5 33.5t-39.5 12.5t-40 -12.5zM669 76.5q18 13.5 18 37.5t-18.5 38t-48.5 14q-31 0 -49 -13.5t-18 -38.5q0 -24 18 -37.5t49 -13.5t49 13.5z" />
    <glyph glyph-name="threeeighths" unicode="&#x215c;" horiz-adv-x="867" 
d="M292.5 481q18.5 -25 18.5 -57q0 -49 -40 -79t-104 -30q-62 0 -103.5 32t-54.5 90l77 11q7 -29 28 -44t52 -15q27 0 42.5 12t15.5 34t-15 34t-43 12h-41v66h37q24 0 38 11.5t14 31.5t-14 31.5t-38 11.5q-28 0 -47 -15t-26 -41l-76 12q13 54 52.5 85t97.5 31q60 0 98.5 -29
t38.5 -74q0 -27 -15 -49t-42 -35q31 -12 49.5 -37zM278 0h-102l412 700h102zM835.5 162.5q17.5 -24.5 17.5 -55.5q0 -50 -41.5 -81t-106.5 -31t-106.5 31t-41.5 81q0 31 17.5 55.5t48.5 37.5q-25 11 -39 32t-14 47q0 45 38.5 75.5t96.5 30.5t96.5 -30.5t38.5 -75.5
q0 -27 -14 -47.5t-39 -31.5q31 -13 48.5 -37.5zM665 306.5q-16 -12.5 -16 -33.5t16 -34.5t40 -13.5t39.5 13t15.5 35q0 21 -15.5 33.5t-39.5 12.5t-40 -12.5zM754 76.5q18 13.5 18 37.5t-18.5 38t-48.5 14q-31 0 -49 -13.5t-18 -38.5q0 -24 18 -37.5t49 -13.5t49 13.5z" />
    <glyph glyph-name="fiveeighths" unicode="&#x215d;" horiz-adv-x="867" 
d="M274.5 535.5q34.5 -35.5 34.5 -90.5q0 -58 -39 -94t-103 -36q-58 0 -100 29.5t-53 78.5l77 12q9 -22 27 -34t43 -12q28 0 44.5 15.5t16.5 43.5q0 27 -16 43t-43 16q-37 0 -57 -31h-76l19 224h240v-72h-172l-8 -83h5q26 26 72 26q54 0 88.5 -35.5zM278 0h-102l412 700h102
zM835.5 162.5q17.5 -24.5 17.5 -55.5q0 -50 -41.5 -81t-106.5 -31t-106.5 31t-41.5 81q0 31 17.5 55.5t48.5 37.5q-25 11 -39 32t-14 47q0 45 38.5 75.5t96.5 30.5t96.5 -30.5t38.5 -75.5q0 -27 -14 -47.5t-39 -31.5q31 -13 48.5 -37.5zM665 306.5q-16 -12.5 -16 -33.5
t16 -34.5t40 -13.5t39.5 13t15.5 35q0 21 -15.5 33.5t-39.5 12.5t-40 -12.5zM754 76.5q18 13.5 18 37.5t-18.5 38t-48.5 14q-31 0 -49 -13.5t-18 -38.5q0 -24 18 -37.5t49 -13.5t49 13.5z" />
    <glyph glyph-name="seveneighths" unicode="&#x215e;" horiz-adv-x="796" 
d="M146 320h-89l132 300v5h-184v75h269v-81zM207 0h-102l412 700h102zM764.5 162.5q17.5 -24.5 17.5 -55.5q0 -50 -41.5 -81t-106.5 -31t-106.5 31t-41.5 81q0 31 17.5 55.5t48.5 37.5q-25 11 -39 32t-14 47q0 45 38.5 75.5t96.5 30.5t96.5 -30.5t38.5 -75.5
q0 -27 -14 -47.5t-39 -31.5q31 -13 48.5 -37.5zM594 306.5q-16 -12.5 -16 -33.5t16 -34.5t40 -13.5t39.5 13t15.5 35q0 21 -15.5 33.5t-39.5 12.5t-40 -12.5zM683 76.5q18 13.5 18 37.5t-18.5 38t-48.5 14q-31 0 -49 -13.5t-18 -38.5q0 -24 18 -37.5t49 -13.5t49 13.5z" />
    <glyph glyph-name="uni215F" unicode="&#x215f;" horiz-adv-x="457" 
d="M89 320v232h-79v75h61q24 0 24 21v52h82v-380h-88zM193 0h-102l412 700h102z" />
    <glyph glyph-name="arrowleft" unicode="&#x2190;" horiz-adv-x="726" 
d="M202 392l479 9v-102l-479 9l125 -112l-61 -66l-222 220l222 221l61 -67z" />
    <glyph glyph-name="arrowup" unicode="&#x2191;" horiz-adv-x="626" 
d="M313 683l221 -223l-67 -60l-112 125l9 -508h-102l9 508l-112 -125l-66 60z" />
    <glyph glyph-name="arrowright" unicode="&#x2192;" horiz-adv-x="726" 
d="M399 504l61 67l223 -221l-223 -220l-61 66l125 112l-479 -9v102l479 -9z" />
    <glyph glyph-name="arrowdown" unicode="&#x2193;" horiz-adv-x="626" 
d="M355 175l112 125l67 -60l-221 -223l-220 223l66 60l112 -125l-9 508h102z" />
    <glyph glyph-name="arrowboth" unicode="&#x2194;" horiz-adv-x="756" 
d="M461 507l62 64l203 -221l-203 -220l-62 63l117 114h-400l118 -114l-63 -63l-202 220l202 221l63 -64l-118 -114h400z" />
    <glyph glyph-name="arrowupdn" unicode="&#x2195;" horiz-adv-x="626" 
d="M356 556v-412l114 118l64 -62l-221 -203l-220 203l63 62l114 -118v412l-114 -118l-63 62l220 203l221 -203l-64 -62z" />
    <glyph glyph-name="uni2196" unicode="&#x2196;" horiz-adv-x="676" 
d="M240 522l373 -359l-73 -72l-359 372l7 -167l-89 -4v313h312l-4 -90z" />
    <glyph glyph-name="uni2197" unicode="&#x2197;" horiz-adv-x="676" 
d="M269 515l-4 90h313v-313l-90 4l7 167l-359 -372l-72 72l372 359z" />
    <glyph glyph-name="uni2198" unicode="&#x2198;" horiz-adv-x="676" 
d="M495 232l-7 167l90 4v-312h-313l4 89l167 -7l-372 359l72 73z" />
    <glyph glyph-name="uni2199" unicode="&#x2199;" horiz-adv-x="676" 
d="M613 532l-373 -359l167 7l4 -89h-312v312l89 -4l-7 -167l359 373z" />
    <glyph glyph-name="minus" unicode="&#x2212;" horiz-adv-x="581" 
d="M520 302h-458v95h458v-95z" />
    <glyph glyph-name="approxequal" unicode="&#x2248;" horiz-adv-x="581" 
d="M70 392q0 62 33 100t93 38q32 0 57 -10.5t53 -28.5q23 -14 38.5 -21t33.5 -7q22 0 35 13t13 39v15h85v-18q0 -62 -33 -100t-93 -38q-32 0 -57 10.5t-53 28.5q-23 14 -38.5 21t-33.5 7q-23 0 -35.5 -13.5t-12.5 -38.5v-15h-85v18zM70 188q0 62 33 100.5t93 38.5
q32 0 57 -10.5t53 -28.5q23 -14 38.5 -21t33.5 -7q22 0 35 13t13 39v15h85v-18q0 -63 -33 -101t-93 -38q-32 0 -57 10.5t-53 28.5q-23 14 -38.5 21t-33.5 7q-23 0 -35.5 -13.5t-12.5 -38.5v-15h-85v18z" />
    <glyph glyph-name="notequal" unicode="&#x2260;" horiz-adv-x="581" 
d="M505 494v-93h-149l-43 -102h192v-93h-232l-49 -116h-87l49 116h-109v93h148l44 102h-192v93h231l49 116h88l-49 -116h109z" />
    <glyph glyph-name="lessequal" unicode="&#x2264;" horiz-adv-x="581" 
d="M90 447l396 157v-96l-295 -113l295 -114v-96l-396 157v105zM486 33h-396v85h396v-85z" />
    <glyph glyph-name="greaterequal" unicode="&#x2265;" horiz-adv-x="581" 
d="M95 508v96l396 -157v-105l-396 -157v96l295 114zM491 33h-396v85h396v-85z" />
    <glyph glyph-name="uni2460" unicode="&#x2460;" horiz-adv-x="830" 
d="M222 18.5q-86 49.5 -134.5 136t-48.5 195.5t48.5 195.5t134.5 136t193 49.5t193 -49.5t135 -136.5t49 -195t-49 -195t-135 -136.5t-193 -49.5t-193 49.5zM570 80q69 40 107.5 110.5t38.5 159.5t-38.5 159.5t-107.5 110.5t-155 40t-154.5 -40t-107 -110.5t-38.5 -159.5
t38.5 -159.5t107 -110.5t154.5 -40t155 40zM385 160v232h-79v75h61q24 0 24 21v52h82v-380h-88z" />
    <glyph glyph-name="uni2461" unicode="&#x2461;" horiz-adv-x="830" 
d="M222 18.5q-86 49.5 -134.5 136t-48.5 195.5t48.5 195.5t134.5 136t193 49.5t193 -49.5t135 -136.5t49 -195t-49 -195t-135 -136.5t-193 -49.5t-193 49.5zM570 80q69 40 107.5 110.5t38.5 159.5t-38.5 159.5t-107.5 110.5t-155 40t-154.5 -40t-107 -110.5t-38.5 -159.5
t38.5 -159.5t107 -110.5t154.5 -40t155 40zM281 160v81l125 102q32 27 44.5 45t12.5 38q0 21 -12.5 32.5t-36.5 11.5q-25 0 -42.5 -14t-24.5 -41l-77 12q13 56 51 87t95 31q60 0 97 -31t37 -81q0 -35 -20 -66.5t-67 -69.5l-69 -56v-5h166v-76h-279z" />
    <glyph glyph-name="uni2462" unicode="&#x2462;" horiz-adv-x="830" 
d="M608 681.5q86 -49.5 135 -136.5t49 -195t-49 -195t-135 -136.5t-193 -49.5t-193 49.5t-134.5 136t-48.5 195.5t48.5 195.5t134.5 136t193 49.5t193 -49.5zM570 80q69 40 107.5 110.5t38.5 159.5t-38.5 159.5t-107.5 110.5t-155 40t-154.5 -40t-107 -110.5t-38.5 -159.5
t38.5 -159.5t107 -110.5t154.5 -40t155 40zM543 321q18 -25 18 -57q0 -49 -39.5 -79t-103.5 -30q-62 0 -104 32t-55 90l77 11q7 -29 28 -44t52 -15q28 0 43 12t15 34t-15 34t-43 12h-41v66h37q25 0 39 11.5t14 31.5t-14 31.5t-39 11.5q-28 0 -47 -15t-25 -41l-76 12
q12 54 52 85t98 31q59 0 97.5 -29t38.5 -74q0 -27 -15 -49t-41 -35q31 -12 49 -37z" />
    <glyph glyph-name="uni2463" unicode="&#x2463;" horiz-adv-x="830" 
d="M608 681.5q86 -49.5 135 -136.5t49 -195t-49 -195t-135 -136.5t-193 -49.5t-193 49.5t-134.5 136t-48.5 195.5t48.5 195.5t134.5 136t193 49.5t193 -49.5zM570 80q69 40 107.5 110.5t38.5 159.5t-38.5 159.5t-107.5 110.5t-155 40t-154.5 -40t-107 -110.5t-38.5 -159.5
t38.5 -159.5t107 -110.5t154.5 -40t155 40zM408 540h96v-219h49v-72h-49v-89h-83v89h-180v72zM424 446h-5l-93 -125h98v125z" />
    <glyph glyph-name="uni2464" unicode="&#x2464;" horiz-adv-x="830" 
d="M608 681.5q86 -49.5 135 -136.5t49 -195t-49 -195t-135 -136.5t-193 -49.5t-193 49.5t-134.5 136t-48.5 195.5t48.5 195.5t134.5 136t193 49.5t193 -49.5zM570 80q69 40 107.5 110.5t38.5 159.5t-38.5 159.5t-107.5 110.5t-155 40t-154.5 -40t-107 -110.5t-38.5 -159.5
t38.5 -159.5t107 -110.5t154.5 -40t155 40zM524.5 375.5q34.5 -35.5 34.5 -90.5q0 -59 -39 -94.5t-103 -35.5q-58 0 -100 29.5t-53 78.5l77 12q9 -22 27 -34t43 -12q29 0 45 15.5t16 43.5t-16 43.5t-43 15.5q-37 0 -56 -31h-76l19 224h239v-72h-172l-8 -83h5q26 26 72 26
q54 0 88.5 -35.5z" />
    <glyph glyph-name="uni2465" unicode="&#x2465;" horiz-adv-x="830" 
d="M222 18.5q-86 49.5 -134.5 136t-48.5 195.5t48.5 195.5t134.5 136t193 49.5t193 -49.5t135 -136.5t49 -195t-49 -195t-135 -136.5t-193 -49.5t-193 49.5zM570 80q69 40 107.5 110.5t38.5 159.5t-38.5 159.5t-107.5 110.5t-155 40t-154.5 -40t-107 -110.5t-38.5 -159.5
t38.5 -159.5t107 -110.5t154.5 -40t155 40zM307 205q-42 50 -42 135q0 94 43.5 149.5t116.5 55.5q50 0 85.5 -24.5t49.5 -68.5l-72 -11q-8 18 -24 27.5t-36 9.5q-35 0 -57.5 -28t-27.5 -77h5q32 37 90 37q55 0 91 -34t36 -89q0 -58 -40.5 -95t-104.5 -37q-71 0 -113 50z
M465 242q18 18 18 45q0 28 -18 46t-46 18q-29 0 -48 -18t-19 -46q0 -27 19 -45t48 -18q28 0 46 18z" />
    <glyph glyph-name="uni2466" unicode="&#x2466;" horiz-adv-x="830" 
d="M222 18.5q-86 49.5 -134.5 136t-48.5 195.5t48.5 195.5t134.5 136t193 49.5t193 -49.5t135 -136.5t49 -195t-49 -195t-135 -136.5t-193 -49.5t-193 49.5zM570 80q69 40 107.5 110.5t38.5 159.5t-38.5 159.5t-107.5 110.5t-155 40t-154.5 -40t-107 -110.5t-38.5 -159.5
t38.5 -159.5t107 -110.5t154.5 -40t155 40zM417 160h-89l132 300v5h-184v75h269v-81z" />
    <glyph glyph-name="uni2467" unicode="&#x2467;" horiz-adv-x="830" 
d="M608 681.5q86 -49.5 135 -136.5t49 -195t-49 -195t-135 -136.5t-193 -49.5t-193 49.5t-134.5 136t-48.5 195.5t48.5 195.5t134.5 136t193 49.5t193 -49.5zM570 80q69 40 107.5 110.5t38.5 159.5t-38.5 159.5t-107.5 110.5t-155 40t-154.5 -40t-107 -110.5t-38.5 -159.5
t38.5 -159.5t107 -110.5t154.5 -40t155 40zM545.5 322.5q17.5 -24.5 17.5 -55.5q0 -50 -41 -81t-106 -31q-66 0 -107 30.5t-41 81.5q0 32 17.5 56t48.5 37q-25 11 -39 32t-14 47q0 45 38.5 75.5t96.5 30.5t96 -30.5t38 -75.5q0 -26 -14 -47t-39 -32q31 -13 48.5 -37.5z
M376 466.5q-16 -12.5 -16 -33.5q0 -22 15.5 -35t40.5 -13q24 0 39.5 13t15.5 35q0 21 -15.5 33.5t-39.5 12.5t-40 -12.5zM465 236.5q18 13.5 18 37.5t-18.5 38t-48.5 14q-31 0 -49.5 -14t-18.5 -38t18.5 -37.5t49.5 -13.5t49 13.5z" />
    <glyph glyph-name="uni2468" unicode="&#x2468;" horiz-adv-x="830" 
d="M222 18.5q-86 49.5 -134.5 136t-48.5 195.5t48.5 195.5t134.5 136t193 49.5t193 -49.5t135 -136.5t49 -195t-49 -195t-135 -136.5t-193 -49.5t-193 49.5zM570 80q69 40 107.5 110.5t38.5 159.5t-38.5 159.5t-107.5 110.5t-155 40t-154.5 -40t-107 -110.5t-38.5 -159.5
t38.5 -159.5t107 -110.5t154.5 -40t155 40zM319.5 179.5q-35.5 24.5 -49.5 68.5l72 11q18 -36 60 -36q35 0 58 27.5t27 76.5h-5q-32 -37 -90 -37q-55 0 -91 34.5t-36 89.5q0 58 40.5 94.5t104.5 36.5q71 0 113 -50t42 -135q0 -94 -43.5 -149.5t-116.5 -55.5
q-50 0 -85.5 24.5zM459 368q19 18 19 45t-19 45t-48 18q-28 0 -46 -18t-18 -45t18 -45t46 -18q29 0 48 18z" />
    <glyph glyph-name="uni24EA" unicode="&#x24ea;" horiz-adv-x="830" 
d="M222 18.5q-86 49.5 -134.5 136t-48.5 195.5t48.5 195.5t134.5 136t193 49.5t193 -49.5t135 -136.5t49 -195t-49 -195t-135 -136.5t-193 -49.5t-193 49.5zM570 80q69 40 107.5 110.5t38.5 159.5t-38.5 159.5t-107.5 110.5t-155 40t-154.5 -40t-107 -110.5t-38.5 -159.5
t38.5 -159.5t107 -110.5t154.5 -40t155 40zM331.5 179.5q-36.5 24.5 -56.5 69t-20 101.5t20 101.5t56.5 69t83.5 24.5q72 0 116 -54t44 -141t-44 -141t-116 -54q-47 0 -83.5 24.5zM470.5 263q19.5 32 19.5 87t-20 87.5t-55 32.5t-55 -32.5t-20 -87.5q0 -54 20 -86.5
t55 -32.5q36 0 55.5 32z" />
    <glyph glyph-name="uni24FF" unicode="&#x24ff;" horiz-adv-x="830" 
d="M222 18.5q-86 49.5 -134.5 136t-48.5 195.5t48.5 195.5t134.5 136t193 49.5t193 -49.5t135 -136.5t49 -195t-49 -195t-135 -136.5t-193 -49.5t-193 49.5zM531 209q44 54 44 141t-44 141t-116 54q-47 0 -83.5 -24.5t-56.5 -69t-20 -101.5t20 -101.5t56.5 -69t83.5 -24.5
q72 0 116 54zM360 263.5q-20 32.5 -20 86.5q0 55 20 87.5t55 32.5t55 -32.5t20 -87.5t-19.5 -87t-55.5 -32q-35 0 -55 32.5z" />
    <glyph glyph-name="uni2776" unicode="&#x2776;" horiz-adv-x="830" 
d="M222 18.5q-86 49.5 -134.5 136t-48.5 195.5t48.5 195.5t134.5 136t193 49.5t193 -49.5t135 -136.5t49 -195t-49 -195t-135 -136.5t-193 -49.5t-193 49.5zM385 160h88v380h-82v-52q0 -21 -24 -21h-61v-75h79v-232z" />
    <glyph glyph-name="uni2777" unicode="&#x2777;" horiz-adv-x="830" 
d="M222 18.5q-86 49.5 -134.5 136t-48.5 195.5t48.5 195.5t134.5 136t193 49.5t193 -49.5t135 -136.5t49 -195t-49 -195t-135 -136.5t-193 -49.5t-193 49.5zM281 160h279v76h-166v5l69 56q47 38 67 69.5t20 66.5q0 50 -37 81t-97 31q-57 0 -95 -31t-51 -87l77 -12
q7 27 24.5 41t42.5 14q24 0 36.5 -11.5t12.5 -32.5q0 -20 -12.5 -38t-44.5 -45l-125 -102v-81z" />
    <glyph glyph-name="uni2778" unicode="&#x2778;" horiz-adv-x="830" 
d="M222 18.5q-86 49.5 -134.5 136t-48.5 195.5t48.5 195.5t134.5 136t193 49.5t193 -49.5t135 -136.5t49 -195t-49 -195t-135 -136.5t-193 -49.5t-193 49.5zM521.5 185q39.5 30 39.5 79q0 32 -18 57t-50 38q27 12 42 34t15 49q0 45 -38.5 74t-97.5 29q-58 0 -97.5 -31
t-52.5 -85l76 -12q6 26 25 41t47 15q25 0 39 -11.5t14 -31.5t-14 -31.5t-39 -11.5h-37v-66h41q28 0 43 -12t15 -34t-15 -34t-43 -12q-31 0 -52 15t-28 44l-77 -11q13 -58 55 -90t104 -32q64 0 103.5 30z" />
    <glyph glyph-name="uni2779" unicode="&#x2779;" horiz-adv-x="830" 
d="M222 18.5q-86 49.5 -134.5 136t-48.5 195.5t48.5 195.5t134.5 136t193 49.5t193 -49.5t135 -136.5t49 -195t-49 -195t-135 -136.5t-193 -49.5t-193 49.5zM421 249v-89h83v89h49v72h-49v219h-96l-167 -219v-72h180zM424 321h-99l94 125h5v-125z" />
    <glyph glyph-name="uni277A" unicode="&#x277a;" horiz-adv-x="830" 
d="M222 18.5q-86 49.5 -134.5 136t-48.5 195.5t48.5 195.5t134.5 136t193 49.5t193 -49.5t135 -136.5t49 -195t-49 -195t-135 -136.5t-193 -49.5t-193 49.5zM520 190.5q39 35.5 39 94.5q0 55 -34.5 90.5t-88.5 35.5q-46 0 -72 -26h-5l8 83h172v72h-239l-19 -224h76
q19 31 56 31q27 0 43 -15.5t16 -43.5t-16 -43.5t-45 -15.5q-25 0 -43 12t-27 34l-77 -12q11 -49 53 -78.5t100 -29.5q64 0 103 35.5z" />
    <glyph glyph-name="uni277B" unicode="&#x277b;" horiz-adv-x="830" 
d="M222 18.5q-86 49.5 -134.5 136t-48.5 195.5t48.5 195.5t134.5 136t193 49.5t193 -49.5t135 -136.5t49 -195t-49 -195t-135 -136.5t-193 -49.5t-193 49.5zM524.5 192q40.5 37 40.5 95q0 55 -36 89t-91 34q-58 0 -90 -37h-5q5 49 27.5 77t57.5 28q20 0 36 -9.5t24 -27.5
l72 11q-14 44 -49.5 68.5t-85.5 24.5q-73 0 -116.5 -55.5t-43.5 -149.5q0 -85 42 -135t113 -50q64 0 104.5 37zM371 242q-19 18 -19 45q0 28 19 46t48 18q28 0 46 -18t18 -46q0 -27 -18 -45t-46 -18q-29 0 -48 18z" />
    <glyph glyph-name="uni277C" unicode="&#x277c;" horiz-adv-x="830" 
d="M222 18.5q-86 49.5 -134.5 136t-48.5 195.5t48.5 195.5t134.5 136t193 49.5t193 -49.5t135 -136.5t49 -195t-49 -195t-135 -136.5t-193 -49.5t-193 49.5zM460 460l-132 -300h89l128 299v81h-269v-75h184v-5z" />
    <glyph glyph-name="uni277D" unicode="&#x277d;" horiz-adv-x="830" 
d="M222 18.5q-86 49.5 -134.5 136t-48.5 195.5t48.5 195.5t134.5 136t193 49.5t193 -49.5t135 -136.5t49 -195t-49 -195t-135 -136.5t-193 -49.5t-193 49.5zM522 186q41 31 41 81q0 31 -17.5 55.5t-48.5 37.5q25 11 39 32t14 47q0 45 -38 75.5t-96 30.5t-96.5 -30.5
t-38.5 -75.5q0 -26 13.5 -47t38.5 -32q-31 -13 -48 -37.5t-17 -55.5q0 -51 41 -81.5t107 -30.5q65 0 106 31zM375.5 398q-15.5 13 -15.5 35q0 21 16 33.5t40 12.5t39.5 -12.5t15.5 -33.5q0 -22 -15.5 -35t-39.5 -13q-25 0 -40.5 13zM366.5 236.5q-18.5 13.5 -18.5 37.5
t18.5 38t49.5 14q30 0 48.5 -14t18.5 -38t-18 -37.5t-49 -13.5t-49.5 13.5z" />
    <glyph glyph-name="uni277E" unicode="&#x277e;" horiz-adv-x="830" 
d="M222 18.5q-86 49.5 -134.5 136t-48.5 195.5t48.5 195.5t134.5 136t193 49.5t193 -49.5t135 -136.5t49 -195t-49 -195t-135 -136.5t-193 -49.5t-193 49.5zM521.5 210.5q43.5 55.5 43.5 149.5q0 85 -42 135t-113 50q-64 0 -104.5 -36.5t-40.5 -94.5q0 -55 36 -89.5
t91 -34.5q58 0 90 37h5q-4 -49 -27 -76.5t-58 -27.5q-42 0 -60 36l-72 -11q14 -44 49.5 -68.5t85.5 -24.5q73 0 116.5 55.5zM365 368q-18 18 -18 45t18 45t46 18q29 0 48 -18t19 -45t-19 -45t-48 -18q-28 0 -46 18z" />
    <glyph glyph-name="uni2B88" unicode="&#x2b88;" horiz-adv-x="830" 
d="M222 18.5q-86 49.5 -134.5 136t-48.5 195.5t48.5 195.5t134.5 136t193 49.5t193 -49.5t135 -136.5t49 -195t-49 -195t-135 -136.5t-193 -49.5t-193 49.5zM207 350l150 -149l45 49l-79 69l294 -10v82l-294 -10l79 69l-45 50z" />
    <glyph glyph-name="uni2B89" unicode="&#x2b89;" horiz-adv-x="830" 
d="M222 18.5q-86 49.5 -134.5 136t-48.5 195.5t48.5 195.5t134.5 136t193 49.5t193 -49.5t135 -136.5t49 -195t-49 -195t-135 -136.5t-193 -49.5t-193 49.5zM384 444l-10 -304h82l-10 304l69 -79l50 45l-150 150l-149 -150l49 -45z" />
    <glyph glyph-name="uni2B8A" unicode="&#x2b8a;" horiz-adv-x="830" 
d="M222 18.5q-86 49.5 -134.5 136t-48.5 195.5t48.5 195.5t134.5 136t193 49.5t193 -49.5t135 -136.5t49 -195t-49 -195t-135 -136.5t-193 -49.5t-193 49.5zM428 250l45 -49l150 149l-150 150l-45 -50l79 -69l-294 10v-82l294 10z" />
    <glyph glyph-name="uni2B8B" unicode="&#x2b8b;" horiz-adv-x="830" 
d="M222 18.5q-86 49.5 -134.5 136t-48.5 195.5t48.5 195.5t134.5 136t193 49.5t193 -49.5t135 -136.5t49 -195t-49 -195t-135 -136.5t-193 -49.5t-193 49.5zM266 290l149 -150l150 150l-50 45l-69 -79l10 304h-82l10 -304l-69 79z" />
    <glyph glyph-name="iacute_j.loclNLD" unicode="&#xe132;" horiz-adv-x="470" 
d="M173 0h-111v505h111v-505zM143 567h-85l93 159h116v-6zM198 -200v96h48q28 0 39.5 12.5t11.5 42.5v554h111v-562q0 -143 -133 -143h-77zM378 567h-85l93 159h116v-6z" />
    <glyph glyph-name="Iacute_J.loclNLD" unicode="&#xe133;" horiz-adv-x="780" 
d="M195 0h-118v700h118v-700zM163 757h-92l91 155h123v-7zM348.5 45q-60.5 53 -76.5 147l110 16q20 -107 116 -107t96 121v478h120v-478q0 -108 -56.5 -169t-156.5 -61q-92 0 -152.5 53zM680 757h-92l91 155h123v-7z" />
    <glyph glyph-name="brevecomb-cy" unicode="&#xe600;" horiz-adv-x="0" 
d="M-307 607q-44 40 -44 107h82q0 -36 20.5 -55.5t58.5 -19.5q37 0 57.5 19.5t20.5 55.5h82q0 -67 -43.5 -107t-116.5 -40t-117 40z" />
    <glyph glyph-name="uni030A_uni0301" unicode="&#xe601;" horiz-adv-x="0" 
d="M-211.5 580q-30.5 30 -30.5 75q0 36 21.5 63.5t55.5 36.5l40 83h83v-7l-56 -79q30 -11 49 -37t19 -60q0 -45 -30.5 -75t-75.5 -30t-75.5 30zM-105.5 621.5q11.5 12.5 11.5 33.5t-11.5 33t-30.5 12t-30.5 -12t-11.5 -33t11.5 -33.5t30.5 -12.5t30.5 12.5z" />
    <glyph glyph-name="uni2197.blackCircled" unicode="&#xe700;" horiz-adv-x="830" 
d="M222 18.5q-86 49.5 -134.5 136t-48.5 195.5t48.5 195.5t134.5 136t193 49.5t193 -49.5t135 -136.5t49 -195t-49 -195t-135 -136.5t-193 -49.5t-193 49.5zM242 246l58 -57l206 220l-7 -107l66 -3v213h-213l4 -67l106 8z" />
    <glyph glyph-name="uni2198.blackCircled" unicode="&#xe701;" horiz-adv-x="830" 
d="M222 18.5q-86 49.5 -134.5 136t-48.5 195.5t48.5 195.5t134.5 136t193 49.5t193 -49.5t135 -136.5t49 -195t-49 -195t-135 -136.5t-193 -49.5t-193 49.5zM356 255l-4 -66h213v213l-66 -4l7 -107l-206 221l-58 -58l220 -207z" />
    <glyph glyph-name="uni2199.blackCircled" unicode="&#xe702;" horiz-adv-x="830" 
d="M222 18.5q-86 49.5 -134.5 136t-48.5 195.5t48.5 195.5t134.5 136t193 49.5t193 -49.5t135 -136.5t49 -195t-49 -195t-135 -136.5t-193 -49.5t-193 49.5zM265 402v-213h213l-4 66l-106 -8l220 207l-58 58l-206 -221l7 107z" />
    <glyph glyph-name="uni2196.blackCircled" unicode="&#xe703;" horiz-adv-x="830" 
d="M222 18.5q-86 49.5 -134.5 136t-48.5 195.5t48.5 195.5t134.5 136t193 49.5t193 -49.5t135 -136.5t49 -195t-49 -195t-135 -136.5t-193 -49.5t-193 49.5zM324 409l206 -220l58 57l-220 207l106 -8l4 67h-213v-213l66 3z" />
    <glyph glyph-name="arrowboth.blackCircled" unicode="&#xe704;" horiz-adv-x="830" 
d="M222 18.5q-86 49.5 -134.5 136t-48.5 195.5t48.5 195.5t134.5 136t193 49.5t193 -49.5t135 -136.5t49 -195t-49 -195t-135 -136.5t-193 -49.5t-193 49.5zM184 350l129 -149l45 44l-72 72h258l-72 -72l45 -44l130 149l-130 150l-45 -45l72 -72h-258l72 72l-45 45z" />
    <glyph glyph-name="arrowupdn.blackCircled" unicode="&#xe705;" horiz-adv-x="830" 
d="M222 18.5q-86 49.5 -134.5 136t-48.5 195.5t48.5 195.5t134.5 136t193 49.5t193 -49.5t135 -136.5t49 -195t-49 -195t-135 -136.5t-193 -49.5t-193 49.5zM266 258l149 -129l150 129l-45 45l-72 -72v238l72 -72l45 45l-150 130l-149 -130l44 -45l72 72v-238l-72 72z" />
    <glyph glyph-name="arrowup.circled" unicode="&#xe706;" horiz-adv-x="830" 
d="M608 681.5q86 -49.5 135 -136.5t49 -195t-49 -195t-135 -136.5t-193 -49.5t-193 49.5t-134.5 136t-48.5 195.5t48.5 195.5t134.5 136t193 49.5t193 -49.5zM570 80q69 40 107.5 110.5t38.5 159.5t-38.5 159.5t-107.5 110.5t-155 40t-154.5 -40t-107 -110.5t-38.5 -159.5
t38.5 -159.5t107 -110.5t154.5 -40t155 40zM315 365l-49 45l149 150l150 -150l-50 -45l-69 80l10 -305h-82l10 305z" />
    <glyph glyph-name="uni2197.circled" unicode="&#xe707;" horiz-adv-x="830" 
d="M608 681.5q86 -49.5 135 -136.5t49 -195t-49 -195t-135 -136.5t-193 -49.5t-193 49.5t-134.5 136t-48.5 195.5t48.5 195.5t134.5 136t193 49.5t193 -49.5zM570 80q69 40 107.5 110.5t38.5 159.5t-38.5 159.5t-107.5 110.5t-155 40t-154.5 -40t-107 -110.5t-38.5 -159.5
t38.5 -159.5t107 -110.5t154.5 -40t155 40zM462 453l-106 -8l-4 67h213v-213l-66 3l8 107l-207 -220l-58 57z" />
    <glyph glyph-name="arrowright.circled" unicode="&#xe708;" horiz-adv-x="830" 
d="M608 681.5q86 -49.5 135 -136.5t49 -195t-49 -195t-135 -136.5t-193 -49.5t-193 49.5t-134.5 136t-48.5 195.5t48.5 195.5t134.5 136t193 49.5t193 -49.5zM570 80q69 40 107.5 110.5t38.5 159.5t-38.5 159.5t-107.5 110.5t-155 40t-154.5 -40t-107 -110.5t-38.5 -159.5
t38.5 -159.5t107 -110.5t154.5 -40t155 40zM507 381l-79 69l45 50l150 -150l-150 -149l-45 49l79 69l-294 -10v82z" />
    <glyph glyph-name="uni2198.circled" unicode="&#xe709;" horiz-adv-x="830" 
d="M608 681.5q86 -49.5 135 -136.5t49 -195t-49 -195t-135 -136.5t-193 -49.5t-193 49.5t-134.5 136t-48.5 195.5t48.5 195.5t134.5 136t193 49.5t193 -49.5zM570 80q69 40 107.5 110.5t38.5 159.5t-38.5 159.5t-107.5 110.5t-155 40t-154.5 -40t-107 -110.5t-38.5 -159.5
t38.5 -159.5t107 -110.5t154.5 -40t155 40zM300 512l207 -221l-8 107l66 4v-213h-213l4 66l106 -8l-220 207z" />
    <glyph glyph-name="arrowdown.circled" unicode="&#xe70a;" horiz-adv-x="830" 
d="M608 681.5q86 -49.5 135 -136.5t49 -195t-49 -195t-135 -136.5t-193 -49.5t-193 49.5t-134.5 136t-48.5 195.5t48.5 195.5t134.5 136t193 49.5t193 -49.5zM570 80q69 40 107.5 110.5t38.5 159.5t-38.5 159.5t-107.5 110.5t-155 40t-154.5 -40t-107 -110.5t-38.5 -159.5
t38.5 -159.5t107 -110.5t154.5 -40t155 40zM456 560l-10 -305l69 80l50 -45l-150 -150l-149 150l49 45l69 -80l-10 305h82z" />
    <glyph glyph-name="uni2199.circled" unicode="&#xe70b;" horiz-adv-x="830" 
d="M608 681.5q86 -49.5 135 -136.5t49 -195t-49 -195t-135 -136.5t-193 -49.5t-193 49.5t-134.5 136t-48.5 195.5t48.5 195.5t134.5 136t193 49.5t193 -49.5zM570 80q69 40 107.5 110.5t38.5 159.5t-38.5 159.5t-107.5 110.5t-155 40t-154.5 -40t-107 -110.5t-38.5 -159.5
t38.5 -159.5t107 -110.5t154.5 -40t155 40zM324 292l206 220l58 -58l-220 -207l106 8l4 -66h-213v213l66 -4z" />
    <glyph glyph-name="arrowleft.circled" unicode="&#xe70c;" horiz-adv-x="830" 
d="M608 681.5q86 -49.5 135 -136.5t49 -195t-49 -195t-135 -136.5t-193 -49.5t-193 49.5t-134.5 136t-48.5 195.5t48.5 195.5t134.5 136t193 49.5t193 -49.5zM570 80q69 40 107.5 110.5t38.5 159.5t-38.5 159.5t-107.5 110.5t-155 40t-154.5 -40t-107 -110.5t-38.5 -159.5
t38.5 -159.5t107 -110.5t154.5 -40t155 40zM357 500l45 -50l-79 -69l294 10v-82l-294 10l79 -69l-45 -49l-150 149z" />
    <glyph glyph-name="uni2196.circled" unicode="&#xe70d;" horiz-adv-x="830" 
d="M608 681.5q86 -49.5 135 -136.5t49 -195t-49 -195t-135 -136.5t-193 -49.5t-193 49.5t-134.5 136t-48.5 195.5t48.5 195.5t134.5 136t193 49.5t193 -49.5zM570 80q69 40 107.5 110.5t38.5 159.5t-38.5 159.5t-107.5 110.5t-155 40t-154.5 -40t-107 -110.5t-38.5 -159.5
t38.5 -159.5t107 -110.5t154.5 -40t155 40zM478 512l-4 -67l-106 8l220 -207l-58 -57l-206 219l7 -106l-66 -3v213h213z" />
    <glyph glyph-name="arrowboth.circled" unicode="&#xe70e;" horiz-adv-x="830" 
d="M608 681.5q86 -49.5 135 -136.5t49 -195t-49 -195t-135 -136.5t-193 -49.5t-193 49.5t-134.5 136t-48.5 195.5t48.5 195.5t134.5 136t193 49.5t193 -49.5zM570 80q69 40 107.5 110.5t38.5 159.5t-38.5 159.5t-107.5 110.5t-155 40t-154.5 -40t-107 -110.5t-38.5 -159.5
t38.5 -159.5t107 -110.5t154.5 -40t155 40zM472 455l45 45l130 -150l-130 -149l-45 44l72 72h-258l72 -72l-45 -44l-129 149l129 150l45 -45l-72 -72h258z" />
    <glyph glyph-name="arrowupdn.circled" unicode="&#xe70f;" horiz-adv-x="830" 
d="M608 681.5q86 -49.5 135 -136.5t49 -195t-49 -195t-135 -136.5t-193 -49.5t-193 49.5t-134.5 136t-48.5 195.5t48.5 195.5t134.5 136t193 49.5t193 -49.5zM570 80q69 40 107.5 110.5t38.5 159.5t-38.5 159.5t-107.5 110.5t-155 40t-154.5 -40t-107 -110.5t-38.5 -159.5
t38.5 -159.5t107 -110.5t154.5 -40t155 40zM565 442l-45 -45l-72 72v-238l72 72l45 -45l-150 -129l-149 129l44 45l72 -72v238l-72 -72l-44 45l149 130z" />
    <glyph glyph-name="uniE800" unicode="&#xe800;" horiz-adv-x="749" 
d="M131 375.5q-17 16.5 -17 43.5q0 26 17 43t43 17t43.5 -17t17.5 -43q0 -27 -17.5 -43.5t-43.5 -16.5t-43 16.5zM532 375.5q-17 16.5 -17 43.5q0 26 17 43t43 17t43 -17t17 -43q0 -27 -17 -43.5t-43 -16.5t-43 16.5zM193 83q-75 47 -107 134l81 18q25 -60 78.5 -90
t129.5 -30t129 30t78 90l82 -18q-33 -87 -108 -134t-181 -47q-107 0 -182 47z" />
    <glyph glyph-name="uniE801" unicode="&#xe801;" horiz-adv-x="749" 
d="M131 375.5q-17 16.5 -17 43.5q0 26 17 43t43 17t43.5 -17t17.5 -43q0 -27 -17.5 -43.5t-43.5 -16.5t-43 16.5zM532 375.5q-17 16.5 -17 43.5q0 26 17 43t43 17t43 -17t17 -43q0 -27 -17 -43.5t-43 -16.5t-43 16.5zM86 53q32 88 107 135t182 47q106 0 181 -47t108 -135
l-82 -17q-25 59 -78.5 89.5t-128.5 30.5q-76 0 -129.5 -30.5t-78.5 -89.5z" />
    <glyph glyph-name="uniE802" unicode="&#xe802;" horiz-adv-x="749" 
d="M240 350l-38 64l-39 -64h-74l85 129h57l85 -129h-76zM584 350l-38 64l-39 -64h-74l85 129h57l85 -129h-76zM664 217q-33 -87 -108 -134t-181 -47q-107 0 -182 47t-107 134l81 18q25 -60 78.5 -90t129.5 -30t129 30t78 90z" />
    <glyph glyph-name="uniE803" unicode="&#xe803;" horiz-adv-x="749" 
d="M278 371l-62 -62l-127 142l42 43zM660 451l-127 -142l-62 62l147 123zM86 53q32 88 107 135t182 47q106 0 181 -47t108 -135l-82 -17q-25 59 -78.5 89.5t-128.5 30.5q-76 0 -129.5 -30.5t-78.5 -89.5z" />
    <glyph glyph-name="uniE804" unicode="&#xe804;" horiz-adv-x="850" 
d="M242.5 36q-81.5 47 -127.5 129t-46 185t46 185t127.5 129t182.5 47t182.5 -47t128 -129t46.5 -185t-46.5 -185t-128 -129t-182.5 -47t-182.5 47z" />
    <glyph glyph-name="uniE805" unicode="&#xe805;" horiz-adv-x="900" 
d="M800 0h-700v700h700v-700z" />
    <glyph glyph-name="uniE806" unicode="&#xe806;" horiz-adv-x="740" 
d="M725 0h-710l355 715z" />
    <glyph glyph-name="uniE807" unicode="&#xe807;" horiz-adv-x="800" 
d="M155 -2h-6l83 282l-190 167v6l255 17l101 252h5l101 -252l256 -17v-6l-190 -167l82 -282h-6l-246 162z" />
    <glyph glyph-name="uniE808" unicode="&#xe808;" horiz-adv-x="800" 
d="M388 0q-18 167 -22 267q-82 -76 -205 -173l-17 17q89 113 173 205q-100 4 -267 22v24q167 18 267 22q-84 92 -173 205l17 17q121 -95 205 -172q4 100 22 266h24q18 -166 22 -266q84 77 205 172l17 -17q-95 -121 -172 -205q100 -4 266 -22v-24q-166 -18 -266 -22
q77 -84 172 -205l-17 -17q-123 97 -205 173q-4 -100 -22 -267h-24z" />
    <glyph glyph-name="uniE809" unicode="&#xe809;" horiz-adv-x="800" 
d="M439 10h-78l17 285l-192 -216l-57 57l216 192l-285 -17v78l285 -17l-216 192l57 57l192 -216l-17 285h78l-17 -285l192 216l57 -57l-216 -192l285 17v-78l-285 17l216 -192l-57 -57l-192 216z" />
    <glyph glyph-name="uniE80A" unicode="&#xe80a;" horiz-adv-x="800" 
d="M428 554h-56l-11 146h78zM276 514l-40 -40l-110 97l53 53zM674 571l-110 -97l-40 40l97 110zM197 322l-147 -11v78l147 -11v-56zM750 389v-78l-146 11v56zM276 186l-97 -110l-53 53l110 97zM674 129l-53 -53l-97 110l40 40zM439 0h-78l11 147h56z" />
    <glyph glyph-name="uniE80B" unicode="&#xe80b;" horiz-adv-x="800" 
d="M389 -10q-15 122 -22 293q-73 -68 -154 -132l-8 7q93 113 136 159q-159 6 -296 22v22q137 16 296 22q-43 46 -136 159l8 7q81 -64 154 -132q7 171 22 293h22q15 -107 22 -293q73 68 154 132l8 -7q-93 -113 -136 -159q159 -6 296 -22v-22q-137 -16 -296 -22
q43 -46 136 -159l-8 -7q-81 64 -154 132q-7 -186 -22 -293h-22z" />
    <glyph glyph-name="uniE80C" unicode="&#xe80c;" horiz-adv-x="700" 
d="M332 54q0 144 -60.5 211t-194.5 67h-28v36h28q134 0 194.5 67t60.5 212v53h36v-53q0 -145 60.5 -212t194.5 -67h29v-36h-29q-134 0 -194.5 -67t-60.5 -211v-54h-36v54z" />
    <glyph glyph-name="uniE80D" unicode="&#xe80d;" horiz-adv-x="829" 
d="M81 21v473h166v-33h19q9 28 27 43.5t51 34.5q27 14 41.5 26t19.5 31q24 94 86 94q34 0 55 -28t21 -65q0 -36 -12.5 -74t-34.5 -62h171q37 0 57.5 -16.5t20.5 -43.5q0 -22 -11.5 -38t-31.5 -23q28 -13 28 -44q0 -19 -11.5 -34t-31.5 -20q26 -14 26 -44q0 -22 -14.5 -37.5
t-35.5 -20.5q28 -16 28 -48q0 -31 -22.5 -49t-60.5 -18h-155q-38 0 -67 5.5t-69 16.5q-4 1 -28.5 7.5t-45.5 6.5h-20v-40h-166zM631 78q23 0 23 23q0 20 -21 20h-11q-12 0 -21 6.5t-9 19.5t8.5 20t21.5 7h31q22 0 22 23q0 9 -5.5 14.5t-14.5 5.5h-14q-12 0 -20.5 6.5
t-8.5 19.5q0 12 9 19.5t20 7.5h29q23 0 23 23q0 20 -23 20h-13q-13 0 -22 6.5t-9 19.5t9 20t22 7h25q26 0 26 23q0 10 -6.5 14.5t-20.5 4.5h-214q-13 0 -20.5 8t-7.5 19q0 9 7 18q31 39 47 71.5t16 70.5q0 18 -5.5 28t-15.5 10q-9 0 -13.5 -9.5t-10.5 -29.5
q-9 -39 -27 -57.5t-49 -34.5q-28 -16 -44.5 -30t-30.5 -40q-13 -24 -36 -24h-30v-294h20q23 0 41.5 -4t48.5 -12q30 -9 57.5 -14.5t61.5 -5.5h155zM135 439v-364h57v364h-57z" />
    <glyph glyph-name="uniE80E" unicode="&#xe80e;" horiz-adv-x="829" 
d="M283 -15q-21 28 -21 65q0 36 12.5 73.5t34.5 61.5h-171q-37 0 -57 16.5t-20 43.5q0 23 11 38.5t32 22.5q-29 15 -29 45q0 19 12 34t32 19q-27 15 -27 44q0 22 14.5 38t35.5 21q-28 16 -28 48q0 31 22 48.5t61 17.5h155q38 0 67 -5.5t69 -16.5q4 -1 28.5 -7.5t45.5 -6.5
h21v41h166v-473h-166v32h-20q-9 -27 -28 -43.5t-50 -33.5q-27 -15 -41.5 -26.5t-19.5 -30.5q-23 -94 -86 -94q-34 0 -55 28zM637 572v-365h57v365h-57zM354.5 23.5q4.5 9.5 10.5 29.5q9 39 26.5 56.5t49.5 35.5q25 13 43 28t32 41q13 24 36 24h31v294h-21q-23 0 -41.5 4
t-48.5 12q-30 9 -57.5 14.5t-61.5 5.5h-155q-23 0 -23 -22q0 -20 21 -20h11q12 0 21 -6.5t9 -19.5q0 -14 -8.5 -20.5t-21.5 -6.5h-31q-10 0 -16 -6t-6 -17q0 -10 5.5 -15t14.5 -5h14q12 0 20.5 -6.5t8.5 -19.5t-8.5 -20t-20.5 -7h-29q-11 0 -17 -6t-6 -17q0 -20 23 -20h13
q13 0 22 -7t9 -20t-8.5 -19.5t-22.5 -6.5h-25q-26 0 -26 -23q0 -11 6.5 -15.5t20.5 -4.5h214q13 0 20.5 -8t7.5 -18q0 -8 -7 -19q-30 -36 -46.5 -70t-16.5 -71q0 -38 21 -38q9 0 13.5 9.5z" />
    <glyph glyph-name="uniE80F" unicode="&#xe80f;" horiz-adv-x="769" 
d="M117 -80v165h62q0 19 -9 40t-28 58q-21 39 -33 69t-12 59t16 51.5t47 47.5q16 13 16 33q0 5 -2 19l-36 222q-1 6 -1 17q0 31 18 50t48 19q25 0 41.5 -15.5t29.5 -51.5l45 -135q18 27 50 27q20 0 33.5 -12t19.5 -31q17 32 51 32q23 0 38.5 -15.5t19.5 -36.5l45 92
q15 29 31 43.5t41 14.5q26 0 42 -16t16 -43q0 -20 -6 -36q-72 -183 -116 -318.5t-44 -183.5h56v-165h-479zM488 85q0 62 41.5 188.5t117.5 323.5q5 13 5 21q0 11 -9 11q-14 0 -35 -45l-50 -101q-8 -16 -14 -22t-18 -6t-19.5 9t-7.5 24q0 43 -28 43q-11 0 -17 -8.5t-6 -23.5
q0 -13 -7 -21t-20 -8t-19.5 7.5t-6.5 21.5q0 21 -7 32t-20 11q-12 0 -19.5 -9t-7.5 -27q0 -14 -6.5 -23t-19.5 -9q-11 0 -16.5 6.5t-10.5 21.5l-61 186q-6 16 -10.5 22.5t-11.5 6.5q-15 0 -15 -21q0 -8 1 -12l36 -215q4 -26 4 -35q0 -20 -7 -34t-24 -26q-25 -18 -37.5 -33.5
t-12.5 -36.5q0 -16 9 -37t27 -54q23 -44 34.5 -72.5t11.5 -55.5h256zM172 30v-57h370v57h-370z" />
    <glyph glyph-name="uniE810" unicode="&#xe810;" horiz-adv-x="900" 
d="M269 572.5q-68 -56.5 -98 -159.5l-80 15q35 133 125.5 208t217.5 75q95 0 172.5 -39.5t126.5 -115.5l2 128h75l-18 -247l-259 22l10 75l138 -21q-44 55 -106.5 85.5t-136.5 30.5q-101 0 -169 -56.5zM631 127.5q68 56.5 98 159.5l81 -15q-35 -133 -126 -208t-218 -75
q-95 0 -172.5 39.5t-126.5 115.5l-2 -128h-74l17 247l259 -22l-10 -74l-138 20q45 -56 107 -86t136 -30q101 0 169 56.5z" />
    <glyph glyph-name="uniE811" unicode="&#xe811;" horiz-adv-x="780" 
d="M345 170l10 405l-92 -105l-57 51l184 190l185 -190l-58 -51l-92 105l10 -405h-90zM633 78v170h79v-248h-643v248h79v-170h485z" />
    <glyph glyph-name="uniE812" unicode="&#xe812;" horiz-adv-x="1040" 
d="M270 79q-93 0 -146 49t-53 128q0 44 18.5 81.5t50.5 60t72 25.5q0 41 21 76.5t56.5 56.5t78.5 21q62 0 102 -36q24 48 67.5 74t98.5 26q53 0 96 -25.5t67.5 -70.5t24.5 -101q63 -7 104.5 -55.5t41.5 -117.5q0 -87 -53 -139.5t-146 -52.5h-501zM771 158q59 0 89.5 29.5
t30.5 82.5q0 46 -27 76.5t-68 30.5q-22 0 -32.5 10t-10.5 31q0 64 -33 104t-87 40q-38 0 -66 -19.5t-57 -66.5q-12 -18 -30 -18q-14 0 -27 10q-39 30 -82 30q-40 0 -66.5 -30.5t-26.5 -74.5q0 -39 -40 -39q-39 0 -63.5 -26t-24.5 -68q0 -46 31.5 -74t88.5 -28h501z" />
    <glyph glyph-name="uniE813" unicode="&#xe813;" horiz-adv-x="920" 
d="M766.5 680.5q45.5 -26.5 71 -72.5t25.5 -103q0 -132 -120 -263t-283 -255q-163 124 -283 255t-120 263q0 57 25.5 103t71 72.5t101.5 26.5q73 0 127 -40.5t78 -94.5q24 54 78 94.5t127 40.5q56 0 101.5 -26.5z" />
    <glyph glyph-name="uniE900" unicode="&#xe900;" horiz-adv-x="682" 
d="M212.5 23.5q-68.5 34.5 -107 100t-38.5 154.5v422h112v-416q0 -91 53 -141.5t137 -50.5q65 0 110.5 30.5t45.5 89.5q0 35 -17 59t-41 39.5t-69 37.5q-51 25 -82.5 46t-53.5 56.5t-22 89.5q0 52 26 90.5t70.5 59.5t99.5 21q82 0 138.5 -44t75.5 -116l-96 -14
q-13 40 -42.5 61t-72.5 21q-41 0 -67 -20t-26 -59q0 -31 16 -52t39.5 -34.5t66.5 -33.5q55 -25 89.5 -46t58.5 -60t24 -99q0 -67 -34 -118t-95.5 -79.5t-141.5 -28.5q-88 0 -156.5 34.5z" />
    <glyph glyph-name="uni0498.loclBSH" unicode="&#xf50a;" horiz-adv-x="613" 
d="M507 53q-62 -54 -165 -63q27 -19 42 -45t15 -56q0 -43 -29.5 -70t-77.5 -27h-48v79h23q24 0 38 11.5t14 33.5q0 39 -52 75q-99 9 -161.5 61t-84.5 141l110 16q36 -114 175 -114q67 0 105 27t38 79q0 51 -36.5 77.5t-99.5 26.5h-96v101h96q53 0 85.5 26.5t32.5 72.5
q0 47 -35 74.5t-97 27.5q-58 0 -99 -26t-57 -80l-107 16q23 92 92 143t173 51q73 0 129.5 -25t87.5 -69.5t31 -101.5q0 -52 -29 -92t-82 -61q63 -22 97 -66t34 -105q0 -84 -62 -138z" />
    <glyph glyph-name="uni0499.loclBSH" unicode="&#xf50b;" horiz-adv-x="491" 
d="M409 37q-49 -40 -132 -47q27 -19 42 -45t15 -56q0 -43 -29.5 -70t-77.5 -27h-48v79h23q24 0 38 11.5t14 33.5q0 41 -54 76q-73 9 -121.5 49t-66.5 109l103 15q12 -41 45.5 -61t83.5 -20q46 0 73 17.5t27 49.5q0 31 -25.5 48.5t-70.5 17.5h-70v82h65q42 0 65 16.5t23 45.5
q0 30 -24 46.5t-68 16.5q-89 0 -114 -74l-99 14q21 75 76 113t139 38q59 0 104.5 -18t71 -51t25.5 -75q0 -39 -21.5 -67t-61.5 -40q48 -17 73.5 -48.5t25.5 -76.5q0 -62 -49 -102z" />
    <glyph glyph-name="uni04AA.loclCHU" unicode="&#xf50c;" horiz-adv-x="712" 
d="M680 216q-31 -103 -102.5 -161.5t-174.5 -64.5l-10 -28q32 -5 52.5 -27t20.5 -55q0 -39 -26 -63.5t-72 -24.5q-44 0 -80 22l20 57q24 -12 47 -12q36 0 36 28q0 30 -39 30h-24v20l16 53q-90 8 -158.5 55t-106 126t-37.5 179q0 106 42 188t118 127.5t175 45.5
q112 0 189.5 -59t109.5 -168l-113 -16q-21 65 -69 99.5t-118 34.5q-98 0 -155 -68t-57 -184t57 -184t156 -68q71 0 120 35t71 100z" />
    <glyph glyph-name="uni04AB.loclCHU" unicode="&#xf50d;" horiz-adv-x="521" 
d="M503 156q-19 -72 -71.5 -115.5t-127.5 -50.5l-10 -28q32 -5 52.5 -27t20.5 -55q0 -39 -26 -63.5t-72 -24.5q-44 0 -80 22l20 57q24 -12 47 -12q36 0 36 28q0 30 -39 30h-24v20l16 54q-64 7 -113 42t-76 91.5t-27 127.5q0 77 31 137t87.5 93t128.5 33q84 0 143 -44
t79 -123l-100 -15q-13 41 -45 63t-75 22q-63 0 -99.5 -44t-36.5 -122q0 -77 37 -121t101 -44q45 0 77 22t45 63z" />
    </font>
</defs>
</svg>
