<svg width="86" height="45" viewBox="0 0 86 45" fill="none" xmlns="http://www.w3.org/2000/svg">
<g clip-path="url(#clip0_64_154)">
<path d="M0 44.67C0 44.67 16.9633 12.0259 18.9358 12.4138C20.9083 12.8017 29.2251 25.1449 29.2251 25.1449C29.2251 25.1449 43.3457 -1.19134e-06 45.7371 0C48.1284 1.19134e-06 61.7168 23.8457 61.7168 23.8457C61.7168 23.8457 66.6697 18.6207 67.8532 18.2328C69.0367 17.8448 86 44.67 86 44.67H0Z" fill="#61727A"/>
<path d="M15.9534 30.1873C15.9534 30.1873 13.7669 32.9663 13.3085 33.9408C12.8502 34.9152 11.5435 37.9572 11.5435 37.9572V42.4994H10.9324V43.4326H42.5653L43.0026 42.7675L42.8445 42.4169L41.5695 42.3396L41.9699 41.4425L42.207 38.251L37.4705 32.8374L36.7171 32.2548L31.9016 30.1873H15.9534Z" fill="white"/>
<path d="M17.6131 33.6778H16.7753C16.5699 33.6778 16.3907 33.8119 16.3328 34.0078L15.6847 36.2403C15.632 36.4259 15.7058 36.6269 15.8744 36.7352C15.9482 36.7868 16.0377 36.8126 16.1273 36.8126H21.2906C21.3907 36.8126 21.4908 36.7816 21.5698 36.7198L21.7542 36.5805C21.8648 36.4981 21.9281 36.3743 21.9333 36.2403L22.0018 34.147C22.0124 33.8944 21.8016 33.683 21.5435 33.683H17.6078L17.6131 33.6778Z" fill="#61727A"/>
<path d="M24.7679 33.6778H23.4981C23.3453 33.6778 23.2084 33.7552 23.1293 33.8841L23.0081 34.08C22.9713 34.1418 22.9502 34.2089 22.9449 34.281L22.8501 36.132C22.8448 36.266 22.8975 36.3898 23.0029 36.4774C23.0819 36.5445 23.182 36.5754 23.2821 36.5754H30.026C30.1788 36.5754 30.321 36.4981 30.4001 36.364L30.4264 36.3176C30.4685 36.2454 30.4896 36.1629 30.4844 36.0804L30.379 34.08C30.3684 33.8531 30.1788 33.6778 29.9469 33.6778H24.7679Z" fill="#61727A"/>
<path d="M37.0649 33.6778H32.4654C32.2705 33.6778 32.1177 33.8325 32.1282 34.0233L32.2125 36.2557C32.2178 36.4362 32.3706 36.5754 32.5497 36.5754H38.9616C39.067 36.5754 39.1671 36.5238 39.2356 36.4413C39.3304 36.3176 39.3252 36.1475 39.2251 36.0289L37.3283 33.7964C37.2651 33.7191 37.1703 33.6778 37.0649 33.6778Z" fill="#61727A"/>
<path d="M14.3834 32.2548L14.0093 32.8065L37.4705 32.8374L36.7118 32.2548H14.3834Z" fill="#61727A"/>
<path d="M16.7384 44.9124C18.2457 44.9124 19.4676 43.7166 19.4676 42.2416C19.4676 40.7666 18.2457 39.5709 16.7384 39.5709C15.2312 39.5709 14.0093 40.7666 14.0093 42.2416C14.0093 43.7166 15.2312 44.9124 16.7384 44.9124Z" fill="white"/>
<path d="M16.7384 44.2988C17.8994 44.2988 18.8406 43.3778 18.8406 42.2416C18.8406 41.1055 17.8994 40.1845 16.7384 40.1845C15.5774 40.1845 14.6362 41.1055 14.6362 42.2416C14.6362 43.3778 15.5774 44.2988 16.7384 44.2988Z" fill="#61727A"/>
<path d="M35.7161 44.9124C37.2234 44.9124 38.4452 43.7166 38.4452 42.2416C38.4452 40.7666 37.2234 39.5709 35.7161 39.5709C34.2088 39.5709 32.9869 40.7666 32.9869 42.2416C32.9869 43.7166 34.2088 44.9124 35.7161 44.9124Z" fill="white"/>
<path d="M35.7161 44.2988C36.8771 44.2988 37.8183 43.3778 37.8183 42.2416C37.8183 41.1055 36.8771 40.1845 35.7161 40.1845C34.5551 40.1845 33.6139 41.1055 33.6139 42.2416C33.6139 43.3778 34.5551 44.2988 35.7161 44.2988Z" fill="#61727A"/>
<path d="M51.4483 22.7217L48.3082 41.1589C48.2239 41.6642 48.5927 42.1385 49.1143 42.1901L50.8793 42.3654L51.0215 44.9639H52.8392V42.2932L54.6095 42.1231C55.1995 42.0663 55.621 41.5301 55.5209 40.9578L52.3755 22.8094C52.3229 22.5258 52.1121 22.3814 51.8592 22.3814H51.9488C51.7486 22.3814 51.4904 22.5206 51.4588 22.7165L51.4483 22.7217Z" fill="white"/>
<path d="M58.6294 30.409L56.5694 42.4994C56.5114 42.8294 56.7538 43.1439 57.0962 43.1748L58.2553 43.2934L58.3449 45H59.5356V43.2522L60.7 43.1388C61.0899 43.1027 61.3638 42.7521 61.2953 42.3757L59.23 30.4709C59.1984 30.2853 59.0562 30.1873 58.8876 30.1873H58.9455C58.8138 30.1873 58.6452 30.2801 58.6241 30.409H58.6294Z" fill="white"/>
</g>
<defs>
<clipPath id="clip0_64_154">
<rect width="86" height="45" fill="white"/>
</clipPath>
</defs>
</svg>
