<svg width="1275" height="170" viewBox="0 0 1275 170" fill="none" xmlns="http://www.w3.org/2000/svg">
<line y1="2" x2="1275" y2="2" stroke="#252219" stroke-width="4"/>
<line x1="2.00391" y1="113.887" x2="2.00391" y2="3.88721" stroke="#252219" stroke-width="4"/>
<path d="M160.604 120.887V115.127L169.364 107.767C172.164 105.367 173.564 103.141 173.564 101.087C173.564 100.074 173.231 99.2739 172.564 98.6872C171.924 98.1005 171.044 97.8072 169.924 97.8072C167.711 97.8072 166.231 99.0472 165.484 101.527L159.684 100.807C160.191 98.1939 161.377 96.1405 163.244 94.6472C165.111 93.1539 167.444 92.4072 170.244 92.4072C172.111 92.4072 173.777 92.7539 175.244 93.4472C176.711 94.1139 177.844 95.0605 178.644 96.2872C179.471 97.5139 179.884 98.9405 179.884 100.567C179.884 102.327 179.364 104.047 178.324 105.727C177.311 107.407 175.791 109.101 173.764 110.807L168.684 115.127V115.327H180.764V120.887H160.604ZM191.753 120.887H185.113L194.913 98.6072V98.4072H181.713V92.8872H201.273V98.6072L191.753 120.887ZM214.897 121.367C212.631 121.367 210.617 120.754 208.857 119.527C207.097 118.301 205.737 116.594 204.777 114.407C203.817 112.221 203.337 109.714 203.337 106.887C203.337 104.061 203.817 101.554 204.777 99.3672C205.737 97.1805 207.097 95.4739 208.857 94.2472C210.617 93.0205 212.631 92.4072 214.897 92.4072C217.164 92.4072 219.177 93.0205 220.937 94.2472C222.697 95.4739 224.057 97.1805 225.017 99.3672C225.977 101.554 226.457 104.061 226.457 106.887C226.457 109.714 225.977 112.221 225.017 114.407C224.057 116.594 222.697 118.301 220.937 119.527C219.177 120.754 217.164 121.367 214.897 121.367ZM214.897 115.967C216.604 115.967 217.951 115.167 218.937 113.567C219.924 111.941 220.417 109.714 220.417 106.887C220.417 104.061 219.924 101.847 218.937 100.247C217.951 98.6205 216.604 97.8072 214.897 97.8072C213.191 97.8072 211.844 98.6205 210.857 100.247C209.871 101.847 209.377 104.061 209.377 106.887C209.377 109.714 209.871 111.941 210.857 113.567C211.844 115.167 213.191 115.967 214.897 115.967ZM249.936 121.367C247.67 121.367 245.656 120.754 243.896 119.527C242.136 118.301 240.776 116.594 239.816 114.407C238.856 112.221 238.376 109.714 238.376 106.887C238.376 104.061 238.856 101.554 239.816 99.3672C240.776 97.1805 242.136 95.4739 243.896 94.2472C245.656 93.0205 247.67 92.4072 249.936 92.4072C252.203 92.4072 254.216 93.0205 255.976 94.2472C257.736 95.4739 259.096 97.1805 260.056 99.3672C261.016 101.554 261.496 104.061 261.496 106.887C261.496 109.714 261.016 112.221 260.056 114.407C259.096 116.594 257.736 118.301 255.976 119.527C254.216 120.754 252.203 121.367 249.936 121.367ZM249.936 115.967C251.643 115.967 252.99 115.167 253.976 113.567C254.963 111.941 255.456 109.714 255.456 106.887C255.456 104.061 254.963 101.847 253.976 100.247C252.99 98.6205 251.643 97.8072 249.936 97.8072C248.23 97.8072 246.883 98.6205 245.896 100.247C244.91 101.847 244.416 104.061 244.416 106.887C244.416 109.714 244.91 111.941 245.896 113.567C246.883 115.167 248.23 115.967 249.936 115.967ZM276.186 121.367C273.92 121.367 271.906 120.754 270.146 119.527C268.386 118.301 267.026 116.594 266.066 114.407C265.106 112.221 264.626 109.714 264.626 106.887C264.626 104.061 265.106 101.554 266.066 99.3672C267.026 97.1805 268.386 95.4739 270.146 94.2472C271.906 93.0205 273.92 92.4072 276.186 92.4072C278.453 92.4072 280.466 93.0205 282.226 94.2472C283.986 95.4739 285.346 97.1805 286.306 99.3672C287.266 101.554 287.746 104.061 287.746 106.887C287.746 109.714 287.266 112.221 286.306 114.407C285.346 116.594 283.986 118.301 282.226 119.527C280.466 120.754 278.453 121.367 276.186 121.367ZM276.186 115.967C277.893 115.967 279.24 115.167 280.226 113.567C281.213 111.941 281.706 109.714 281.706 106.887C281.706 104.061 281.213 101.847 280.226 100.247C279.24 98.6205 277.893 97.8072 276.186 97.8072C274.48 97.8072 273.133 98.6205 272.146 100.247C271.16 101.847 270.666 104.061 270.666 106.887C270.666 109.714 271.16 111.941 272.146 113.567C273.133 115.167 274.48 115.967 276.186 115.967ZM302.436 121.367C300.17 121.367 298.156 120.754 296.396 119.527C294.636 118.301 293.276 116.594 292.316 114.407C291.356 112.221 290.876 109.714 290.876 106.887C290.876 104.061 291.356 101.554 292.316 99.3672C293.276 97.1805 294.636 95.4739 296.396 94.2472C298.156 93.0205 300.17 92.4072 302.436 92.4072C304.703 92.4072 306.716 93.0205 308.476 94.2472C310.236 95.4739 311.596 97.1805 312.556 99.3672C313.516 101.554 313.996 104.061 313.996 106.887C313.996 109.714 313.516 112.221 312.556 114.407C311.596 116.594 310.236 118.301 308.476 119.527C306.716 120.754 304.703 121.367 302.436 121.367ZM302.436 115.967C304.143 115.967 305.49 115.167 306.476 113.567C307.463 111.941 307.956 109.714 307.956 106.887C307.956 104.061 307.463 101.847 306.476 100.247C305.49 98.6205 304.143 97.8072 302.436 97.8072C300.73 97.8072 299.383 98.6205 298.396 100.247C297.41 101.847 296.916 104.061 296.916 106.887C296.916 109.714 297.41 111.941 298.396 113.567C299.383 115.167 300.73 115.967 302.436 115.967ZM338.195 110.007L346.835 120.887H339.875L332.355 111.127V120.887H326.515V100.487H332.355V109.447L339.355 100.487H345.835L338.195 110.007ZM353.752 120.887H348.312V100.487H355.512L361.112 114.447H361.312L366.872 100.487H373.832V120.887H368.352V108.167H368.152L363.032 120.887H359.112L353.952 108.167H353.752V120.887ZM376.757 104.087V100.367L381.877 96.4872C382.597 95.9272 383.117 95.4205 383.437 94.9672C383.757 94.5139 383.917 94.0605 383.917 93.6072C383.917 93.1805 383.77 92.8472 383.477 92.6072C383.184 92.3405 382.77 92.2072 382.237 92.2072C381.65 92.2072 381.144 92.3672 380.717 92.6872C380.317 93.0072 380.037 93.4605 379.877 94.0472L376.237 93.5272C376.584 91.9805 377.29 90.7939 378.357 89.9672C379.424 89.1139 380.757 88.6872 382.357 88.6872C384.064 88.6872 385.424 89.1139 386.437 89.9672C387.45 90.7939 387.957 91.9005 387.957 93.2872C387.957 94.2205 387.69 95.1005 387.157 95.9272C386.65 96.7272 385.81 97.5672 384.637 98.4472L382.077 100.367V100.567H388.357V104.087H376.757Z" fill="#252219"/>
<path d="M170.48 164.887H167.38V150.887H178.84V164.887H175.74V153.647H170.48V164.887ZM182.499 154.687H190.919V164.887H187.999V157.107H185.139L184.999 160.147C184.945 161.387 184.792 162.361 184.539 163.067C184.285 163.774 183.919 164.274 183.439 164.567C182.972 164.861 182.365 165.007 181.619 165.007C181.232 165.007 180.799 164.981 180.319 164.927V162.407H180.819C181.152 162.407 181.412 162.327 181.599 162.167C181.799 162.007 181.945 161.734 182.039 161.347C182.145 160.947 182.219 160.381 182.259 159.647L182.499 154.687ZM197.756 165.127C196.743 165.127 195.836 164.901 195.036 164.447C194.249 163.994 193.636 163.367 193.196 162.567C192.756 161.754 192.536 160.827 192.536 159.787C192.536 158.761 192.756 157.841 193.196 157.027C193.636 156.214 194.249 155.581 195.036 155.127C195.836 154.674 196.743 154.447 197.756 154.447C198.769 154.447 199.676 154.674 200.476 155.127C201.276 155.581 201.896 156.214 202.336 157.027C202.789 157.841 203.016 158.761 203.016 159.787C203.016 160.827 202.789 161.754 202.336 162.567C201.896 163.367 201.276 163.994 200.476 164.447C199.689 164.901 198.783 165.127 197.756 165.127ZM197.756 162.647C198.463 162.647 199.023 162.394 199.436 161.887C199.863 161.367 200.076 160.667 200.076 159.787C200.076 158.907 199.863 158.214 199.436 157.707C199.023 157.187 198.463 156.927 197.756 156.927C197.049 156.927 196.489 157.187 196.076 157.707C195.676 158.214 195.476 158.907 195.476 159.787C195.476 160.667 195.676 161.367 196.076 161.887C196.489 162.394 197.049 162.647 197.756 162.647ZM220.719 167.687H218.179V164.887H204.619V154.687H207.539V162.407H210.379V154.687H213.179V162.407H216.019V154.687H218.939V162.407H220.719V167.687ZM231.764 162.607V164.887C231.471 164.954 231.131 164.987 230.744 164.987C230.011 164.987 229.451 164.814 229.064 164.467C228.691 164.107 228.491 163.614 228.464 162.987H228.364C228.004 163.681 227.518 164.214 226.904 164.587C226.304 164.947 225.611 165.127 224.824 165.127C223.824 165.127 222.998 164.847 222.344 164.287C221.691 163.727 221.364 162.987 221.364 162.067C221.364 161.414 221.538 160.841 221.884 160.347C222.231 159.841 222.711 159.447 223.324 159.167C223.938 158.887 224.638 158.747 225.424 158.747H228.024V158.547C228.024 157.961 227.864 157.514 227.544 157.207C227.238 156.887 226.791 156.727 226.204 156.727C225.191 156.727 224.511 157.167 224.164 158.047L221.664 157.707C221.931 156.681 222.458 155.881 223.244 155.307C224.031 154.734 225.044 154.447 226.284 154.447C227.711 154.447 228.824 154.814 229.624 155.547C230.424 156.267 230.824 157.247 230.824 158.487V161.907C230.824 162.161 230.871 162.341 230.964 162.447C231.058 162.554 231.211 162.607 231.424 162.607H231.764ZM225.664 162.787C226.331 162.787 226.891 162.581 227.344 162.167C227.798 161.754 228.024 161.234 228.024 160.607V160.487H225.864C225.384 160.487 224.991 160.594 224.684 160.807C224.378 161.007 224.224 161.294 224.224 161.667C224.224 162.014 224.358 162.287 224.624 162.487C224.891 162.687 225.238 162.787 225.664 162.787ZM242.773 162.407H244.533V167.687H241.993V164.887H234.773V167.687H232.233V162.407H233.533C233.733 162.141 233.886 161.787 233.993 161.347C234.099 160.894 234.166 160.314 234.193 159.607L234.453 154.687H242.773V162.407ZM239.893 162.407V157.027H237.013L236.893 159.667C236.866 160.347 236.799 160.901 236.693 161.327C236.586 161.754 236.426 162.114 236.213 162.407H239.893ZM250.75 157.827C251.496 157.827 252.156 157.981 252.73 158.287C253.316 158.594 253.77 159.014 254.09 159.547C254.41 160.081 254.57 160.687 254.57 161.367C254.57 162.034 254.41 162.634 254.09 163.167C253.77 163.701 253.316 164.121 252.73 164.427C252.156 164.734 251.496 164.887 250.75 164.887H245.85V154.687H248.77V157.827H250.75ZM250.19 162.667C250.656 162.667 251.023 162.547 251.29 162.307C251.57 162.067 251.71 161.734 251.71 161.307C251.71 160.867 251.57 160.527 251.29 160.287C251.023 160.034 250.656 159.907 250.19 159.907H248.71V162.667H250.19ZM263.086 164.887H260.166V154.687H269.486V164.887H266.566V157.107H263.086V164.887ZM276.33 165.127C275.317 165.127 274.41 164.901 273.61 164.447C272.824 163.994 272.21 163.367 271.77 162.567C271.33 161.754 271.11 160.827 271.11 159.787C271.11 158.761 271.33 157.841 271.77 157.027C272.21 156.214 272.824 155.581 273.61 155.127C274.41 154.674 275.317 154.447 276.33 154.447C277.344 154.447 278.25 154.674 279.05 155.127C279.85 155.581 280.47 156.214 280.91 157.027C281.364 157.841 281.59 158.761 281.59 159.787C281.59 160.827 281.364 161.754 280.91 162.567C280.47 163.367 279.85 163.994 279.05 164.447C278.264 164.901 277.357 165.127 276.33 165.127ZM276.33 162.647C277.037 162.647 277.597 162.394 278.01 161.887C278.437 161.367 278.65 160.667 278.65 159.787C278.65 158.907 278.437 158.214 278.01 157.707C277.597 157.187 277.037 156.927 276.33 156.927C275.624 156.927 275.064 157.187 274.65 157.707C274.25 158.214 274.05 158.907 274.05 159.787C274.05 160.667 274.25 161.367 274.65 161.887C275.064 162.394 275.624 162.647 276.33 162.647ZM284.198 154.687H292.618V164.887H289.698V157.107H286.838L286.698 160.147C286.645 161.387 286.491 162.361 286.238 163.067C285.985 163.774 285.618 164.274 285.138 164.567C284.671 164.861 284.065 165.007 283.318 165.007C282.931 165.007 282.498 164.981 282.018 164.927V162.407H282.518C282.851 162.407 283.111 162.327 283.298 162.167C283.498 162.007 283.645 161.734 283.738 161.347C283.845 160.947 283.918 160.381 283.958 159.647L284.198 154.687ZM299.075 162.427L301.395 154.687H304.295L299.735 168.887H297.035L298.315 164.887H296.955L293.655 154.687H296.635L298.975 162.427H299.075ZM309.846 165.127C308.833 165.127 307.926 164.901 307.126 164.447C306.339 163.994 305.726 163.367 305.286 162.567C304.846 161.754 304.626 160.827 304.626 159.787C304.626 158.761 304.846 157.841 305.286 157.027C305.726 156.214 306.339 155.581 307.126 155.127C307.926 154.674 308.833 154.447 309.846 154.447C310.859 154.447 311.766 154.674 312.566 155.127C313.366 155.581 313.986 156.214 314.426 157.027C314.879 157.841 315.106 158.761 315.106 159.787C315.106 160.827 314.879 161.754 314.426 162.567C313.986 163.367 313.366 163.994 312.566 164.447C311.779 164.901 310.873 165.127 309.846 165.127ZM309.846 162.647C310.553 162.647 311.113 162.394 311.526 161.887C311.953 161.367 312.166 160.667 312.166 159.787C312.166 158.907 311.953 158.214 311.526 157.707C311.113 157.187 310.553 156.927 309.846 156.927C309.139 156.927 308.579 157.187 308.166 157.707C307.766 158.214 307.566 158.907 307.566 159.787C307.566 160.667 307.766 161.367 308.166 161.887C308.579 162.394 309.139 162.647 309.846 162.647ZM321.449 165.127C320.409 165.127 319.489 164.907 318.689 164.467C317.889 164.014 317.269 163.381 316.829 162.567C316.389 161.754 316.169 160.827 316.169 159.787C316.169 158.747 316.389 157.827 316.829 157.027C317.269 156.214 317.882 155.581 318.669 155.127C319.469 154.674 320.382 154.447 321.409 154.447C322.636 154.447 323.662 154.767 324.489 155.407C325.329 156.047 325.876 156.934 326.129 158.067L323.529 158.427C323.396 157.947 323.142 157.581 322.769 157.327C322.409 157.061 321.976 156.927 321.469 156.927C320.749 156.927 320.176 157.187 319.749 157.707C319.322 158.214 319.109 158.907 319.109 159.787C319.109 160.681 319.322 161.381 319.749 161.887C320.176 162.394 320.756 162.647 321.489 162.647C322.009 162.647 322.456 162.521 322.829 162.267C323.202 162.001 323.462 161.627 323.609 161.147L326.209 161.507C325.942 162.641 325.389 163.527 324.549 164.167C323.709 164.807 322.676 165.127 321.449 165.127ZM332.572 164.887H329.632V157.167H326.492V154.687H335.712V157.167H332.572V164.887ZM336.904 168.887V154.687H339.604V156.367H339.704C340.078 155.767 340.551 155.301 341.124 154.967C341.711 154.621 342.371 154.447 343.104 154.447C343.944 154.447 344.698 154.667 345.364 155.107C346.031 155.547 346.551 156.174 346.924 156.987C347.311 157.787 347.504 158.721 347.504 159.787C347.504 160.854 347.318 161.794 346.944 162.607C346.571 163.407 346.051 164.027 345.384 164.467C344.731 164.907 343.991 165.127 343.164 165.127C342.471 165.127 341.831 164.974 341.244 164.667C340.658 164.347 340.218 163.921 339.924 163.387H339.824V168.887H336.904ZM342.284 162.647C342.978 162.647 343.531 162.394 343.944 161.887C344.358 161.367 344.564 160.667 344.564 159.787C344.564 158.907 344.358 158.214 343.944 157.707C343.531 157.187 342.978 156.927 342.284 156.927C341.564 156.927 340.971 157.194 340.504 157.727C340.051 158.247 339.824 158.934 339.824 159.787C339.824 160.641 340.051 161.334 340.504 161.867C340.971 162.387 341.564 162.647 342.284 162.647ZM353.811 165.127C352.797 165.127 351.891 164.901 351.091 164.447C350.304 163.994 349.691 163.367 349.251 162.567C348.811 161.754 348.591 160.827 348.591 159.787C348.591 158.761 348.811 157.841 349.251 157.027C349.691 156.214 350.304 155.581 351.091 155.127C351.891 154.674 352.797 154.447 353.811 154.447C354.824 154.447 355.731 154.674 356.531 155.127C357.331 155.581 357.951 156.214 358.391 157.027C358.844 157.841 359.071 158.761 359.071 159.787C359.071 160.827 358.844 161.754 358.391 162.567C357.951 163.367 357.331 163.994 356.531 164.447C355.744 164.901 354.837 165.127 353.811 165.127ZM353.811 162.647C354.517 162.647 355.077 162.394 355.491 161.887C355.917 161.367 356.131 160.667 356.131 159.787C356.131 158.907 355.917 158.214 355.491 157.707C355.077 157.187 354.517 156.927 353.811 156.927C353.104 156.927 352.544 157.187 352.131 157.707C351.731 158.214 351.531 158.907 351.531 159.787C351.531 160.667 351.731 161.367 352.131 161.887C352.544 162.394 353.104 162.647 353.811 162.647ZM368.154 159.527C368.794 159.767 369.274 160.101 369.594 160.527C369.927 160.954 370.094 161.454 370.094 162.027C370.094 162.867 369.78 163.554 369.154 164.087C368.527 164.621 367.714 164.887 366.714 164.887H360.674V154.687H366.434C367.394 154.687 368.18 154.934 368.794 155.427C369.42 155.921 369.734 156.554 369.734 157.327C369.734 157.821 369.594 158.267 369.314 158.667C369.034 159.054 368.647 159.341 368.154 159.527ZM363.534 156.767V158.827H365.694C366.08 158.827 366.38 158.734 366.594 158.547C366.82 158.361 366.934 158.114 366.934 157.807C366.934 157.487 366.827 157.234 366.614 157.047C366.4 156.861 366.094 156.767 365.694 156.767H363.534ZM365.894 162.807C366.294 162.807 366.607 162.714 366.834 162.527C367.06 162.327 367.174 162.054 367.174 161.707C367.174 161.374 367.06 161.107 366.834 160.907C366.607 160.707 366.294 160.607 365.894 160.607H363.534V162.807H365.894ZM381.667 162.607V164.887C381.373 164.954 381.033 164.987 380.647 164.987C379.913 164.987 379.353 164.814 378.967 164.467C378.593 164.107 378.393 163.614 378.367 162.987H378.267C377.907 163.681 377.42 164.214 376.807 164.587C376.207 164.947 375.513 165.127 374.727 165.127C373.727 165.127 372.9 164.847 372.247 164.287C371.593 163.727 371.267 162.987 371.267 162.067C371.267 161.414 371.44 160.841 371.787 160.347C372.133 159.841 372.613 159.447 373.227 159.167C373.84 158.887 374.54 158.747 375.327 158.747H377.927V158.547C377.927 157.961 377.767 157.514 377.447 157.207C377.14 156.887 376.693 156.727 376.107 156.727C375.093 156.727 374.413 157.167 374.067 158.047L371.567 157.707C371.833 156.681 372.36 155.881 373.147 155.307C373.933 154.734 374.947 154.447 376.187 154.447C377.613 154.447 378.727 154.814 379.527 155.547C380.327 156.267 380.727 157.247 380.727 158.487V161.907C380.727 162.161 380.773 162.341 380.867 162.447C380.96 162.554 381.113 162.607 381.327 162.607H381.667ZM375.567 162.787C376.233 162.787 376.793 162.581 377.247 162.167C377.7 161.754 377.927 161.234 377.927 160.607V160.487H375.767C375.287 160.487 374.893 160.594 374.587 160.807C374.28 161.007 374.127 161.294 374.127 161.667C374.127 162.014 374.26 162.287 374.527 162.487C374.793 162.687 375.14 162.787 375.567 162.787Z" fill="#252219"/>
<path d="M914.08 150.887C915.013 150.887 915.853 151.087 916.6 151.487C917.347 151.874 917.933 152.421 918.36 153.127C918.787 153.821 919 154.614 919 155.507C919 156.401 918.787 157.201 918.36 157.907C917.933 158.601 917.347 159.147 916.6 159.547C915.853 159.934 915.013 160.127 914.08 160.127H911.48V164.887H908.38V150.887H914.08ZM913.6 157.487C914.333 157.487 914.9 157.314 915.3 156.967C915.7 156.621 915.9 156.134 915.9 155.507C915.9 154.881 915.7 154.394 915.3 154.047C914.9 153.701 914.333 153.527 913.6 153.527H911.48V157.487H913.6ZM930.128 162.607V164.887C929.834 164.954 929.494 164.987 929.108 164.987C928.374 164.987 927.814 164.814 927.428 164.467C927.054 164.107 926.854 163.614 926.828 162.987H926.728C926.368 163.681 925.881 164.214 925.268 164.587C924.668 164.947 923.974 165.127 923.188 165.127C922.188 165.127 921.361 164.847 920.708 164.287C920.054 163.727 919.728 162.987 919.728 162.067C919.728 161.414 919.901 160.841 920.248 160.347C920.594 159.841 921.074 159.447 921.688 159.167C922.301 158.887 923.001 158.747 923.788 158.747H926.388V158.547C926.388 157.961 926.228 157.514 925.908 157.207C925.601 156.887 925.154 156.727 924.568 156.727C923.554 156.727 922.874 157.167 922.528 158.047L920.028 157.707C920.294 156.681 920.821 155.881 921.608 155.307C922.394 154.734 923.408 154.447 924.648 154.447C926.074 154.447 927.188 154.814 927.988 155.547C928.788 156.267 929.188 157.247 929.188 158.487V161.907C929.188 162.161 929.234 162.341 929.328 162.447C929.421 162.554 929.574 162.607 929.788 162.607H930.128ZM924.028 162.787C924.694 162.787 925.254 162.581 925.708 162.167C926.161 161.754 926.388 161.234 926.388 160.607V160.487H924.228C923.748 160.487 923.354 160.594 923.048 160.807C922.741 161.007 922.588 161.294 922.588 161.667C922.588 162.014 922.721 162.287 922.988 162.487C923.254 162.687 923.601 162.787 924.028 162.787ZM936.238 165.127C935.198 165.127 934.278 164.907 933.478 164.467C932.678 164.014 932.058 163.381 931.618 162.567C931.178 161.754 930.958 160.827 930.958 159.787C930.958 158.747 931.178 157.827 931.618 157.027C932.058 156.214 932.671 155.581 933.458 155.127C934.258 154.674 935.171 154.447 936.198 154.447C937.425 154.447 938.451 154.767 939.278 155.407C940.118 156.047 940.665 156.934 940.918 158.067L938.318 158.427C938.185 157.947 937.931 157.581 937.558 157.327C937.198 157.061 936.765 156.927 936.258 156.927C935.538 156.927 934.965 157.187 934.538 157.707C934.111 158.214 933.898 158.907 933.898 159.787C933.898 160.681 934.111 161.381 934.538 161.887C934.965 162.394 935.545 162.647 936.278 162.647C936.798 162.647 937.245 162.521 937.618 162.267C937.991 162.001 938.251 161.627 938.398 161.147L940.998 161.507C940.731 162.641 940.178 163.527 939.338 164.167C938.498 164.807 937.465 165.127 936.238 165.127ZM945.336 164.887H942.416V154.687H951.736V164.887H948.816V157.107H945.336V164.887ZM958.58 165.127C957.567 165.127 956.66 164.901 955.86 164.447C955.074 163.994 954.46 163.367 954.02 162.567C953.58 161.754 953.36 160.827 953.36 159.787C953.36 158.761 953.58 157.841 954.02 157.027C954.46 156.214 955.074 155.581 955.86 155.127C956.66 154.674 957.567 154.447 958.58 154.447C959.594 154.447 960.5 154.674 961.3 155.127C962.1 155.581 962.72 156.214 963.16 157.027C963.614 157.841 963.84 158.761 963.84 159.787C963.84 160.827 963.614 161.754 963.16 162.567C962.72 163.367 962.1 163.994 961.3 164.447C960.514 164.901 959.607 165.127 958.58 165.127ZM958.58 162.647C959.287 162.647 959.847 162.394 960.26 161.887C960.687 161.367 960.9 160.667 960.9 159.787C960.9 158.907 960.687 158.214 960.26 157.707C959.847 157.187 959.287 156.927 958.58 156.927C957.874 156.927 957.314 157.187 956.9 157.707C956.5 158.214 956.3 158.907 956.3 159.787C956.3 160.667 956.5 161.367 956.9 161.887C957.314 162.394 957.874 162.647 958.58 162.647ZM966.448 154.687H974.868V164.887H971.948V157.107H969.088L968.948 160.147C968.895 161.387 968.741 162.361 968.488 163.067C968.235 163.774 967.868 164.274 967.388 164.567C966.921 164.861 966.315 165.007 965.568 165.007C965.181 165.007 964.748 164.981 964.268 164.927V162.407H964.768C965.101 162.407 965.361 162.327 965.548 162.167C965.748 162.007 965.895 161.734 965.988 161.347C966.095 160.947 966.168 160.381 966.208 159.647L966.448 154.687ZM981.705 165.127C980.692 165.127 979.785 164.901 978.985 164.447C978.199 163.994 977.585 163.367 977.145 162.567C976.705 161.754 976.485 160.827 976.485 159.787C976.485 158.761 976.705 157.841 977.145 157.027C977.585 156.214 978.199 155.581 978.985 155.127C979.785 154.674 980.692 154.447 981.705 154.447C982.719 154.447 983.625 154.674 984.425 155.127C985.225 155.581 985.845 156.214 986.285 157.027C986.739 157.841 986.965 158.761 986.965 159.787C986.965 160.827 986.739 161.754 986.285 162.567C985.845 163.367 985.225 163.994 984.425 164.447C983.639 164.901 982.732 165.127 981.705 165.127ZM981.705 162.647C982.412 162.647 982.972 162.394 983.385 161.887C983.812 161.367 984.025 160.667 984.025 159.787C984.025 158.907 983.812 158.214 983.385 157.707C982.972 157.187 982.412 156.927 981.705 156.927C980.999 156.927 980.439 157.187 980.025 157.707C979.625 158.214 979.425 158.907 979.425 159.787C979.425 160.667 979.625 161.367 980.025 161.887C980.439 162.394 980.999 162.647 981.705 162.647ZM998.88 159.427L1002.8 164.887H999.52L996.16 160.067V164.887H993.3V160.067L989.94 164.887H986.66L990.6 159.427L987.18 154.687H990.18L993.3 159.107V154.687H996.16V159.107L999.28 154.687H1002.3L998.88 159.427ZM1012.72 159.547C1012.72 159.841 1012.69 160.154 1012.62 160.487H1005.32C1005.43 161.194 1005.69 161.741 1006.12 162.127C1006.55 162.514 1007.11 162.707 1007.8 162.707C1008.27 162.707 1008.67 162.621 1009.02 162.447C1009.37 162.261 1009.65 162.001 1009.86 161.667L1012.4 162.007C1012.07 162.994 1011.49 163.761 1010.68 164.307C1009.88 164.854 1008.92 165.127 1007.8 165.127C1006.77 165.127 1005.86 164.901 1005.06 164.447C1004.26 163.994 1003.63 163.367 1003.18 162.567C1002.74 161.754 1002.52 160.827 1002.52 159.787C1002.52 158.761 1002.74 157.841 1003.18 157.027C1003.62 156.214 1004.23 155.581 1005.02 155.127C1005.81 154.674 1006.69 154.447 1007.68 154.447C1008.64 154.447 1009.5 154.661 1010.26 155.087C1011.03 155.514 1011.63 156.114 1012.06 156.887C1012.5 157.647 1012.72 158.534 1012.72 159.547ZM1007.68 156.727C1007.08 156.727 1006.58 156.901 1006.18 157.247C1005.78 157.581 1005.51 158.061 1005.36 158.687H1010C1009.87 158.074 1009.59 157.594 1009.18 157.247C1008.78 156.901 1008.28 156.727 1007.68 156.727ZM1020.95 158.487V154.687H1023.87V164.887H1020.95V160.907H1017.27V164.887H1014.35V154.687H1017.27V158.487H1020.95ZM1029.01 164.887H1026.03V154.687H1028.81V161.027H1028.91L1032.77 154.687H1035.75V164.887H1032.97V158.547H1032.87L1029.01 164.887ZM1047.56 159.547C1047.56 159.841 1047.53 160.154 1047.46 160.487H1040.16C1040.27 161.194 1040.54 161.741 1040.96 162.127C1041.39 162.514 1041.95 162.707 1042.64 162.707C1043.11 162.707 1043.52 162.621 1043.86 162.447C1044.21 162.261 1044.49 162.001 1044.7 161.667L1047.24 162.007C1046.91 162.994 1046.34 163.761 1045.52 164.307C1044.72 164.854 1043.76 165.127 1042.64 165.127C1041.62 165.127 1040.7 164.901 1039.9 164.447C1039.1 163.994 1038.48 163.367 1038.02 162.567C1037.58 161.754 1037.36 160.827 1037.36 159.787C1037.36 158.761 1037.58 157.841 1038.02 157.027C1038.46 156.214 1039.08 155.581 1039.86 155.127C1040.65 154.674 1041.54 154.447 1042.52 154.447C1043.48 154.447 1044.34 154.661 1045.1 155.087C1045.88 155.514 1046.48 156.114 1046.9 156.887C1047.34 157.647 1047.56 158.534 1047.56 159.547ZM1042.52 156.727C1041.92 156.727 1041.42 156.901 1041.02 157.247C1040.62 157.581 1040.35 158.061 1040.2 158.687H1044.84C1044.71 158.074 1044.44 157.594 1044.02 157.247C1043.62 156.901 1043.12 156.727 1042.52 156.727Z" fill="#252219"/>
<path d="M549.94 156.407V150.887H553.04V164.887H549.94V159.167H544.48V164.887H541.38V150.887H544.48V156.407H549.94ZM565.354 162.607V164.887C565.061 164.954 564.721 164.987 564.334 164.987C563.601 164.987 563.041 164.814 562.654 164.467C562.281 164.107 562.081 163.614 562.054 162.987H561.954C561.594 163.681 561.107 164.214 560.494 164.587C559.894 164.947 559.201 165.127 558.414 165.127C557.414 165.127 556.587 164.847 555.934 164.287C555.281 163.727 554.954 162.987 554.954 162.067C554.954 161.414 555.127 160.841 555.474 160.347C555.821 159.841 556.301 159.447 556.914 159.167C557.527 158.887 558.227 158.747 559.014 158.747H561.614V158.547C561.614 157.961 561.454 157.514 561.134 157.207C560.827 156.887 560.381 156.727 559.794 156.727C558.781 156.727 558.101 157.167 557.754 158.047L555.254 157.707C555.521 156.681 556.047 155.881 556.834 155.307C557.621 154.734 558.634 154.447 559.874 154.447C561.301 154.447 562.414 154.814 563.214 155.547C564.014 156.267 564.414 157.247 564.414 158.487V161.907C564.414 162.161 564.461 162.341 564.554 162.447C564.647 162.554 564.801 162.607 565.014 162.607H565.354ZM559.254 162.787C559.921 162.787 560.481 162.581 560.934 162.167C561.387 161.754 561.614 161.234 561.614 160.607V160.487H559.454C558.974 160.487 558.581 160.594 558.274 160.807C557.967 161.007 557.814 161.294 557.814 161.667C557.814 162.014 557.947 162.287 558.214 162.487C558.481 162.687 558.827 162.787 559.254 162.787ZM569.705 164.887H566.725V154.687H569.505V161.027H569.605L573.465 154.687H576.445V164.887H573.665V158.547H573.565L569.705 164.887ZM586.08 159.527C586.72 159.767 587.2 160.101 587.52 160.527C587.853 160.954 588.02 161.454 588.02 162.027C588.02 162.867 587.706 163.554 587.08 164.087C586.453 164.621 585.64 164.887 584.64 164.887H578.6V154.687H584.36C585.32 154.687 586.106 154.934 586.72 155.427C587.346 155.921 587.66 156.554 587.66 157.327C587.66 157.821 587.52 158.267 587.24 158.667C586.96 159.054 586.573 159.341 586.08 159.527ZM581.46 156.767V158.827H583.62C584.006 158.827 584.306 158.734 584.52 158.547C584.746 158.361 584.86 158.114 584.86 157.807C584.86 157.487 584.753 157.234 584.54 157.047C584.326 156.861 584.02 156.767 583.62 156.767H581.46ZM583.82 162.807C584.22 162.807 584.533 162.714 584.76 162.527C584.986 162.327 585.1 162.054 585.1 161.707C585.1 161.374 584.986 161.107 584.76 160.907C584.533 160.707 584.22 160.607 583.82 160.607H581.46V162.807H583.82ZM594.372 157.827C595.119 157.827 595.779 157.981 596.352 158.287C596.939 158.594 597.392 159.014 597.712 159.547C598.032 160.081 598.192 160.687 598.192 161.367C598.192 162.034 598.032 162.634 597.712 163.167C597.392 163.701 596.939 164.121 596.352 164.427C595.779 164.734 595.119 164.887 594.372 164.887H589.732V154.687H592.652V157.827H594.372ZM599.512 164.887V154.687H602.432V164.887H599.512ZM593.812 162.667C594.279 162.667 594.646 162.547 594.912 162.307C595.192 162.067 595.332 161.734 595.332 161.307C595.332 160.867 595.192 160.527 594.912 160.287C594.646 160.034 594.279 159.907 593.812 159.907H592.532V162.667H593.812ZM609.336 165.127C608.296 165.127 607.376 164.907 606.576 164.467C605.776 164.014 605.156 163.381 604.716 162.567C604.276 161.754 604.056 160.827 604.056 159.787C604.056 158.747 604.276 157.827 604.716 157.027C605.156 156.214 605.769 155.581 606.556 155.127C607.356 154.674 608.269 154.447 609.296 154.447C610.522 154.447 611.549 154.767 612.376 155.407C613.216 156.047 613.762 156.934 614.016 158.067L611.416 158.427C611.282 157.947 611.029 157.581 610.656 157.327C610.296 157.061 609.862 156.927 609.356 156.927C608.636 156.927 608.062 157.187 607.636 157.707C607.209 158.214 606.996 158.907 606.996 159.787C606.996 160.681 607.209 161.381 607.636 161.887C608.062 162.394 608.642 162.647 609.376 162.647C609.896 162.647 610.342 162.521 610.716 162.267C611.089 162.001 611.349 161.627 611.496 161.147L614.096 161.507C613.829 162.641 613.276 163.527 612.436 164.167C611.596 164.807 610.562 165.127 609.336 165.127ZM629.834 164.887H615.514V154.687H618.434V162.407H621.274V154.687H624.074V162.407H626.914V154.687H629.834V164.887ZM641.858 162.607V164.887C641.565 164.954 641.225 164.987 640.838 164.987C640.105 164.987 639.545 164.814 639.158 164.467C638.785 164.107 638.585 163.614 638.558 162.987H638.458C638.098 163.681 637.611 164.214 636.998 164.587C636.398 164.947 635.705 165.127 634.918 165.127C633.918 165.127 633.091 164.847 632.438 164.287C631.785 163.727 631.458 162.987 631.458 162.067C631.458 161.414 631.631 160.841 631.978 160.347C632.325 159.841 632.805 159.447 633.418 159.167C634.031 158.887 634.731 158.747 635.518 158.747H638.118V158.547C638.118 157.961 637.958 157.514 637.638 157.207C637.331 156.887 636.885 156.727 636.298 156.727C635.285 156.727 634.605 157.167 634.258 158.047L631.758 157.707C632.025 156.681 632.551 155.881 633.338 155.307C634.125 154.734 635.138 154.447 636.378 154.447C637.805 154.447 638.918 154.814 639.718 155.547C640.518 156.267 640.918 157.247 640.918 158.487V161.907C640.918 162.161 640.965 162.341 641.058 162.447C641.151 162.554 641.305 162.607 641.518 162.607H641.858ZM635.758 162.787C636.425 162.787 636.985 162.581 637.438 162.167C637.891 161.754 638.118 161.234 638.118 160.607V160.487H635.958C635.478 160.487 635.085 160.594 634.778 160.807C634.471 161.007 634.318 161.294 634.318 161.667C634.318 162.014 634.451 162.287 634.718 162.487C634.985 162.687 635.331 162.787 635.758 162.787ZM652.188 154.687V164.887H649.248V161.407H647.548L645.528 164.887H642.348L644.888 160.967C644.288 160.701 643.815 160.314 643.468 159.807C643.122 159.287 642.948 158.707 642.948 158.067C642.948 157.427 643.108 156.854 643.428 156.347C643.762 155.827 644.222 155.421 644.808 155.127C645.408 154.834 646.088 154.687 646.848 154.687H652.188ZM647.328 156.907C646.862 156.907 646.495 157.021 646.228 157.247C645.962 157.461 645.828 157.767 645.828 158.167C645.828 158.567 645.962 158.881 646.228 159.107C646.495 159.321 646.862 159.427 647.328 159.427H649.328V156.907H647.328ZM663.876 164.887H660.936V157.167H657.796V154.687H667.016V157.167H663.876V164.887ZM672.576 165.127C671.563 165.127 670.656 164.901 669.856 164.447C669.07 163.994 668.456 163.367 668.016 162.567C667.576 161.754 667.356 160.827 667.356 159.787C667.356 158.761 667.576 157.841 668.016 157.027C668.456 156.214 669.07 155.581 669.856 155.127C670.656 154.674 671.563 154.447 672.576 154.447C673.59 154.447 674.496 154.674 675.296 155.127C676.096 155.581 676.716 156.214 677.156 157.027C677.61 157.841 677.836 158.761 677.836 159.787C677.836 160.827 677.61 161.754 677.156 162.567C676.716 163.367 676.096 163.994 675.296 164.447C674.51 164.901 673.603 165.127 672.576 165.127ZM672.576 162.647C673.283 162.647 673.843 162.394 674.256 161.887C674.683 161.367 674.896 160.667 674.896 159.787C674.896 158.907 674.683 158.214 674.256 157.707C673.843 157.187 673.283 156.927 672.576 156.927C671.87 156.927 671.31 157.187 670.896 157.707C670.496 158.214 670.296 158.907 670.296 159.787C670.296 160.667 670.496 161.367 670.896 161.887C671.31 162.394 671.87 162.647 672.576 162.647ZM685.339 154.687H688.259V164.887H685.339V161.407C684.646 161.861 683.839 162.087 682.919 162.087C681.746 162.087 680.806 161.727 680.099 161.007C679.393 160.287 679.039 159.301 679.039 158.047V154.687H681.959V157.787C681.959 159.001 682.526 159.607 683.659 159.607C684.313 159.607 684.873 159.414 685.339 159.027V154.687ZM696.256 159.447L700.576 164.887H697.096L693.336 160.007V164.887H690.416V154.687H693.336V159.167L696.836 154.687H700.076L696.256 159.447ZM710.979 162.607V164.887C710.686 164.954 710.346 164.987 709.959 164.987C709.226 164.987 708.666 164.814 708.279 164.467C707.906 164.107 707.706 163.614 707.679 162.987H707.579C707.219 163.681 706.732 164.214 706.119 164.587C705.519 164.947 704.826 165.127 704.039 165.127C703.039 165.127 702.212 164.847 701.559 164.287C700.906 163.727 700.579 162.987 700.579 162.067C700.579 161.414 700.752 160.841 701.099 160.347C701.446 159.841 701.926 159.447 702.539 159.167C703.152 158.887 703.852 158.747 704.639 158.747H707.239V158.547C707.239 157.961 707.079 157.514 706.759 157.207C706.452 156.887 706.006 156.727 705.419 156.727C704.406 156.727 703.726 157.167 703.379 158.047L700.879 157.707C701.146 156.681 701.672 155.881 702.459 155.307C703.246 154.734 704.259 154.447 705.499 154.447C706.926 154.447 708.039 154.814 708.839 155.547C709.639 156.267 710.039 157.247 710.039 158.487V161.907C710.039 162.161 710.086 162.341 710.179 162.447C710.272 162.554 710.426 162.607 710.639 162.607H710.979ZM704.879 162.787C705.546 162.787 706.106 162.581 706.559 162.167C707.012 161.754 707.239 161.234 707.239 160.607V160.487H705.079C704.599 160.487 704.206 160.594 703.899 160.807C703.592 161.007 703.439 161.294 703.439 161.667C703.439 162.014 703.572 162.287 703.839 162.487C704.106 162.687 704.452 162.787 704.879 162.787Z" fill="#252219"/>
<path d="M578.284 109.367H581.964V114.447H578.284V120.887H572.084V114.447H559.684V109.167L571.644 92.8872H578.284V109.367ZM572.484 99.8072H572.284L565.364 109.367H572.484V99.8072ZM601.073 106.207C602.593 106.874 603.78 107.834 604.633 109.087C605.513 110.314 605.953 111.687 605.953 113.207C605.953 114.807 605.486 116.221 604.553 117.447C603.62 118.674 602.313 119.634 600.633 120.327C598.98 121.021 597.113 121.367 595.033 121.367C592.953 121.367 591.086 121.021 589.433 120.327C587.78 119.634 586.486 118.674 585.553 117.447C584.62 116.221 584.153 114.807 584.153 113.207C584.153 111.687 584.58 110.314 585.433 109.087C586.313 107.834 587.5 106.874 588.993 106.207C587.713 105.621 586.713 104.807 585.993 103.767C585.3 102.727 584.953 101.541 584.953 100.207C584.953 98.6872 585.38 97.3405 586.233 96.1672C587.113 94.9939 588.313 94.0739 589.833 93.4072C591.38 92.7405 593.113 92.4072 595.033 92.4072C596.953 92.4072 598.673 92.7405 600.193 93.4072C601.74 94.0739 602.953 94.9939 603.833 96.1672C604.713 97.3405 605.153 98.6872 605.153 100.207C605.153 101.541 604.793 102.727 604.073 103.767C603.38 104.807 602.38 105.621 601.073 106.207ZM595.033 97.4472C593.833 97.4472 592.833 97.7539 592.033 98.3672C591.26 98.9805 590.873 99.8072 590.873 100.847C590.873 101.887 591.26 102.714 592.033 103.327C592.833 103.941 593.833 104.247 595.033 104.247C596.233 104.247 597.22 103.941 597.993 103.327C598.793 102.714 599.193 101.887 599.193 100.847C599.193 99.8072 598.806 98.9805 598.033 98.3672C597.26 97.7539 596.26 97.4472 595.033 97.4472ZM595.033 116.207C596.366 116.207 597.486 115.874 598.393 115.207C599.3 114.514 599.753 113.594 599.753 112.447C599.753 111.274 599.3 110.354 598.393 109.687C597.486 108.994 596.366 108.647 595.033 108.647C593.7 108.647 592.58 108.994 591.673 109.687C590.793 110.354 590.353 111.274 590.353 112.447C590.353 113.594 590.793 114.514 591.673 115.207C592.58 115.874 593.7 116.207 595.033 116.207ZM624.725 106.367C626.378 106.954 627.645 107.847 628.525 109.047C629.405 110.247 629.845 111.674 629.845 113.327C629.845 114.954 629.418 116.381 628.565 117.607C627.712 118.807 626.485 119.741 624.885 120.407C623.312 121.047 621.485 121.367 619.405 121.367C616.285 121.367 613.725 120.634 611.725 119.167C609.752 117.701 608.458 115.567 607.845 112.767L613.645 112.047C614.445 114.661 616.272 115.967 619.125 115.967C620.538 115.967 621.645 115.661 622.445 115.047C623.245 114.434 623.645 113.594 623.645 112.527C623.645 111.514 623.245 110.701 622.445 110.087C621.672 109.447 620.618 109.127 619.285 109.127H615.925V104.127H619.165C620.338 104.127 621.272 103.847 621.965 103.287C622.685 102.701 623.045 101.914 623.045 100.927C623.045 99.9405 622.685 99.1539 621.965 98.5672C621.245 97.9805 620.285 97.6872 619.085 97.6872C617.805 97.6872 616.725 97.9939 615.845 98.6072C614.992 99.2205 614.378 100.114 614.005 101.287L608.445 100.607C609.058 98.0205 610.312 96.0072 612.205 94.5672C614.125 93.1272 616.498 92.4072 619.325 92.4072C621.192 92.4072 622.858 92.7272 624.325 93.3672C625.818 94.0072 626.978 94.9005 627.805 96.0472C628.658 97.1939 629.085 98.5139 629.085 100.007C629.085 101.421 628.698 102.687 627.925 103.807C627.178 104.901 626.112 105.754 624.725 106.367ZM644.91 102.287C646.643 102.287 648.19 102.687 649.55 103.487C650.91 104.261 651.963 105.354 652.71 106.767C653.456 108.181 653.83 109.794 653.83 111.607C653.83 113.554 653.39 115.261 652.51 116.727C651.656 118.194 650.43 119.341 648.83 120.167C647.256 120.967 645.403 121.367 643.27 121.367C641.376 121.367 639.643 121.034 638.07 120.367C636.523 119.701 635.23 118.767 634.19 117.567C633.176 116.367 632.523 114.967 632.23 113.367L638.27 112.607C638.67 113.674 639.296 114.501 640.15 115.087C641.003 115.674 642.003 115.967 643.15 115.967C644.51 115.967 645.59 115.554 646.39 114.727C647.216 113.901 647.63 112.807 647.63 111.447C647.63 110.087 647.243 109.021 646.47 108.247C645.723 107.447 644.696 107.047 643.39 107.047C642.51 107.047 641.696 107.234 640.95 107.607C640.203 107.954 639.59 108.461 639.11 109.127H633.43L634.79 92.8872H652.71V98.0472H639.79L639.23 104.167H639.43C640.096 103.554 640.896 103.087 641.83 102.767C642.79 102.447 643.816 102.287 644.91 102.287ZM671.526 120.887H666.086V100.487H673.286L678.886 114.447H679.086L684.646 100.487H691.606V120.887H686.126V108.167H685.926L680.806 120.887H676.886L671.726 108.167H671.526V120.887Z" fill="#252219"/>
<path d="M830.644 102.287C832.377 102.287 833.924 102.687 835.284 103.487C836.644 104.261 837.697 105.354 838.444 106.767C839.191 108.181 839.564 109.794 839.564 111.607C839.564 113.554 839.124 115.261 838.244 116.727C837.391 118.194 836.164 119.341 834.564 120.167C832.991 120.967 831.137 121.367 829.004 121.367C827.111 121.367 825.377 121.034 823.804 120.367C822.257 119.701 820.964 118.767 819.924 117.567C818.911 116.367 818.257 114.967 817.964 113.367L824.004 112.607C824.404 113.674 825.031 114.501 825.884 115.087C826.737 115.674 827.737 115.967 828.884 115.967C830.244 115.967 831.324 115.554 832.124 114.727C832.951 113.901 833.364 112.807 833.364 111.447C833.364 110.087 832.977 109.021 832.204 108.247C831.457 107.447 830.431 107.047 829.124 107.047C828.244 107.047 827.431 107.234 826.684 107.607C825.937 107.954 825.324 108.461 824.844 109.127H819.164L820.524 92.8872H838.444V98.0472H825.524L824.964 104.167H825.164C825.831 103.554 826.631 103.087 827.564 102.767C828.524 102.447 829.551 102.287 830.644 102.287ZM850.73 120.887H844.09L853.89 98.6072V98.4072H840.69V92.8872H860.25V98.6072L850.73 120.887ZM869.457 102.607C867.857 102.607 866.51 102.087 865.417 101.047C864.35 99.9805 863.817 98.6605 863.817 97.0872C863.817 95.5139 864.35 94.2072 865.417 93.1672C866.51 92.1005 867.857 91.5672 869.457 91.5672C871.057 91.5672 872.403 92.1005 873.497 93.1672C874.59 94.2072 875.137 95.5139 875.137 97.0872C875.137 98.6605 874.59 99.9805 873.497 101.047C872.403 102.087 871.057 102.607 869.457 102.607ZM869.457 99.6072C870.123 99.6072 870.683 99.3672 871.137 98.8872C871.59 98.4072 871.817 97.8072 871.817 97.0872C871.817 96.3672 871.59 95.7672 871.137 95.2872C870.683 94.7805 870.123 94.5272 869.457 94.5272C868.79 94.5272 868.23 94.7805 867.777 95.2872C867.35 95.7672 867.137 96.3672 867.137 97.0872C867.137 97.8072 867.35 98.4072 867.777 98.8872C868.23 99.3672 868.79 99.6072 869.457 99.6072ZM896.222 121.367C894.142 121.367 892.302 120.927 890.702 120.047C889.102 119.141 887.862 117.874 886.982 116.247C886.102 114.621 885.662 112.767 885.662 110.687C885.662 108.607 886.102 106.767 886.982 105.167C887.862 103.541 889.089 102.274 890.662 101.367C892.262 100.461 894.089 100.007 896.142 100.007C898.595 100.007 900.649 100.647 902.302 101.927C903.982 103.207 905.075 104.981 905.582 107.247L900.382 107.967C900.115 107.007 899.609 106.274 898.862 105.767C898.142 105.234 897.275 104.967 896.262 104.967C894.822 104.967 893.675 105.487 892.822 106.527C891.969 107.541 891.542 108.927 891.542 110.687C891.542 112.474 891.969 113.874 892.822 114.887C893.675 115.901 894.835 116.407 896.302 116.407C897.342 116.407 898.235 116.154 898.982 115.647C899.729 115.114 900.249 114.367 900.542 113.407L905.742 114.127C905.209 116.394 904.102 118.167 902.422 119.447C900.742 120.727 898.675 121.367 896.222 121.367ZM914.178 120.887H908.098V114.807H914.178V120.887ZM955.46 120.887H926.82V100.487H932.66V115.927H938.34V100.487H943.94V115.927H949.62V100.487H955.46V120.887ZM965.389 120.887H959.309V114.807H965.389V120.887ZM981.33 120.887V103.047H975.77V97.7672H979.93C980.517 97.7672 980.943 97.6339 981.21 97.3672C981.503 97.0739 981.65 96.6339 981.65 96.0472V92.8872H987.37V120.887H981.33ZM1003.09 121.367C999.565 121.367 996.805 120.167 994.805 117.767C992.832 115.367 991.845 111.981 991.845 107.607C991.845 104.541 992.312 101.861 993.245 99.5672C994.178 97.2739 995.512 95.5139 997.245 94.2872C998.978 93.0339 1001.02 92.4072 1003.37 92.4072C1005.85 92.4072 1007.98 93.0472 1009.77 94.3272C1011.55 95.6072 1012.71 97.3405 1013.25 99.5272L1007.65 100.287C1007.3 99.4339 1006.77 98.7939 1006.05 98.3672C1005.33 97.9139 1004.5 97.6872 1003.57 97.6872C1001.89 97.6872 1000.54 98.3805 999.525 99.7672C998.512 101.154 997.952 103.087 997.845 105.567H998.045C998.658 104.634 999.525 103.901 1000.65 103.367C1001.79 102.834 1003.07 102.567 1004.49 102.567C1006.19 102.567 1007.74 102.967 1009.13 103.767C1010.54 104.541 1011.65 105.621 1012.45 107.007C1013.25 108.394 1013.65 109.954 1013.65 111.687C1013.65 113.527 1013.19 115.194 1012.29 116.687C1011.41 118.154 1010.17 119.301 1008.57 120.127C1006.97 120.954 1005.14 121.367 1003.09 121.367ZM1002.93 116.087C1004.21 116.087 1005.27 115.674 1006.13 114.847C1007.01 113.994 1007.45 112.941 1007.45 111.687C1007.45 110.434 1007.01 109.394 1006.13 108.567C1005.27 107.741 1004.21 107.327 1002.93 107.327C1001.65 107.327 1000.57 107.754 999.685 108.607C998.805 109.434 998.365 110.461 998.365 111.687C998.365 112.914 998.805 113.954 999.685 114.807C1000.57 115.661 1001.65 116.087 1002.93 116.087ZM1028.05 121.367C1025.79 121.367 1023.77 120.754 1022.01 119.527C1020.25 118.301 1018.89 116.594 1017.93 114.407C1016.97 112.221 1016.49 109.714 1016.49 106.887C1016.49 104.061 1016.97 101.554 1017.93 99.3672C1018.89 97.1805 1020.25 95.4739 1022.01 94.2472C1023.77 93.0205 1025.79 92.4072 1028.05 92.4072C1030.32 92.4072 1032.33 93.0205 1034.09 94.2472C1035.85 95.4739 1037.21 97.1805 1038.17 99.3672C1039.13 101.554 1039.61 104.061 1039.61 106.887C1039.61 109.714 1039.13 112.221 1038.17 114.407C1037.21 116.594 1035.85 118.301 1034.09 119.527C1032.33 120.754 1030.32 121.367 1028.05 121.367ZM1028.05 115.967C1029.76 115.967 1031.11 115.167 1032.09 113.567C1033.08 111.941 1033.57 109.714 1033.57 106.887C1033.57 104.061 1033.08 101.847 1032.09 100.247C1031.11 98.6205 1029.76 97.8072 1028.05 97.8072C1026.35 97.8072 1025 98.6205 1024.01 100.247C1023.03 101.847 1022.53 104.061 1022.53 106.887C1022.53 109.714 1023.03 111.941 1024.01 113.567C1025 115.167 1026.35 115.967 1028.05 115.967ZM1047.5 102.607C1045.9 102.607 1044.56 102.087 1043.46 101.047C1042.4 99.9805 1041.86 98.6605 1041.86 97.0872C1041.86 95.5139 1042.4 94.2072 1043.46 93.1672C1044.56 92.1005 1045.9 91.5672 1047.5 91.5672C1049.1 91.5672 1050.45 92.1005 1051.54 93.1672C1052.64 94.2072 1053.18 95.5139 1053.18 97.0872C1053.18 98.6605 1052.64 99.9805 1051.54 101.047C1050.45 102.087 1049.1 102.607 1047.5 102.607ZM1047.5 99.6072C1048.17 99.6072 1048.73 99.3672 1049.18 98.8872C1049.64 98.4072 1049.86 97.8072 1049.86 97.0872C1049.86 96.3672 1049.64 95.7672 1049.18 95.2872C1048.73 94.7805 1048.17 94.5272 1047.5 94.5272C1046.84 94.5272 1046.28 94.7805 1045.82 95.2872C1045.4 95.7672 1045.18 96.3672 1045.18 97.0872C1045.18 97.8072 1045.4 98.4072 1045.82 98.8872C1046.28 99.3672 1046.84 99.6072 1047.5 99.6072ZM1079.75 110.167C1081.03 110.647 1081.99 111.314 1082.63 112.167C1083.3 113.021 1083.63 114.021 1083.63 115.167C1083.63 116.847 1083 118.221 1081.75 119.287C1080.5 120.354 1078.87 120.887 1076.87 120.887H1064.79V100.487H1076.31C1078.23 100.487 1079.8 100.981 1081.03 101.967C1082.28 102.954 1082.91 104.221 1082.91 105.767C1082.91 106.754 1082.63 107.647 1082.07 108.447C1081.51 109.221 1080.74 109.794 1079.75 110.167ZM1070.51 104.647V108.767H1074.83C1075.6 108.767 1076.2 108.581 1076.63 108.207C1077.08 107.834 1077.31 107.341 1077.31 106.727C1077.31 106.087 1077.1 105.581 1076.67 105.207C1076.24 104.834 1075.63 104.647 1074.83 104.647H1070.51ZM1075.23 116.727C1076.03 116.727 1076.66 116.541 1077.11 116.167C1077.56 115.767 1077.79 115.221 1077.79 114.527C1077.79 113.861 1077.56 113.327 1077.11 112.927C1076.66 112.527 1076.03 112.327 1075.23 112.327H1070.51V116.727H1075.23ZM1092.65 120.887H1086.57V114.807H1092.65V120.887ZM1124.42 115.927H1127.94V126.487H1122.86V120.887H1108.42V126.487H1103.34V115.927H1105.94C1106.34 115.394 1106.64 114.687 1106.86 113.807C1107.07 112.901 1107.2 111.741 1107.26 110.327L1107.78 100.487H1124.42V115.927ZM1118.66 115.927V105.167H1112.9L1112.66 110.447C1112.6 111.807 1112.47 112.914 1112.26 113.767C1112.04 114.621 1111.72 115.341 1111.3 115.927H1118.66ZM1136.95 120.887H1130.87V114.807H1136.95V120.887Z" fill="#252219"/>
<line x1="272" y1="58.8872" x2="272" y2="3.88721" stroke="#252219" stroke-width="4"/>
<line x1="624" y1="58.8872" x2="624" y2="3.88721" stroke="#252219" stroke-width="4"/>
<line x1="976" y1="58.8872" x2="976" y2="3.88721" stroke="#252219" stroke-width="4"/>
<line x1="1273" y1="115.887" x2="1273" y2="3.88721" stroke="#252219" stroke-width="4"/>
</svg>
